<svg xmlns="http://www.w3.org/2000/svg" width="10" height="12" viewBox="0 0 10 12">
  <path id="icon_14" d="M9.076,38.214,5.221,42.192a.307.307,0,0,1-.443,0L.924,38.214a.328.328,0,0,1,0-.455l.185-.19a.307.307,0,0,1,.443,0l3.005,3.107V32.321A.318.318,0,0,1,4.87,32h.26a.318.318,0,0,1,.312.321v8.354l3.005-3.1a.307.307,0,0,1,.443,0l.185.19A.325.325,0,0,1,9.076,38.214ZM10,43.679v-.214a.318.318,0,0,0-.312-.321H.313A.318.318,0,0,0,0,43.464v.214A.318.318,0,0,0,.313,44H9.688A.318.318,0,0,0,10,43.679Z" transform="translate(0 -32)" fill="#ff8a4c"/>
</svg>
