<svg xmlns="http://www.w3.org/2000/svg" width="12" height="12" viewBox="0 0 12 12">
  <path id="icon_3" d="M17.1,13.613v.774a.291.291,0,0,1-.29.29H14.677v2.129a.291.291,0,0,1-.29.29h-.774a.291.291,0,0,1-.29-.29V14.677H11.194a.291.291,0,0,1-.29-.29v-.774a.291.291,0,0,1,.29-.29h2.129V11.194a.291.291,0,0,1,.29-.29h.774a.291.291,0,0,1,.29.29v2.129h2.129A.291.291,0,0,1,17.1,13.613ZM20,14a6,6,0,1,1-6-6A6,6,0,0,1,20,14Zm-1.161,0A4.839,4.839,0,1,0,14,18.839,4.837,4.837,0,0,0,18.839,14Z" transform="translate(-8 -8)" fill="#737373"/>
</svg>
