<svg xmlns="http://www.w3.org/2000/svg" width="16" height="16" viewBox="0 0 16 16">
  <path id="icon_09" d="M9.75,6.125v.75a.376.376,0,0,1-.375.375H7.25V9.375a.376.376,0,0,1-.375.375h-.75a.376.376,0,0,1-.375-.375V7.25H3.625a.376.376,0,0,1-.375-.375v-.75a.376.376,0,0,1,.375-.375H5.75V3.625a.376.376,0,0,1,.375-.375h.75a.376.376,0,0,1,.375.375V5.75H9.375A.376.376,0,0,1,9.75,6.125Zm6.14,9.059-.706.706a.375.375,0,0,1-.531,0L10.859,12.1a.371.371,0,0,1-.109-.266v-.412a6.5,6.5,0,1,1,.669-.669h.412a.384.384,0,0,1,.266.109l3.794,3.794A.375.375,0,0,1,15.89,15.184ZM11.5,6.5a5,5,0,1,0-5,5A5,5,0,0,0,11.5,6.5Z"/>
</svg>
