<svg xmlns="http://www.w3.org/2000/svg" width="42.516" height="38.963" viewBox="0 0 42.516 38.963">
  <path id="icon_21" d="M1187.119,1993.509a1.679,1.679,0,0,1,.215-1.213,22.442,22.442,0,0,0,2.7-7.367,29.315,29.315,0,0,0,.519-3.793c.081-1.258.1-2.52.142-3.78a1.016,1.016,0,0,0-.01-.1h-7.167a3.53,3.53,0,0,1-3.49-3.083,3.778,3.778,0,0,1-.029-.452q0-7.075,0-14.151a3.527,3.527,0,0,1,3.427-3.561c.072,0,.146,0,.219,0,3.477,0,6.954-.005,10.431,0a3.548,3.548,0,0,1,3.632,3.631q0,8.767,0,17.532a23.5,23.5,0,0,1-1.348,7.991,22.96,22.96,0,0,1-3.876,6.85,18.612,18.612,0,0,1-2.462,2.525,1.8,1.8,0,0,1-1.163.431A1.764,1.764,0,0,1,1187.119,1993.509Zm25.125.742a1.657,1.657,0,0,1-.183-1.806c.2-.429.468-.829.686-1.251a22.594,22.594,0,0,0,1.917-5.461,30.83,30.83,0,0,0,.707-4.883c.067-1.1.085-2.2.124-3.293,0-.094,0-.188,0-.3h-7.2a3.531,3.531,0,0,1-3.464-3.038,4.472,4.472,0,0,1-.035-.57q0-7.025,0-14.049a3.515,3.515,0,0,1,2.847-3.523,3.844,3.844,0,0,1,.769-.068q5.241-.007,10.481,0a3.523,3.523,0,0,1,3.556,2.934,3,3,0,0,1,.051.568c0,6.028.032,12.058-.008,18.086a22.622,22.622,0,0,1-4.171,13.04,20.712,20.712,0,0,1-3.212,3.653,1.911,1.911,0,0,1-1.479.677A1.673,1.673,0,0,1,1212.244,1994.251Z" transform="translate(-1180 -1956)" fill="#53b374" opacity="0.17"/>
</svg>
