<svg xmlns="http://www.w3.org/2000/svg" width="32" height="32" viewBox="0 0 32 32">
  <g id="icon_20" transform="translate(-402 -3103)">
    <circle id="Эллипс_78" data-name="Эллипс 78" cx="16" cy="16" r="16" transform="translate(402 3103)" fill="#f2f4f6"/>
    <path id="icon_" d="M40.637,80.066,32.1,88.6l-3.136-3.136a.389.389,0,0,0-.551,0l-.918.918a.389.389,0,0,0,0,.551l4.329,4.329a.389.389,0,0,0,.551,0l9.729-9.729a.389.389,0,0,0,0-.551l-.918-.918A.389.389,0,0,0,40.637,80.066Z" transform="translate(383.199 3033.336)" fill="#53b374"/>
  </g>
</svg>
