<svg xmlns="http://www.w3.org/2000/svg" width="18" height="18" viewBox="0 0 18 18">
  <g id="icon_26" transform="translate(-1269 -391)">
    <rect id="Прямоугольник_21229" data-name="Прямоугольник 21229" width="18" height="18" transform="translate(1269 391)" fill="#fff" opacity="0"/>
    <path id="mailbox" d="M4.5,64A4.5,4.5,0,0,0,0,68.5V75a1,1,0,0,0,1,1H9V68.5A4.5,4.5,0,0,0,4.5,64ZM7,69.5a.5.5,0,0,1-.5.5h-4a.5.5,0,0,1-.5-.5v-1a.5.5,0,0,1,.5-.5h4a.5.5,0,0,1,.5.5ZM13.5,64H7.652A5.494,5.494,0,0,1,10,68.5V76h7a1,1,0,0,0,1-1V68.5A4.5,4.5,0,0,0,13.5,64ZM16,70.5a.5.5,0,0,1-.5.5h-1a.5.5,0,0,1-.5-.5V69H12.25a.25.25,0,0,1-.25-.25v-.5a.25.25,0,0,1,.25-.25H15.5a.5.5,0,0,1,.5.5Z" transform="translate(1269 330)" fill="#ff8a4c"/>
  </g>
</svg>
