<svg xmlns="http://www.w3.org/2000/svg" width="15" height="20" viewBox="0 0 15 20">
  <path id="icon_17" d="M13.125,10H3.75V6.249c0-2.758.992-5,3.75-5s3.75,2.242,3.75,5V7.03a.47.47,0,0,0,.469.469h.312A.47.47,0,0,0,12.5,7.03V6.308C12.5,2.855,10.973.011,7.52,0S2.5,2.8,2.5,6.249V10H1.875A1.875,1.875,0,0,0,0,11.874v6.25A1.875,1.875,0,0,0,1.875,20h11.25A1.875,1.875,0,0,0,15,18.124v-6.25A1.875,1.875,0,0,0,13.125,10Zm.625,8.125a.627.627,0,0,1-.625.625H1.875a.627.627,0,0,1-.625-.625v-6.25a.627.627,0,0,1,.625-.625h11.25a.627.627,0,0,1,.625.625ZM7.5,16.874a.627.627,0,0,1-.625-.625v-2.5a.625.625,0,0,1,1.25,0v2.5A.627.627,0,0,1,7.5,16.874Z" transform="translate(0 0.001)" fill="#737373"/>
</svg>
