<svg xmlns="http://www.w3.org/2000/svg" width="40" height="40" viewBox="0 0 40 40">
  <g id="icon_18" transform="translate(-419 -1705)">
    <rect id="Прямоугольник_403" data-name="Прямоугольник 403" width="40" height="40" rx="5" transform="translate(419 1705)" fill="#53b374"/>
    <path id="vector-square" d="M21.86,5.753A1.15,1.15,0,0,0,23.011,4.6V1.151A1.15,1.15,0,0,0,21.86,0H18.409a1.15,1.15,0,0,0-1.151,1.151V2.157H5.753V1.151A1.15,1.15,0,0,0,4.6,0H1.151A1.15,1.15,0,0,0,0,1.151V4.6A1.15,1.15,0,0,0,1.151,5.753H2.157V17.258H1.151A1.15,1.15,0,0,0,0,18.409V21.86a1.15,1.15,0,0,0,1.151,1.151H4.6A1.15,1.15,0,0,0,5.753,21.86V20.853H17.258V21.86a1.15,1.15,0,0,0,1.151,1.151H21.86a1.15,1.15,0,0,0,1.151-1.151V18.409a1.15,1.15,0,0,0-1.151-1.151H20.853V5.753ZM18.7,1.438h2.876V4.315H18.7ZM1.438,4.315V1.438H4.315V4.315ZM4.315,21.573H1.438V18.7H4.315ZM21.573,18.7v2.876H18.7V18.7Zm-2.157-1.438H18.409a1.15,1.15,0,0,0-1.151,1.151v1.007H5.753V18.409A1.15,1.15,0,0,0,4.6,17.258H3.6V5.753H4.6A1.15,1.15,0,0,0,5.753,4.6V3.6H17.258V4.6a1.15,1.15,0,0,0,1.151,1.151h1.007Z" transform="translate(427.495 1713.495)" fill="#fff"/>
  </g>
</svg>
