<svg xmlns="http://www.w3.org/2000/svg" xmlns:xlink="http://www.w3.org/1999/xlink" width="38" height="49" viewBox="0 0 38 49">
  <defs>
    <filter id="map-marker" x="0" y="0" width="38" height="49" filterUnits="userSpaceOnUse">
      <feOffset dy="1" input="SourceAlpha"/>
      <feGaussianBlur stdDeviation="1" result="blur"/>
      <feFlood flood-opacity="0.231"/>
      <feComposite operator="in" in2="blur"/>
      <feComposite in="SourceGraphic"/>
    </filter>
  </defs>
  <g id="icon_10" transform="translate(-1266 -4760)">
    <g transform="matrix(1, 0, 0, 1, 1266, 4760)" filter="url(#map-marker)">
      <path id="map-marker-2" data-name="map-marker" d="M14.356,42.132C2.247,24.442,0,22.626,0,16.125a16,16,0,1,1,32,0c0,6.5-2.247,8.317-14.356,26.007a1.992,1.992,0,0,1-3.289,0Z" transform="translate(3 2)" fill="#53b374"/>
    </g>
    <path id="home" d="M9.72,36.2l-6.4,5.424v5.854a.564.564,0,0,0,.556.571l3.891-.01a.564.564,0,0,0,.553-.571V44.05a.564.564,0,0,1,.556-.571h2.222a.564.564,0,0,1,.556.571v3.416a.58.58,0,0,0,.162.405.548.548,0,0,0,.393.168l3.889.011a.564.564,0,0,0,.556-.571V41.621l-6.4-5.42A.414.414,0,0,0,9.72,36.2Zm10.111,3.686-2.9-2.461V32.479a.423.423,0,0,0-.417-.429H14.567a.423.423,0,0,0-.417.429v2.594l-3.108-2.631a1.63,1.63,0,0,0-2.118,0L.136,39.887a.437.437,0,0,0-.056.6L.966,41.6a.413.413,0,0,0,.282.154.409.409,0,0,0,.305-.1l8.167-6.92a.414.414,0,0,1,.531,0l8.167,6.92A.409.409,0,0,0,19,41.6l.885-1.107a.437.437,0,0,0,.093-.315A.432.432,0,0,0,19.831,39.887Z" transform="translate(1275.016 4737.95)" fill="#fff"/>
  </g>
</svg>
