<svg xmlns="http://www.w3.org/2000/svg" width="16" height="20" viewBox="0 0 16 20">
  <path id="icon_16" d="M2305.31,2583.553c-.039-.726-.074-1.423-.113-2.119q-.115-2.05-.232-4.1c-.011-.2-.028-.4-.034-.6a.6.6,0,0,1,.6-.631q1.934-.01,3.868,0a.592.592,0,0,1,.6.646q-.167,3-.337,6.008c-.014.254-.024.509-.038.789.073,0,.144.009.215.009.734,0,1.468-.006,2.2,0a3.5,3.5,0,0,1,3.373,2.949,4.895,4.895,0,0,1,.046.641q0,4.106,0,8.212a1.026,1.026,0,0,1-.05.354.555.555,0,0,1-.491.372,2.37,2.37,0,0,1-.246.011h-14.424a2.01,2.01,0,0,1-.287-.017.588.588,0,0,1-.479-.465,1.963,1.963,0,0,1-.019-.3q0-4.066,0-8.132a3.53,3.53,0,0,1,3.45-3.625c.713-.009,1.427,0,2.14,0Zm8.9,11.281v-5.927h-13.468v5.925h2.2v-.233q0-.976,0-1.952a.586.586,0,0,1,.332-.56.611.611,0,0,1,.914.541c.009.664,0,1.328,0,1.992,0,.071.006.141.01.214h4.338v-.249c0-1.2,0-2.4,0-3.6a.612.612,0,0,1,.3-.6.619.619,0,0,1,.939.547c0,1.221,0,2.442,0,3.663v.235h1.172c0-.106,0-.2,0-.291,0-.537-.009-1.074.018-1.609a.587.587,0,0,1,.651-.56.606.606,0,0,1,.587.627c0,.449,0,.9,0,1.348v.485Zm-13.531-7.186h13.565a8.311,8.311,0,0,0-.087-1.108,2.266,2.266,0,0,0-2.3-1.769q-4.384-.014-8.767,0a2.235,2.235,0,0,0-2.237,1.549A7.627,7.627,0,0,0,2300.676,2587.648Zm7.695-4.1c.117-2.085.233-4.15.348-6.219h-2.5c.117,2.083.233,4.149.349,6.219Z" transform="translate(-2299.468 -2576.096)" fill="#737373"/>
</svg>
