<svg xmlns="http://www.w3.org/2000/svg" width="20" height="17" viewBox="0 0 20 17">
  <path id="icon_12" d="M18.047,33.167a5.456,5.456,0,0,0-7.289.512l-.77.774-.77-.77a5.485,5.485,0,0,0-7.289-.516,5.339,5.339,0,0,0-.387,7.885L9.1,48.634A1.247,1.247,0,0,0,9.984,49a1.231,1.231,0,0,0,.883-.368l7.559-7.582A5.332,5.332,0,0,0,18.047,33.167Zm-.512,7.043L10,47.791,2.441,40.21a4.144,4.144,0,0,1,.3-6.117c2.141-1.776,4.656-.489,5.578.436L9.988,36.2l1.668-1.674c.906-.911,3.445-2.2,5.578-.436a4.147,4.147,0,0,1,.3,6.117Z" transform="translate(0.012 -32.002)" fill="#737373"/>
</svg>
