<svg xmlns="http://www.w3.org/2000/svg" width="32" height="32" viewBox="0 0 32 32">
  <g id="judicial_03" transform="translate(-402 -3327)">
    <circle id="Эллипс_69" data-name="Эллипс 69" cx="16" cy="16" r="16" transform="translate(402 3327)" fill="#53b374" opacity="0.24"/>
    <path id="folders" d="M16.71,1.806H11.29L9.748.264A.9.9,0,0,0,9.11,0H4.968A1.355,1.355,0,0,0,3.613,1.355V3.613H1.355A1.355,1.355,0,0,0,0,4.968V13.1a1.355,1.355,0,0,0,1.355,1.355H13.1A1.355,1.355,0,0,0,14.452,13.1V10.839H16.71a1.355,1.355,0,0,0,1.355-1.355V3.161A1.355,1.355,0,0,0,16.71,1.806ZM13.1,13.1H1.355V4.968H3.613V9.484a1.355,1.355,0,0,0,1.355,1.355H13.1ZM16.71,9.484H4.968V1.355H8.923L10.465,2.9a.9.9,0,0,0,.639.264H16.71Z" transform="translate(408.968 3335.774)" fill="#53b374"/>
  </g>
</svg>
