<svg xmlns="http://www.w3.org/2000/svg" width="32" height="32" viewBox="0 0 32 32">
  <g id="judicial_01" transform="translate(-140 -17982)">
    <circle id="Эллипс_162" data-name="Эллипс 162" cx="16" cy="16" r="16" transform="translate(140 17982)" fill="#53b374" opacity="0.24"/>
    <path id="badge-percent" d="M10.677,5.677l-.353-.353a.5.5,0,0,0-.707,0L5.323,9.616a.5.5,0,0,0,0,.707l.353.353a.5.5,0,0,0,.707,0l4.293-4.293a.5.5,0,0,0,0-.707ZM6,7A1,1,0,1,0,5,6,1,1,0,0,0,6,7Zm4,2a1,1,0,1,0,1,1A1,1,0,0,0,10,9Zm6-1a3.237,3.237,0,0,0-1.459-2.709,3.245,3.245,0,0,0-3.831-3.831,3.245,3.245,0,0,0-5.419,0A3.245,3.245,0,0,0,1.459,5.291a3.245,3.245,0,0,0,0,5.419,3.245,3.245,0,0,0,3.831,3.831,3.245,3.245,0,0,0,5.419,0,3.245,3.245,0,0,0,3.831-3.831A3.242,3.242,0,0,0,16,8ZM12.616,9.916c.284.622.947,1.712-.022,2.681-.875.875-1.728.453-2.681.022C9.672,13.262,9.372,14.5,8,14.5c-1.416,0-1.709-1.337-1.912-1.881-.659.3-1.716.944-2.684-.025-1-1-.263-2.153-.022-2.681C2.737,9.672,1.5,9.372,1.5,8c0-1.416,1.338-1.709,1.884-1.916C3.1,5.463,2.438,4.372,3.406,3.4c1-1,2.153-.263,2.681-.022C6.328,2.737,6.628,1.5,8,1.5c1.416,0,1.709,1.338,1.913,1.888.622-.284,1.712-.947,2.681.022,1,1,.262,2.153.022,2.681C13.259,6.331,14.5,6.631,14.5,8c0,1.416-1.337,1.709-1.881,1.913Z" transform="translate(148 17990)" fill="#53b374"/>
  </g>
</svg>
