<svg xmlns="http://www.w3.org/2000/svg" width="32" height="32" viewBox="0 0 32 32">
  <g id="judicial_02" transform="translate(-195 -17982)">
    <circle id="Эллипс_163" data-name="Эллипс 163" cx="16" cy="16" r="16" transform="translate(195 17982)" fill="#ffdcc9"/>
    <path id="ruble-sign" d="M6.331,39.564A3.574,3.574,0,0,0,10,35.756,3.532,3.532,0,0,0,6.331,32H1.979a.317.317,0,0,0-.313.321V38.1H.313A.317.317,0,0,0,0,38.423v.819a.317.317,0,0,0,.313.321H1.667v1.008H.313A.317.317,0,0,0,0,40.893v.643a.317.317,0,0,0,.313.321H1.667v1.821A.317.317,0,0,0,1.979,44H3.021a.317.317,0,0,0,.313-.321V41.857H8.021a.317.317,0,0,0,.313-.321v-.643a.317.317,0,0,0-.312-.321H3.333V39.564h3Zm-3-6.1h2.75a2.092,2.092,0,0,1,2.247,2.295A2.136,2.136,0,0,1,6.067,38.1H3.333Z" transform="translate(206 17960)" fill="#ff8a4c"/>
  </g>
</svg>
