<svg xmlns="http://www.w3.org/2000/svg" width="17.996" height="24" viewBox="0 0 17.996 24">
  <path id="judicial_file-pdf" d="M17.336,4.493,13.4.561A2.25,2.25,0,0,0,11.815-.1H2.25A2.257,2.257,0,0,0,0,2.154v19.5A2.25,2.25,0,0,0,2.25,23.9h13.5A2.25,2.25,0,0,0,18,21.65V6.086A2.261,2.261,0,0,0,17.336,4.493ZM16.277,5.557a.737.737,0,0,1,.2.347H12V1.428a.737.737,0,0,1,.347.2ZM15.747,22.4H2.25a.752.752,0,0,1-.75-.75V2.154a.752.752,0,0,1,.75-.75H10.5V6.278A1.122,1.122,0,0,0,11.623,7.4H16.5V21.65A.752.752,0,0,1,15.747,22.4Zm-1.031-8.023c-.633-.623-2.578-.431-3.454-.314A4.906,4.906,0,0,1,9.148,11.41a6.849,6.849,0,0,0,.3-3.042,1.1,1.1,0,0,0-2.09-.319A7.883,7.883,0,0,0,7.752,11.7a45.119,45.119,0,0,1-1.973,4.152c-.975.5-2.535,1.373-2.756,2.456-.164.787,1.073,1.847,2.489.3a12.54,12.54,0,0,0,1.467-2.132,27.245,27.245,0,0,1,3.843-1.125,7.15,7.15,0,0,0,3.028.933,1.136,1.136,0,0,0,.867-1.9ZM3.974,18.548a6.546,6.546,0,0,1,1.664-1.912C4.6,18.29,3.974,18.581,3.974,18.548ZM8.436,8.13c.408,0,.366,1.757.1,2.231A4.554,4.554,0,0,1,8.436,8.13ZM7.1,15.6a21.983,21.983,0,0,0,1.35-2.985A6.105,6.105,0,0,0,10.1,14.555,17.132,17.132,0,0,0,7.1,15.6Zm7.189-.277s-.272.328-2.039-.426C14.177,14.752,14.491,15.192,14.294,15.319Z" transform="translate(0 0.1)" fill="#d00"/>
</svg>
