<svg xmlns="http://www.w3.org/2000/svg" width="24.998" height="22.001" viewBox="0 0 24.998 22.001">
  <g id="conveniences_06" transform="translate(0.498 -1.5)">
    <path id="Объединение_2" data-name="Объединение 2" d="M1.961,21a1.683,1.683,0,0,1-.41-.031.449.449,0,0,1-.355-.5c0-1.15,0-2.3,0-3.45q0-2.975,0-5.949a.446.446,0,0,0-.189-.386A2.613,2.613,0,0,1,.018,8.727C-.013,8.136,0,7.543.014,6.951A.857.857,0,0,1,.143,6.57C.832,5.353,1.532,4.143,2.216,2.923a1.128,1.128,0,0,0,.135-.506c.016-.6,0-1.2.007-1.8C2.36.154,2.515,0,2.983,0h18.1c.467,0,.623.156.624.616,0,.661-.006,1.322.007,1.983a1,1,0,0,0,.122.458C22.511,4.232,23.2,5.4,23.873,6.575A1,1,0,0,1,24,7.057a20.04,20.04,0,0,1-.056,2.029,2.347,2.347,0,0,1-.9,1.569.5.5,0,0,0-.2.436q.007,4.571,0,9.142a2.978,2.978,0,0,1-.022.358.412.412,0,0,1-.384.386,2.915,2.915,0,0,1-.386.022H12.02Q6.99,21,1.961,21Zm3.13-.967h3.64v-6.59H5.091Zm3.923-7.554c.531,0,.674.141.674.67V20.03H21.877V11.276a2.86,2.86,0,0,1-2.953-1.149,2.8,2.8,0,0,1-4.612,0,2.8,2.8,0,0,1-4.606.008,2.827,2.827,0,0,1-4.623.008,2.856,2.856,0,0,1-2.929,1.142v8.745H4.136V19.7q0-3.3,0-6.592c0-.473.16-.631.636-.631H9.014ZM19.406,8.6a1.829,1.829,0,0,0,3.062,1.3c.777-.693.592-1.611.6-2.492H19.4C19.4,7.821,19.391,8.213,19.406,8.6ZM.95,8.591A1.85,1.85,0,0,0,2.717,10.4,1.811,1.811,0,0,0,4.578,8.876a9.767,9.767,0,0,0,.013-1.454H.949C.949,7.824.937,8.208.95,8.591Zm9.246.149A1.778,1.778,0,0,0,11.5,10.319,1.86,1.86,0,0,0,13.449,9.7c.554-.693.352-1.494.389-2.282H10.192C10.192,7.872,10.169,8.308,10.2,8.741Zm-4.61.026a1.774,1.774,0,0,0,1.285,1.546,1.856,1.856,0,0,0,1.951-.6c.58-.7.346-1.51.4-2.3H5.581C5.581,7.88,5.557,8.325,5.586,8.767ZM14.8,8.6a1.812,1.812,0,0,0,1.535,1.769,1.771,1.771,0,0,0,2.021-1.248A10.862,10.862,0,0,0,18.5,7.423H14.794C14.794,7.827,14.792,8.213,14.8,8.6Zm3.42-5.311a.443.443,0,0,0-.107.031c.38,1.013.752,2.014,1.135,3.011a.248.248,0,0,0,.186.118c1.075.007,2.152,0,3.253,0a.655.655,0,0,0-.031-.106c-.569-.978-1.135-1.957-1.711-2.93a.3.3,0,0,0-.22-.126q-.6-.006-1.2-.005Zm-14.967,0a.365.365,0,0,0-.242.174c-.522.9-1.033,1.8-1.547,2.7-.049.086-.089.176-.147.289,1.129,0,2.222,0,3.316-.008.068,0,.168-.1.2-.175.263-.677.515-1.36.769-2.04.113-.3.224-.6.338-.912a.49.49,0,0,0-.1-.031l-1.334,0C4.081,3.283,3.665,3.285,3.248,3.29ZM14.129,3.4c.19.974.378,1.948.577,2.92a.23.23,0,0,0,.175.127c1.118.007,2.236.005,3.353.005.005-.031.014-.049.01-.063-.37-.994-.738-1.988-1.118-2.978a.278.278,0,0,0-.212-.122c-.31-.013-.619-.006-.93-.006H14.136A.665.665,0,0,0,14.129,3.4ZM7.1,3.29a.3.3,0,0,0-.2.173c-.2.517-.393,1.04-.587,1.562L5.78,6.437H9.319c.206-1.049.41-2.086.614-3.118a.3.3,0,0,0-.071-.028c-.549,0-1.1,0-1.646,0Q7.656,3.285,7.1,3.29Zm3.766.184c-.066.4-.157.787-.234,1.183-.115.587-.227,1.174-.344,1.777H13.76c-.193-.994-.384-1.967-.572-2.941-.028-.14-.078-.217-.25-.214-.611.012-1.223.007-1.834,0H11.1C10.958,3.28,10.889,3.318,10.863,3.474ZM3.331,2.315H20.742V.95H3.331ZM15.86,18.292h-3.7c-.475,0-.623-.144-.623-.607V13.078c0-.438.163-.6.611-.6H19.57c.435,0,.6.175.6.615V17.7c0,.427-.166.592-.591.592H15.86ZM12.5,17.337h6.719V13.444H12.5Zm-4.912.139a.74.74,0,0,1-.741-.733A.756.756,0,0,1,7.588,16a.741.741,0,0,1,.747.753.728.728,0,0,1-.743.718Z" transform="translate(0 2.001)" stroke="rgba(0,0,0,0)" stroke-width="1"/>
  </g>
</svg>
