<svg xmlns="http://www.w3.org/2000/svg" width="22" height="24" viewBox="0 0 22 24">
  <g id="conveniences_04" transform="translate(-1)">
    <path id="Контур_36" data-name="Контур 36" d="M1136.978,2548.826a9.278,9.278,0,0,1-10.753,0l-1.48,2.253q-.984,1.5-1.97,3a.586.586,0,1,1-1.058-.5,2.306,2.306,0,0,1,.169-.284c1.134-1.73,2.27-3.459,3.382-5.154-.385-.422-.773-.82-1.133-1.245a14.059,14.059,0,0,1-3.237-7.521c-.08-.645-.112-1.3-.147-1.946-.026-.482.185-.71.65-.723.393-.011.787,0,1.2,0v-1.915c-.471,0-.942.007-1.414,0a.564.564,0,0,1-.562-.727.55.55,0,0,1,.537-.456c.241-.011.484,0,.725,0h6.326a8.3,8.3,0,0,1,.344-1.437,2.627,2.627,0,0,1,2.235-1.684,6.763,6.763,0,0,1,1.9.046,2.888,2.888,0,0,1,2.231,2.783c0,.083,0,.166,0,.293h7.016a.623.623,0,0,1,.673.6.61.61,0,0,1-.677.589c-.437,0-.875,0-1.33,0v1.913h1.046c.636,0,.814.187.8.854a14.735,14.735,0,0,1-2.586,8.3,23.976,23.976,0,0,1-1.7,1.97c-.077.088-.171.162-.271.255l1.369,2.077q1.047,1.589,2.092,3.179a1.372,1.372,0,0,1,.156.291.6.6,0,0,1-.266.718.543.543,0,0,1-.687-.108,2.161,2.161,0,0,1-.193-.268l-3.226-4.91C1137.087,2548.98,1137.034,2548.907,1136.978,2548.826Zm-15.059-10.918a13.869,13.869,0,0,0,.863,4.378,11.072,11.072,0,0,0,4.674,5.886,7.747,7.747,0,0,0,5.165,1.1,8.9,8.9,0,0,0,5.739-3.359,13.139,13.139,0,0,0,2.8-6.6c.068-.463.089-.933.133-1.409Zm17.5-3.108h-15.648v1.873h15.648Zm-5.7-1.229a1.648,1.648,0,0,0-1.069-1.82,3.5,3.5,0,0,0-1.935-.048,1.712,1.712,0,0,0-1.283,1.868Z" transform="translate(-1119.609 -2530.42)"/>
  </g>
</svg>
