<svg xmlns="http://www.w3.org/2000/svg" width="25" height="21" viewBox="0 0 25 21">
  <g id="conveniences_01" transform="translate(0.5 -1.5)">
    <path id="Объединение_5" data-name="Объединение 5" d="M.561,20A.52.52,0,0,1,0,19.44c-.006-.1,0-.2,0-.3Q0,9.995,0,.849C0,.15.145,0,.821,0h5c.541,0,.726.186.728.732,0,.478,0,.956,0,1.483H23.206c.637,0,.793.161.794.815q0,1.138,0,2.275c0,.647-.156.8-.8.8H6.544v.386q0,6.317,0,12.634c0,.11,0,.22,0,.329A.515.515,0,0,1,6,20q-1.371,0-2.743,0Q1.907,20,.561,20Zm.56-1.131H5.449V6.122H1.121ZM1.13,4.978H5.449V1.131H1.13Zm18.529,0H22.9V3.363H19.66Zm-13.1,0H9.8V3.369H6.561Zm4.375-.005h3.23V3.363h-3.23Zm4.369,0h3.223V3.361H15.3ZM3.235,8.881a.5.5,0,0,1-.47-.536.545.545,0,0,1,.558-.557.606.606,0,0,1,.5.632.542.542,0,0,1-.546.463Z" transform="translate(0 2)" stroke="rgba(0,0,0,0)" stroke-miterlimit="10" stroke-width="1"/>
  </g>
</svg>
