<svg xmlns="http://www.w3.org/2000/svg" width="17.004" height="25.005" viewBox="0 0 17.004 25.005">
  <g id="conveniences_08" transform="translate(-3.5 0.505)">
    <path id="Объединение_24" data-name="Объединение 24" d="M6626.518,19.995a.585.585,0,0,1-.633-.638.594.594,0,0,1,.662-.583c.479,0,.957,0,1.435,0,.494,0,.988,0,1.482,0a.621.621,0,0,1,.663.619.585.585,0,0,1-.646.6q-.748.005-1.5.005T6626.518,19.995Zm-.983-2.562a.617.617,0,1,1-.005-1.228q2.46-.007,4.92,0a.594.594,0,0,1,.672.626c0,.38-.256.6-.69.6h-4.9Zm-1.12-2.946a.647.647,0,0,1,.153-.724.311.311,0,0,0,.045-.24,7.86,7.86,0,0,0-1.4-2.634c-.632-.894-1.295-1.767-1.9-2.68a7.442,7.442,0,0,1-1.23-3.051A7.641,7.641,0,0,1,6620.9.385a7.771,7.771,0,0,1,6.057-4.312,7.937,7.937,0,0,1,8.578,5.353,6.97,6.97,0,0,1-.521,6.122c-.626,1.047-1.381,2.013-2.056,3.031-.441.667-.85,1.357-1.258,2.046a3.021,3.021,0,0,0-.234.6.677.677,0,0,0,.071.718.588.588,0,0,1-.453.9c-.062.006-.126,0-.188,0h-2.9c-.981,0-1.962,0-2.944,0h-.007A.619.619,0,0,1,6624.415,14.487Zm1.516-16.9a6.648,6.648,0,0,0-4.506,4.9,5.692,5.692,0,0,0,.407,4.136,18.045,18.045,0,0,0,1.708,2.634,15.278,15.278,0,0,1,1.947,3.071c.179.421.3.865.46,1.31h4.174c.064-.239.122-.471.191-.7a9.9,9.9,0,0,1,1.4-2.669c.734-1.084,1.5-2.15,2.179-3.267a5.858,5.858,0,0,0,.47-5.087,6.574,6.574,0,0,0-2.518-3.4,6.557,6.557,0,0,0-3.809-1.278A6.642,6.642,0,0,0,6625.931-2.409Zm1.821,14.125a.643.643,0,0,1-.356-.647c0-1.293,0-2.587,0-3.881a.58.58,0,0,0-.183-.459c-.584-.58-1.157-1.171-1.733-1.76a.642.642,0,0,1-.042-.934.615.615,0,0,1,.9.048c.491.495.978.994,1.466,1.49.06.061.121.119.258.251a1.175,1.175,0,0,1,.139-.249q.727-.752,1.463-1.493a.61.61,0,0,1,.9-.046.64.64,0,0,1-.031.919c-.59.608-1.189,1.207-1.774,1.82a.559.559,0,0,0-.142.347c-.01,1.317,0,2.635-.008,3.952a.64.64,0,0,1-.6.7A.622.622,0,0,1,6627.752,11.717Z" transform="translate(-6616 4)" stroke="rgba(0,0,0,0)" stroke-miterlimit="10" stroke-width="1" fill="#53B374"/>
  </g>
</svg>
