<svg id="conveniences_03" xmlns="http://www.w3.org/2000/svg" width="24" height="24" viewBox="0 0 24 24">
  <path id="Контур_17" data-name="Контур 17" d="M1128.822,2543.566h6.407v-.33c0-1.618,0-3.235,0-4.853a1.873,1.873,0,1,1,3.735.035c-.009,3.216,0,6.432,0,9.648,0,.5.008,1,0,1.493a.289.289,0,0,0,.22.316,1.278,1.278,0,0,0,1.422-.308,2.272,2.272,0,0,1,1.98-.606,2.754,2.754,0,0,1,.6.182,1.245,1.245,0,0,1,.854,1.319c-.039,3.053-.017,6.106-.017,9.159,0,.6-.162.766-.766.766h-22.464c-.562,0-.749-.188-.749-.761q0-4.709,0-9.418a.923.923,0,0,1,.422-.822,2.337,2.337,0,0,1,2.982.16,1.3,1.3,0,0,0,1.333.367.412.412,0,0,0,.342-.465c-.012-2.728-.01-5.456-.006-8.184,0-1.072-.019-2.145.035-3.214a1.677,1.677,0,0,1,1.219-1.547,1.751,1.751,0,0,1,1.943.471,1.88,1.88,0,0,1,.521,1.409c-.011,1.608,0,3.216,0,4.824Zm14.1,15.727c.007-.065.015-.1.015-.139q0-4.364-.007-8.727a.4.4,0,0,0-.189-.3,1.235,1.235,0,0,0-1.492.293,2.341,2.341,0,0,1-3.136.023,1.339,1.339,0,0,0-1.967-.013,2.311,2.311,0,0,1-3.152-.019,1.355,1.355,0,0,0-1.9-.015,2.368,2.368,0,0,1-3.205.021,1.284,1.284,0,0,0-1.919.007,2.756,2.756,0,0,1-.807.471,2.34,2.34,0,0,1-2.461-.566,1.19,1.19,0,0,0-1.3-.243.387.387,0,0,0-.282.424c.01,2.823.006,5.646.006,8.469v.313Zm-15.148-10.3v-.175q0-5.2,0-10.395a1.622,1.622,0,0,0-.041-.369.749.749,0,0,0-.724-.582.781.781,0,0,0-.829.881q0,5.24,0,10.481c0,.065.009.131.011.159Zm10.115,0v-.158q0-5.224,0-10.449a1.646,1.646,0,0,0-.006-.172.789.789,0,0,0-.711-.74.776.776,0,0,0-.847.613,1.776,1.776,0,0,0-.038.426q0,5.109,0,10.219v.261Zm-9.06-1.647c0,.8,0,1.58.007,2.362,0,.057.1.138.163.164a1.225,1.225,0,0,0,1.375-.259,2.343,2.343,0,0,1,1.709-.682,2.384,2.384,0,0,1,1.62.692,1.239,1.239,0,0,0,1.3.279.29.29,0,0,0,.234-.33c-.012-.583,0-1.167,0-1.75v-.476Zm6.388-2.676h-6.37v1.57h6.37Z" transform="translate(-1120.035 -2536.388)"/>
</svg>
