<svg xmlns="http://www.w3.org/2000/svg" width="17" height="24" viewBox="0 0 17 24">
  <g id="conveniences_12" transform="translate(-4)">
    <path id="Объединение_20" data-name="Объединение 20" d="M-7656.477,957c-.084,0-.168-.006-.251-.006h-15.518a1.465,1.465,0,0,1-.335-.025.5.5,0,0,1-.41-.492c0-.049,0-.1,0-.147V944.974q0-5.667,0-11.335c0-.47.263-.6.609-.635.056-.005.112,0,.168,0h15.616c.419,0,.607.188.607.608V938.7q0,7.322,0,14.645,0,1.5,0,3.006a.782.782,0,0,1-.135.5.383.383,0,0,1-.324.154Zm-15.486-1.014h14.944V934.032h-14.944Zm1.625-2.245c-.264-.007-.38-.126-.39-.39,0-.1,0-.195,0-.292q0-4,0-8,0-4.2,0-8.4a.927.927,0,0,1,.009-.156.224.224,0,0,1,.223-.211c.118-.012.237-.016.356-.016h11.4a1.771,1.771,0,0,1,.25.017.224.224,0,0,1,.211.211,2.172,2.172,0,0,1,.018.282q0,4.116,0,8.233v8.16c0,.08,0,.16-.007.241-.012.242-.095.321-.34.323-.189,0-.378,0-.567,0-.787,0-1.574,0-2.362,0l-8.159,0-.4,0C-7670.169,953.744-7670.254,953.744-7670.338,953.741Zm6.344-8.05c0,.021,0,.042,0,.063v6.713c0,.028,0,.056,0,.084,0,.138.03.164.166.173.035,0,.07,0,.1,0,.609,0,1.218-.007,1.827-.006.8,0,1.6,0,2.393.006.193,0,.207-.015.207-.209v-6.776c0-.249-.007-.253-.261-.251-.746.006-1.491.012-2.236.014-.668,0-1.336,0-2-.006h0C-7663.968,945.5-7663.992,945.525-7663.994,945.692Zm-5.511-.2c-.169.012-.188.033-.188.206,0,.359.006.719.007,1.078q0,1.162,0,2.325c0,.579,0,1.159,0,1.738,0,.3-.005.607-.007.911,0,.265,0,.531,0,.8,0,.139.037.171.175.177h4.272c.039,0,.077,0,.115-.007a.128.128,0,0,0,.133-.133c0-.042,0-.084,0-.125q0-1.995,0-3.99c0-.9,0-1.808,0-2.712,0-.241-.033-.27-.273-.268-.612.005-1.224.013-1.836.013-.725,0-1.449,0-2.173-.006-.058,0-.117,0-.174,0Zm10.048-1.01c.145,0,.163-.016.166-.162,0-.115-.005-.23-.005-.345q0-1.55,0-3.1h0V937.5c0-.188-.015-.2-.2-.2l-2.278,0c-.668,0-1.336,0-2,0-.181,0-.211.031-.214.214,0,.014,0,.028,0,.042v6.692c0,.042,0,.084.006.125a.116.116,0,0,0,.122.117c.042,0,.083,0,.126,0h4.283Zm-5.729,0c.161,0,.19-.028.193-.189,0-.136,0-.272,0-.408v-5.016c0-.457,0-.914,0-1.372,0-.178-.034-.208-.21-.208h-4.293c-.168,0-.2.028-.2.195,0,.359.006.719.006,1.078q0,1.162,0,2.325h-.007v3.393c0,.185.018.2.2.2h4.3Zm3.6,6.665,1.35-1.515.69.66-1.342,1.5Zm-7.474-12.116,1.2-1.361.768.676-1.193,1.352Z" transform="translate(7676.999 -933)" fill="#53B374"/>
  </g>
</svg>
