<svg xmlns="http://www.w3.org/2000/svg" width="24" height="22" viewBox="0 0 24 22">
  <g id="conveniences_09" transform="translate(0 -1)">
    <path id="Контур_8477" data-name="Контур 8477" d="M760.676,412.132c-.5,0-.988.023-1.469,0a6.233,6.233,0,0,1-5.691-5.04,11.933,11.933,0,0,1-.111-2.533c0-.016.016-.033.036-.071h3.826V403.2h-1.256v-1.282h3.867v1.268H758.61v1.283H765.7c.006-.088.016-.167.016-.247,0-2.146,0-4.292,0-6.438a2.118,2.118,0,0,0-1.244-2.057,2.259,2.259,0,0,0-3.281,1.865c-.015.356,0,.714,0,1.093h.62v1.286h-3.2v-1.28H759.9c0-.355,0-.685,0-1.014a3.344,3.344,0,0,1,1.17-2.587,3.678,3.678,0,0,1,3.888-.563,3.463,3.463,0,0,1,2.03,2.722,3.84,3.84,0,0,1,.021.607q0,3.136,0,6.272v.341h5.835V403.2h-1.269v-1.289h3.846v1.27h-1.245v1.294h3.174c.019.046.038.07.038.094a15.22,15.22,0,0,1-.094,2.4,5.877,5.877,0,0,1-.677,1.944,6.171,6.171,0,0,1-4.279,3.127,9.329,9.329,0,0,1-1.555.122c-.445.019-.892,0-1.362,0-.079.28-.158.551-.233.823a4.284,4.284,0,0,1-6.818,2.262,4.281,4.281,0,0,1-1.511-2.42Zm15.42-6.358H754.728a.47.47,0,0,0-.022.069.611.611,0,0,0,0,.083,4.791,4.791,0,0,0,1.534,3.579,5.085,5.085,0,0,0,3.624,1.391q5.389,0,10.777,0a8.19,8.19,0,0,0,.864-.037,4.889,4.889,0,0,0,4.166-2.941A4.964,4.964,0,0,0,776.1,405.774Zm-8.047,6.416h-6a3.015,3.015,0,0,0,6,0Z" transform="translate(-753.389 -393.207)" fill="#53B374"/>
  </g>
</svg>
