<svg xmlns="http://www.w3.org/2000/svg" width="25" height="23" viewBox="0 0 25 23">
  <g id="conveniences_05" transform="translate(0.5 -0.5)">
    <path id="Объединение_6" data-name="Объединение 6" d="M2.3,22c-.566,0-.737-.169-.737-.74q0-3.356,0-6.712v-.4c-.338,0-.628,0-.917,0-.4-.005-.655-.222-.646-.546s.255-.507.651-.512c.289,0,.578,0,.89,0V7.331c-.232,0-.464,0-.7,0a.525.525,0,0,1-.509-.8C1.354,4.476,2.378,2.427,3.393.375A.685.685,0,0,1,4.109,0q6.14.005,12.28,0H19.5c.192,0,.384,0,.576,0a.514.514,0,0,1,.489.311q1.535,3.089,3.08,6.174c.241.483.017.836-.522.841-.213,0-.427,0-.654,0v5.76c.244,0,.493,0,.741,0a1.944,1.944,0,0,1,.416.043.5.5,0,0,1,0,.968,4.711,4.711,0,0,1-.7.046c-.147.006-.3,0-.476,0v.355q0,3.37,0,6.74c0,.578-.177.753-.757.753H2.3Zm7.634-1.066H14.07V14.162H9.935Zm-7.311,0H8.836V14.151c-.163,0-.3.008-.443,0A.529.529,0,1,1,8.4,13.093c.056,0,.112,0,.169,0H15.43a1.908,1.908,0,0,1,.2,0,.527.527,0,1,1-.009,1.053c-.147.012-.295,0-.457,0v6.778h6.217V7.331h-.321c-1.565,0-3.131,0-4.7,0a.918.918,0,0,1-.66-.246c-.63-.563-1.269-1.115-1.9-1.671l-1.788-1.56c-.086.07-.159.127-.228.187C10.622,5.058,9.46,6.068,8.307,7.087a.919.919,0,0,1-.658.249c-1.575-.009-3.149,0-4.724,0h-.3ZM12.52,2.9c1.215,1.062,2.427,2.129,3.651,3.181a.831.831,0,0,0,.492.192c1.79.014,3.581.008,5.371.008h.3c-.036-.094-.054-.156-.083-.212-.8-1.61-1.611-3.218-2.408-4.831a.3.3,0,0,0-.331-.179q-7.522,0-15.044,0a.341.341,0,0,0-.361.225c-.78,1.58-1.571,3.154-2.358,4.731-.036.073-.067.149-.11.247.1.009.169.022.24.022,1.847,0,3.693,0,5.54-.007a.668.668,0,0,0,.389-.17c1.228-1.062,2.448-2.133,3.67-3.2A.867.867,0,0,1,12,2.62.858.858,0,0,1,12.52,2.9Zm5.249,14.64a.5.5,0,0,1-.538-.522q-.016-1.042,0-2.084a.5.5,0,0,1,.531-.535c.683-.019,1.367-.02,2.05,0,.37.011.544.231.546.614q.006.958,0,1.916c0,.425-.2.611-.623.613-.318,0-.637,0-.955,0h-.614C18.034,17.544,17.9,17.544,17.769,17.542Zm.534-1.056h.989V15.472H18.3ZM4.229,17.542a.508.508,0,0,1-.575-.517c-.017-.694-.016-1.389,0-2.084a.5.5,0,0,1,.531-.54q1.024-.03,2.049,0c.374.011.544.223.546.609q.006.972,0,1.943c0,.408-.2.589-.612.591-.318,0-.636,0-.955,0h-.6Zm.471-1.07H5.732v-.995H4.7Zm13.064-3.642a.5.5,0,0,1-.536-.555c-.008-.676-.01-1.352,0-2.028a.515.515,0,0,1,.568-.556h1.011c.328,0,.655-.006.983,0a.514.514,0,0,1,.566.556q.015,1.014,0,2.028a.509.509,0,0,1-.542.554q-.514.009-1.028.009T17.765,12.831Zm.537-1.052h1v-1h-1ZM4.193,12.832a.5.5,0,0,1-.539-.526q-.024-1.041,0-2.084a.5.5,0,0,1,.564-.527q1-.011,1.994,0c.376,0,.557.2.568.582,0,.019,0,.038,0,.056q0,.465,0,.929c0,.338.005.676,0,1.014a.5.5,0,0,1-.536.556q-.508.009-1.016.009T4.193,12.832Zm.511-2.08v1.023H5.748c0-.3.007-.576-.006-.846,0-.061-.076-.166-.12-.169-.155-.008-.31-.01-.467-.01Zm4.943-1.9a2.356,2.356,0,1,1,2.359,2.421H12A2.369,2.369,0,0,1,9.648,8.852Zm1.058.027a1.3,1.3,0,1,0,1.318-1.271h-.011A1.271,1.271,0,0,0,10.706,8.879Z" transform="translate(0 1)" stroke="rgba(0,0,0,0)" stroke-width="1"/>
  </g>
</svg>
