<svg xmlns="http://www.w3.org/2000/svg" width="24" height="20" viewBox="0 0 24 20">
  <g id="conveniences_02" transform="translate(0 -2)">
    <g id="Сгруппировать_58" data-name="Сгруппировать 58" transform="translate(-675 -1414)">
      <path id="Контур_37" data-name="Контур 37" d="M902.99,2445.6q-5.565,0-11.13,0a2.317,2.317,0,0,1-.411-.035.431.431,0,0,1-.374-.41,2.219,2.219,0,0,1-.028-.338q0-9.233,0-18.465a1.492,1.492,0,0,1,.023-.249.472.472,0,0,1,.442-.462,2.14,2.14,0,0,1,.316-.025h22.412a2.367,2.367,0,0,1,.33.024c.318.046.452.219.474.61.006.1,0,.207,0,.311q0,9.055,0,18.11a3.434,3.434,0,0,1-.027.485.451.451,0,0,1-.457.438c-.2.013-.395.021-.592.021q-4.786-.005-9.571-.013Zm5.929-5.9h.167c1.559,0,3.117,0,4.676,0,.141,0,.176-.041.176-.19q-.006-3.9,0-7.792v-.177h-5.015Zm-11.756-8.179h-.156c-1.558,0-3.116,0-4.674,0-.146,0-.173.049-.173.192q.006,3.895,0,7.789v.175h5Zm5.3,12.879v-.165c0-1.044,0-2.089,0-3.133,0-.144-.037-.18-.169-.18q-4.985.005-9.971,0c-.049,0-.1,0-.148.007v3.469Zm1.171.008h.161q4.986,0,9.973,0c.134,0,.168-.04.167-.181-.005-1.04,0-2.08,0-3.12,0-.053,0-.106-.007-.162H903.636Zm-11.454-17.6v3.451h10.268v-3.451Zm11.454,3.461h10.281v-3.448H903.635Zm.01,9.424a.788.788,0,0,0,.089.01c1.3,0,2.6,0,3.9,0,.115,0,.124-.054.124-.151q0-1.6,0-3.192c0-.047-.006-.094-.01-.144h-4.1Zm-5.288-4.707c.042,0,.069.008.1.008q1.944,0,3.887,0c.111,0,.126-.048.126-.15,0-1.059,0-2.118,0-3.177,0-.048,0-.1-.008-.148h-4.1Zm4.1,1.235h-4.116v3.441h4.116Zm1.176-1.227h4.1v-3.449h-4.1Z" transform="translate(-216.045 -1009.611)"/>
    </g>
  </g>
</svg>
