<svg xmlns="http://www.w3.org/2000/svg" width="25" height="23" viewBox="0 0 25 23">
  <g id="conveniences_11" transform="translate(0.5 -0.5)">
    <path id="Объединение_26" data-name="Объединение 26" d="M6620.726,18h-.04a.985.985,0,0,1-.333-.036.543.543,0,0,1-.35-.516c-.006-.071,0-.143,0-.214Q6620,7,6620-3.234a1.515,1.515,0,0,1,.035-.352.514.514,0,0,1,.464-.4,1.956,1.956,0,0,1,.212,0h4.621q8.969,0,17.938-.006a.642.642,0,0,1,.728.732q-.008,10.28,0,20.561a.8.8,0,0,1-.111.476.458.458,0,0,1-.367.224c-.1.007-.2.007-.306.007h-22.487Zm.377-1.111h21.79V-2.889H6621.1Zm4.794-2.079a3.474,3.474,0,1,1,.022,0Zm-2.361-3.521a2.384,2.384,0,1,0,2.395-2.389h-.04A2.4,2.4,0,0,0,6623.536,11.287Zm8.1.014a3.475,3.475,0,1,1,3.492,3.507h-.018A3.494,3.494,0,0,1,6631.636,11.3Zm1.091.009a2.384,2.384,0,1,0,4.767,0,2.423,2.423,0,0,0-2.372-2.417h-.011A2.419,2.419,0,0,0,6632.728,11.31Zm7.579,2.458a.691.691,0,0,1-.024-.164c0-.286-.009-.571,0-.857a.544.544,0,0,1,.6-.573.511.511,0,0,1,.474.448c.018.188,0,.38,0,.57h.005c0,.166.011.334,0,.5a.521.521,0,0,1-.484.492h-.043A.53.53,0,0,1,6640.306,13.768Zm0-3.853a.691.691,0,0,1-.025-.164c0-.286-.009-.571,0-.857a.545.545,0,0,1,.6-.576.51.51,0,0,1,.475.446c.019.188,0,.38,0,.57h.006c0,.166.011.334,0,.5a.523.523,0,0,1-.482.5h-.045A.531.531,0,0,1,6640.307,9.915ZM6640.3,6.03a.438.438,0,0,1-.015-.093c0-.316-.015-.633,0-.947a.543.543,0,0,1,1.076-.083.612.612,0,0,1,.011.094c0,.158,0,.316,0,.474h0c0,.166.01.332,0,.5a.531.531,0,0,1-.5.506h-.038A.545.545,0,0,1,6640.3,6.03Zm-8.661-3.374a3.474,3.474,0,1,1,6.948,0,3.474,3.474,0,1,1-6.948,0Zm1.091-.014a2.384,2.384,0,1,0,2.38-2.4h0A2.386,2.386,0,0,0,6632.728,2.642Zm-6.818,3.514a3.474,3.474,0,0,1-3.464-3.51,3.473,3.473,0,1,1,6.946.019,3.465,3.465,0,0,1-3.469,3.491Zm-2.374-3.512a2.384,2.384,0,1,0,2.379-2.4h0A2.383,2.383,0,0,0,6623.536,2.644Zm16.764-.488a6.753,6.753,0,0,1,0-1.066.506.506,0,0,1,.571-.472.512.512,0,0,1,.5.518c.011.158,0,.316,0,.474h0c0,.166.01.333,0,.5a.532.532,0,0,1-.513.515h-.021A.518.518,0,0,1,6640.3,2.156Z" transform="translate(-6620 5.001)" stroke="rgba(0,0,0,0)" stroke-miterlimit="10" stroke-width="1" fill="#53B374"/>
  </g>
</svg>
