<svg xmlns="http://www.w3.org/2000/svg" width="25.061" height="25.005" viewBox="0 0 25.061 25.005">
  <g id="conveniences_07" transform="translate(0.56 0.506)">
    <path id="Объединение_25" data-name="Объединение 25" d="M6643.864,20c-.454,0-.907,0-1.36,0q-2.729,0-5.456,0l-16.883-.01H6620c.073-.644.135-1.266.218-1.884a11.046,11.046,0,0,1,.554-2.263,11.931,11.931,0,0,1,2.193-3.738,11.671,11.671,0,0,1,3.99-3.04.176.176,0,0,0,.11-.222,4.99,4.99,0,0,1,1.2-4.165A4.895,4.895,0,0,1,6631.357,3a4.746,4.746,0,0,1,2.981.525,4.958,4.958,0,0,1,2.7,3.8,4.357,4.357,0,0,1-.028,1.541.146.146,0,0,0,.1.185,11.791,11.791,0,0,1,3.412,2.386,12.149,12.149,0,0,1,3.17,5.7,10.46,10.46,0,0,1,.3,2.408c0,.108.006.217.012.325s-.032.133-.129.133Zm-4.132-7.422a8.469,8.469,0,0,0-1.417,3.462,15.723,15.723,0,0,0-.218,2.61c0,.062,0,.122,0,.182h4.681a10.847,10.847,0,0,0-2.948-6.378C6639.792,12.5,6639.761,12.537,6639.732,12.577Zm-8.179-3.45a1.167,1.167,0,0,0-.7.2,10.481,10.481,0,0,0-1.959,1.933,12.2,12.2,0,0,0-2.019,3.85,14.487,14.487,0,0,0-.555,2.651c-.04.345-.055.694-.082,1.054h4.667c0-.025.008-.038.008-.052a16.373,16.373,0,0,1,.133-2.508,12.743,12.743,0,0,1,.655-2.7,11.374,11.374,0,0,1,2-3.445c.213-.253.438-.5.659-.744a.614.614,0,0,0-.065-.022,11.138,11.138,0,0,0-2.257-.234Q6631.8,9.117,6631.554,9.128Zm-8.26,4.48a10.776,10.776,0,0,0-1.988,5.209h3.742a14.2,14.2,0,0,1,3.618-9.146A10.583,10.583,0,0,0,6623.293,13.608Zm12.387-3.787c-.167.14-.332.282-.489.432a9.664,9.664,0,0,0-2.047,2.935,10.623,10.623,0,0,0-.9,3.058c-.075.565-.11,1.136-.148,1.7-.019.287,0,.577,0,.865h4.819a11.107,11.107,0,0,1,2.033-7.175.316.316,0,0,0-.029-.042,10.426,10.426,0,0,0-3.108-1.8.115.115,0,0,0-.039-.006A.153.153,0,0,0,6635.681,9.821Zm.171-1.3a3.85,3.85,0,0,0-6.318-3.448,3.735,3.735,0,0,0-1.292,3.442,15.374,15.374,0,0,1,3.761-.49A16.443,16.443,0,0,1,6635.852,8.526Zm2.887.088a1.761,1.761,0,0,1-.492-.073.48.48,0,0,1-.367-.509.535.535,0,0,1,.363-.547,1.546,1.546,0,0,1,.427-.062c.749-.005,1.5,0,2.244,0q1.148,0,2.3,0a1.4,1.4,0,0,1,.323.032.531.531,0,0,1,.462.615.55.55,0,0,1-.54.539,1.819,1.819,0,0,1-.19.01h-1.812Q6640.1,8.618,6638.739,8.614Zm-17.85,0a1.69,1.69,0,0,1-.488-.085.483.483,0,0,1-.342-.5.54.54,0,0,1,.358-.54,1.371,1.371,0,0,1,.412-.065c.771-.005,1.541,0,2.311,0s1.541,0,2.311,0a1.3,1.3,0,0,1,.32.04.585.585,0,0,1-.085,1.142,1.563,1.563,0,0,1-.217.013h-1.833Q6622.263,8.618,6620.889,8.614Zm16.226-3.5a.564.564,0,0,1,.158-.792c.443-.278.9-.537,1.355-.8q1.384-.805,2.773-1.6a2.21,2.21,0,0,1,.4-.173c.308-.1.7.188.692.665a.59.59,0,0,1-.344.449q-.532.313-1.069.622-1.473.855-2.95,1.707a3,3,0,0,1-.328.158.578.578,0,0,1-.222.046A.54.54,0,0,1,6637.115,5.112Zm-10.9.213c-.217-.1-.418-.232-.627-.35l-3.617-2.1a.675.675,0,0,1-.382-.512.575.575,0,0,1,.757-.61c.369.17.717.384,1.071.587q1.62.935,3.241,1.876a.671.671,0,0,1,.4.515.351.351,0,0,0,0,.035.587.587,0,0,1-.583.614A.619.619,0,0,1,6626.216,5.326Zm8.844-2.331a.572.572,0,0,1-.368-.7,3.416,3.416,0,0,1,.269-.545q1.073-1.873,2.154-3.742a1.774,1.774,0,0,1,.193-.278.5.5,0,0,1,.4-.188.593.593,0,0,1,.539.889c-.158.29-.329.574-.494.86q-.965,1.676-1.933,3.353a.657.657,0,0,1-.561.381A.63.63,0,0,1,6635.06,2.995Zm-6.324.027a.5.5,0,0,1-.38-.245c-.249-.41-.49-.825-.73-1.241q-.865-1.5-1.724-3a.652.652,0,0,1-.131-.56.6.6,0,0,1,.443-.417.544.544,0,0,1,.567.173,1.635,1.635,0,0,1,.16.235l2.326,4.052a.719.719,0,0,1,.13.55.608.608,0,0,1-.646.454Zm3.138-.892a.55.55,0,0,1-.416-.47,1.339,1.339,0,0,1-.015-.23q0-2.326,0-4.654a1.371,1.371,0,0,1,.027-.31.587.587,0,0,1,.617-.462.581.581,0,0,1,.537.6c0,.825,0,1.651,0,2.476h0c0,.79,0,1.579,0,2.369a.729.729,0,0,1-.135.5.531.531,0,0,1-.429.212A.761.761,0,0,1,6631.874,2.129Z" transform="translate(-6620 4)" stroke="rgba(0,0,0,0)" stroke-miterlimit="10" stroke-width="1" fill="#53B374"/>
  </g>
</svg>
