<svg xmlns="http://www.w3.org/2000/svg" width="24" height="20" viewBox="0 0 24 20">
  <g id="conveniences_10" transform="translate(0 -2.001)">
    <path id="Контур_8478" data-name="Контур 8478" d="M776.192,383.736v7.246h4.072c0-.119,0-.239,0-.36a.618.618,0,0,1,.648-.689q1.71-.005,3.42,0a.636.636,0,0,1,.674.7q0,3.7,0,7.4a.632.632,0,0,1-.639.709q-1.737.019-3.475,0c-.4,0-.618-.261-.628-.683,0-.114,0-.229,0-.362H765.745c0,.11,0,.222,0,.333,0,.437-.223.708-.629.712q-1.737.017-3.475,0c-.413,0-.632-.269-.632-.708q0-3.7,0-7.4a.627.627,0,0,1,.668-.7q1.7,0,3.393,0a.635.635,0,0,1,.675.72c0,.1,0,.207,0,.329h4.062v-7.245l-.341-.019a.637.637,0,0,1-.672-.731c0-1.03,0-2.061,0-3.091,0-.135,0-.27,0-.4a.658.658,0,0,1,.7-.74c.561-.009,1.122,0,1.682,0q2.593,0,5.185,0a1.575,1.575,0,0,1,.383.031.539.539,0,0,1,.435.494,2.574,2.574,0,0,1,.02.287q0,1.676,0,3.351a2.086,2.086,0,0,1-.019.288.533.533,0,0,1-.464.493C776.554,383.719,776.388,383.721,776.192,383.736Zm4.064,8.534H765.768v4.118h14.489Zm-5.305-1.28v-7.251h-3.9v7.251Zm-4.93-10.977v2.44h5.971v-2.44Zm-7.792,11.195v6.269h2.291v-6.269Zm19.248,6.269h2.3v-6.258h-2.3Z" transform="translate(-761.008 -376.747)"/>
  </g>
</svg>
