<svg xmlns="http://www.w3.org/2000/svg" width="48" height="48" viewBox="0 0 48 48">
  <g id="social_04" transform="translate(-1417 -8730)">
    <circle id="Эллипс_160" data-name="Эллипс 160" cx="24" cy="24" r="24" transform="translate(1417 8730)" fill="#ff0909"/>
    <path id="Icon_awesome-youtube" data-name="Icon awesome-youtube" d="M22.04,6.859a2.694,2.694,0,0,0-1.9-1.908C18.473,4.5,11.769,4.5,11.769,4.5s-6.7,0-8.376.451A2.694,2.694,0,0,0,1.5,6.859a28.259,28.259,0,0,0-.448,5.194A28.259,28.259,0,0,0,1.5,17.246a2.654,2.654,0,0,0,1.9,1.877c1.672.451,8.376.451,8.376.451s6.7,0,8.376-.451a2.654,2.654,0,0,0,1.9-1.877,28.259,28.259,0,0,0,.448-5.194,28.259,28.259,0,0,0-.448-5.194ZM9.577,15.24V8.865l5.6,3.188-5.6,3.188Z" transform="translate(1429.231 8741.963)" fill="#fff"/>
  </g>
</svg>
