<svg xmlns="http://www.w3.org/2000/svg" width="48" height="48" viewBox="0 0 48 48">
  <g id="social_03" transform="translate(-1353 -8730)">
    <circle id="Эллипс_159" data-name="Эллипс 159" cx="24" cy="24" r="24" transform="translate(1353 8730)" fill="#ececec"/>
    <path id="Объединение_53" data-name="Объединение 53" d="M6058.353,2256.005c-.034,0-.067.006-.124.012,0,.191-.011.377,0,.562.1,1.547.185,3.1.323,4.64a6.357,6.357,0,0,0,.706,2.39,5.393,5.393,0,0,0,4.094,2.88c1.144.195,2.309.273,3.467.367.763.062,1.532.061,2.331.089,0-.147,0-.249,0-.351,0-1.871.025-3.743-.017-5.613a4.8,4.8,0,0,0-2.3-4.233,5.466,5.466,0,0,0-2.894-.738q-1.132-.013-2.263-.011C6060.569,2256,6059.461,2256,6058.353,2256.005Zm-6.369.021a4.992,4.992,0,0,0-3.127,1.045,4.606,4.606,0,0,0-1.788,3.419c-.068,1.047-.052,2.1-.062,3.149-.009,1.017,0,2.034,0,3.051,0,.075.008.151.012.232.238,0,.461.013.682,0,1.512-.1,3.027-.178,4.535-.324a6.288,6.288,0,0,0,2.636-.851,5.422,5.422,0,0,0,2.62-3.99c.2-1.212.278-2.445.368-3.672.049-.677.009-1.359.009-2.063.007,0,0,0-.017-.007a.207.207,0,0,0-.05-.007q-.821,0-1.642,0h-1.106C6054.03,2256,6053.007,2256.008,6051.983,2256.026Zm17.007,11.2c-1.668.1-3.338.177-5,.329a6.234,6.234,0,0,0-3.019,1.055,5.452,5.452,0,0,0-2.3,3.748c-.186,1.119-.269,2.256-.363,3.388-.059.7-.053,1.412-.076,2.119,0,.083,0,.167,0,.279h.274c1.785,0,3.569.012,5.354,0a5.476,5.476,0,0,0,3.21-.888,4.547,4.547,0,0,0,2.025-3.664c.076-1.867.046-3.738.062-5.608,0-.24,0-.48,0-.736a1.438,1.438,0,0,0-.146-.018Zm-21.975.01c0,.064-.01.114-.01.164,0,1.931-.023,3.863.02,5.793a4.8,4.8,0,0,0,2.059,4.052,4.861,4.861,0,0,0,2.463.843c.446.035.895.051,1.342.052,1.578.006,3.156,0,4.734,0h.275a.494.494,0,0,0,.026-.1,35.376,35.376,0,0,0-.424-5.666,5.582,5.582,0,0,0-2.52-3.9,6.336,6.336,0,0,0-2.825-.928c-1.655-.149-3.318-.224-4.978-.33h-.021C6047.114,2267.225,6047.07,2267.232,6047.016,2267.236Z" transform="translate(-4681.08 6486.927)" fill="#191c26"/>
  </g>
</svg>
