<svg xmlns="http://www.w3.org/2000/svg" xmlns:xlink="http://www.w3.org/1999/xlink" width="48" height="48" viewBox="0 0 48 48">
  <defs>
    <radialGradient id="radial-gradient" cx="0.288" cy="0.932" r="0.957" gradientTransform="translate(0 -0.029) scale(1 1.031)" gradientUnits="objectBoundingBox">
      <stop offset="0" stop-color="#f9c15b"/>
      <stop offset="0.341" stop-color="#dc444d"/>
      <stop offset="0.673" stop-color="#c31c79"/>
      <stop offset="1" stop-color="#6b62a5"/>
    </radialGradient>
  </defs>
  <g id="social_01" transform="translate(-1225 -8730)">
    <circle id="Эллипс_157" data-name="Эллипс 157" cx="24" cy="24" r="24" transform="translate(1225 8730)" fill="url(#radial-gradient)"/>
    <path id="Icon_awesome-instagram" data-name="Icon awesome-instagram" d="M10.237,7.226a5.25,5.25,0,1,0,5.25,5.25A5.241,5.241,0,0,0,10.237,7.226Zm0,8.662a3.413,3.413,0,1,1,3.413-3.413A3.419,3.419,0,0,1,10.237,15.888Zm6.689-8.877A1.224,1.224,0,1,1,15.7,5.787,1.222,1.222,0,0,1,16.926,7.011ZM20.4,8.254a6.059,6.059,0,0,0-1.654-4.29,6.1,6.1,0,0,0-4.29-1.654c-1.69-.1-6.757-.1-8.448,0a6.091,6.091,0,0,0-4.29,1.649A6.079,6.079,0,0,0,.067,8.249c-.1,1.69-.1,6.757,0,8.448a6.059,6.059,0,0,0,1.654,4.29,6.107,6.107,0,0,0,4.29,1.654c1.69.1,6.757.1,8.448,0a6.059,6.059,0,0,0,4.29-1.654A6.1,6.1,0,0,0,20.4,16.7c.1-1.69.1-6.753,0-8.443ZM18.219,18.511a3.455,3.455,0,0,1-1.946,1.946c-1.348.535-4.546.411-6.035.411s-4.692.119-6.035-.411a3.455,3.455,0,0,1-1.946-1.946c-.535-1.348-.411-4.546-.411-6.035s-.119-4.692.411-6.035A3.455,3.455,0,0,1,4.2,4.494c1.348-.535,4.546-.411,6.035-.411s4.692-.119,6.035.411A3.455,3.455,0,0,1,18.219,6.44c.535,1.348.411,4.546.411,6.035S18.753,17.167,18.219,18.511Z" transform="translate(1238.766 8741.524)" fill="#fff"/>
  </g>
</svg>
