<svg xmlns="http://www.w3.org/2000/svg" width="75.004" height="74.999" viewBox="0 0 75.004 74.999">
  <g id="circle_icon_13" transform="translate(7914.004 -2063.173)">
    <path id="Вычитание_14" data-name="Вычитание 14" d="M17481.5,2641a37.381,37.381,0,1,1,14.6-2.947A37.26,37.26,0,0,1,17481.5,2641Zm0-74a36.5,36.5,0,1,0,36.5,36.5A36.543,36.543,0,0,0,17481.5,2567Z" transform="translate(-25358.002 -502.828)" fill="#309d55"/>
    <g id="Сгруппировать_9244" data-name="Сгруппировать 9244" transform="translate(-9959.656 -314.939)">
      <path id="Контур_12237" data-name="Контур 12237" d="M2094.8,2430.415h-23.335c0,.07-.01.136-.01.2,0,.469,0,.937,0,1.405a1.045,1.045,0,0,1-.059.321.425.425,0,0,1-.407.294h-.021c-1.176.047-2.354.048-3.53.028-.349-.006-.7-.015-1.05-.029a.469.469,0,0,1-.47-.476c0-.069,0-.138,0-.207q0-2.087,0-4.175a2.082,2.082,0,0,1,.047-.386.284.284,0,0,1,.182-.209.921.921,0,0,1,.377-.089c.462,0,.923,0,1.385,0h.2l.024-.025c0-.005.012-.01.012-.016q.005-11.583.009-23.167c0-.04-.005-.081-.009-.136-.065,0-.125-.013-.184-.013-.469,0-.937,0-1.405,0a1.035,1.035,0,0,1-.283-.04.425.425,0,0,1-.349-.448c0-.055,0-.11,0-.165q0-2.118,0-4.237c0-.048,0-.1,0-.145a.467.467,0,0,1,.467-.5.664.664,0,0,1,.1,0c1.467,0,2.935,0,4.4,0a.5.5,0,0,1,.543.448,2.053,2.053,0,0,1,.022.224c0,.441,0,.882,0,1.323v.2l.025.025s.01.012.016.012l23.188.009c.033,0,.067-.006.114-.01,0-.065.012-.125.012-.185,0-.468,0-.937,0-1.405a1.035,1.035,0,0,1,.041-.283.459.459,0,0,1,.456-.349c.186-.006.372,0,.558,0h3.761c.069,0,.138,0,.207,0a.507.507,0,0,1,.516.528c.006.282,0,.565,0,.847s0,.537,0,.806c0,.15.023.3.031.45a1.049,1.049,0,0,1,0,.248,5.243,5.243,0,0,0-.03.926c-.007.379-.012.758,0,1.137a.554.554,0,0,1-.605.6c-.4,0-.8,0-1.2,0-.048,0-.1,0-.145,0-.263.027-.328.1-.328.362v22.906a.284.284,0,0,0,.258.082c.461,0,.923,0,1.385.006a1.042,1.042,0,0,1,.283.041.464.464,0,0,1,.345.439c0,.055,0,.11,0,.165q0,2.108,0,4.216a1.185,1.185,0,0,1,0,.206c-.06.33-.149.417-.46.464a4.819,4.819,0,0,1-.7.041q-1.633.006-3.265,0a4.231,4.231,0,0,1-.656-.041c-.257-.042-.349-.077-.418-.377a1.446,1.446,0,0,1-.038-.3c0-.441,0-.882,0-1.323C2094.813,2430.56,2094.807,2430.493,2094.8,2430.415Zm.01-28.876c-.038-.017-.05-.027-.062-.027l-23.145,0a.958.958,0,0,0-.1.009.042.042,0,0,0-.017.01c-.005,0-.01.01-.029.031v.188c0,.379,0,.758,0,1.136a2.871,2.871,0,0,1-.038.409.468.468,0,0,1-.528.454c-.5-.008-.992,0-1.488,0-.066,0-.132.007-.2.01,0,.059-.009.1-.009.14q0,11.582.009,23.165c0,.005.007.011.012.016l.029.026h.19c.448,0,.9,0,1.343,0a1.631,1.631,0,0,1,.345.044.377.377,0,0,1,.293.29,1.539,1.539,0,0,1,.045.345c0,.448,0,.9,0,1.343,0,.066.006.132.009.2H2094.8c0-.079.009-.146.009-.213,0-.406,0-.813,0-1.219a2.943,2.943,0,0,1,.042-.429.349.349,0,0,1,.327-.318,3.616,3.616,0,0,1,.47-.041c.4-.006.8,0,1.2,0,.06,0,.119-.008.184-.013,0-.048.011-.082.011-.115q0-11.592-.009-23.185c0-.006-.007-.011-.011-.016s-.01-.01-.029-.028h-.19c-.448,0-.9.006-1.343,0-.484-.009-.639-.168-.651-.649-.009-.358,0-.716,0-1.074C2094.813,2401.858,2094.813,2401.7,2094.813,2401.539Zm1.04,30.082a.421.421,0,0,0,.078.019h3.263a.8.8,0,0,0,.1-.011.048.048,0,0,0,.019-.008.1.1,0,0,0,.015-.014c.038-.159.041-3.265,0-3.456-.012-.006-.024-.017-.036-.017l-3.283,0c-.041,0-.082,0-.123.008-.006,0-.011.006-.017.01l-.021.021Zm0-32.379c-.011.189,0,.38-.005.569s0,.386,0,.579v1.157c0,.193,0,.386,0,.579a3.259,3.259,0,0,0,.018.574h3.468c.039-.229.032-3.3-.008-3.457Zm-28.891,28.9v3.478c.2.039,3.287.036,3.455,0a.863.863,0,0,0,.01-.1q0-1.673-.009-3.345c0-.005-.008-.01-.013-.015l-.015-.017Zm-.011-28.893c0,.59,0,1.16,0,1.729s-.012,1.15.009,1.727h3.44c.038-.2.036-3.276,0-3.456Z" transform="translate(0 0)" fill="#309d55" stroke="rgba(0,0,0,0)" stroke-width="1"/>
    </g>
  </g>
</svg>
