<svg xmlns="http://www.w3.org/2000/svg" width="75.004" height="74.999" viewBox="0 0 75.004 74.999">
  <g id="circle_icon_02" transform="translate(-674.998 -2407.001)">
    <path id="Вычитание_10" data-name="Вычитание 10" d="M17481.5,2641a37.381,37.381,0,1,1,14.6-2.947A37.26,37.26,0,0,1,17481.5,2641Zm0-74a36.5,36.5,0,1,0,36.5,36.5A36.543,36.543,0,0,0,17481.5,2567Z" transform="translate(-16769 -159)" fill="#309d55"/>
    <path id="Объединение_33" data-name="Объединение 33" d="M-4199.855-3567.433a3.979,3.979,0,0,1-4.138-4.123q-.014-11.3,0-22.607a3.945,3.945,0,0,1,2.546-3.915.5.5,0,0,0,.261-.352A2.692,2.692,0,0,1-4198.3-3601c.631.03,1.265.022,1.9.015.3,0,.594-.007.89-.007a2.618,2.618,0,0,1,2.823,2.435c.009.055.025.108.048.206h.538q11.958,0,23.917-.008a4.027,4.027,0,0,1,3.655,2.029,4.052,4.052,0,0,1,.525,2.188q0,6.613,0,13.226c0,3.141.008,6.282,0,9.423a3.975,3.975,0,0,1-3.441,4.019,4.544,4.544,0,0,1-.716.038l-18.9,0Zm-.1-29.494a2.333,2.333,0,0,0-.5.041,2.6,2.6,0,0,0-2.125,2.833c0,7.438.01,14.875-.009,22.313a2.721,2.721,0,0,0,2.88,2.9c5.24-.046,10.48-.016,15.72-.016s10.48,0,15.72,0a3.418,3.418,0,0,0,.919-.08,2.526,2.526,0,0,0,1.924-2.682c0-7.508-.018-15.016.016-22.524a2.725,2.725,0,0,0-2.806-2.8q-11.634.032-23.267.018h-8.47Zm1.406-2.653a1.1,1.1,0,0,0-1.164,1.207h5.587a1.128,1.128,0,0,0-1.222-1.21c-.547-.021-1.1-.006-1.643-.006l-.456,0c-.146,0-.292,0-.437,0C-4198.106-3599.6-4198.328-3599.593-4198.549-3599.581Zm26.68,29.03a.7.7,0,0,1-.746-.7.71.71,0,0,1,.779-.707c.427-.005.854,0,1.281,0,.333,0,.667,0,1,0,.251,0,.5-.025.815-.042.026-.386.067-.721.068-1.056.007-1.592,0-3.183,0-4.775a.688.688,0,0,1,.638-.752.707.707,0,0,1,.751.689.919.919,0,0,1,.015.126c-.011,1.9,0,3.8-.043,5.7a1.478,1.478,0,0,1-1.565,1.5c-.542.021-1.085.027-1.628.027C-4170.956-3570.543-4171.413-3570.547-4171.869-3570.551ZM-4195.13-3583a11.063,11.063,0,0,1,10.709-11.007,11.024,11.024,0,0,1,11.514,11.088,11,11,0,0,1-10.7,11.128c-.146.005-.292.008-.437.008A11.059,11.059,0,0,1-4195.13-3583Zm11.168-9.611a9.643,9.643,0,0,0-9.724,9.653,9.6,9.6,0,0,0,9.658,9.756,9.634,9.634,0,0,0,9.72-9.623,9.692,9.692,0,0,0-9.628-9.786Zm-5.629,9.808a.711.711,0,0,1,.7-.781c.429,0,.682.292.717.815a4.127,4.127,0,0,0,2.76,3.881,4.209,4.209,0,0,0,5.568-4.455,4.267,4.267,0,0,0-4.009-3.82.987.987,0,0,1-.668-.269.737.737,0,0,1-.112-.676,1.009,1.009,0,0,1,.688-.432,4.805,4.805,0,0,1,3.115,1,5.464,5.464,0,0,1,2.317,5.613,5.44,5.44,0,0,1-4.174,4.545,10.582,10.582,0,0,1-1.328.207A5.716,5.716,0,0,1-4189.591-3582.805Zm19.464-7.871a2.269,2.269,0,0,1-2.2-2.27,2.228,2.228,0,0,1,2.227-2.224,2.209,2.209,0,0,1,2.21,2.23,2.246,2.246,0,0,1-2.212,2.263Zm0-3.094a.839.839,0,0,0-.791.868.816.816,0,0,0,.809.8.794.794,0,0,0,.8-.841.8.8,0,0,0-.795-.827Z" transform="translate(4896.5 6028.717)" fill="#309d55" stroke="rgba(0,0,0,0)" stroke-miterlimit="10" stroke-width="1"/>
  </g>
</svg>
