<svg xmlns="http://www.w3.org/2000/svg" width="75.004" height="74.999" viewBox="0 0 75.004 74.999">
  <g id="circle_icon_01" transform="translate(-377.998 -2407.001)">
    <path id="Вычитание_9" data-name="Вычитание 9" d="M17481.5,2641a37.381,37.381,0,1,1,14.6-2.947A37.26,37.26,0,0,1,17481.5,2641Zm0-74a36.5,36.5,0,1,0,36.5,36.5A36.543,36.543,0,0,0,17481.5,2567Z" transform="translate(-17066 -159)" fill="#309d55"/>
    <path id="Объединение_34" data-name="Объединение 34" d="M-4203.92-3563.5a5.268,5.268,0,0,1-.077-.928q-.007-8.087,0-16.174,0-8.069,0-16.138a3.229,3.229,0,0,1,3.457-3.461h4.6q8.1,0,16.21-.007a2.984,2.984,0,0,0,.942-.158,11.068,11.068,0,0,1,5.9-.4,11.027,11.027,0,0,1,8.734,9.1,10.8,10.8,0,0,1-3.874,10.363,8.929,8.929,0,0,1-2.652,1.619.493.493,0,0,0-.366.55c.01,4.852,0,9.7.01,14.556a3.614,3.614,0,0,1-.625,2.277,2.849,2.849,0,0,1-2.363,1.275c-8.974-.006-17.947-.022-26.92.019h-.009A3.243,3.243,0,0,1-4203.92-3563.5Zm3.714-35.5a3.844,3.844,0,0,0-.7.075,1.927,1.927,0,0,0-1.829,2.189q0,16.156,0,32.312a3.15,3.15,0,0,0,.075.783,1.952,1.952,0,0,0,2.078,1.418q13.065,0,26.13,0a1.979,1.979,0,0,0,2.168-2.162q0-7.152,0-14.3c0-.124-.012-.247-.018-.378a11.259,11.259,0,0,1-12.978-6.216,11.175,11.175,0,0,1,3.638-13.718h-6.071Q-4193.96-3599.006-4200.206-3599Zm15.5,6.918a9.784,9.784,0,0,0,6.052,11.364,9.863,9.863,0,0,0,7.754-.226,9.326,9.326,0,0,0,2.369-1.561,2.976,2.976,0,0,1-.286-.214q-3.33-3.327-6.659-6.653a.812.812,0,0,1-.259-.631q.011-4.635,0-9.271v-.456A9.893,9.893,0,0,0-4184.71-3592.084Zm17.047,8.7a9.994,9.994,0,0,0,2.423-5.825h-8.046Zm-6.79-7.146h9.211a9.9,9.9,0,0,0-3.789-7.127,9.969,9.969,0,0,0-5.423-2.1Zm-18.325,25.161v-15.1h4.337v15.1Zm1.241-1.251h1.83v-12.58h-1.83Zm11.262,1.249v-7.453h4.349v7.453Zm1.256-1.248h1.827v-4.968h-1.827Zm-7.5,1.248v-11.287h4.325v11.287Zm1.236-1.268h1.833v-8.757h-1.833Zm-13.811,1.267v-18.923h4.334v18.923Zm1.237-1.249h1.828v-16.407h-1.828Z" transform="translate(4600.5 6025.507)" fill="#309d55" stroke="rgba(0,0,0,0)" stroke-miterlimit="10" stroke-width="1"/>
  </g>
</svg>
