<svg xmlns="http://www.w3.org/2000/svg" width="75.004" height="74.999" viewBox="0 0 75.004 74.999">
  <g id="circle_icon_10" transform="translate(8211.004 -1944.173)">
    <path id="Вычитание_9" data-name="Вычитание 9" d="M17481.5,2641a37.381,37.381,0,1,1,14.6-2.947A37.26,37.26,0,0,1,17481.5,2641Zm0-74a36.5,36.5,0,1,0,36.5,36.5A36.543,36.543,0,0,0,17481.5,2567Z" transform="translate(-25655.002 -621.828)" fill="#309d55"/>
    <g id="Сгруппировать_9242" data-name="Сгруппировать 9242" transform="translate(-10297.791 -615.301)">
      <path id="Контур_12231" data-name="Контур 12231" d="M2120.1,2588.339c2.8-3.173,6.226-4.328,10.318-3.148a8.944,8.944,0,0,1,4.931,3.645,9.415,9.415,0,0,1,1.669,5.9c.1-.028.168-.045.237-.068a5.932,5.932,0,0,1,5.56.788,5.82,5.82,0,0,1,2.47,3.971,6.954,6.954,0,0,1-.629,4.118,10.968,10.968,0,0,1-3.033,3.757,22.137,22.137,0,0,1-5.151,3.186c-.533.241-1.081.449-1.62.677a.51.51,0,0,1-.412,0,25.184,25.184,0,0,1-4.338-2.124c-.668-.414-1.294-.895-1.938-1.347-.11-.077-.215-.16-.341-.253-.092.052-.184.1-.271.154a41.807,41.807,0,0,1-6.276,3.2c-.328.136-.666.248-1,.38a.425.425,0,0,1-.33,0,38.7,38.7,0,0,1-4.215-1.854,36.908,36.908,0,0,1-4.313-2.543,24.341,24.341,0,0,1-4.958-4.407,14.186,14.186,0,0,1-2.524-4.234,12.182,12.182,0,0,1-.62-2.509,9.877,9.877,0,0,1-.053-2.413,9.5,9.5,0,0,1,5.717-7.729,9.181,9.181,0,0,1,4.246-.726,9.368,9.368,0,0,1,4.978,1.764,9.058,9.058,0,0,1,1.736,1.633C2120,2588.223,2120.054,2588.288,2120.1,2588.339Zm6.829,18.314c-.142-.148-.246-.26-.354-.369a10.454,10.454,0,0,1-1.635-2.148,7.159,7.159,0,0,1-1.005-4.216,6.086,6.086,0,0,1,7.078-5.522,5.791,5.791,0,0,1,2.87,1.313c.263.222.5.469.739.689.365-.314.724-.63,1.091-.937a.333.333,0,0,0,.123-.244,8.576,8.576,0,0,0-.059-2.437,8.345,8.345,0,0,0-3.447-5.418,8.141,8.141,0,0,0-2.565-1.208,8.32,8.32,0,0,0-6.712,1.027,8.084,8.084,0,0,0-2.309,2.223c-.21.3-.416.606-.63.918l-.405-.62a8.42,8.42,0,0,0-2.972-2.792,8.17,8.17,0,0,0-3.561-1.043,8.368,8.368,0,0,0-6.937,3.041,8.064,8.064,0,0,0-1.506,2.765,7.97,7.97,0,0,0-.362,1.743,9.637,9.637,0,0,0,.037,1.926,10.756,10.756,0,0,0,.9,3.141,14.962,14.962,0,0,0,3.008,4.225,24.932,24.932,0,0,0,4.1,3.348,39.894,39.894,0,0,0,7.521,3.911.512.512,0,0,0,.41-.013,39.3,39.3,0,0,0,4.252-1.98C2125.367,2607.552,2126.128,2607.105,2126.926,2606.653Zm7.713-8.268c-.143-.219-.262-.4-.384-.588a5.111,5.111,0,0,0-1.915-1.79,4.987,4.987,0,0,0-7.216,3.416,5.544,5.544,0,0,0,.5,3.615,10.16,10.16,0,0,0,2.887,3.5,22.694,22.694,0,0,0,5.965,3.433.375.375,0,0,0,.327,0c.182-.086.371-.156.556-.235a22.585,22.585,0,0,0,4.884-2.8,12.593,12.593,0,0,0,2.283-2.143,7.381,7.381,0,0,0,1.675-3.64,4.992,4.992,0,0,0-4.846-5.724,4.809,4.809,0,0,0-2.759.771,5.251,5.251,0,0,0-1.584,1.606C2134.9,2597.992,2134.775,2598.177,2134.639,2598.385Z" transform="translate(0 0)" fill="#309d55" stroke="rgba(0,0,0,0)" stroke-width="1"/>
    </g>
  </g>
</svg>
