<svg xmlns="http://www.w3.org/2000/svg" width="75.004" height="74.999" viewBox="0 0 75.004 74.999">
  <g id="circle_icon_03" transform="translate(-971.994 -2407.001)">
    <path id="Вычитание_11" data-name="Вычитание 11" d="M17481.5,2641a37.381,37.381,0,1,1,14.6-2.947A37.26,37.26,0,0,1,17481.5,2641Zm0-74a36.5,36.5,0,1,0,36.5,36.5A36.543,36.543,0,0,0,17481.5,2567Z" transform="translate(-16472.004 -159)" fill="#309d55"/>
    <path id="Объединение_32" data-name="Объединение 32" d="M-4170.626-3569.64a8.09,8.09,0,0,1-7.681,2.262,7.948,7.948,0,0,1-4.911-3.21,8.309,8.309,0,0,1,.859-10.713,8.369,8.369,0,0,1,10.51-.955,8.436,8.436,0,0,1,2.171,11.506l5.677,4.372-.863,1.154Zm-12.751-5.908a6.741,6.741,0,0,0,6.75,6.851,6.792,6.792,0,0,0,6.844-6.666,6.849,6.849,0,0,0-6.792-6.962h-.006A6.8,6.8,0,0,0-4183.377-3575.548Zm-17.517,3.316v-19.7c-.832.449-1.6.864-2.41,1.3-.238-.451-.46-.872-.7-1.321,1.623-.873,3.217-1.732,4.813-2.589q5.951-3.195,11.909-6.379a.794.794,0,0,1,.638-.032q8.235,4.43,16.448,8.894c.088.048.167.111.278.184-.216.43-.425.841-.651,1.292l-2.419-1.35v6.117h-1.529v-.986c0-1.831-.008-3.662.008-5.493a.661.661,0,0,0-.4-.683q-5.812-3.122-11.608-6.275a.726.726,0,0,0-.8-.013q-5.8,3.147-11.616,6.262c-.265.142-.467.267-.466.644q.02,9.121.011,18.243c0,.1.015.206.029.406h12.687v1.472Z" transform="translate(5193.501 6027.613)" fill="#309d55" stroke="rgba(0,0,0,0)" stroke-miterlimit="10" stroke-width="1"/>
  </g>
</svg>
