<svg xmlns="http://www.w3.org/2000/svg" width="75.004" height="74.999" viewBox="0 0 75.004 74.999">
  <g id="circle_icon_08" transform="translate(13851.004 -1725.001)">
    <path id="Объединение_37" data-name="Объединение 37" d="M-4550.187,34.651a4.426,4.426,0,0,1-.338-1.5c-.056-.608-.013-1.227-.013-1.895-.253,0-.483.008-.713,0a.708.708,0,0,1-.743-.673.693.693,0,0,1,.738-.714c.219-.012.44,0,.688,0v-3.49c-1.168-.125-1.437-.269-1.425-.754s.282-.632,1.425-.718V21.4c-.222,0-.453.011-.682,0a.7.7,0,0,1-.746-.711.719.719,0,0,1,.774-.685c.208-.007.417,0,.653,0v-3.53c-.236,0-.468.008-.7,0a.7.7,0,0,1-.731-.684.69.69,0,0,1,.717-.7c.232-.012.464,0,.72,0V11.566c-.219,0-.437.007-.654,0a.731.731,0,0,1-.778-.686.715.715,0,0,1,.739-.723c.221-.017.443,0,.69,0V6.64c-.222,0-.44.011-.658,0-.487-.029-.791-.323-.771-.731a.729.729,0,0,1,.784-.679c.207-.008.415,0,.671,0,0-.65-.008-1.274,0-1.9a3.173,3.173,0,0,1,1.782-2.977,3.275,3.275,0,0,1,1.432-.335q10.927-.031,21.854-.009a3.168,3.168,0,0,1,3.188,3.138c.007.134.01.268.01.4q0,14.7,0,29.4a3.37,3.37,0,0,1-1.277,2.874,2.941,2.941,0,0,1-1.655.654c-.17.009-.34.015-.51.015h-6q-7.69,0-15.381.007h-.01A3.156,3.156,0,0,1-4550.187,34.651Zm24.446.446a1.842,1.842,0,0,0,1.844-.967,2.91,2.91,0,0,0,.253-1.232q.022-11.887.011-23.774V3.46a1.97,1.97,0,0,0-.745-1.685,2.215,2.215,0,0,0-1.408-.395q-8.254,0-16.509,0h-4.716c-.1,0-.21,0-.314,0a1.715,1.715,0,0,0-1.745,1.387,19.341,19.341,0,0,0-.022,2.455c.865,0,1.739,0,2.613,0,.166,0,.382-.006.486.091a1.264,1.264,0,0,1,.4.623.55.55,0,0,1-.432.63,2.051,2.051,0,0,1-.541.064c-.846.006-1.692,0-2.556,0V10.15c.876,0,1.724,0,2.571,0a1.018,1.018,0,0,1,.567.094.9.9,0,0,1,.381.579,1.043,1.043,0,0,1-.362.634.847.847,0,0,1-.522.1c-.874.009-1.746,0-2.641,0v3.523h.4c.759,0,1.518,0,2.276,0,.576,0,.874.237.877.685s-.3.7-.863.7q-.785,0-1.571,0h-1.118v3.529h1.12c.562,0,1.124,0,1.686,0a.692.692,0,0,1,.744.7.68.68,0,0,1-.719.688c-.157.011-.316.009-.475.007l-.192,0h-2.164V24.92c.876,0,1.723,0,2.571,0a2.074,2.074,0,0,1,.5.062.611.611,0,0,1,.473.653.61.61,0,0,1-.484.644,2.206,2.206,0,0,1-.5.058c-.847.006-1.693,0-2.562,0V29.86c.466,0,.908,0,1.35,0h.435c.378,0,.756,0,1.133.017a.646.646,0,0,1,.636.68.685.685,0,0,1-.635.691,2.042,2.042,0,0,1-.284.008h-2.66c0,.627,0,1.188,0,1.75a1.859,1.859,0,0,0,2.035,2.09q3.767.007,7.533,0h6.925Q-4529.2,35.093-4525.741,35.1Zm-16.318-1.431V2.816h1.3V33.665Zm3.744-21.5v-7.4h11.232v7.4Zm1.378-1.4h8.479V6.145h-8.479Z" transform="translate(-9276.365 1744.253)" fill="#309d55" stroke="rgba(0,0,0,0)" stroke-miterlimit="10" stroke-width="1"/>
    <path id="Вычитание_17" data-name="Вычитание 17" d="M17481.5,2641a37.381,37.381,0,1,1,14.6-2.947A37.26,37.26,0,0,1,17481.5,2641Zm0-74a36.5,36.5,0,1,0,36.5,36.5A36.543,36.543,0,0,0,17481.5,2567Z" transform="translate(-31295.002 -841)" fill="#309d55"/>
  </g>
</svg>
