<svg xmlns="http://www.w3.org/2000/svg" width="75.004" height="74.999" viewBox="0 0 75.004 74.999">
  <g id="circle_icon_07" transform="translate(14326.004 -1725.001)">
    <path id="Объединение_36" data-name="Объединение 36" d="M-4546.581,35.5a.831.831,0,0,1-.917-.949q0-8.11,0-16.221v-.924c-1.2,0-2.348,0-3.5,0-.382,0-.771.016-.944-.419-.18-.454.1-.732.407-1.01q8.73-7.819,17.454-15.644c.514-.461.841-.446,1.333.043q7.949,7.9,15.9,15.812a1.563,1.563,0,0,1,.342.435c.215.478-.141.936-.729.961-.965.041-1.931.077-2.9.117-.086,0-.171.016-.287.027V34.482c0,.7-.216.942-.922,1-.174.015-.351.016-.526.016h-24.591Zm-.8-19.219c.825,0,1.056.234,1.056,1.057v17h24.745V17.822c0-1.106.145-1.252,1.243-1.28.686-.018,1.371-.047,1.911-.066l-15.006-15.184-16.724,14.989h2.776Zm13.194,15.943c-2.227-2.226-4.46-4.446-6.674-6.685a5.087,5.087,0,0,1-.52-6.771,5.094,5.094,0,0,1,7.3-.878c.161.132.315.271.5.436a5.2,5.2,0,0,1,2.669-1.482,5.123,5.123,0,0,1,6.142,4.672,5.067,5.067,0,0,1-1.537,4.014q-3.326,3.354-6.672,6.687a.907.907,0,0,1-.612.333A.89.89,0,0,1-4534.188,32.224Zm-7.073-10.611a4.027,4.027,0,0,0,1.284,3.187l6.166,6.167c.069.069.143.132.216.2a.557.557,0,0,0,.092-.058c2.186-2.19,4.388-4.362,6.546-6.579a3.611,3.611,0,0,0,.941-3.469,3.777,3.777,0,0,0-2.792-2.988,3.841,3.841,0,0,0-3.905,1.027c-.66.634-1.072.644-1.735-.006a3.983,3.983,0,0,0-2.765-1.2l-.115,0A3.945,3.945,0,0,0-4541.261,21.613Z" transform="translate(-9754 1745)" fill="#309d55"/>
    <path id="Вычитание_15" data-name="Вычитание 15" d="M17481.5,2641a37.381,37.381,0,1,1,14.6-2.947A37.26,37.26,0,0,1,17481.5,2641Zm0-74a36.5,36.5,0,1,0,36.5,36.5A36.543,36.543,0,0,0,17481.5,2567Z" transform="translate(-31770.002 -841)" fill="#309d55"/>
  </g>
</svg>
