<svg xmlns="http://www.w3.org/2000/svg" width="75.004" height="74.999" viewBox="0 0 75.004 74.999">
  <g id="circle_icon_12" transform="translate(8211.004 -2063.173)">
    <path id="Вычитание_15" data-name="Вычитание 15" d="M17481.5,2641a37.381,37.381,0,1,1,14.6-2.947A37.26,37.26,0,0,1,17481.5,2641Zm0-74a36.5,36.5,0,1,0,36.5,36.5A36.543,36.543,0,0,0,17481.5,2567Z" transform="translate(-25655.002 -502.828)" fill="#309d55"/>
    <g id="Сгруппировать_9243" data-name="Сгруппировать 9243" transform="translate(-10062.979 -224.825)">
      <path id="Контур_12236" data-name="Контур 12236" d="M1882.366,2315.9v-.2c0-.922-.006-1.844.006-2.766a2.645,2.645,0,0,1,.56-1.637,2.4,2.4,0,0,1,1.078-.788,3.237,3.237,0,0,1,1.13-.195q4.323,0,8.647,0a3.117,3.117,0,0,1,1.244.228,2.48,2.48,0,0,1,1.036.817,2.555,2.555,0,0,1,.5,1.333c.017.2.027.394.028.591,0,.805,0,1.611,0,2.416v.194c.079,0,.143.008.207.008q3.039,0,6.078,0a6.109,6.109,0,0,1,.8.038,2.362,2.362,0,0,1,1.228.522,2.677,2.677,0,0,1,.837,1.155,2.312,2.312,0,0,1,.149.74c.01.688.023,1.377.024,2.065q0,8.518,0,17.035a3.5,3.5,0,0,1-.165,1.136,2.406,2.406,0,0,1-1.382,1.469,2.848,2.848,0,0,1-1.117.252c-.263,0-.526.022-.789.022l-26.487,0a3.727,3.727,0,0,1-1.108-.147,2.549,2.549,0,0,1-1.8-2.111,3.226,3.226,0,0,1-.035-.514q0-4.544,0-9.088,0-4.871,0-9.741a3.272,3.272,0,0,1,.226-1.261,2.43,2.43,0,0,1,1.358-1.358,2.778,2.778,0,0,1,1.093-.219l6.428,0Zm-3.131,11.944v-2.778h-5.194v.2q0,3.085,0,6.17t0,6.155a2.075,2.075,0,0,0,.038.437,1.514,1.514,0,0,0,1.136,1.219,2.561,2.561,0,0,0,.705.086H1903c.041,0,.081,0,.122,0a2.377,2.377,0,0,0,.814-.159,1.477,1.477,0,0,0,.838-.866,2.374,2.374,0,0,0,.139-.863q.008-6.1,0-12.2c0-.049-.006-.1-.008-.144-.16-.034-5.084-.029-5.215.007v.919c0,.3,0,.608,0,.912s.009.614-.007.916a.289.289,0,0,1-.06.017l-.821,0c-.074,0-.115-.029-.113-.107,0-.041,0-.081,0-.122q0-1.185,0-2.371c0-.059,0-.118-.008-.174a.212.212,0,0,0-.055-.02l-18.235,0a1.177,1.177,0,0,0-.12.01s-.008.005-.012.008l-.021.024v1.627c0,.182,0,.365,0,.547s0,.361,0,.548Zm25.683-3.836v-.187q0-2.522,0-5.045a3.075,3.075,0,0,0-.06-.617,1.469,1.469,0,0,0-1.131-1.2,2.877,2.877,0,0,0-.737-.081h-13.221l-13.8,0a2.483,2.483,0,0,0-.734.092,1.623,1.623,0,0,0-1.054.935,1.944,1.944,0,0,0-.141.815q.007,1.808.005,3.617c0,.507,0,1.013,0,1.52,0,.053.006.106.01.159.044,0,.069.01.094.01h5.015a.2.2,0,0,0,.044-.009.031.031,0,0,0,.012-.008l.025-.025v-1.64c0-.187,0-.375,0-.562s0-.361,0-.545h1.021v.188q0,1.208,0,2.416c0,.058.007.116.011.175h18.437v-.187q0-1.208,0-2.416c0-.058.008-.116.013-.183.34.005.66-.012.992.012v.2q0,1.2,0,2.4c0,.058.007.116.01.172Zm-9.33-8.144v-.2c0-.83,0-1.661,0-2.491a2.847,2.847,0,0,0-.062-.617,1.488,1.488,0,0,0-.979-1.129,2.046,2.046,0,0,0-.714-.116h-8.7a2.2,2.2,0,0,0-.3.009,1.667,1.667,0,0,0-1.458,1.655c.019.911.006,1.823.008,2.734,0,.049.005.1.009.156Z" fill="#309d55"/>
    </g>
  </g>
</svg>
