<svg xmlns="http://www.w3.org/2000/svg" width="75.004" height="74.999" viewBox="0 0 75.004 74.999">
  <g id="circle_icon_06" transform="translate(14563 -1725.001)">
    <path id="Объединение_35" data-name="Объединение 35" d="M-4542.548,28.244l.981-.591a17.515,17.515,0,0,0,15.436,8.586v1.125a7.911,7.911,0,0,1-1.4.119C-4532.855,37.484-4540.482,32.95-4542.548,28.244Zm20.515,8.326a9.976,9.976,0,0,1,9.5-8.719,10.1,10.1,0,0,1,10.508,8.719Zm9.416-7.5c-4.32.275-7.34,3.692-7.825,6.211h16.769a8.741,8.741,0,0,0-8.366-6.229C-4512.23,29.055-4512.422,29.061-4512.618,29.074Zm-5.477-8.547a6.08,6.08,0,0,1,6.046-6.122,6.1,6.1,0,0,1,6.069,6.162,6.114,6.114,0,0,1-6.056,6.179h-.006A6.087,6.087,0,0,1-4518.095,20.526Zm6.041-4.895a4.882,4.882,0,0,0-4.825,4.927,4.883,4.883,0,0,0,4.848,4.959,4.916,4.916,0,0,0,4.837-4.929,4.9,4.9,0,0,0-4.847-4.957ZM-4552,23.065a10.051,10.051,0,0,1,10.767-8.7,10.033,10.033,0,0,1,9.237,8.7Zm9.542-7.438a8.654,8.654,0,0,0-7.963,6.225h16.808a8.785,8.785,0,0,0-8.45-6.233Q-4542.259,15.619-4542.458,15.627Zm-5.6-8.641A6.146,6.146,0,0,1-4542,.9a6.157,6.157,0,0,1,6.094,6.212,6.171,6.171,0,0,1-6.064,6.15h-.017A6.153,6.153,0,0,1-4548.06,6.987Zm1.237,0a4.9,4.9,0,0,0,4.841,5.02,4.844,4.844,0,0,0,4.823-4.914,4.921,4.921,0,0,0-4.811-4.962H-4542A4.892,4.892,0,0,0-4546.823,6.985Zm36.267,5.045a.555.555,0,0,1-.331-.307,17.764,17.764,0,0,0-7.59-8.358,15.955,15.955,0,0,0-5.884-1.949,16.786,16.786,0,0,0-7.585.685c-.153.051-.312.09-.521.15l-.365-1.156c8.7-3.227,19.272.759,23.368,10.95-.231,0-.442.009-.643.009A3.581,3.581,0,0,1-4510.556,12.03Z" transform="translate(-9998.972 1743.758)" fill="#309d55"/>
    <path id="Вычитание_14" data-name="Вычитание 14" d="M17481.5,2641a37.381,37.381,0,1,1,14.6-2.947A37.26,37.26,0,0,1,17481.5,2641Zm0-74a36.5,36.5,0,1,0,36.5,36.5A36.543,36.543,0,0,0,17481.5,2567Z" transform="translate(-32006.998 -841)" fill="#309d55"/>
  </g>
</svg>
