<svg xmlns="http://www.w3.org/2000/svg" width="75.004" height="74.999" viewBox="0 0 75.004 74.999">
  <g id="circle_icon_04" transform="translate(-1268.998 -2407.001)">
    <path id="Вычитание_12" data-name="Вычитание 12" d="M17481.5,2641a37.381,37.381,0,1,1,14.6-2.947A37.26,37.26,0,0,1,17481.5,2641Zm0-74a36.5,36.5,0,1,0,36.5,36.5A36.543,36.543,0,0,0,17481.5,2567Z" transform="translate(-16175 -159)" fill="#309d55"/>
    <path id="Объединение_31" data-name="Объединение 31" d="M-4204-3563.094c.032-4.073.012-8.148.012-12.222,0-4,.029-8.006-.015-12.008a2.083,2.083,0,0,1,2.276-2.255c2.541.019,5.082.018,7.622.017q2.706,0,5.413.005a1.067,1.067,0,0,1,.664.263q2.39,2.261,4.741,4.565a.843.843,0,0,1,.235.543c.012,7.038,0,14.075.021,21.112a2.042,2.042,0,0,1-2.056,2.072q-8.418-.044-16.838,0h-.012A2.041,2.041,0,0,1-4204-3563.094Zm17.916.906a1.706,1.706,0,0,0,1.8-1.431,4.518,4.518,0,0,0-.017-.838q0-9.463,0-18.927v-.554h-3.226c-1.011,0-1.315-.307-1.318-1.331s0-2.021,0-3.1H-4200.8a1.737,1.737,0,0,0-1.981,1.957q0,11.15,0,22.3a2.473,2.473,0,0,0,.067.675,1.671,1.671,0,0,0,1.852,1.248q5.768,0,11.536,0C-4188.246-3562.186-4187.164-3562.179-4186.082-3562.187Zm-1.829-25.231c0,.7-.034,1.412.024,2.112a.713.713,0,0,0,.5.475c.726.057,1.46.023,2.054.023l-2.454-2.681Zm5.93,20.7v-1.1a5.522,5.522,0,0,0,.679-.087,1.759,1.759,0,0,0,1.3-1.833q.011-9.828,0-19.656c0-.071-.014-.141-.027-.267h-1.568c-.612,0-1.226,0-1.837,0-.773,0-1.122-.334-1.133-1.117-.013-.955,0-1.909,0-2.863v-.449h-11.966a1.8,1.8,0,0,0-1.979,1.949c0,.524,0,1.049,0,1.6h-1.118c0-1.087-.076-2.182.025-3.261a1.706,1.706,0,0,1,1.672-1.444c.155-.011.313-.014.469-.014h3.025q5,0,10.008-.006a.979.979,0,0,1,.752.3c1.561,1.521,3.138,3.024,4.7,4.547a.793.793,0,0,1,.219.508q.016,10.6.006,21.2a1.872,1.872,0,0,1-1.888,2c-.163.011-.327.014-.492.014C-4181.412-3566.71-4181.692-3566.72-4181.98-3566.72Zm-1.629-24.353a.751.751,0,0,0,.5.52c.725.061,1.458.024,2.293.024l-2.818-2.712C-4183.633-3592.45-4183.671-3591.757-4183.61-3591.073Zm-16.916,22.851v-.9h13.988v.9Zm0-3.8v-.9h13.983v.9Zm22.842-.4v-1.138c.109-.01.231-.025.353-.031a1.671,1.671,0,0,0,1.581-1.465,4.781,4.781,0,0,0,.026-.555q0-9.637,0-19.275v-.5h-3.34c-.864,0-1.195-.307-1.213-1.171-.018-.826,0-1.653,0-2.479v-.766h-11.916a1.785,1.785,0,0,0-2.03,2.053c0,.482,0,.964,0,1.478h-1.172c0-1.043-.06-2.083.018-3.111a1.769,1.769,0,0,1,1.691-1.592,4.714,4.714,0,0,1,.512-.026q6.518,0,13.036-.007a.931.931,0,0,1,.716.281c1.562,1.52,3.14,3.024,4.7,4.548a.842.842,0,0,1,.236.543q.018,10.621.009,21.242a1.91,1.91,0,0,1-1.889,1.966c-.159.01-.317.014-.478.014C-4177.117-3572.407-4177.393-3572.416-4177.681-3572.416Zm-1.678-24.492c.009.452.2.655.652.667.681.016,1.362,0,2.184,0l-2.839-2.727C-4179.361-3598.206-4179.37-3597.557-4179.358-3596.908Zm-21.182,21.072v-.9h13.989v.9Zm0-3.8v-.9h14v.9Zm.013-3.819v-.885h7.951v.885Z" transform="translate(5495.739 6025.5)" fill="#309d55" stroke="rgba(0,0,0,0)" stroke-miterlimit="10" stroke-width="1"/>
  </g>
</svg>
