<svg xmlns="http://www.w3.org/2000/svg" width="75.004" height="74.999" viewBox="0 0 75.004 74.999">
  <g id="circle_icon_05" transform="translate(14801.004 -1725.001)">
    <g id="Сгруппировать_9074" data-name="Сгруппировать 9074" transform="translate(-15679.36 -701.673)">
      <path id="Контур_12094" data-name="Контур 12094" d="M903.894,2454.344a7.036,7.036,0,0,1,13.394-3.222c.293-.136.58-.288.881-.406a6.979,6.979,0,0,1,7.1,1.127,6.694,6.694,0,0,1,1.773,2.254.425.425,0,0,0,.4.274,2.536,2.536,0,0,1,2.362,2.078,3.676,3.676,0,0,1,.064.77c.006,1.51,0,3.02,0,4.53v.379h1.1c.139,0,.279-.007.417,0a.523.523,0,0,1,.544.545c0,.079,0,.159,0,.239q0,3.889,0,7.779c0,.631-.159.789-.791.789h-1.256c-.005.13-.013.244-.013.358,0,1.52,0,3.04,0,4.56a3.492,3.492,0,0,1-.142,1.027,2.573,2.573,0,0,1-2.279,1.809c-.148.011-.3.012-.447.012H902.626a2.821,2.821,0,0,1-1.571-.368,2.537,2.537,0,0,1-1.263-2.1c-.005-.1-.008-.2-.008-.3q0-9.687,0-19.374a2.726,2.726,0,0,1,.334-1.43,2.445,2.445,0,0,1,2.009-1.3c.475-.033.952-.025,1.429-.034C903.661,2454.343,903.768,2454.344,903.894,2454.344Zm24.935,7.785c0-.149,0-.257,0-.366q0-2.131,0-4.263c0-.2,0-.4,0-.6a1.534,1.534,0,0,0-1.219-1.463,2.937,2.937,0,0,0-.561-.048q-12.221,0-24.443,0a3.255,3.255,0,0,0-.328.007,1.54,1.54,0,0,0-1.313.9,1.819,1.819,0,0,0-.154.812q0,9.688,0,19.375c0,.089,0,.179.006.268a1.526,1.526,0,0,0,1.327,1.428,3.644,3.644,0,0,0,.534.036q12.147,0,24.294,0c.089,0,.179,0,.268,0a1.587,1.587,0,0,0,1.3-.666,1.74,1.74,0,0,0,.292-1.013q0-2.4,0-4.8c0-.077-.009-.153-.015-.254H928.5c-.547,0-1.093.007-1.639,0a4.647,4.647,0,0,1-3.369-1.343,4.664,4.664,0,0,1,1.839-7.778,4.615,4.615,0,0,1,1.493-.231Zm-12.458-10.368a5.915,5.915,0,0,0-11.361,2.566c.083.005.17.016.256.016q4.437,0,8.875.005a.369.369,0,0,0,.389-.238,6.139,6.139,0,0,1,1.046-1.547C915.832,2452.291,916.1,2452.03,916.37,2451.762Zm14.518,11.439a1.724,1.724,0,0,0-.188-.021c-1.31,0-2.62,0-3.931,0a3.622,3.622,0,0,0-3.635,3.711,3.571,3.571,0,0,0,3.6,3.533q1.965,0,3.931,0a2.093,2.093,0,0,0,.224-.024Zm-4.927-8.877a5.889,5.889,0,0,0-10.357,0Z" fill="#309d55"/>
    </g>
    <path id="Вычитание_13" data-name="Вычитание 13" d="M17481.5,2641a37.381,37.381,0,1,1,14.6-2.947A37.26,37.26,0,0,1,17481.5,2641Zm0-74a36.5,36.5,0,1,0,36.5,36.5A36.543,36.543,0,0,0,17481.5,2567Z" transform="translate(-32245.002 -841)" fill="#309d55"/>
  </g>
</svg>
