<svg xmlns="http://www.w3.org/2000/svg" width="75.004" height="74.999" viewBox="0 0 75.004 74.999">
  <g id="circle_icon_11" transform="translate(7914.004 -1944.173)">
    <path id="Вычитание_13" data-name="Вычитание 13" d="M17481.5,2641a37.381,37.381,0,1,1,14.6-2.947A37.26,37.26,0,0,1,17481.5,2641Zm0-74a36.5,36.5,0,1,0,36.5,36.5A36.543,36.543,0,0,0,17481.5,2567Z" transform="translate(-25358.002 -621.828)" fill="#309d55"/>
    <path id="Объединение_40" data-name="Объединение 40" d="M.006,41.943c.423-.1.852-.2,1.281-.3a36.144,36.144,0,0,1,8.122-.74c1.489,0,2.978.006,4.466.041a19.055,19.055,0,0,1,4.423.671,6.715,6.715,0,0,0,4.6-.419c5.867-2.618,11.59-5.5,17.216-8.576a9.622,9.622,0,0,0,1.944-1.276A1.884,1.884,0,0,0,42.8,29.8a1.665,1.665,0,0,0-1.52-1.477,2.18,2.18,0,0,0-1.256.17q-5.451,2.441-10.9,4.89a1.064,1.064,0,0,0-.424.415,3.468,3.468,0,0,1-2.444,1.7,4.763,4.763,0,0,1-.819.068q-6.723.006-13.448,0H11.8v-.962h.277q6.7,0,13.4,0a2.5,2.5,0,0,0,2.5-1.652,1.208,1.208,0,0,0-.07-1.1,1.938,1.938,0,0,0-1.744-1.078c-1.623-.014-3.246-.038-4.868-.007a15.78,15.78,0,0,1-4.793-.653c-1.365-.4-2.743-.783-4.138-1.06a11.705,11.705,0,0,0-6.957.725c-1.131.478-2.221,1.051-3.335,1.569-.678.316-1.367.61-2.075.925,0-.331,0-.645,0-.957A.177.177,0,0,1,.1,31.2c1.828-.851,3.651-1.711,5.49-2.539a9.943,9.943,0,0,1,2.876-.689,17.308,17.308,0,0,1,7.124.876c1,.295,2,.568,3.024.768a11.714,11.714,0,0,0,2.1.168c1.008.011,2.018.008,3.026,0,.739,0,1.48-.005,2.219,0a3.01,3.01,0,0,1,2.7,1.414,5.241,5.241,0,0,1,.33.727c.05.117.095.238.148.372.848-.377,1.676-.741,2.5-1.113,2.624-1.181,5.243-2.37,7.871-3.544a3.1,3.1,0,0,1,3.307.314,2.45,2.45,0,0,1,.448,3.508,5.56,5.56,0,0,1-1.882,1.58c-5.33,2.922-10.729,5.716-16.279,8.227-.872.4-1.742.8-2.635,1.138a6.573,6.573,0,0,1-4.078.222,27.713,27.713,0,0,0-7.283-.8c-1.873.016-3.748.07-5.618.185A29.848,29.848,0,0,0,.2,42.878l-.194.045ZM30.511,26.222H25.337c-.273,0-.273,0-.273-.273q0-2.456.005-4.912c0-.6.01-1.192,0-1.788a.58.58,0,0,0-.614-.628c-.336-.018-.673-.015-1.008-.011-.172,0-.343,0-.514,0q-1.194,0-2.388-.013c-.094,0-.189,0-.283,0-.074,0-.15,0-.225,0-.2-.005-.381-.009-.452.06-.1.1-.083.436-.083.7q0,3.305.006,6.609c0,.251,0,.252-.254.252q-1.8-.006-3.594-.01c-.6,0-1.192.007-1.787.009-.233,0-.248-.014-.248-.237q0-4.985.005-9.968c0-.317.009-.633,0-.948a.574.574,0,0,0-.589-.61c-.242-.024-.488-.006-.732-.006H9.516c-.041,0-.083-.009-.162-.018.358-.3.688-.574,1.021-.849l11.7-9.643c.2-.163.228-.162.445.015,1.05.858,2.1,1.719,3.153,2.574.238.191.5.354.79.555V6.154c0-.232,0-.463-.008-.694-.007-.139.054-.185.185-.183.351.006.7.014,1.053.013.758,0,1.517-.009,2.275-.012.248,0,.253,0,.252.243,0,1.3,0,2.6-.014,3.907a1.481,1.481,0,0,0,.173.9,1.978,1.978,0,0,0,.356.4q2.165,1.8,4.337,3.589c.042.034.081.072.161.143H31.659a2.007,2.007,0,0,0-.281.016.428.428,0,0,0-.406.37,2.111,2.111,0,0,0-.03.381q0,5.367,0,10.735v.267Zm-4.844-8.5c.266,0,.267,0,.267.261q0,3.331-.005,6.663a2.183,2.183,0,0,0,.009.274.459.459,0,0,0,.429.435,1.745,1.745,0,0,0,.281.023q1.261.006,2.521.008c.685,0,.871-.176.87-.842q0-5.33-.005-10.661V13.6h2.994c-.078-.067-.114-.1-.151-.127-.468-.336-.947-.658-1.4-1.009-.667-.515-1.316-1.053-1.977-1.575a.353.353,0,0,1-.142-.312c0-1.406,0-2.811,0-4.217V6.152h-2.01V9.095c-.1-.076-.164-.129-.23-.184L22.839,5.339a.732.732,0,0,0-1.114,0Q17.269,9.02,12.815,12.7a11.859,11.859,0,0,0-.878.9h2.6v.246q0,5.112,0,10.223c0,.2-.01.4,0,.6.017.524.216.713.752.71s1.066-.017,1.6-.018c.171,0,.343,0,.514.008s.359.01.539.009a.621.621,0,0,0,.7-.583,1.468,1.468,0,0,0,.022-.253c0-1.138-.014-2.276-.017-3.414,0-1.059,0-2.117,0-3.176,0-.236,0-.236.25-.236Z" transform="translate(-7898.402 1957.628)" fill="#309d55"/>
  </g>
</svg>
