<svg xmlns="http://www.w3.org/2000/svg" xmlns:xlink="http://www.w3.org/1999/xlink" width="570.5" height="248.656" viewBox="0 0 570.5 248.656">
  <defs>
    <linearGradient id="linear-gradient" x1="0.556" y1="0.627" x2="0.965" y2="0.113" gradientUnits="objectBoundingBox">
      <stop offset="0" stop-color="#ff8a4c"/>
      <stop offset="1" stop-color="#ec651d"/>
    </linearGradient>
    <linearGradient id="linear-gradient-2" x1="0.243" y1="0.262" x2="0.413" y2="0.719" xlink:href="#linear-gradient"/>
    <linearGradient id="linear-gradient-3" x1="0.196" y1="0.416" x2="0.329" y2="1.008" xlink:href="#linear-gradient"/>
    <linearGradient id="linear-gradient-4" x1="0.556" y1="0.627" x2="0.906" y2="0" xlink:href="#linear-gradient"/>
    <clipPath id="clip-path">
      <path id="Вычитание_2" data-name="Вычитание 2" d="M155.924,78.909,228.469,6.364,249.5,27.4,197.987,78.909Z" transform="translate(916.689 1586.863)" fill="url(#linear-gradient)"/>
    </clipPath>
    <clipPath id="clip-path-2">
      <rect id="Прямоугольник_191" data-name="Прямоугольник 191" width="29.743" height="118.138" transform="translate(1139.383 1599.132) rotate(-45)" fill="url(#linear-gradient-2)"/>
    </clipPath>
    <linearGradient id="linear-gradient-7" x1="0.5" y1="0" x2="0.441" y2="0.796" xlink:href="#linear-gradient"/>
    <clipPath id="clip-path-3">
      <path id="Вычитание_1" data-name="Вычитание 1" d="M200,151.571h0V15.656L229.743,45.4V151.571H200Z" transform="translate(1015.258 1616.945)" fill="#ffb994"/>
    </clipPath>
    <clipPath id="clip-path-4">
      <rect id="Прямоугольник_193" data-name="Прямоугольник 193" width="29.743" height="59.485" transform="translate(1030.658 1623.604) rotate(-45)" fill="url(#linear-gradient-3)"/>
    </clipPath>
    <clipPath id="clip-path-5">
      <path id="Вычитание_3" data-name="Вычитание 3" d="M172.532,57.721H130.469l42.165-42.165,21.031,21.031-21.15,21.15Z" transform="translate(858.023 1608.048)" fill="url(#linear-gradient-4)"/>
    </clipPath>
  </defs>
  <g id="barin_logo" transform="translate(-993.5 -381.943)">
    <path id="Объединение_67" data-name="Объединение 67" d="M-371.189-3524.76q-4.736-4.9-4.737-12.756,0-8.3,4.81-13.427t12.743-5.127a15.891,15.891,0,0,1,12.122,4.907q4.626,4.908,4.625,12.939,0,8.254-4.8,13.306a16.467,16.467,0,0,1-12.513,5.053A16.294,16.294,0,0,1-371.189-3524.76Zm6-21.41a12.978,12.978,0,0,0-2.441,8.239q0,5.2,2.441,8.228a7.822,7.822,0,0,0,6.4,3.028,7.9,7.9,0,0,0,6.47-2.942q2.392-2.942,2.393-8.167,0-5.443-2.319-8.471a7.563,7.563,0,0,0-6.348-3.029A7.936,7.936,0,0,0-365.184-3546.17Zm77.222,25.695v-35.01h20.191v6.421h-12.305v7.789h11.45v6.4h-11.45v8.007h13.111v6.4Zm-15.746,0v-20.947q0-3.393.293-7.495h-.2a36.936,36.936,0,0,1-1.1,4.638l-8.2,23.8h-6.445l-8.35-23.56a45.692,45.692,0,0,1-1.1-4.882h-.219q.318,5.177.318,9.083v19.359h-7.1v-35.01h11.547l7.154,20.752a29.419,29.419,0,0,1,1.245,5.006h.146a50.759,50.759,0,0,1,1.392-5.054l7.154-20.7h11.254v35.01Zm-85.937,0v-14.258h-14.5v14.258h-7.886v-35.01h7.886v13.966h14.5v-13.966h7.91v35.01Zm482.472-59.4L19.74-3654.663v47.553q0,16.377,6.067,20.2t16.5,3.825v2.363H-1.973v-2.363a25.646,25.646,0,0,0,13.222-3.64q6.189-3.64,6.185-17.411v-41q0-10.917-4.636-14.4t-13.136-3.49v-2.366H33.629l58.956,60.475v-30.027q0-17.161-5.7-22.623a19.974,19.974,0,0,0-14.378-5.459v-2.366h41.851v2.366q-8.494,0-13.979,4.914t-5.489,23.775v54.469Zm-158.85-.85v-2.363q10.915,0,14.346-4.125t3.426-13.043v-45.611q0-8.914-3.426-13.041t-14.346-4.125v-2.366H-12.65v2.366q-10.917,0-14.344,4.125t-3.428,13.041v45.611q0,8.918,3.428,13.043t14.344,4.125v2.363Zm-44.22,0-29.414-41.426h-18.621v21.894q0,8.918,3.426,13.043t14.346,4.125v2.363h-53.377v-2.363q10.919,0,14.346-4.125t3.426-13.043v-45.611q0-8.914-3.426-13.041t-14.346-4.125v-2.366h69.511q19.772,0,27.505,6.43t7.733,14.071v2.67q0,8.553-10.646,14.314t-26.109,5.763h-10.8a164.435,164.435,0,0,0,14.617,7.791,71.686,71.686,0,0,0,11.584,3.61l14.557,20.442a15.833,15.833,0,0,0,7.7,5.882,33.749,33.749,0,0,0,10.071,1.337v2.363Zm-48.035-43.67h21.773q16.255,0,21.655-5.371a17.732,17.732,0,0,0,5.4-13.068v-1.878a17.439,17.439,0,0,0-5.581-13.1q-5.583-5.34-22.258-5.336h-20.988Zm-92.5,43.67v-2.363q10.491,0,13.069-1.367a4.524,4.524,0,0,0,2.58-4.278q-.126-3.091-7.462-18.5h-35.3l-3.7,8.311a14.912,14.912,0,0,0-.606,4.975q.545,5.581,3.972,8.218a13.071,13.071,0,0,0,8.218,2.64v2.363H-304.76v-2.363q14.8,0,25.84-28.691l24.442-55.255h2.67l35.423,76.786a11.608,11.608,0,0,0,6.427,5.794,26.2,26.2,0,0,0,8.493,1.367v2.363Zm-26.265-28.749H-243.8l-16.681-37.3ZM-416-3580.726v-2.363q10.919,0,14.346-4.125t3.426-13.043v-45.611q0-8.914-3.426-13.041T-416-3663.034v-2.366h64.961q15.345,0,23.536,6.034t8.187,14.71q0,8.493-10.068,13.647t-16.558,5.821q13.766,2.309,22.137,7.8t8.371,15.134q0,10.612-10.706,16.07a51.365,51.365,0,0,1-23.685,5.46Zm35.787-2.305h18.621q12.31,0,18.8-5.339t6.488-15.527q0-9.459-7.065-14.678t-21.987-5.214h-14.86Zm0-43.246h15.467q15.587,0,20.562-5.671a20.206,20.206,0,0,0,4.971-13.8q0-8.19-4.4-12.891t-17.862-4.7h-18.742Z" transform="translate(1410 4149.964)" fill="#1b1b1b" stroke="rgba(0,0,0,0)" stroke-miterlimit="10" stroke-width="1"/>
    <g id="Сгруппировать_9088" data-name="Сгруппировать 9088">
      <g id="Сгруппировать_5228" data-name="Сгруппировать 5228" transform="translate(319 -1196.157)">
        <path id="Вычитание_2-2" data-name="Вычитание 2" d="M155.924,78.909,228.469,6.364,249.5,27.4,197.987,78.909Z" transform="translate(916.689 1586.863)" fill="url(#linear-gradient)"/>
        <g id="Группа_масок_9" data-name="Группа масок 9" clip-path="url(#clip-path)">
          <g id="Сгруппировать_5227" data-name="Сгруппировать 5227" transform="translate(-1218.892 1664.923) rotate(-45)">
            <path id="Контур_8270" data-name="Контур 8270" d="M159.059,256.34c-.449.044-.9.077-1.357.1A12.7,12.7,0,0,0,159.059,256.34Z" transform="translate(1635.039 1352.999)" fill="#ffbc98"/>
            <path id="Контур_8271" data-name="Контур 8271" d="M122.867,289.311c5.168-2.121,10.826-5.349,16.581-5.617,6.418-.3,13.212.038,19.413.335,6.647.315,32.21-3.962,35.055-7.554-4.316-.757-24.2,1.27-29.142.775-14.152-1.415-26.13-2.043-40.476-2.747-6.376-.314-37.2,2.667-56.536-6.05-2.215-1-6.853-2.148-8.414-1.788-.67,2.438,20.949,7.914,23.533,8.772,6.085,2.015,13.822,1.353,20.176,1.049,6.624-.315,13.988-1.106,20.174.672C132.879,279.924,127.956,284.3,122.867,289.311Z" transform="translate(1572.638 1359.505)" fill="#ffbc98" opacity="0.45"/>
            <path id="Контур_8272" data-name="Контур 8272" d="M287.547,257.622c-5.5,1.245-11.776,2.935-17.023,2.422-7.681-.749-13.209,2.579-20.194,5.086-6.549,2.349-13.407,2.919-20.2,3.991-9.17,1.445-15.86,2.952-25.548,1.156-9.635-1.785-17.251-2.422-26.79-1.538-7.418.69-11.666-8.219-18.132-5.4-12.885,5.632-20.33,10.468-33.718,8.468-6.309-.945-12.078-4.114-18.388-3.127-13.866,2.167-19.088-1.808-25.8.056-5.3,1.471-18.04-3.625-19.671-.894-1.412,2.362,11.962,7.561,30.788,7.909,6.946,1.726,12.228,1.593,19.39,2.051,11.315.721,43.946.721,50.632.721,11.1,0,32.705-2.211,43.753-1.126,16.438,1.621,35.031,1.611,51.5-.811,10.395-1.53,19.249-5.555,29.387-7.059Z" transform="translate(1574.323 1353.812)" fill="#ffbc98" opacity="0.32"/>
            <path id="Контур_8323" data-name="Контур 8323" d="M132.08,282.368c-11.458-.363-40.857-13.175-49.841-15.9-12.619-3.823-21.676-2.149-28.23-1.141-15.961,2.456-15.227-2.764-29.758-2.682C15.9,262.7,10.158,265.391.1,262.7l-.1.263v1.718c3.35.809,13.812,1.1,23.066-.059,10.676-1.337,13.846,5.053,30.639,4,3.46-.217,13.784-2.615,27.916,1.1,8.989,2.358,30.731,11.508,50.459,14.677,4.56.732,23.406-1.505,24.152,1.268,1.37,5.093-16.345,6.3-25.646,7.188-17.847,1.708-24.573-2.277-30.389-3.87-9.314-2.554-28.129,7.124-39.891,5.9s-19.385-3.968-27.7-4.06c-7.732-.083-14.907,2.573-20.273,2.37-1.057-.041-7.163-.682-12.331-1.237v2.7c4.364.144,9.213.315,10.251.353,5.691.214,19.428-1.968,20.951-2.185,5.624-.8,20.322,4.761,34.313,3.764s24.458-8.379,36.832-5.063c4.3,1.151,11.686,5.183,26.6,3.471,14.9-1.706,34.073-2.823,33.957-9.664S140.538,282.635,132.08,282.368Z" transform="translate(1535 1356.999)" fill="#ffbc98" opacity="0.32"/>
            <path id="Контур_8325" data-name="Контур 8325" d="M85.147,270.928c-8.015-3.605-16.623-2.868-25.736-2.09-7.614.65-15.484,1.322-23.08-.726-5.938-1.6-16.749-.982-27.2-.384-3.192.185-6.3.361-9.126.464v1.652c2.86-.1,6-.281,9.223-.466,9.84-.564,21-1.2,26.678.33,7.876,2.121,15.894,1.438,23.649.775,8.894-.76,17.3-1.476,24.921,1.95,24.7,11.11,52.079,10.785,52.314,12.892.34,3.032-14.047,2.347-23.553.283-10.512-2.283-23.929-7.034-34.92-3.808-16.639,4.882-40.011,2.612-59.741.364-6.49-.74-12.751-1.451-18.571-1.888v1.657c5.755.435,11.957,1.139,18.385,1.871,19.885,2.265,45.1,4.2,62.061-.778,10.584-3.105,23.054.925,31.133,3.869,10.535,3.836,34.532,2.917,29.91-2.206C138.755,281.66,110.933,282.525,85.147,270.928Z" transform="translate(1535 1359.82)" fill="#ffbc98" opacity="0.32"/>
            <path id="Контур_8326" data-name="Контур 8326" d="M58.873,271.312c-11.159,1.193-31.492-1.592-35.413-1.736A155.147,155.147,0,0,0,0,270.637v.971a96.264,96.264,0,0,1,20.534-.294c3.738.327,14.188,1.85,16.237,2.074,6.17.683,10.976.222,22.217-.979,9.566-1.021,24.053-.2,26.692,2.172a.749.749,0,0,1,.307.516v.008c-.239.4-2.622.358-4.2.335a39.2,39.2,0,0,0-4.865.118,24.933,24.933,0,0,0-5.88,1.687,26.353,26.353,0,0,1-5.124,1.554c-3.144.477-6.372-.054-9.79-.616a47.055,47.055,0,0,0-7.565-.83c-2.015,0-14.085.533-18.058-.015-2.661-.365-10.944-2.015-18.5-2.908A72.445,72.445,0,0,0,0,274.4v1.147a97.1,97.1,0,0,1,11.885-.021c3.506.309,15.789,2.538,18.471,2.906a67.949,67.949,0,0,0,12.22.2c1.963-.085,3.994-.178,5.987-.178a46.116,46.116,0,0,1,7.386.819c3.35.551,6.819,1.124,10.135.619a27.193,27.193,0,0,0,5.346-1.613,24.194,24.194,0,0,1,5.614-1.623,39.009,39.009,0,0,1,4.725-.113c2.72.047,4.292.038,4.982-.639a1.11,1.11,0,0,0,.34-.8,1.78,1.78,0,0,0-.675-1.335C83.2,270.866,67.708,270.369,58.873,271.312Z" transform="translate(1535 1361.352)" fill="#ffbc98" opacity="0.32"/>
            <path id="Контур_8341" data-name="Контур 8341" d="M326.871,265.636c-24.991,6.58-66.986,11.481-94.033,9.811-20.465-1.27-20.787-11.217-34.385-2.589-8.124,5.153-31.1,3.373-44.561,3.251-20.4-.188-58.25-16.076-90.055-15.961C50.225,260.2,13.245,262.162,0,262.729v.977c14.825-.059,58.087-.554,63.83-.775,23.26-.9,44.242,10.79,73.675,13.849,19.362,2.015,75.4-1.334,98.914,1.213,27.475,2.978,61.171,1.563,90.452-6.4Z" transform="translate(1535 1355.414)" fill="#ffbc98" opacity="0.32"/>
            <path id="Контур_8342" data-name="Контур 8342" d="M326.871,265.573c-24.986,6.588-67.022,11.5-94.086,9.822-20.465-1.267-20.787-11.213-34.384-2.589-8.126,5.155-31.1,3.377-44.562,3.252-20.4-.186-58.253-16.074-90.056-15.961-13.593.049-50.492,2.009-63.782,2.581v.977c14.876-.06,58.042-.551,63.774-.773,23.262-.9,44.245,10.79,73.677,13.85,19.361,2.015,75.406-1.337,98.914,1.213,27.491,2.981,61.211,1.559,90.506-6.412Z" transform="translate(1535 1355.383)" fill="#ffbc98" opacity="0.45"/>
            <path id="Контур_8343" data-name="Контур 8343" d="M125.988,270.161c-5.6-.783-10.767-2.273-16.324-3.045-5.817-.807-10.967.951-16.321.9-4.334-.039-11.123-3.113-15.057-5.181-5.148-2.7-8.776-3.3-15.072-3.475,12.758,5.691,23.224,14.209,35.281,11.646,7.389-1.571,31.886,7.085,41.236,2.246,13.191-6.825,39.63-10.937,43.657-11.584,5.6-.9,15.159-4.233,20.648-4.851-7.044,0-13.385-.683-19.964.954s-32.841,7.5-39.28,9.27C139.046,268.627,131.872,270.978,125.988,270.161Z" transform="translate(1575.1 1353.215)" fill="#ffbc98" opacity="0.58"/>
            <path id="Контур_8344" data-name="Контур 8344" d="M97.27,262.853c-9.126,3.882-23.3-4.879-24.376-5.59l-1.02,1.551c1.276.842,14.784,9.056,25.494,5.892,5.214-1.541,24.975,1.314,27.294,1.314,6.832.34,17.285-2.192,20.093-2.795a62.043,62.043,0,0,0,16.056-5.6l-3.8-.838a57.737,57.737,0,0,1-14.415,5.487C126.434,266.178,108.5,258.081,97.27,262.853Z" transform="translate(1580.594 1353.284)" fill="#ffbc98" opacity="0.32"/>
            <path id="Контур_8345" data-name="Контур 8345" d="M244.644,265.016c-8.319,2.175-22.5,2.157-24.115,2.211-6.853.224-13.477.374-19.691,1.741-2.527.556-21,5.4-26.777,2.878-.778-.34-6.26-1.83-7.827-2.244-3.512-.936-9.992-.044-13.73.327-2.934.289-13.614-1.33-14.627-2.96s14.33-4.663,30.6-5.446c10.327-.5,15.731,1,21.616,1.858,12.509,1.831,40.109-.982,54.548-4.71v-1.409c-13.068,3.671-43.639,4.656-54.548,3.921-6.013-.405-11.28-2.94-21.75-2.438-17.63.85-38.654,2.572-38.723,7.315-.087,6.024,24.661,5.424,27.759,5.117,3.651-.358,7.1-.7,10.13.1,1.08.289,4.349,2.764,5.424,3.109,8.056,2.579,26.089-3.481,28.5-4.011a105.54,105.54,0,0,1,19.182-2.334c1.51-.049,15.088-.036,24.023-2.161Z" transform="translate(1617.227 1353.585)" fill="#ffbc98" opacity="0.32"/>
            <path id="Контур_8346" data-name="Контур 8346" d="M157.316,265.189a30.606,30.606,0,0,1,7.193.345c2.478.5,4.4,2.084,6.861,2.855,9.1,2.84,18.555-2.52,27.459-4.511a59.556,59.556,0,0,1-19.285-.655c-4.153-.889-5.957-2.669-10.458-2.617a115.941,115.941,0,0,0-15.172,1.221c-3.277.405-15.35,1.4-14.858,3.076C140.223,267.333,154.033,265.317,157.316,265.189Z" transform="translate(1623.201 1355.705)" fill="#ffbc98"/>
            <path id="Контур_8347" data-name="Контур 8347" d="M157.273,263.661c3.355.038,5.014-.59,10.071.863,2.12.61,3.927,2.048,6.011,2.061,4.789.031,9.7-1.079,7.86-1.445a79.883,79.883,0,0,1-8.222-1.108c-2.277-.476-4.411-1.7-6.73-2.1a25.487,25.487,0,0,0-8.008-.373c-1.576.2-11.643.927-11.908,1.507C145.844,264.167,155.344,263.643,157.273,263.661Z" transform="translate(1627.823 1356.203)" fill="#ffbc98" opacity="0.32"/>
            <path id="Контур_8348" data-name="Контур 8348" d="M120.016,271.2c-.847,1.446,7.5-.923,11.686-.556,4.236.374,8.093,1.688,12.249.494.742-1.01-4.23-.686-6.247-1.438-1.907-.708-3.4-2.048-5.416-2.434C126.787,266.219,124.167,270.586,120.016,271.2Z" transform="translate(1611.095 1359.828)" fill="#ffbc98"/>
            <path id="Контур_8349" data-name="Контур 8349" d="M228.86,264.226c-5.519,1.255-11.105,3.234-16.849,4.455-7.654,1.623-15.317,2.626-23.149,3.651-11.543,1.513-22.824,1.951-34.357,2.711,0,1.8,34.756-1.183,42.251-1.543,6.835-.325,14.479-2.28,21.189-3.9,2.6-.628,7.876-1.43,10.914-2.166Z" transform="translate(1633.011 1358.002)" fill="#ffbc98"/>
            <path id="Контур_8350" data-name="Контур 8350" d="M52.82,271.658c-4.285.428-8.5.088-12.671.9a32.324,32.324,0,0,1-6.019.657c-1.979.021-5.719.1-6.642.722-.58.67,1.6.52,1.966.613,3.682,0,7.518-.25,10.9.892,3.633,1.224,6.114.992,9.8-.446a16.34,16.34,0,0,1,5.33-1.337c1.486-.07,4.159.453,5.349-.44,2.283-1.719-.919-1.791-2.456-1.788C56.488,271.441,54.672,271.473,52.82,271.658Z" transform="translate(1552.375 1362.574)" fill="#ffbc98"/>
            <path id="Контур_8351" data-name="Контур 8351" d="M19.238,271.266c-3.607-.343-7.247-.042-10.9-.222A39.237,39.237,0,0,0,0,271.491v1.361c3.208.08,6.577-.634,9.893-.472,3.372.163,7.064.384,10.457.891,3.417.51,6.307,1.875,9.791,2.228,2.474.248,7.477,1.675,9.09-.615-2.594-1.77-6.722-1.154-9.757-1.608C25.983,272.753,22.649,271.59,19.238,271.266Z" transform="translate(1535 1362.296)" fill="#ffbc98"/>
            <path id="Контур_8354" data-name="Контур 8354" d="M278.242,272.439a164.392,164.392,0,0,0-23.227,2.249,116.916,116.916,0,0,1-30.889,2.362c-7.992-.459-15.937-.847-23.9-1.216-15-.7-27.779,4.472-42.447,6.621-7.232,1.061-14.325.325-21.43-.021-7.136-.346-12.521,1.42-18.957,3.612C104.881,290.3,88.274,287.256,77,294.81l-.342,2.064c.114,0,.229,0,.345,0,4.364-1.075,10.357-.435,14.832-.824,4.743-.413,9.845-.4,14.426-.815,3.109-.28,2.643-1.961,5.356-3.146,3-1.307,9.218-2.3,12.354-3.051a112.9,112.9,0,0,1,23.088-2.783c12.4-.391,44.057-7.556,51.379-6.853,21.685,2.081,15.966,8.7,37.538,3.756,12.877-2.952,29.178-9.049,42.264-4.986Z" transform="translate(1583.629 1363.211)" fill="#ffbc98" opacity="0.32"/>
            <path id="Контур_8356" data-name="Контур 8356" d="M256.633,278.768c-3.94-.209-8.291.9-12.089.9-7.276,0-13.984.985-21.108,1.639-6.371.582-12.756,2.814-18.947,2.9-6.032.08-11.087-2.342-16.808-2.911a42.658,42.658,0,0,0-10.3.436,37.7,37.7,0,0,1-3.712.822c-1.615.157-3.321,0-4.946,0a63.944,63.944,0,0,0-18.555,2.785c-6.472,2.017-12.72,2.429-19.771,2.076-3.581-.18-6.778-.418-10.3.608-2.36.686-7.064,3.529-9.371,3.308l5.251,1.126c2.447-2.9,10.908-1.221,14.4-1.214a60.538,60.538,0,0,0,17.744-3.159c4.936-1.625,11.427-2.219,16.487-2.483,4.954-.253,4.83-.76,9.886-.569a189.49,189.49,0,0,1,21.43,1.971c7.652,1.165,15.78.036,23.513-.412,7.011-.409,15.592.031,22.23-2.066,3.413-1.075,5.132-2.187,9.069-1.991,1.943.1,3.924.415,5.9.7Z" transform="translate(1605.238 1367.21)" fill="#ffbc98" fill-rule="evenodd" opacity="0.32"/>
            <path id="Контур_8357" data-name="Контур 8357" d="M98.049,291.606s10.921,1.731,14.382,1.2c3.269-.5,9.2-3.047,12.305-4.192,3.04-1.123,4.923-2.131,8.253-2.465,6.631-.665,13.511.91,19.8-.989,11.942-3.609,32.669-5.632,42.155-4.754-2.461-.616-8.579-2.671-11.169-2.829-6.359-.389-15.4.528-21.171,2.684-6.075,2.272-11.445,2.945-17.97,3.939-6.9,1.049-13.48.546-20.2,1.206C117.949,286.044,104.176,289.419,98.049,291.606Z" transform="translate(1597.198 1366.416)" fill="#ffbc98"/>
            <path id="Контур_8429" data-name="Контур 8429" d="M65.846,284.322c-.747-.789-2.55-.951-4.1-.94-3.419.031-4.893.945-3.339,2.971-1.242,0-2.469,0-3.684,0q-1.584,0-3.171,0c1.713.145,3.048.229,4.808.319,1.162.06,3.752.8,3.689-.711-.018-.433-.956-.856-.678-1.175C60.485,283.518,64.174,283.846,65.846,284.322Z" transform="translate(1567.701 1370.153)" fill="#ffbc98" opacity="0.54"/>
          </g>
        </g>
      </g>
      <g id="Сгруппировать_9086" data-name="Сгруппировать 9086">
        <rect id="Прямоугольник_191-2" data-name="Прямоугольник 191" width="29.743" height="118.138" transform="translate(1458.383 402.975) rotate(-45)" fill="url(#linear-gradient-2)"/>
        <g id="Группа_масок_8" data-name="Группа масок 8" transform="translate(319 -1196.157)" clip-path="url(#clip-path-2)">
          <g id="Сгруппировать_5226" data-name="Сгруппировать 5226" transform="translate(-9.634 -22.105)">
            <path id="Контур_8263" data-name="Контур 8263" d="M140.607.865c-4.57-.246-9.052-1.207-13.758-.738-6.221.618-12.322,2.523-18.509,3.2-11.82,1.285-24.373.032-36.195,1.689C54.675,7.461,36.878,7.949,19.994,9.85,15.066,10.4-2.88,7.623.4,16.763c2.353,6.563,10.879,8.116,15.859,12.256,14.8,0,29.71.548,44.179-.012,20.266-.784,40.313.012,60.678.012,4.688,0,14.013,1.9,19.493.25Z" transform="translate(1336.877 1774.275) rotate(45)" fill="#ffbc98"/>
            <path id="Контур_8268" data-name="Контур 8268" d="M101.63.14A86.615,86.615,0,0,0,76.5,5.108C67.024,8.318,59.838,8.952,49.935,9.09A59.967,59.967,0,0,0,24.53,14.825C17.126,18.4,8.442,23.407,0,22.617l9.4.588c3.988-2.071,9.168-2.339,13.492-3.546,4.036-1.123,7.662-3.354,11.738-4.852,10.443-3.836,18.743-1.093,29.4-1.6,9.194-.436,17.352-4.246,25.846-6.341C98.4,4.766,108.1,4.4,117.5,4.972c8.368.508,18.323,2.5,25.814,6.473,7.019,3.72,16.12,9.068,24.5,8.26C145.887,6.877,127.79-1.173,101.63.14Z" transform="translate(1202.93 1653.501) rotate(45)" fill="#ffbc98"/>
            <path id="Контур_8269" data-name="Контур 8269" d="M160.31.08c-8.392-.11-16.274-.342-24.638,1.247-9.27,1.763-18.437,3.64-27.609,5.395C98.741,8.5,88.526,7.515,79.276,8.91c-9.328,1.409-17.6,3.56-27.611,3.56a279.3,279.3,0,0,1-28.918-1.046C17.739,10.893-3.691,8,.553,17.172c1.613,3.482,6.921,4.152,9.989,5.739,4.462,2.3,5.218,5.867,8.65,8.51,6.355,4.89,21.622.738,29.36.456,9.076-.328,18.13,2.373,27.123,1.887-8.016.208-18.192-5.018-25.638-7.327-3.568-1.107-22.068-3.91-19.989-7.938,1.611-3.117,6.433-.086,15.139-1.807a85.687,85.687,0,0,1,18.637-2.105c13,0,29.708,2.713,42.478.838,15.884-2.331,37.744-10.139,54.009-3.746Z" transform="translate(1325.816 1757.472) rotate(45)" fill="#ffbc98" opacity="0.82"/>
            <path id="Контур_8305" data-name="Контур 8305" d="M1.014,1.57C-3.168,5.5,6.723,10.722,10.046,7.357c1.867-1.889.262-4.952-1.829-6.327A5.727,5.727,0,0,0,1.014,1.57Z" transform="translate(1252.223 1694.992) rotate(45)" fill="#ffbc98" opacity="0.32"/>
            <path id="Контур_8306" data-name="Контур 8306" d="M9.991,7.123,8.874,6.1,5.695,4.166l-.666.2S6.335,3.015,6.767,2.649,6.281.24,6.281.24L5.989,0s.942,2.063.59,2.491A25.388,25.388,0,0,1,4.59,4.23L0,2.9,5.028,4.754,6.689,7.115,5.274,4.67l.5-.24Z" transform="translate(1252.095 1695.197) rotate(45)" fill="#ffbc98"/>
            <path id="Контур_8307" data-name="Контур 8307" d="M0,0A4.058,4.058,0,0,0,.82,1.263,5.537,5.537,0,0,0,1.991,2.5l.026-.024a7.958,7.958,0,0,1-.968-1.283A5.383,5.383,0,0,0,0,0Z" transform="translate(1252.793 1697.11) rotate(45)" fill="#ffbc98"/>
            <path id="Контур_8308" data-name="Контур 8308" d="M.437.038.431,0A2.559,2.559,0,0,0,.009,1.389,2.324,2.324,0,0,0,.437.038Z" transform="translate(1250.057 1701.184) rotate(45)" fill="#ffbc98"/>
            <path id="Контур_8309" data-name="Контур 8309" d="M1.293.137A1.724,1.724,0,0,0,0,.111C.678.087.9.2,1.293.137Z" transform="translate(1255.32 1705.426) rotate(45)" fill="#ffbc98"/>
            <path id="Контур_8310" data-name="Контур 8310" d="M2.4.135A7.722,7.722,0,0,0,0,.1,13.359,13.359,0,0,0,2.4.135Z" transform="translate(1249.362 1698.395) rotate(45)" fill="#ffbc98"/>
            <path id="Контур_8311" data-name="Контур 8311" d="M0,.717A7.647,7.647,0,0,0,2.291,0,14.359,14.359,0,0,0,0,.717Z" transform="translate(1255.51 1702.418) rotate(45)" fill="#ffbc98"/>
            <path id="Контур_8337" data-name="Контур 8337" d="M30.106,1.537A46.7,46.7,0,0,1,38.39.989C34.984-1.06,23.729.657,21.9.989,20,1.339,6.049,6.23,0,3.827,4.858,8.259,13.56,5.413,15.213,5.271,16.894,5.125,25.9,2.212,30.106,1.537Z" transform="translate(1388.928 1841.21) rotate(45)" fill="#ffbc98"/>
            <path id="Контур_8338" data-name="Контур 8338" d="M54.536,5.038C53.147,3.786,38.018,1.065,34.644.75,30.943.414,19.251.038,17.422,0,12.188-.1.806,3.118,0,3.522a157.79,157.79,0,0,1,18.461-1.3c4.086,0,12.1.734,17.362,1.174C40.873,3.822,51.706,5.895,54.536,5.038Z" transform="translate(1348.457 1798.735) rotate(45)" fill="#ffbc98" fill-rule="evenodd"/>
            <path id="Контур_8339" data-name="Контур 8339" d="M61.921,3.992c6.5-1.659,14.2-2.531,20.542,0-13.054-8.218-25.538,1.643-38.9,1.6-6.723-.024-13.746-2.731-20.558-3.96C17.41.62,14.077,0,8.82,0A53.685,53.685,0,0,0,0,.784c14.545.088,29.482,3.79,44.017,6.393C50.644,8.364,55.362,5.664,61.921,3.992Z" transform="translate(1361.33 1810.502) rotate(45)" fill="#ffbc98" opacity="0.54"/>
            <path id="Контур_8340" data-name="Контур 8340" d="M400.188,3.546c-22.953-2.7-48-4.224-70.063-3.251C292,1.978,262.185,7.339,231.128,12c-11.565,1.735-52.455-5.188-59.2-6.069-45.439-5.935-77,11.442-125.4,1.447A158.648,158.648,0,0,0,0,4.329V6.834a120.129,120.129,0,0,1,44.947,4.4c15.727,4.55,28.968,5.338,42.432,5.338,6.541,0,69.389-5.7,84.27-4.969,6.565.318,45.563,5.464,57.917,3.609,30.858-4.636,62.892-7.572,100.809-9.245a639.262,639.262,0,0,1,69.813.778Z" transform="translate(1168.75 1575.303) rotate(45)" fill="#ffbc98" opacity="0.37"/>
            <path id="Контур_8359" data-name="Контур 8359" d="M52.955,10.84C50.094,10.6,30.28,4.862,24.223,2.989,15.912.418,9.182-.873,0,.658V3.167c9.56-1.119,17.75,1.4,26.326,4.06C32.5,9.136,51.742,12.2,54.6,12.437c6.651.556,41.207.638,43.484,3.391-5.6,4.864-33.758,3.854-38.446,4.208-8.754.672-4.062,5.855-6.687,6.5-4.932,1.221-21.562-1.571-34.346-1.214A90.847,90.847,0,0,0,0,28.233V29.9a74.351,74.351,0,0,1,11.489-1.247c2.081.2,50.8.564,56.2-.771,2.837-.7-10.741-5.022-7.628-5.615,4.352-.828,55.132-1.337,55.8-5.321S59.608,11.4,52.955,10.84Z" transform="translate(1160.752 1583.301) rotate(45)" fill="#ffbc98"/>
            <path id="Контур_8360" data-name="Контур 8360" d="M29.1,5.4C28.061,5.07,12.42,0,8.544,0,6.905,0,1.839.856,1.369,1.683.57,3.061,5.6,2.793,4.8,6.237c-.328.83-2.271,2.337-4.8,4.054v2.121C3.946,10.1,7.345,7.764,7.764,6.221c1.018-3.764-3.71-2.073-1.375-4.432S27.715,6.151,28.7,6.461c5.24,2.261,54.884,2.395,52.681,3.928s-32.735-.856-34.3,1.377,3.153,2,1.739,3.564-21.926.436-29.258.154C15.491,15.329,7.171,16.646,0,17.848v.874c3.958-.5,7.243-.959,7.5-1a158.4,158.4,0,0,1,16.43-.894c2.655.262,27.163,1.3,27.629.554,1.395-2.243-3.1-4.946-3.2-5.084,1.054-.118,43.354-.3,43.534-2.247S34.218,7.6,29.1,5.4Z" transform="translate(1156.336 1587.715) rotate(45)" fill="#ffbc98" opacity="0.45"/>
            <path id="Контур_8361" data-name="Контур 8361" d="M40.575,5.669c-2.933,0-15.009-1.194-24.193-4.78-7.5-2.927-.126,2.083-3.364,4.78C11.049,7.312,4,8.845,0,10.34v1.3c1.269-.056,2.645-.172,2.935-.206,6.079-.7,10.755-2.019,20.846-1.787,3.562.082,18.989.868,20.976.392S45.365,5.669,40.575,5.669Z" transform="translate(1153.238 1590.813) rotate(45)" fill="#ffbc98" opacity="0.45"/>
            <path id="Контур_8362" data-name="Контур 8362" d="M0,5.967c2.579.232,5.118-.63,7.578-1.135a34.574,34.574,0,0,1,8.08-.4c3.882.15,10.379,3.059,14.077,1.307-.24-2.8-10.659-2.651-12.956-2.875a37.2,37.2,0,0,1-6.721-1.179C9.038,1.383,3.5-1.348,4.9.847,5.749,2.936.438,4.816,0,5.967Z" transform="translate(1159.262 1600.703) rotate(45)" fill="#ffbc98"/>
            <path id="Контур_8363" data-name="Контур 8363" d="M400.188.309c-41.665-1.9-75.946,5.525-81.132,6.405-30.428,5.137-64.991,6.535-108.769,4.411-4.686-.228-92.779-7.885-94.414-.308s20.48,7.307,16.89,12.39-48.939,3-52.12,3.56c-1.293.23-3.109.7-3.964,2.121a4.258,4.258,0,0,0-.042,3.688,4.809,4.809,0,0,1,.25.972c-.23.218-1.729,1.169-9.937.956-1.185-.03-2.9-.114-5.076-.216C49.269,33.678,21.244,32.336,0,36.8v3.486c20.86-4.554,49.1-3.2,61.711-2.594,2.2.106,3.93.188,5.15.222,8.974.23,11.6-.772,12.78-2.351a4.18,4.18,0,0,0,.232-4.036,5.764,5.764,0,0,1-.242-.9,4.245,4.245,0,0,1,1.6-.5c2.883-.508,50.244.878,54.9-6.487s-11.071-7.556-8.47-10.587,75.119-.507,79.871-.276c44.031,2.143,93.528,2.767,124.2-2.414,5.244-.884,35.485-7.842,68.444-6.621Z" transform="translate(1162.269 1581.78) rotate(45)" fill="#ffbc98" opacity="0.32"/>
            <path id="Контур_8364" data-name="Контур 8364" d="M.144,9.273C23.513,6.541,67.5,7.111,81.3,4.668S106.085.01,106.085.01C95.64-.214,54.669,3.44,31.658,4.816S-1.341,9.447.144,9.273Z" transform="translate(1328.011 1746.276) rotate(45)" fill="#ffbc98" opacity="0.82"/>
            <path id="Контур_8365" data-name="Контур 8365" d="M73.629,9.3C55.262,11.4,14.385,1.18,7.79,1.5L0,2.873c6.037-.28,52.28,9.606,63.772,9.04,8.708-.428,80.028-10.4,95.783-7.016,2.873.616,36.377,10.409,59.882,8.39s60.5-8.074,64.546-10.3L282.348,0c-3.133,1.641-38.616,9.723-49.631,10.3-17.418.918-69.565-8.119-72.45-8.738C144.088-1.91,81.988,8.339,73.629,9.3Z" transform="translate(1177.389 1576.998) rotate(45)" fill="#ffbc98" opacity="0.82"/>
            <path id="Контур_8370" data-name="Контур 8370" d="M34.174.378a65.922,65.922,0,0,0-17.65,3.646C12.5,5.435,2.513,6.037,0,8.6c6.539,5.507,26.418-.41,34.7.014,4.508.232,33.67,5.3,32.929-1.2h.588C62.155-.783,43.006-.388,34.174.378Z" transform="translate(1250.703 1711.141) rotate(45)" fill="#ffbc98" fill-rule="evenodd" opacity="0.32"/>
            <path id="Контур_8371" data-name="Контур 8371" d="M.586,5.2A92.757,92.757,0,0,1,22.925,3.427C26.707,3.613,43.032,7,43.368,2.362A70.913,70.913,0,0,0,0,4.617Z" transform="translate(1258.334 1722.718) rotate(45)" fill="#ffbc98" fill-rule="evenodd"/>
            <path id="Контур_8372" data-name="Контур 8372" d="M27.963,1.3C20.45.931,3.43-1.434,0,1.3c3.173,2.809,21.456,3.305,25.844,4.4,4.664,1.171,9.45,2.157,14.073,4.088,5.615,2.343,21.474,11.729,26.821,9.406C60.692,12.15,40.545,12.815,37.672,4.6,51.11,3.819,63.926,2.734,77.546,2.734,71.347-.826,36.539,1.724,27.963,1.3Z" transform="translate(1276.957 1716.556) rotate(45)" fill="#ffbc98" fill-rule="evenodd" opacity="0.68"/>
            <path id="Контур_8373" data-name="Контур 8373" d="M18.451,12.649C12.464,14.038,4.026,12.025,0,15.2c4.078-1.6,6.643-.987,9.028-1.083,3.466-.14,6.661.062,10.033-.676A62.515,62.515,0,0,0,31.7,8.839c1.765-.792,11.057-.3,10.989-2.909-.038-1.591-4.58-3.414-5.757-4.07C31.669.3,25.258.519,19.651.237c-3.105-.154-6.245-.33-9.36-.18-.75.036-3.484.034-3.922.762-.794,1.327,2.373.872,3.2.862a91.283,91.283,0,0,1,10.789.354c1.917.206,8.018.506,8.88,2.7C31.137,9.569,21.186,12.015,18.451,12.649Z" transform="translate(1247.076 1684.759) rotate(45)" fill="#ffbc98" opacity="0.32"/>
            <path id="Контур_8374" data-name="Контур 8374" d="M109.912,2.305c-.354-.116-.7-.23-1.034-.348C101.061-.79,89.214-.386,81.014,1.571c-9.5,2.263-14.567,2.593-23.969,4.34C48.5,7.5,32.283,3.426,24.111,1.691A47.153,47.153,0,0,0,0,3.782c.686,7.774,17.742,3.846,18.583,11.661l11.2.536c2.007.1,10.517,4.134,11.243.01.59-3.354-17.89-2.647-11.243-6.881,4.948-3.144,26.693,2.3,33.084,2.063,8.184-.306,18.613.576,26.16-2.255,4.208-1.581,6.255-2.757,11.189-2.553,3.165.132,6.477.97,9.693,1.138Z" transform="translate(1349.63 1804.932) rotate(45)" fill="#ffbc98" opacity="0.32"/>
            <path id="Контур_8423" data-name="Контур 8423" d="M0,4.29c50.586.718,116.675,3.723,151.233,3.587,34.53-.134,153.384-3.476,248.955-4.331V.991c-25.794.4-52.977.773-78.477,1C259.53,2.54,95.937,1.006,0,0Z" transform="translate(1171.583 1572.468) rotate(45)" fill="#ffbc98"/>
          </g>
        </g>
      </g>
      <g id="Сгруппировать_5225" data-name="Сгруппировать 5225" transform="translate(319 -1196.157)">
        <path id="Вычитание_1-2" data-name="Вычитание 1" d="M200,151.571h0V15.656L229.743,45.4V151.571H200Z" transform="translate(1015.258 1616.945)" fill="url(#linear-gradient-7)"/>
        <g id="Группа_масок_7" data-name="Группа масок 7" clip-path="url(#clip-path-3)">
          <g id="Сгруппировать_5224" data-name="Сгруппировать 5224" transform="translate(2729.803 62.856) rotate(90)">
            <path id="Контур_8265" data-name="Контур 8265" d="M132.29,207.118c-7.094-1.087-13.518-3.993-20.889-2.779-2.532.416-5.783.877-7.925,2.665-1.977,1.651-2.42,4.327-4.626,4.767-5.939-1.895-11.886.392-18.127.933-5.872.506-11.1,3.182-17.081,2.813-5.435-.336-32.246-3.531-32.114,6.422,15.854,2.46,31.2.34,47.346.533,10.053.119,15.343,7.683,24.714,8.945,5.91.795,12.065-.117,17.933.926,5.061.9,9.722,3.221,14.955,3.619,10.831.828,23.511-2.582,33.384-6.638,15.6-6.41,31.69,2.179,47.6-1.85,9.785-2.478,20.107-3.442,30.121-4.176,3.831-.281,18.513.8,17.116-6.329-10.936-5.128-29.619-.7-41.287-.082-6.209.328-14.881.507-20.449-2.688-4-2.3-5.8-4.82-10.8-5.71C172.347,204.952,152.073,210.148,132.29,207.118Z" transform="translate(1554.094 1282.45)" fill="#ffbc98" opacity="0.43"/>
            <path id="Контур_8266" data-name="Контур 8266" d="M50.66,200c-4.984,3.7-21.824,4.9-26.024,5.525C20.11,206.2,6.83,205.375,0,204.479v4.512c5.5,1.816,10.992.957,17.095.67,6.161-.294,13.431.267,19.222-.946,6.069-1.267,12.79-3.407,18.961-4.984,5.019-1.281,12.62-.689,17.276-3.73Z" transform="translate(1535 1279.999)" fill="#ffbc98" fill-rule="evenodd" opacity="0.43"/>
            <path id="Контур_8267" data-name="Контур 8267" d="M237.137,218.32c-11.034,5.48-25.235,1.781-37.682,3.025-7.676.769-15.626.975-23.206,1.76-7.937.817-13.492,5.213-21.106,6.734-5.186,1.039-11.931,1.978-16.464,4.118,8.511.625,17.3.1,25.865.1,7.745,0,16.785-.565,24,.87.018-7.892,20.1-6.784,25.056-6.533,7.513.381,15.907-2.55,23.542-2.654Z" transform="translate(1618.986 1291.093)" fill="#ffbc98" fill-rule="evenodd" opacity="0.43"/>
            <path id="Контур_8296" data-name="Контур 8296" d="M95.823,222.419A6,6,0,0,0,100,220.094c.686-.837,2.659-2.5,1.8-4.343-.636-1.365-3.316-2.129-4.43-2.254-1.98-.223-4.876-.048-5.957,1.761a5.4,5.4,0,0,1,3.619-.89c3.046.254,3.937,1.742,4.221,2.638C99.986,219.295,98.071,221.751,95.823,222.419Z" transform="translate(1590.363 1288.126)" fill="#ffbc98" opacity="0.43"/>
            <path id="Контур_8297" data-name="Контур 8297" d="M122.37,214.711c-.978-2.8-7.64-1.171-15.7-2.7a21.442,21.442,0,0,0-11.13,1.132c-3.311,1.551-15.4.915-15.375,2.974.027,1.932,6.464,2.88,9.3,4.379s4.012,2.941,6.658,2.941c-2.06-2.132-2.722-6.153,1.769-8.585,2.479-1.345,5.859-1.366,8.577-.857,3.821.713,4.778,5.05,1.793,7.7C113.949,221.116,123.194,217.068,122.37,214.711Z" transform="translate(1583.549 1287.104)" fill="#ffbc98" opacity="0.43"/>
            <path id="Контур_8298" data-name="Контур 8298" d="M94.834,214.493a4.6,4.6,0,0,0-4.176,4.027c-.578,4.574,8.206,2.734,8.542-1.048C99.387,215.351,96.829,214.277,94.834,214.493Z" transform="translate(1589.887 1288.759)" fill="#ec651d"/>
            <path id="Контур_8299" data-name="Контур 8299" d="M99.111,217.226l-1.217-.061-2.951.432-.31.467s.12-1.506.2-1.954-1.532-1.238-1.532-1.238H93s1.638.79,1.638,1.24a20.352,20.352,0,0,1-.34,2.091l-3.518,1.529,4.056-1.427,2.235.609-2.123-.787.185-.4Z" transform="translate(1589.975 1289.005)" fill="#ffbc98" opacity="0.43"/>
            <path id="Контур_8300" data-name="Контур 8300" d="M91.989,216.885a4.4,4.4,0,0,0,1.357.167l0-.031a6.473,6.473,0,0,1-1.256-.3,4.226,4.226,0,0,0-1.256-.2A3.216,3.216,0,0,0,91.989,216.885Z" transform="translate(1590.012 1290.006)" fill="#ffbc98" opacity="0.43"/>
            <path id="Контур_8301" data-name="Контур 8301" d="M93.347,219.014a1.855,1.855,0,0,0-.425-1.053l-.022-.021A2.065,2.065,0,0,0,93.347,219.014Z" transform="translate(1591.261 1290.863)" fill="#ffbc98" opacity="0.43"/>
            <path id="Контур_8302" data-name="Контур 8302" d="M95.941,215.3c-.311.026-.557.321-.814.642C95.533,215.578,95.726,215.533,95.941,215.3Z" transform="translate(1592.61 1289.263)" fill="#ffbc98" opacity="0.43"/>
            <path id="Контур_8303" data-name="Контур 8303" d="M92.849,217.577c0-.006-1.342.822-1.5,1.2A10.68,10.68,0,0,0,92.849,217.577Z" transform="translate(1590.32 1290.643)" fill="#ffbc98" opacity="0.43"/>
            <path id="Контур_8304" data-name="Контур 8304" d="M93.833,216.306a6.226,6.226,0,0,0,1.052-1.615A11.3,11.3,0,0,0,93.833,216.306Z" transform="translate(1591.827 1288.896)" fill="#ffbc98" opacity="0.43"/>
            <path id="Контур_8319" data-name="Контур 8319" d="M131.471,209.587c-7.3,1.069-20.036,2.794-24.89,2.142-15.944-2.142-44.529-2.836-44.529,4.57,0,5.254,30.137,9.25,33.315,10.117,6.475,1.771,12.1,3.656,18.765,2.827,9.367-1.162,14.813-6.024,29.01-6.008,8.94.011,16.329-1.065,16.329-5.527C159.471,208.81,139.444,208.42,131.471,209.587Zm21.862,7.957c-.713,3.608-9.139,4.406-14.107,4.737-6.4.422-23.05,4.878-24.274,5.011l-.048,0c-6.27,1.068-12.8-.719-19.112-2.447-3.214-.881-27.713-4.945-27-8.94s11.129-6.042,26.539-3.878c10.467,1.468,24.69-.149,30.887-.721a72.083,72.083,0,0,1,15.81.52C145.167,212.18,154.049,213.937,153.333,217.545Z" transform="translate(1572.579 1285.517)" fill="#ffbc98" opacity="0.43"/>
            <path id="Контур_8320" data-name="Контур 8320" d="M127.739,209.963c-5.273,1.318-19.367-1.713-21.944-2.015-10.078-1.188-20.823-3.6-29.916-.483-21.146,7.235-33.93,1.67-33.93,9.489,0,10.075,23.384,5.581,47.334,10.785,7.495,1.63,14.027,7.514,28.771,7.381,12.493-.112,23.15-5.276,55.206-6.45,10.136-.372,22.182-.225,22.578-6.707,0-6.138-19.481-12.289-23.429-13.534C156.38,203.386,134.33,208.315,127.739,209.963ZM187.394,221.2c-.326,5.294-34.876,7.678-34.876,7.678s-27.623,4.881-34.4,4.618c-8.006-.31-15.117-2.593-22.646-5.008a190.624,190.624,0,0,0-19.9-4.658c-8.492-.915-22.755,1.044-22.755-5.608,0-4.651,19.043-8.28,23.387-9.17,9.157-1.874,38.581,1.5,39.437,1.594a54.068,54.068,0,0,0,16-.287C173.535,202.726,187.716,215.912,187.394,221.2Z" transform="translate(1560.405 1283.592)" fill="#ffbc98"/>
            <path id="Контур_8321" data-name="Контур 8321" d="M321.123,214.708c-2,1.285-7.23,3.033-21.6,3.977-13.232.864-32.6-1.861-40.643-.628-14.95,2.286-16.666,8-37.637,8-35.354,0-63.863,8.632-80.645,6.949-18.705-1.879-15.746-5.557-31.857-9.561-9.521-2.365-25.417-.029-32.748-2.786-12.827-4.826-23.291-6.692-36.4-3.953C17.138,221.4,6.159,214.655,0,215.676v1.159c5.934-.747,20.578,5.909,39.874,3.107,13.1-1.906,22.355-2.937,34.67,1.7,7.877,2.966,25.134,2.518,33.665,4.417,12.2,2.72,16,8.832,32.856,10,20.361,1.41,46.961-6.249,80.178-6.249,13.219,0,26.717-5.5,37.679-8.5,14.1-3.866,44.54,3.715,62.2-3.826Z" transform="translate(1535 1288.906)" fill="#ffbc98"/>
            <path id="Контур_8322" data-name="Контур 8322" d="M321.123,211.752c-11.445-2.624-39.492-8.027-53.8-7.217-23.368,1.323-46.478,2.217-53.576,1.588-14.139-1.257-23.635-8.741-44.368-4.751-28.67,5.517-33.691-1.045-58.353-1.1C69.4,200.178,26.655,220.273,0,212.018v1.556c16.413,4.212,27.462,2.355,52.719-1.948,23.635-4.024,36.815-8.2,56.664-8.606,17.578-.36,37.3,5.26,61.588,1.344,15.623-2.519,21.669,3.757,42.351,4.977,7.423.438,37.425-2.325,55.328-3.145,13.6-.623,42.21,6.082,52.473,8.781Z" transform="translate(1535 1280.127)" fill="#ffbc98" opacity="0.43"/>
            <path id="Контур_8324" data-name="Контур 8324" d="M193.138,216.643c-5.531.623-20.518.01-32.172,5.01a69.989,69.989,0,0,1-14.531,4.685s7.041,0,18.667-4.107c11.39-4.025,44.466-1.644,43.291-7.6-1.126-5.716-39.012-4.5-42.713-4.189-17.3,1.466-39.309-3.492-39.309-3.492,17.816,6.561,31.358,6.215,43.767,5.615,3.674-.178,13.572.32,17.113.446,5.644.2,14.039,1.32,13.866,1.62C200.8,215.2,201.337,215.723,193.138,216.643Z" transform="translate(1611.533 1284.207)" fill="#ffbc98"/>
            <path id="Контур_8366" data-name="Контур 8366" d="M48.526,220.516c-20.4,2.746-9.634,1.835-27.565-.96C8.873,217.674,2.728,218.072,0,218.531v3.638c5.976-2.5,21.263-2.378,26.692,1.8,5.729,4.415,12.2,1.59,24.988,0s24.465,1.59,38.112,5.69,23.013,6.026,23.013,6.026l11.507-1.543a113.48,113.48,0,0,0-23.492-6.422C88.89,226.029,68.931,217.77,48.526,220.516Z" transform="translate(1535 1290.99)" fill="#ffbc98" opacity="0.43"/>
            <path id="Контур_8367" data-name="Контур 8367" d="M48.727,227.758c-9.412,1.113-18.67-2.352-27.766-4.834,0,0-12.513-2.082-20.961.573v2c8.171-2.421,22.642,1.527,22.642,1.527a60.451,60.451,0,0,0,25.712,1.981c6.572-.779,11.549-1.729,19-1.458,5.4.2,8.3,4.566,9.107,5.043l16.519-.429a47.434,47.434,0,0,0-21.368-7.9C64.054,223.526,55.366,226.972,48.727,227.758Z" transform="translate(1535 1293.411)" fill="#ffbc98" opacity="0.43"/>
            <path id="Контур_8368" data-name="Контур 8368" d="M14.377,225.888c-3.921-.755-5.347-1.545-10.957-.228-.425.1-1.883.5-3.42.928v1.358c1.6-.461,3.15-.891,3.539-.926,3.809-.337,4.915.17,8.368.655,2.638.372,5.682,3.07,6.5,3.831,0,0,8.5-.108,8.466-.161l1.188-.676C27.313,229.361,23.233,227.6,14.377,225.888Z" transform="translate(1535 1295.111)" fill="#ffbc98" opacity="0.43"/>
            <path id="Контур_8369" data-name="Контур 8369" d="M225.84,213.85c-9.163-3.2-22.193-4.189-30.611-6.178-5.565-1.315-10.828-2.7-16.973-2.463-5.5.212-13.158-.157-18.383,1.887l-2.54.925c7.415-.877,25.269.284,31.873,2.734,3.1,1.153,8.635,3.37,6.622,7.209-1.562,2.978-8.948,3.7-11.4,4.13,7.057.515,15.106,1.259,22.119.575a121.627,121.627,0,0,0,19.3-4.351Z" transform="translate(1630.283 1283.137)" fill="#ffbc98" fill-rule="evenodd" opacity="0.43"/>
            <path id="Контур_8375" data-name="Контур 8375" d="M52.708,215.555c5.6-1.179,11.54-2.705,17.125-4.279,6.019-1.691,11.5-3.85,17.461-5.27,5.518-1.318,12.676-1.435,17.125-2.977-15.894-.788-47.95,10.114-60.8,12.1a132.367,132.367,0,0,1-20.552,2.047c-5.246-.011-18.469-.143-20.977,1.874,2.779,3.019,14.134,1.545,17.981,1.557,5.13.013,9.942.676,14.985.426,5.183-.257,9.695-1.712,14.987-1.713,5.249,0,9.4,2.813,14.086,2.916-6.243-9.014-19.238-2.429-27.732-2.991C37.273,216.814,49.709,216.186,52.708,215.555Z" transform="translate(1536.266 1281.808)" fill="#ffbc98"/>
            <path id="Контур_8383" data-name="Контур 8383" d="M184.049,218.595c1.871,1.185,4.836.193,6.813-.287,2.328-.567,4.443-.133,6.785-.14,2.567,0,4.541-1.928,6.935-2.388,1.193-.226,6.928-.4,3.189-1.734a24.423,24.423,0,0,0-9.007-1.431,13.858,13.858,0,0,1-3.744.006c-1.241-.267-1.67-.973-2.633-1.712-1.861-1.429-4.751-1.373-6.93-1.854-1.429-.313-5.62-1.644-6.512-1.132,2.64,1.272,8.293,1.761,9.736,4.8C190.272,216.1,185.964,217.305,184.049,218.595Z" transform="translate(1643.37 1284.727)" fill="#ffbc98" fill-rule="evenodd" opacity="0.43"/>
          </g>
        </g>
      </g>
      <g id="Сгруппировать_5230" data-name="Сгруппировать 5230" transform="translate(319 -1196.157)">
        <rect id="Прямоугольник_193-2" data-name="Прямоугольник 193" width="29.743" height="59.485" transform="translate(1030.658 1623.604) rotate(-45)" fill="url(#linear-gradient-3)"/>
        <g id="Группа_масок_10" data-name="Группа масок 10" clip-path="url(#clip-path-4)">
          <g id="Сгруппировать_5229" data-name="Сгруппировать 5229" transform="translate(973.593 -789.64) rotate(45)">
            <path id="Контур_8286" data-name="Контур 8286" d="M307.446,294.4c-25.441-7.288-66.916,9.186-107.287,9.113-23.613-.043-28.42-5.288-55.871-.879-19.85,3.188-28.943-2.793-42.478-3.8-6.8-.5-28.918.212-51.294,1.27-13.3.627-39.009-3.426-50.517-5.58v-2.55c10.565,2.28,36.645,7.285,49.247,6.8,17.142-.655,45.869-2.862,52.97-2.512,19.8.975,25.593,5.988,40.551,3.978,23.252-3.13,42.132,1.359,58.965,1.073,19-.324,31.624-3.662,54.249-6.879,24.685-3.506,35.2-4.979,51.465-1.334Z" transform="translate(1535 1356.904)" fill="#ffbc98" opacity="0.32"/>
            <path id="Контур_8312" data-name="Контур 8312" d="M156.207,300.431c3.011,5.13-8.336,7.429-10.661,3.114-1.3-2.42,1.184-5,3.66-5.755A5.933,5.933,0,0,1,156.207,300.431Z" transform="translate(1613 1344.675)" fill="#ffbc98" opacity="0.32"/>
            <path id="Контур_8313" data-name="Контур 8313" d="M145.421,304.251l1.413-.693,3.72-.993.6.4s-.905-1.726-1.225-2.215,1.184-2.25,1.184-2.25l.36-.155s-1.539,1.774-1.31,2.3a26.291,26.291,0,0,0,1.465,2.306l4.951.018-5.537.375-2.337,1.862,2.115-2.012-.426-.389Z" transform="translate(1613.125 1343.969)" fill="#ffbc98"/>
            <path id="Контур_8314" data-name="Контур 8314" d="M151.644,301.241a5.674,5.674,0,0,1-1.525.89l-.017-.034a8.684,8.684,0,0,0,1.339-.991,5.418,5.418,0,0,1,1.385-.881A4.167,4.167,0,0,1,151.644,301.241Z" transform="translate(1615.64 1344.145)" fill="#ffbc98"/>
            <path id="Контур_8315" data-name="Контур 8315" d="M150.13,299.138a2.4,2.4,0,0,1-.034-1.468l.017-.037A2.668,2.668,0,0,1,150.13,299.138Z" transform="translate(1615.582 1351.123)" fill="#ffbc98"/>
            <path id="Контур_8316" data-name="Контур 8316" d="M145.28,300.241a1.8,1.8,0,0,1,1.294.346C145.906,300.365,145.655,300.413,145.28,300.241Z" transform="translate(1613.049 1345.724)" fill="#ffbc98"/>
            <path id="Контур_8317" data-name="Контур 8317" d="M153.04,299.62a14.245,14.245,0,0,1-2.4-.661A7.924,7.924,0,0,1,153.04,299.62Z" transform="translate(1615.93 1348.601)" fill="#ffbc98"/>
            <path id="Контур_8318" data-name="Контур 8318" d="M146.377,300.892a14.523,14.523,0,0,1,2.071,1.38A7.885,7.885,0,0,1,146.377,300.892Z" transform="translate(1613.638 1342.979)" fill="#ffbc98"/>
            <path id="Контур_8352" data-name="Контур 8352" d="M76.329,287.343h.125C76.363,287.43,76.3,287.449,76.329,287.343Z" transform="translate(1576.003 1378.664)" fill="#ffbc98" opacity="0.6"/>
            <path id="Контур_8353" data-name="Контур 8353" d="M76.794,287.777h-.386a2.155,2.155,0,0,0,.321-.387Z" transform="translate(1576.049 1378.23)" fill="#ffbc98" opacity="0.6"/>
            <path id="Контур_8355" data-name="Контур 8355" d="M110.4,286.484a1.778,1.778,0,0,1,.49-.106Z" transform="translate(1594.313 1381.079)" fill="#ffbc98" fill-rule="evenodd" opacity="0.6"/>
            <path id="Контур_8358" data-name="Контур 8358" d="M307.446,316.82c-21.932-.592-74.362-11.651-83.928-11.629-9.617.023-30.671,4.023-30.625,3.64a184.753,184.753,0,0,1-62.96-1.177c-38.724-7.383-53.427-6.058-76.726.959-14.192,4.278-17.342,1-27.037,2.114-5.342.615-8.888,3.25-14.143,3.562C8.069,314.519,3.975,312.9,0,313.226V309c3.234.481,5.021,4.223,9.98,2.34,6.24-2.369,14.029-3.227,21.724-2.835,13.924.71,28.556-7.678,42.429-8.24,40.54-1.652,64.622,8.881,105.265,7.471,10.006-.349,32.637-4.395,42.921-4.395,9.821,0,68.2,11.251,85.127,11.475Z" transform="translate(1535 1329.661)" fill="#ffbc98" opacity="0.32"/>
            <path id="Контур_8384" data-name="Контур 8384" d="M165.107,306.582c-4.858,1.2-13.114,2.287-18.018,1.528-3.536-.547-38.684-8.965-35.263-10.527,4.306-1.968,11.24,2.875,31.942-.146,5.408-.789,9.46-1.948,22.072-1.569-2.2.832-7.835,1.962-8.416,4.911C156.633,304.8,162.543,305.54,165.107,306.582Z" transform="translate(1594.951 1344.726)" fill="#ffbc98" opacity="0.74"/>
            <path id="Контур_8385" data-name="Контур 8385" d="M159.468,299.068c-4.018-1.416-13.764-2.2-20.79-2.206,9.608-1.926,19.649-.812,29.135,1.437,4.718,1.118,9.592,2.781,14.329,3.476,4.836.709,14.25,1.261,15.1,2.775.758,2.146-15.877,2.733-21.54,3.433-6.8.839-18.627,4.641-19.623,3.087,0-.935,11.28-2.334,11.28-6.467C167.355,300.542,163.921,300.637,159.468,299.068Z" transform="translate(1609.502 1341.526)" fill="#ffbc98" opacity="0.6"/>
            <path id="Контур_8386" data-name="Контур 8386" d="M237.088,297.577c-3.111-1.067-10.96-3.562-14.376-4-10.6-1.376-21.861-2.63-32.445-.086a36.026,36.026,0,0,0-13.477,6.06c-3.185,2.421-7.23,2.1-11.1,2.1-7,0-30.577-.449-34.72-1.928,1.814-.769,12.742-2.453,16.013-3.051,9.734-1.774,19.621-3.7,29.3-5.782,7.021-1.51,32.443-5.459,43.8-5.459,6.152,0,12.5-.627,17.014,1.682Z" transform="translate(1605.359 1367.495)" fill="#ffbc98" opacity="0.75"/>
            <path id="Контур_8387" data-name="Контур 8387" d="M142.494,310.924c-8.187-.481-16.84-.66-24.694-2.464-6.483-1.491-12.215-2.918-19.372-2.561-15.667.779-31.06,2.008-46.63,3.68-7.139.767-13.761,2.269-21.225,1.264-7.8-1.051-15.249-3.056-22.637-4.526-4.644-2.318,3.071-3.909,4.919-4.1a105.482,105.482,0,0,1,10.661-.829c6.873.008,13.681,1.5,20.507.829,6.215-.606,11.6-3.247,17.617-4.842,13.182-3.491,28.646-2.006,42.219-1.33,7,.344,13.671,2.123,20.508,2.892,7.064.792,14.35.415,21.308,1.608,6.815,1.17,13.171,3.014,20.085,3.726,5.462.563,13.668.619,18.282,3.273-4.867,2.058-11.5,2.4-16.962,2.893A164.9,164.9,0,0,1,142.494,310.924Zm-13.629-7.868c-6.323-1.271-12.452-2.676-18.857-3.726-6.432-1.056-13.1-1.162-19.584-2.132-6.243-.935-12.8-1.623-19.357-.41a147.163,147.163,0,0,0-22.138,6.249c-6.7,2.354-22.943.572-19.677,4.1,11.22,5.752,26.842-.432,37.714-3.282,11.479-3.01,27.111-2.458,39.352-1.231,14.056,1.41,27.189,5.273,41.78,4.443C145.095,303.609,133.6,304.008,128.865,303.057Z" transform="translate(1538.476 1342.897)" fill="#ffbc98" opacity="0.99"/>
            <path id="Контур_8388" data-name="Контур 8388" d="M278.819,310.937c-3.473,5.053-7.9,10.742-12.353,11.371-7.031.993-15.1-4.081-22.216-4.75-17.939-1.679-34.46-6.469-52.73-6.469-35.993,0-30.758,8.381-94.993,2.214-6.6-.635-37.662-5.556-43.239-9.134l32.626.572s16.98,9.26,58.795,7.233c19.135-.925,55.271-3.2,74.351-1.273,9.245.935,29.925,4.578,38.935,6.672,12.716,2.955,15.446-11.362,15.446-11.362a46.608,46.608,0,0,0,5.379.258Z" transform="translate(1563.627 1317.778)" fill="#ffbc98" opacity="0.85"/>
            <path id="Контур_8390" data-name="Контур 8390" d="M202.633,312.558c2.959-.323,7.286-4.315,9.46-3.554-2.649,9.966-8.13,9.065-16.122,7.835-8.813-1.354-36.658-7.35-36.658-7.35,10-.742,18.923,1.98,28.506,2.539C192.661,312.311,197.732,313.095,202.633,312.558Z" transform="translate(1620.588 1315.355)" fill="#ffbc98" opacity="0.32"/>
            <path id="Контур_8391" data-name="Контур 8391" d="M4.74,313.836c-1.176-.509-3.64-1.9-2.074-2.555,1.167-1,8.313-1.168,12.53-1.808,4.149-.63,8.066.188,12.276.129,7.44-.1,21.922-2.875,23.661.512,1.15,2.315-14.693,2.061-22.7,3.2C22.433,314.161,10.773,318.32,4.74,313.836Z" transform="translate(1536.16 1317.769)" fill="#ffbc98" opacity="0.32"/>
            <path id="Контур_8393" data-name="Контур 8393" d="M14.605,312.628a80.478,80.478,0,0,1,8.109-.446c2.775,0,6.273-.958,8.8,0a58.89,58.89,0,0,1-20.208,3.7c-2.912.014-6.664.478-9.2,1.891a9.264,9.264,0,0,0-2.1,1.51v-4.676a43.46,43.46,0,0,1,5.954-.782C8.822,313.437,11.723,312.925,14.605,312.628Z" transform="translate(1535 1309.265)" fill="#ffbc98" opacity="0.32"/>
            <path id="Контур_8394" data-name="Контур 8394" d="M65.608,314.577c-5.715,1.153-9.171.845-14.791,2.258-2.912.732-12.541,3.855-19.938,4.346-3.772.252-14.47,0-20.1,1.926-2.515.864-6.015-.666-8.545-1.725-.692-.289-1.465-.541-2.234-.826v-3.133c.149.175.309.355.492.538,1.1,1.1,8.655,2.735,10.129,2.738A202.8,202.8,0,0,0,31.2,318.924c2.819-.556,25.287-3.317,29.9-6.273,2.306-1.477-3.268-3.637-6.432-4.341-2-.444-5.817-.309-6.575-2.878,2.012.317,4.1.361,6.1.79s10.907,3.139,13.5,3.656c1.585.318,7.08.115,7.08,1.419C74.773,312.623,67.176,314.26,65.608,314.577Z" transform="translate(1535 1314.912)" fill="#ffbc98" opacity="0.32"/>
            <path id="Контур_8395" data-name="Контур 8395" d="M112.944,297.689a9.364,9.364,0,0,0-1.8-1.081,18.383,18.383,0,0,0-4.06-.928,108.62,108.62,0,0,0-22.662-.481c-4.389.272-8.644.807-13.068.807-6.186,0-12.327-.564-18.453-1.165-4.127-.4-8.069.2-12.256.2a179.01,179.01,0,0,1-18.613-1.131c-5.11-.527-10.184-2.092-15.32-2.088-2.226,0-4.5.066-6.716.052v-4.337c1.98.55,4.152.892,5.511,1.267a45.71,45.71,0,0,0,12.223,1.731c12.445,0,24.7,1.683,37.07,2.73,12.565,1.064,24.6-2.524,37.007-3.061a66.492,66.492,0,0,1,26.523,4.8,65.341,65.341,0,0,0,6.819,2.389c-3.931.155-7.86.326-11.8.28C113.219,297.671,113.082,297.685,112.944,297.689Z" transform="translate(1535 1368.093)" fill="#ffbc98" opacity="0.32"/>
          </g>
        </g>
      </g>
      <g id="Сгруппировать_9087" data-name="Сгруппировать 9087">
        <path id="Вычитание_3-2" data-name="Вычитание 3" d="M172.532,57.721H130.469l42.165-42.165,21.031,21.031-21.15,21.15Z" transform="translate(1177.023 411.891)" fill="url(#linear-gradient-4)"/>
        <g id="Группа_масок_11" data-name="Группа масок 11" transform="translate(319 -1196.157)" clip-path="url(#clip-path-5)">
          <g id="Сгруппировать_5231" data-name="Сгруппировать 5231" transform="translate(-1375.869 1643.5) rotate(-45)">
            <path id="Контур_8274" data-name="Контур 8274" d="M109.4,323.51c-2.385-.221-5.44.85-5.215,2.968.4,3.77,10.893,5.607,10.208,1.046C113.982,325.476,112.326,323.772,109.4,323.51Z" transform="translate(1630.71 1361.485)" fill="#ffbc98" opacity="0.32"/>
            <path id="Контур_8275" data-name="Контур 8275" d="M110.472,323.554a7.4,7.4,0,0,1,4.325.886c-1.291-1.805-4.751-1.978-7.117-1.756-1.334.125-4.54.883-5.294,2.247-1.027,1.836,1.332,3.5,2.151,4.329a7.545,7.545,0,0,0,4.994,2.322c-2.686-.666-4.973-3.118-4.1-5.4C105.766,325.29,106.832,323.8,110.472,323.554Z" transform="translate(1628.832 1360.683)" fill="#ffbc98"/>
            <path id="Контур_8276" data-name="Контур 8276" d="M125.091,332.875c3.16,0,4.563-1.441,7.955-2.934s11.088-2.443,11.117-4.367c.033-2.055-14.415-1.418-18.374-2.964a30.343,30.343,0,0,0-13.3-1.128c-9.634,1.52-17.591-.1-18.763,2.686-.984,2.352,10.062,6.385,16.854,6.971-3.569-2.644-2.425-6.971,2.141-7.683,3.246-.507,7.291-.485,10.252.854C128.339,326.739,127.549,330.745,125.091,332.875Z" transform="translate(1621.053 1359.39)" fill="#ffbc98" opacity="0.32"/>
            <path id="Контур_8277" data-name="Контур 8277" d="M109.3,327.242l4.845,1.424-4.2-1.525a17.291,17.291,0,0,1-.407-2.084c0-.451,1.959-1.238,1.959-1.238h-.363s-1.926.787-1.83,1.238.234,1.948.234,1.948l-.37-.466-3.525-.432-1.454.061,4.76.493.219.4-2.535.783Z" transform="translate(1630.715 1361.796)" fill="#ffbc98"/>
            <path id="Контур_8278" data-name="Контур 8278" d="M107.753,325.725a6.281,6.281,0,0,0,1.621-.165,4.462,4.462,0,0,0,1.378-.363,6.059,6.059,0,0,0-1.5.2,8.819,8.819,0,0,1-1.5.294Z" transform="translate(1633.992 1363.062)" fill="#ffbc98"/>
            <path id="Контур_8279" data-name="Контур 8279" d="M107.5,326.38l-.025.021a1.7,1.7,0,0,0-.508,1.049A1.882,1.882,0,0,0,107.5,326.38Z" transform="translate(1633.277 1364.149)" fill="#ffbc98"/>
            <path id="Контур_8280" data-name="Контур 8280" d="M105.492,324.816a1.669,1.669,0,0,0-.977-.643C104.774,324.411,105,324.453,105.492,324.816Z" transform="translate(1631.02 1362.121)" fill="#ffbc98"/>
            <path id="Контур_8281" data-name="Контур 8281" d="M109.667,327.278a7.415,7.415,0,0,0-1.8-1.2A13.01,13.01,0,0,0,109.667,327.278Z" transform="translate(1634.1 1363.869)" fill="#ffbc98"/>
            <path id="Контур_8282" data-name="Контур 8282" d="M106.918,325.281a10.843,10.843,0,0,0-1.257-1.614C105.705,324.081,106.922,325.288,106.918,325.281Z" transform="translate(1632.073 1361.656)" fill="#ffbc98"/>
            <path id="Контур_8283" data-name="Контур 8283" d="M110.881,319.486c-9.525-1.163-33.457-.777-33.457,8.1,0,4.448,8.828,5.522,19.513,5.512,16.967-.015,23.474,4.829,34.666,5.992,7.961.827,14.688-1.053,22.426-2.821,3.793-.865,39.812-4.849,39.812-10.091,0-7.385-34.159-6.693-53.214-4.555C134.828,322.274,119.6,320.555,110.881,319.486Zm43.181,2.435c18.418-2.155,30.859-.115,31.718,3.87s-28.42,8.036-32.263,8.914c-7.542,1.725-15.344,3.505-22.837,2.443l-.059-.008c-1.458-.132-21.365-4.576-29-4.994-5.938-.328-16.008-1.124-16.862-4.722s9.761-5.351,13.506-5.7a103.162,103.162,0,0,1,18.894-.518C124.561,321.777,141.559,323.388,154.062,321.921Z" transform="translate(1606.131 1357.38)" fill="#ffbc98"/>
            <path id="Контур_8284" data-name="Контур 8284" d="M143.736,320.378c-7.876-1.641-34.226-6.56-53.383-1.529-4.72,1.24-28,7.374-28,13.5.474,6.462,14.866,6.315,26.981,6.689,38.305,1.167,51.042,6.32,65.971,6.432,17.618.132,25.427-5.739,34.38-7.36,28.624-5.19,56.564-.712,56.564-10.756,0-7.8-15.277-2.249-40.546-9.465-10.864-3.1-23.7-.7-35.748.48C166.876,318.672,150.039,321.692,143.736,320.378Zm14.46.681c1.019-.088,36.179-3.456,47.126-1.589,5.19.888,27.944,4.505,27.944,9.145,0,6.635-17.04,4.68-27.192,5.591-3.6.326-18.746,3.3-23.777,4.647-9,2.41-17.495,4.687-27.064,4.994-8.1.263-41.107-4.6-41.107-4.6s-41.291-2.377-41.679-7.654,16.559-18.427,66.635-10.814A77.263,77.263,0,0,0,158.2,321.059Z" transform="translate(1592.289 1354.943)" fill="#ffbc98" opacity="0.32"/>
            <path id="Контур_8285" data-name="Контур 8285" d="M383.745,324.679c-7.414-.8-20.542,5.689-47.032,1.071-15.659-2.73-28.161-.871-43.494,3.941-8.757,2.751-27.752.42-39.134,2.782-19.249,3.991-15.714,7.66-38.066,9.53-20.056,1.679-54.125-6.93-96.374-6.93-25.059,0-27.113-5.695-44.983-7.974-9.607-1.228-32.751,1.487-48.563.624C8.187,326.742,2.155,324.888,0,323.6v2.811c21.062,7.7,57.688.052,74.619,3.926,13.1,3,29.228,8.483,45.027,8.483,39.7,0,71.48,7.636,95.811,6.232,20.147-1.167,24.679-7.262,39.263-9.977,10.194-1.894,30.817-1.447,40.232-4.4,14.719-4.622,25.78-3.592,41.431-1.694,22.75,2.759,40.09-3.671,47.362-3.126Z" transform="translate(1535 1361.594)" fill="#ffbc98" opacity="0.37"/>
            <path id="Контур_8287" data-name="Контур 8287" d="M290.842,356.788c-5.687.508-11.81,1.04-12.944,1.076-6.3.2-14.724-2.4-23.8-2.322-9.766.088-18.719,2.776-32.526,3.976s-35.9-8.281-46.83-5.779c-6.829,1.562-14.726,5.463-35.675,3.791-10.921-.871-31.718-2.053-30.111-7.042.875-2.717,23-.524,28.357-1.241,23.161-3.1,48.686-12.067,59.237-14.379,16.589-3.634,28.712-1.287,32.774-1.074,19.713,1.036,23.435-5.225,35.972-3.92a136.63,136.63,0,0,0,25.546.294v-1.888c-10.937,2.126-17.531-.294-26.941-.338-17.057-.083-16.194,5.035-34.932,2.629-7.694-.99-18.33-2.631-33.14,1.119-10.549,2.665-45.067,15.214-58.515,15.572-9.929.263-36.057-3.8-36.191,2.907s22.372,7.794,39.863,9.469c17.514,1.675,26.191-2.277,31.233-3.4,14.529-3.248,26.812,3.985,43.238,4.962s33.685-4.469,40.287-3.686c1.786.209,17.915,2.349,24.594,2.139,1.1-.035,5.831-.173,10.5-.3Z" transform="translate(1627.903 1365.582)" fill="#ffbc98" opacity="0.32"/>
            <path id="Контур_8288" data-name="Контур 8288" d="M47.973,323.252c4.233-.127,16.062-.624,20.454-.443,14.824.6,31.008.942,52.3-5.6,0,0-26.306,4.946-46.97,3.482-4.425-.311-49.7-1.522-51.044,4.179-1.4,5.94,38.121,3.563,51.729,7.575,13.9,4.1,22.307,4.1,22.307,4.1a95.957,95.957,0,0,1-17.361-4.672c-13.928-4.989-31.835-4.375-38.447-4.994-9.8-.915-9.158-1.435-9.534-2.007C31.2,324.566,41.233,323.455,47.973,323.252Z" transform="translate(1555.832 1355.722)" fill="#ffbc98" opacity="0.32"/>
            <path id="Контур_8289" data-name="Контур 8289" d="M279.131,344.673c-6.4.428-13.216,1.071-20.273,1.744-23.161,2.2-50.6,4.428-70.133-.361-12.9-3.156-28.654,1.5-41,3.732-11.157,2.019-28.05,2.694-27.649-.278.276-2.061,32.413-1.74,61.416-12.627,8.951-3.358,18.815-2.656,29.257-1.909,9.1.649,18.516,1.316,27.764-.76,6.669-1.5,19.767-.877,31.319-.324,3.22.154,6.362.305,9.3.407v-1.619c-2.9-.1-6-.251-9.183-.4-12.274-.589-24.966-1.2-31.941.372-8.912,2.009-18.155,1.349-27.092.71-10.7-.76-20.8-1.479-30.214,2.047-30.272,11.363-62.936,10.517-66.144,13.485-5.43,5.019,22.745,5.917,35.113,2.159,9.484-2.878,24.124-6.831,36.552-3.788,19.911,4.879,49.515,2.98,72.858.762,6.984-.662,13.728-1.3,20.053-1.729Z" transform="translate(1639.614 1368.991)" fill="#ffbc98"/>
            <path id="Контур_8290" data-name="Контур 8290" d="M248.223,338.392a91.721,91.721,0,0,0-12.562.1c-8.87.875-18.6,2.489-21.722,2.845-4.661.533-18.834.015-21.2.015a65.662,65.662,0,0,0-8.882.814c-4.01.551-7.8,1.071-11.491.6a35.792,35.792,0,0,1-6.017-1.523,33.816,33.816,0,0,0-6.9-1.65,55.379,55.379,0,0,0-5.712-.119c-1.853.025-4.651.065-4.933-.33l0,0c0-.155.121-.328.361-.507,3.1-2.327,20.106-3.129,31.335-2.128,13.2,1.176,18.842,1.625,26.087.959,2.4-.221,14.674-1.711,19.063-2.032a138.72,138.72,0,0,1,22.574.125V334.6a225.05,225.05,0,0,0-26.01-.869c-4.6.14-28.474,2.869-41.575,1.7-10.371-.927-28.556-.441-32.336,2.4a1.657,1.657,0,0,0-.79,1.307,1.008,1.008,0,0,0,.4.787c.812.666,2.657.67,5.852.627a53.458,53.458,0,0,1,5.543.111,32.278,32.278,0,0,1,6.593,1.591,37.293,37.293,0,0,0,6.276,1.579c3.895.493,7.965-.067,11.9-.608a64.576,64.576,0,0,1,8.671-.8c2.339,0,4.722.088,7.028.173a95.37,95.37,0,0,0,14.344-.2c3.151-.357,17.574-2.542,21.685-2.844a122.4,122.4,0,0,1,12.424-.033Z" transform="translate(1670.522 1370.843)" fill="#ffbc98"/>
            <path id="Контур_8389" data-name="Контур 8389" d="M193.647,314.7c.015.069.04.13.054.2l.664-.66A1.85,1.85,0,0,1,193.647,314.7Z" transform="translate(1712.908 1352.999)" fill="#ffbc98" opacity="0.32"/>
            <path id="Контур_8392" data-name="Контур 8392" d="M20.531,316.393c.148-.008.148-.015,0-.021l-.031.008Z" transform="translate(1553.834 1354.954)" fill="#ffbc98" opacity="0.32"/>
            <path id="Контур_8396" data-name="Контур 8396" d="M248.323,320.424c-7.7-1.067-16.825,0-24.341,0-9.739,0-19.625.5-29.347,0-8.122-.414-16.286-.789-23.564-3.688-7.441-2.961-15.008-2.093-23.669-2.082.232.117,1.679.871,2.143,1.076,6.971,3.08,15.127,3.162,22.547,6.66,8.068,3.8,14.96,4.428,24.115,4.851,8.978.418,17.4,2.56,26.726,2.1,8.327-.416,16.883-.5,25.39-.514Z" transform="translate(1670.422 1353.256)" fill="#ffbc98" opacity="0.58"/>
            <path id="Контур_8397" data-name="Контур 8397" d="M147.415,314.6h0C147.381,314.58,147.371,314.573,147.415,314.6Z" transform="translate(1670.407 1353.309)" fill="#ffbc98"/>
            <path id="Контур_8398" data-name="Контур 8398" d="M21.95,320.79C16.5,321.937,6.414,322.146,0,324.6v3.364c2.876.294,5.873.152,8.849.3,4.592.228,8.527,1.594,13.1,2.1,8.573.942,16.812,2.251,25.517.524-6.027,0-16.666.967-20.853-3.671,3.853-4.549,16.806-10.411,22.583-9.968C42.517,314.128,28.865,319.328,21.95,320.79Z" transform="translate(1535 1354.857)" fill="#ffbc98" opacity="0.32"/>
            <path id="Контур_8399" data-name="Контур 8399" d="M94.775,334.6c-8.8-2.406-15.858-4.588-25.143-4.592-8.69,0-16.177,1.293-24.118-.51-8.417-1.913-16.192-.865-25.018-1.706A92.978,92.978,0,0,0,0,328.44v2.751c7.7.084,14.757.476,22.461-.675s16.5,2.009,24.145,3.542c8.3,1.66,16.4.326,25.122.67,8.446.334,15.881,3.7,24.1,4.72,8.828,1.09,17.79,1.713,26.724,2.506,3.592.317,24.78-1.067,26.118,2.713,1.065,3.009-20.413,3.546-23.5,3.7-9.594.472-19.36.038-28.817.526-17.6.9-33.768-.647-51.353,0C35,349.259,25.08,350.076,15.256,351c-4.609.437-9.241.616-13.742,1.591A11.913,11.913,0,0,0,0,353.038v4.2c3.956-.4,7.968-1.307,11.326-1.923a79.022,79.022,0,0,1,22.66-1.192c18.274,1.784,35.629-.121,53.976-1.007,9.968-.484,19.609-.386,29.355-.516,8.989-.119,16.7-2.648,25.674-2.659,8.224-.006,17.232-.43,25.676-.012,7.379.366,18.026,2.005,23.646-3.674-8.705-4.647-16.946-2.345-37.622-6.364C137.442,336.534,111.658,339.216,94.775,334.6Z" transform="translate(1535 1365.175)" fill="#ffbc98" opacity="0.32"/>
            <path id="Контур_8400" data-name="Контур 8400" d="M73.3,334.962c-8.891-.984-46.552-2.193-51.351-2.742-6.4-.719-14.78-1.335-21.95-.322v15.657c1.418-.311,2.989-.817,4.672-1.157,8.339-1.665,42.053-5.349,50.292-5.779,9.473-.5,18.623,3.141,28.3,3.143,9.189,0,19.441.764,28.136-1.692-3.519-1.742-8.513-1.547-12.391-1.976C90.115,339.109,82.123,335.943,73.3,334.962Z" transform="translate(1535 1368.729)" fill="#ffbc98"/>
            <path id="Контур_8401" data-name="Контур 8401" d="M4.513,335.314c4.415-.19,12.314.326,14.548.522,7.385.65,23.209,3.442,26.16,3.582,2.9.134,18.186,2.863,26.716-1.385-10.62,2.306-35.12-2.385-38.451-2.719C30.268,334.992,10.5,333.347,4.513,335.314Z" transform="translate(1539.146 1371.484)" fill="#ffbc98"/>
            <path id="Контур_8402" data-name="Контур 8402" d="M78.355,334.4c-5.925.3-32.5,2.907-34.932,4.112,4.968.817,24-1.17,32.86-1.575,7.66-.355,18.644-.9,26.265-1.073,3.676-.668,18.247-1.508,21.919-2.185-1.844-.113-14.435-.01-15.866,0C105.39,333.718,84.856,334.076,78.355,334.4Z" transform="translate(1574.894 1370.808)" fill="#ffbc98" fill-rule="evenodd"/>
            <path id="Контур_8403" data-name="Контур 8403" d="M70.219,338.627c-23.456.042-45.385-9.415-68.3-1.537,11.144-2.425,24.658-1.589,36.072,0,11.52,1.606,19.811,4.194,31.448,3.056,25.523-2.494,51.763-6.046,77.3-6.13-1.746-.219-9.062-.75-15.49-.75a224,224,0,0,0-24.917,1.56C94.366,336,82.03,338.6,70.219,338.627Z" transform="translate(1536.758 1370.475)" fill="#ffbc98" opacity="0.54"/>
            <path id="Контур_8404" data-name="Контур 8404" d="M115.407,341.207c-17.971-.89-36.627,1.4-53.972,4.682-5.418,1.025-11.583,1.756-16.582,3.726,17.637-.3,33.656-4.662,50.643-6.3,8.759-.842,16.81-1.516,25.674-1.074,7.825.388,17.455.311,24.631,2.621,2.21.71,6.311,1.117,6.679,3.264.336,1.936,2.665,1.566,6,1.936l5.133-.48c-2.675-5.783-16.8-7.3-22.532-7.867C132.4,340.873,124.287,341.648,115.407,341.207Z" transform="translate(1576.208 1377.592)" fill="#ffbc98" opacity="0.32"/>
          </g>
        </g>
      </g>
    </g>
  </g>
</svg>
