<svg xmlns="http://www.w3.org/2000/svg" width="571.039" height="251.412" viewBox="0 0 571.039 251.412">
  <g id="barin_logo_inverse" transform="translate(-521.5 -397.037)">
    <path id="Объединение_68" data-name="Объединение 68" d="M-520.075-3004.239q-4.737-4.894-4.738-12.756,0-8.3,4.81-13.428t12.744-5.127a15.9,15.9,0,0,1,12.122,4.907q4.625,4.909,4.626,12.94,0,8.253-4.8,13.306a16.467,16.467,0,0,1-12.514,5.053A16.292,16.292,0,0,1-520.075-3004.239Zm6-21.41a12.978,12.978,0,0,0-2.441,8.24q0,5.2,2.441,8.227a7.824,7.824,0,0,0,6.4,3.028,7.905,7.905,0,0,0,6.47-2.942q2.391-2.943,2.391-8.167,0-5.443-2.318-8.471a7.562,7.562,0,0,0-6.349-3.029A7.937,7.937,0,0,0-514.07-3025.649Zm77.222,25.7v-35.01h20.191v6.421h-12.306v7.788h11.451v6.4h-11.451v8.007h13.11v6.4Zm-15.746,0V-3020.9q0-3.393.292-7.5h-.2a36.691,36.691,0,0,1-1.1,4.638l-8.2,23.8h-6.445l-8.35-23.56a45.8,45.8,0,0,1-1.1-4.882h-.219q.316,5.177.317,9.082v19.36h-7.1v-35.01h11.547l7.154,20.752a29.293,29.293,0,0,1,1.246,5h.146a50.572,50.572,0,0,1,1.392-5.053l7.152-20.7h11.255v35.01Zm-85.937,0v-14.258h-14.5v14.258h-7.886v-35.01h7.886V-3021h14.5v-13.965h7.91v35.01Zm481.9-60.143-73.087-74.787v47.553q0,16.375,6.067,20.2t16.5,3.825v2.364h-44.277v-2.364a25.65,25.65,0,0,0,13.222-3.64q6.188-3.639,6.186-17.411v-41q0-10.915-4.637-14.4t-13.135-3.489v-2.366h33.967l58.955,60.475v-30.027q0-17.159-5.7-22.623a19.974,19.974,0,0,0-14.378-5.459v-2.366H-35.1v2.366q-8.493,0-13.979,4.914t-5.489,23.774v54.47Zm-158.851-.85v-2.364q10.916,0,14.346-4.125t3.426-13.044v-45.611q0-8.914-3.426-13.041t-14.346-4.125v-2.366h53.374v2.366q-10.916,0-14.343,4.125t-3.429,13.041v45.611q0,8.918,3.429,13.044t14.343,4.125v2.364Zm-44.219,0-29.415-41.426h-18.621v21.894q0,8.918,3.426,13.044t14.346,4.125v2.364h-53.377v-2.364q10.92,0,14.346-4.125t3.426-13.044v-45.611q0-8.914-3.426-13.041t-14.346-4.125v-2.366h69.511q19.773,0,27.5,6.43t7.734,14.072v2.669q0,8.554-10.645,14.314t-26.11,5.763h-10.8a163.866,163.866,0,0,0,14.618,7.791,71.594,71.594,0,0,0,11.584,3.611l14.557,20.442a15.837,15.837,0,0,0,7.7,5.882,33.73,33.73,0,0,0,10.07,1.337v2.364Zm-48.036-43.671h21.773q16.254,0,21.655-5.37a17.734,17.734,0,0,0,5.4-13.069v-1.877a17.437,17.437,0,0,0-5.581-13.1q-5.581-5.339-22.259-5.336h-20.987Zm-92.5,43.671v-2.363q10.491,0,13.069-1.367a4.526,4.526,0,0,0,2.58-4.278q-.126-3.09-7.462-18.5h-35.3l-3.7,8.311a14.934,14.934,0,0,0-.607,4.975q.547,5.581,3.973,8.219a13.071,13.071,0,0,0,8.219,2.641v2.363H-454.22v-2.363q14.8,0,25.841-28.692l24.442-55.254h2.669l35.423,76.784a11.607,11.607,0,0,0,6.428,5.8,26.2,26.2,0,0,0,8.492,1.367v2.363ZM-426.5-3089.7h33.24l-16.681-37.3Zm-138.958,28.75v-2.364q10.92,0,14.346-4.125t3.426-13.044v-45.611q0-8.914-3.426-13.041t-14.346-4.125v-2.366H-500.5q15.344,0,23.535,6.034t8.187,14.711q0,8.493-10.067,13.646t-16.559,5.821q13.767,2.309,22.137,7.8t8.372,15.135q0,10.612-10.706,16.07a51.355,51.355,0,0,1-23.685,5.46Zm35.787-2.306h18.622q12.311,0,18.8-5.338t6.489-15.528q0-9.46-7.067-14.678t-21.986-5.215h-14.861Zm0-43.245h15.467q15.586,0,20.562-5.671a20.209,20.209,0,0,0,4.972-13.8q0-8.189-4.4-12.89t-17.861-4.7h-18.743Z" transform="translate(1087.46 3647.293)" fill="#fff" stroke="rgba(0,0,0,0)" stroke-miterlimit="10" stroke-width="1"/>
    <g id="Сгруппировать_9089" data-name="Сгруппировать 9089">
      <path id="Вычитание_2" data-name="Вычитание 2" d="M-15086.493,186.415h-7.524c-.043-.46-.084-.929-.122-1.383l-.016-.178c-.091-1.069-.193-2.281-.344-3.436.157,1.189.26,2.4.351,3.474l.013.143c.038.453.079.921.122,1.38h0l1.736-.023c-.062-.8-.121-1.6-.18-2.39l-.031-.429c.016-.051.036-.107.062-.171a1.116,1.116,0,0,0,.1-.365c.041-1.2.075-2.453.1-3.529v-.034c.066-2.382.135-4.846.269-7.264a47.68,47.68,0,0,1,.755-6.142c.4-2.1.851-4.258,1.251-6.166.489-2.33,1-4.74,1.429-7.123a18.608,18.608,0,0,0,.1-4.288l-.012-.213c-.054-1.043-.2-2.082-.334-3.087-.059-.432-.126-.921-.183-1.4-.072-.243-.144-.491-.212-.731l-.035-.122c-.171-.6-.365-1.287-.6-1.927a6.941,6.941,0,0,0-2.311-3.473c.08-1.062.172-2.124.262-3.152.205-2.357.417-4.8.485-7.226a34.439,34.439,0,0,0-1.221-9.488,5.153,5.153,0,0,0-.247-.691c-.05-.121-.091-.223-.13-.326-.278-1.007-.571-2.025-.824-2.9l0-.015c-.593-2.058-1.205-4.185-1.694-6.3a86.263,86.263,0,0,1-1.74-13.215c-.091-1.311-.22-2.643-.345-3.931l-.006-.056c-.057-.578-.12-1.233-.178-1.862-.32-.962-.644-1.939-.959-2.892l-.109-.33-.275-.833c-.013-.287-.021-.58-.029-.863l0-.161c-.017-.638-.035-1.36-.1-2.064l-.027-.284-.011-.109c-.245-2.512-.5-5.109-.854-7.647a5.071,5.071,0,0,0-.586-1.538l-.016-.031c-.11-.218-.225-.444-.319-.668-.041.678-.092,1.244-.157,1.78.062-.518.109-1.067.153-1.78q-.157-1.685-.315-3.367l-.22-2.332-1.494-1.5-3.565-3.562-3.851-3.854c.046.4.094.814.153,1.315l.046.4c.11.947.224,1.925.332,2.883.061.523.131,1.055.2,1.569l.011.081c.161,1.225.329,2.491.388,3.753.126,2.729.251,5.9.15,9.064a32.049,32.049,0,0,1-.492,4.149v.007l-.008.051c-.1.6-.2,1.213-.28,1.82-.218.817-.425,1.65-.625,2.456l0,.016c-.442,1.775-.9,3.611-1.493,5.368a47.964,47.964,0,0,0-2.283,11.228c-.188,2.1-.363,4.277-.518,6.2s-.327,4.084-.515,6.175c-.169,1.912-.38,3.841-.585,5.706l-.055.5q-.082.741-.161,1.483V96.837l.085-.261.026-.079a16.529,16.529,0,0,0,.532-1.854c.631-3.071,1.232-6.18,1.79-9.241.14-.769.222-1.564.3-2.332l0-.028c.034-.34.075-.734.12-1.113a76.743,76.743,0,0,0,.47-12.4c-.075-1.837-.306-3.7-.529-5.5v-.006c-.075-.606-.155-1.251-.229-1.892-.177-1.54-.385-3.1-.568-4.486v-.005q-.081-.616-.162-1.231c-.046-.357-.095-.72-.143-1.07l-.01-.07-.007-.05c-.1-.721-.2-1.467-.28-2.2a2.316,2.316,0,0,1,.068-.647l0-.026c.016-.077.03-.157.043-.236l-.327-.323c-.4-.353-.807-.706-1.187-1.034V50.5l29.742,29.742Zm-.208-32.834h0a1.938,1.938,0,0,1-.144.166.7.7,0,0,0-.227.354l-.05.633c-.017.215-.034.43-.051.645l0,.041c-.155,1.948-.316,3.962-.4,5.944-.126,2.916-.157,5.791-.17,7.971-.008,1.159.049,2.365.1,3.429l.007.153c.016.337.031.683.045,1.023q.018.418.033.836v.029c.039.98.079,1.994.15,2.986.068.967.18,2.027.339,3.242a.716.716,0,0,0,.241.35l0,0a1.924,1.924,0,0,1,.137.146c.01-.1.022-.2.035-.29l0-.023a4.721,4.721,0,0,0,.05-.588c0-8.562,0-17.245,0-25.807a8.507,8.507,0,0,0-.064-.9l-.012-.113c-.008-.078-.017-.155-.023-.233Zm-12.818-86.265h0c.1.547.2,1.114.282,1.6l0,.022c.216,1.251.438,2.545.749,3.8.9,3.628,1.853,7.307,2.775,10.864l.029.112.2.788c.313,1.2.636,2.449.95,3.67q.693,2.294,1.443,4.7c1.188,3.842,2.416,7.815,3.478,11.78a43.5,43.5,0,0,1,1.007,5.925l.008.059c.1.8.2,1.636.321,2.449.127.861.239,1.752.338,2.539v.011c.05.4.1.79.15,1.185q.217.964.432,1.928l0,.014q.105.474.213.949.108.49.219.979c.1,0,.2.011.3.019.009-.627.009-1.267.009-1.886l-.008-.08-.036-.366-.009-.09c-.03-.305-.062-.621-.086-.931-.034-.466-.063-.934-.092-1.387q-.026-.427-.055-.854c-.218-1.4-.414-2.831-.6-4.215l-.017-.121c-.427-3.124-.868-6.355-1.583-9.488-1.572-6.923-3.314-13.931-5-20.708l-.053-.214c-.746-3-1.518-6.1-2.271-9.178a3.845,3.845,0,0,1-.082-.645c-.006-.078-.012-.156-.019-.233l-3-3Zm7.046,7.047h0c0,.032,0,.065,0,.1a1.2,1.2,0,0,0,0,.284c.365,1.863.748,3.8,1.078,5.472l.054.272c.542,2.744,1.1,5.581,1.641,8.373.446,2.307.879,4.612,1.358,7.171l.16.853c.306,1.629.622,3.314.938,4.964.109.559.268,1.122.407,1.62l.029.105c.056.2.114.411.168.616q0-.491.01-.982l.006-.5,0-.145c.012-1.145.024-2.328.024-3.491,0-3.141-.012-6.284-.022-9.771l-.008-2.662c-.025-.029-.057-.058-.087-.086l-.011-.01a.533.533,0,0,1-.184-.247c-.546-2.642-1.028-5.039-1.475-7.328a.544.544,0,0,1,.075-.279l.006-.012c.015-.032.03-.065.042-.1l-4.213-4.216Zm-1.976,112.052h-21.786l.678,0c-.026-.157-.051-.317-.074-.476l-.034-.221c-.07-.467-.149-1-.254-1.5-.078-.387-.189-.773-.3-1.146l-.01-.033-.008-.027V170.2a.28.28,0,0,1,.127.137c.718,2.391,1.655,5.53,2.55,8.6.594,2.044,1.193,4.19,1.782,6.377a2.871,2.871,0,0,1,.062.755v.047c0,.094,0,.191,0,.284h.4c.3,0,.563,0,.8,0,1.795,0,3.617,0,5.38,0h2.206a11.71,11.71,0,0,0,1.107-5.432l0-.055c.021-.475.04-.967.077-1.448.122-1.649.285-3.323.413-4.6-.184,1.849-.311,3.267-.409,4.6-.037.482-.057.974-.077,1.449l0,.053a11.723,11.723,0,0,1-1.107,5.433c1.51,0,3.046,0,4.532,0h1.532l1.378.007h.043l.989.006Zm-17.532-6.557-.055-.241c-.225-1-.451-2-.676-2.991.2.858.393,1.722.587,2.585l.091.405h0l.057.24Zm10.781-6.217h0q.045-.449.093-.894l.06-.58q.057-.548.113-1.1c.1-.943.159-1.847.185-2.687-.023.844-.085,1.748-.181,2.687l-.09.864-.048.461-.049.468Q-15101.16,173.251-15101.2,173.641Zm-6.071-.587a1.991,1.991,0,0,1-.223-.105c-.128-.071-.257-.144-.386-.217l.386.213a1.965,1.965,0,0,0,.223.107Zm-1.308-.747c-.26-.167-.493-.327-.714-.491.225.163.465.328.716.489Zm-5.344-.639c-.311-1.331-.523-2.421-.668-3.429-.034-.241-.063-.479-.087-.706.028.243.058.48.091.706.146,1.009.356,2.1.666,3.428Zm17.877-1.359c-.118-.985-.216-1.885-.3-2.751a56.576,56.576,0,0,1,.03-8.107l.027-.53c.066-1.277.2-2.542.317-3.612-.116,1.069-.247,2.333-.313,3.612l-.021.395v.02a57.043,57.043,0,0,0-.036,8.222c.078.841.175,1.741.295,2.751Zm-10.954-.67v0a2.9,2.9,0,0,0,.9-.686,3.841,3.841,0,0,0,.722-1.164,3.781,3.781,0,0,1-.718,1.164A2.844,2.844,0,0,1-15107,169.64Zm8.063-.7c-.031-.365-.058-.722-.078-1.061q-.025-.417-.052-.834l0-.059c-.071-1.152-.145-2.344-.166-3.532.024,1.2.1,2.4.172,3.556q.028.434.054.868c.019.317.043.664.076,1.061Zm-9.571-3.835a1.858,1.858,0,0,1-1.119-1.15v-.008a1.866,1.866,0,0,0,1.119,1.156Zm7.563-.895a19.024,19.024,0,0,0-1.334-4.907,12.526,12.526,0,0,1-.722-3.6c-.026-.258-.056-.546-.087-.818-.228-1.931-.419-3.936-.588-5.7l-.007-.074c-.088-.912-.179-1.855-.272-2.781a1.542,1.542,0,0,0-.208-.72c-.04-.057-.082-.12-.126-.186l.028.038c.035.052.068.1.1.148a1.533,1.533,0,0,1,.208.72c.1.974.192,1.957.28,2.874l0,.032c.178,1.855.361,3.773.583,5.653.027.235.055.5.088.82a12.532,12.532,0,0,0,.722,3.6,18.988,18.988,0,0,1,1.332,4.907Zm-3.1-.364a5.035,5.035,0,0,0-.579-.843,4.913,4.913,0,0,1,.581.842Zm-7.032-2.06h0a2.016,2.016,0,0,1,1.469-.541h0A2.022,2.022,0,0,0-15111.075,161.786Zm-.725-1.969v0l.252-.112.062-.028c.142-.063.281-.125.421-.185l-.342.153-.1.043-.042.019Zm-2.422-2.54h0c.2-.816.4-1.645.6-2.447.435-1.769.885-3.6,1.3-5.424.324-1.405.621-2.84.908-4.227l.037-.181c.116-.561.235-1.141.356-1.711.18-.76.356-1.523.521-2.24-.2.878-.364,1.59-.518,2.24-.12.566-.239,1.143-.354,1.7l-.039.19c-.287,1.389-.584,2.823-.908,4.227-.419,1.823-.868,3.653-1.3,5.424-.223.9-.418,1.7-.6,2.446Zm-2.012-5.22h0v0a.933.933,0,0,0,.135-.419q0-.4.008-.781l0-.432v.1c0,.361,0,.732-.009,1.113A.965.965,0,0,1-15116.233,152.058Zm20.839-2.11h0c.138-1.533.27-3.128.4-4.876q.07-.916.138-1.838-.064.921-.134,1.838C-15095.123,146.82-15095.255,148.415-15095.395,149.947Zm-2.316-5.5h0c0-.043,0-.085,0-.127v-.083q0-.656,0-1.312l0,.032c0,.426,0,.855,0,1.28C-15097.71,144.311-15097.71,144.38-15097.711,144.449Zm-18.522-5.835h0v-7.825l.055-.1.069-.135,0-.01a6.849,6.849,0,0,0,.479-1.056,46.389,46.389,0,0,0,2.434-13.473c.02-1.176.061-2.392.1-3.466.022-.663.047-1.373.065-2.072q.032-1.276.063-2.551l.021-.856q.04-1.7.082-3.393a40.128,40.128,0,0,1,2.568-15.364,63.661,63.661,0,0,0,2.022-6.724c.258-.986.524-2.007.808-3,.013.181.029.364.046.537l0,.018a12.062,12.062,0,0,1,.068,1.235c-.014,1.015-.037,2.046-.061,3.043v.058c-.018.727-.037,1.572-.051,2.394a.352.352,0,0,0,.095.187.913.913,0,0,1,.063.091c-.158.562-.328,1.125-.5,1.7l0,.012a38.241,38.241,0,0,0-1.037,3.92c-.346,1.815-.531,3.692-.711,5.506v.008q-.051.522-.1,1.043c-.119,1.192-.2,2.4-.279,3.564-.036.541-.079,1.169-.125,1.78-.1,1.307-.186,2.631-.27,3.911-.191,2.915-.389,5.928-.739,8.885-.522,4.419-1.149,9.162-2.2,13.9a37.7,37.7,0,0,1-2.071,6.011C-15115.627,137.08-15115.945,137.86-15116.233,138.614Zm21.9-2.742h0c-.109-.1-.219-.2-.328-.292l-.01-.009c-.27-.237-.548-.483-.8-.741a1.755,1.755,0,0,1-.4-1.906,8.425,8.425,0,0,0,.254-1.194c.031-.191.063-.391.1-.581a32.829,32.829,0,0,0-.669-10.047l-.026-.153c-.088-.516-.18-1.05-.264-1.575-.146-.9-.255-1.843-.352-2.677l0-.021c-.131-1.126-.266-2.291-.485-3.42-.266-1.354-.593-2.719-.909-4.038l-.014-.058c-.362-1.512-.736-3.076-1.018-4.629a30.781,30.781,0,0,1-.367-3.967v-.028c-.024-.507-.052-1.081-.09-1.627a.322.322,0,0,1,.091-.191l0-.007a.95.95,0,0,0,.055-.079,80.1,80.1,0,0,1,3.615,12.118c.572,2.557,1.133,5.273,1.764,8.548a14.363,14.363,0,0,1,.188,2.584c.017,3.42.026,6.507-.023,9.657-.016,1.019-.11,2.08-.193,3.016-.04.449-.078.888-.11,1.318Zm-14.548-1.735h0c.189-.77.38-1.526.568-2.246.316-1.209.676-2.58,1.15-3.981-.4,1.21-.751,2.466-1.146,3.981C-15108.492,132.584-15108.679,133.319-15108.881,134.137Zm-2.546-7.041h0c.181-.824.37-1.671.548-2.468.4-1.794.816-3.648,1.188-5.479a46.814,46.814,0,0,0,.673-8.3l0-.119c.014-.644.027-1.31.049-1.963.014-.431.025-.871.036-1.3l0-.174a38.049,38.049,0,0,1,.944-8.961,12.6,12.6,0,0,1,.446-1.284l.012-.03c.073-.19.149-.386.22-.58.029.268.067.541.1.8l.015.1,0,.023a15.355,15.355,0,0,1,.183,1.861c.061,3.343.1,6.746.137,10.036l.007.557q.023,2.14.05,4.281a18.961,18.961,0,0,1-1.749,7.7c-.37.872-.794,1.735-1.205,2.57l-.011.023-.094.19c-.16.327-.326.665-.484,1l-.065.092-.472.661Zm5.839-2.852h0c.125-.228.253-.448.379-.655.033-.054.068-.108.105-.162-.042.066-.074.116-.1.162C-15105.338,123.8-15105.466,124.024-15105.588,124.244Zm4.825-27.846c-.18-.31-.35-.579-.521-.823s-.295-.415-.421-.571c.128.155.259.33.425.567s.337.512.519.826Zm-15.661-3.684,0,0-8.923-8.922c.075.043.155.086.232.127l.019.01.079.042-.008-.005-.008-.006c.094.027.191.048.285.069a1.811,1.811,0,0,1,.578.193c2.146,1.333,4.3,2.7,6.393,4.029l.477.3c.224.145.443.31.637.456l.078.059.167.124,0,3.521Zm0-7.744h0c-.062-.038-.129-.075-.187-.107a3.252,3.252,0,0,1-.315-.189,56.663,56.663,0,0,0-10.777-6.169c-1.01-.436-2.07-.793-3.1-1.138l-.057-.019c-.463-.156-.941-.317-1.407-.483.047.048.093.1.139.147l.071.076-18.406-18.406.013,0c.057,0,.117,0,.176-.01.074-.006.147-.012.217-.012a.669.669,0,0,1,.248.039,3.562,3.562,0,0,0,1.331.272,3.789,3.789,0,0,0,3.074-1.855,5.908,5.908,0,0,0,.624-1.09c.146-.369.348-.556.6-.556a.982.982,0,0,1,.573.248,28.326,28.326,0,0,1,2.184,1.821c.627.595,1.247,1.244,1.795,1.817.257.269.522.547.789.82q.968.887,1.935,1.775l.926.85,1.009.925c1.24,1.311,2.1,2.216,2.873,3.027l1.341,1.232.036.033.031.029c1.8,1.655,3.666,3.367,5.508,5.041,2.759,2.506,4.871,4.4,6.85,6.149a12.5,12.5,0,0,0,1.294.96c.2.135.4.268.585.4,0,.732.009,1.46.014,2.187v.067q.007,1.057.014,2.114Zm-100.4-1.3h-42.063l2.152-2.153-2.045,2.045-.082-.082c0-.068-.008-.148-.01-.238l-.18.024-.021,0-15.82-15.822.489.063.056.007.647.084c.466.163.945.32,1.408.473l.058.019.011,0c1.11.365,2.259.743,3.341,1.222,1.215.536,2.408,1.18,3.562,1.8l0,0c.533.288,1.055.569,1.567.836,1.7,1.17,3.418,2.349,5.079,3.489l1.519,1.2c.872.688,1.758,1.385,2.674,2.1l-1.2,1.239-.093.1-.96.995c.091-.032.186-.059.276-.085l.016,0c.059-.017.118-.034.178-.053s.109-.038.165-.061a1.262,1.262,0,0,0,.13-.062c4.439-2.567,9.687-5.6,14.949-8.672.855-.5,1.7-1.028,2.521-1.54l.022-.014c.332-.207.675-.421,1.014-.63q.262-.154.524-.312l.323-.193c.11-.06.222-.117.331-.169l.029-.019c.055-.036.111-.072.163-.108l.178-.116.142-.092.166-.087.083-.043.083-.043c.084-.056.169-.111.254-.166l.254-.165c.1-.045.207-.086.31-.126l.008,0,0,0a3.32,3.32,0,0,0,.663-.316c1.359-.9,2.747-1.812,4.089-2.692l.014-.009c3.6-2.36,7.323-4.8,10.892-7.349,2.239-1.6,4.382-3.416,6.454-5.171l.036-.031c.916-.776,1.863-1.577,2.806-2.35.039-.088.071-.185.1-.26a2.44,2.44,0,0,1-.092.26c.9-.823,2.125-1.929,3.538-3.2l.521-.5.026-.026.051-.049c.6-.573,1.217-1.165,1.813-1.756,1.038-1.025,2.089-2.066,3.115-3.083l.443-.439.3-.3c1.149-1.138,2.337-2.314,3.5-3.467l.057-.072a3.717,3.717,0,0,1,.263-.313c1.347-1.375,2.72-2.773,4.047-4.124l.135-.138c1.815-1.848,3.755-3.823,5.634-5.745.426-.439.839-.906,1.237-1.358.171-.194.395-.447.614-.69.085.058.174.117.259.173l.013.008c.2.135.414.274.61.427.179.14.349.3.513.448l.015.014c.091.085.182.169.273.25,0,.066,0,.132,0,.2l0,.149-1.067.927-.325.283-.064.056c-1.075.935-2.187,1.9-3.261,2.869-1.946,1.752-3.889,3.522-5.766,5.235-1.011.922-1.922,1.752-2.844,2.59-.06.069-.117.138-.176.207l-.014.017c-.122.146-.26.312-.407.462-.591.618-1.2,1.244-1.784,1.849l-.148.153-.832.858-.582.621-.387.414-.007.007c-.947,1.012-1.927,2.059-2.9,3.075-.458.481-.943.938-1.413,1.379l-.115.109c-.162.153-.328.309-.489.464-.062.07-.123.142-.182.213l0,.006-.009.01a5.175,5.175,0,0,1-.421.461q-1.066,1.01-2.13,2.022l-.045.042c-2.182,2.072-4.437,4.215-6.693,6.284-1.857,1.706-3.629,3.219-5.414,4.625-2.256,1.772-4.592,3.447-6.6,4.879a56.7,56.7,0,0,1-11.193,6.253,29.855,29.855,0,0,0-7.309,3.9,10.578,10.578,0,0,0-1.053,1l-.052.053c-.134.139-.273.283-.413.421.032.064.075.151.124.258.115,0,.235.011.353.021h0c.116.01.236.021.351.021a1.063,1.063,0,0,0,.382-.058c.463-.171.931-.338,1.45-.523l.009,0a45.039,45.039,0,0,0,4.544-1.811c3.157-1.542,6.471-3.277,10.127-5.306.776-.431,1.574-.858,2.346-1.27l.043-.023c3.246-1.733,6.6-3.524,9.3-6.2,2.375-2.36,4.738-4.792,6.938-7.07,1.048-1.085,2.092-2.212,3.1-3.3l.04-.043.185-.2c.393-.424.8-.863,1.2-1.292,2.351-2.445,4.781-4.973,7.216-7.489a7.489,7.489,0,0,1,.582-.521l.012-.01c.117-.1.206-.172.288-.243h0l.075,0h.006l.083,0a20,20,0,0,1,7.678-4.313,3.49,3.49,0,0,1,.927-.128,2.963,2.963,0,0,1,2.908,2.231,18.968,18.968,0,0,1,.6,3.693c.07.989.054,1.989.037,2.956-.006.375-.014.842-.014,1.287a1.881,1.881,0,0,0,.512-.77c.56-1.379,1.129-2.792,1.619-4.008l.384-.951c.24-.543.479-1.1.71-1.636l.038-.09.017-.039c.54-1.257,1.1-2.558,1.723-3.8a16.825,16.825,0,0,1,4.274-5.41,1.192,1.192,0,0,1-.043-.121c.014.034.029.079.047.121l.072.072c.5.5.993,1,1.49,1.5l.128.129c-.046.093-.092.187-.137.28-.1.211-.215.446-.341.66-1.755,2.981-3.548,6.012-5.282,8.942l-.193.327-.027.046c-.119.2-.258.4-.392.589l0,.006-.029.042c-.059.083-.118.167-.175.252l-.429.868-.084.169c-.394.8-.8,1.621-1.2,2.432-.139.285-.271.572-.416.89l-.019.04c-.073.158-.146.316-.22.475l.1-.091.137-.118c.161-.138.306-.263.442-.4,4.164-4.135,8.267-8.218,11.785-11.721l.062.055.019.018.037.034.016-.015.052.052-45.62,45.624Zm11.384-19.876a.492.492,0,0,1,.407.182.645.645,0,0,1,.076.564l0,.015a6.04,6.04,0,0,1-1.055,2.465l-.618.688a58.434,58.434,0,0,1-5.7,5.793c-2.5,2.1-5.187,4.064-7.784,5.96l-.056.04c-.779.569-1.585,1.157-2.372,1.74a17.889,17.889,0,0,1-1.688,1.067l-.009,0c-.335.195-.682.4-1.014.608a3.726,3.726,0,0,0-.5.414l0,0c-.069.065-.151.142-.234.213l1.438,0h.045l1.4,0c.048-.045.095-.1.143-.15a1.147,1.147,0,0,1,.323-.281,45.555,45.555,0,0,0,9.3-6.126,63.355,63.355,0,0,0,9.626-9.692,15.011,15.011,0,0,0,2.919-5.063,1.764,1.764,0,0,0-.045-1.369,1.7,1.7,0,0,0-1.1-.73,2.106,2.106,0,0,0-.565-.078,3.488,3.488,0,0,0-1.93.771c-2.573,1.817-5.948,4.217-9.241,6.673a214.4,214.4,0,0,1-22.159,14.979,7.685,7.685,0,0,0-1.01.722c-.134.106-.284.226-.432.337l1.609,0h.049l1.561,0q.275-.2.549-.4l.109-.08c.429-.313.915-.669,1.4-1,1.6-1.093,3.192-2.17,4.956-3.364l.027-.018c3.28-2.22,6.673-4.516,9.973-6.829,2.138-1.5,4.241-3.081,6.276-4.612l.059-.044c1.145-.86,2.327-1.749,3.5-2.611a6.622,6.622,0,0,1,1.36-.7l.041-.018A1,1,0,0,1-15205.433,63.8Zm-45.008,19.465c-.254.113-.5.221-.673.292l.343,0,.343,0h5.906c.07-.056.139-.116.2-.175l.01-.009a2.4,2.4,0,0,1,.479-.359c1.081-.545,2.178-1.087,3.238-1.612l.023-.012c1.868-.924,3.8-1.879,5.676-2.866,3.178-1.673,7.357-3.9,11.5-6.257l.535-.3a73.864,73.864,0,0,0,12.334-8.163c1.66-1.453,3.2-3.085,4.68-4.663.609-.648,1.3-1.382,1.981-2.08.737-.757,1.483-1.531,2.2-2.281l.137-.142q.576-.6,1.152-1.2c.754-.758,1.515-1.519,2.021-2.025.081-.071.162-.143.242-.215.148-.132.3-.266.45-.389.235-.191.473-.39.7-.582l.041-.035c.587-.492,1.251-1.05,1.934-1.517a2.355,2.355,0,0,1,1.3-.47c.768,0,1.283.585,1.379,1.564a7.542,7.542,0,0,1-.589,3.281,24.394,24.394,0,0,1-1.426,2.871l-.017.032c-.215.389-.437.791-.645,1.19l-.269.327-.147.18-.42.51c-.156.229-.311.466-.461.7l-.043.067c-.348.533-.706,1.082-1.105,1.587l-.464.583-.545.687-.047.059c-2.162,2.723-4.4,5.54-6.669,8.251-1.6,1.916-3.308,3.8-4.956,5.628l-.013.015c-.49.542-1.045,1.156-1.585,1.759-.479.533-.988,1.052-1.48,1.553l-.059.059c-.2.206-.41.419-.613.629l.01.005a.042.042,0,0,1-.014-.005l-.81.657-.427.347-.095.076c-.865.7-1.76,1.426-2.631,2.147a1.515,1.515,0,0,0-.3.389c-.043.071-.085.14-.131.2a4.493,4.493,0,0,1,.467-.041,1.543,1.543,0,0,0,.92-.224c.851-.768,1.661-1.608,2.445-2.421l.009-.009.051-.053c.282-.293.574-.6.864-.89.042-.036.085-.071.128-.105a3.032,3.032,0,0,0,.253-.218c4.136-4.129,8.073-8.066,11.7-11.7,1.112-1.113,2.2-2.225,3.413-3.459l1.181-1.2a1.686,1.686,0,0,0,.018-.175.7.7,0,0,1,.079-.349c.626-.863,1.262-1.724,1.913-2.6l.272-.368q.428-.579.855-1.16a.34.34,0,0,0,.041-.158.7.7,0,0,1,.01-.081c.061-.066.127-.131.186-.188a2.357,2.357,0,0,0,.365-.416c.909-1.476,1.833-2.988,2.7-4.4l.035-.057q.719-1.178,1.439-2.356a12.136,12.136,0,0,0,1.2-5.175,3.1,3.1,0,0,0-2.928-3.126,2.931,2.931,0,0,0-1.111.226,20.532,20.532,0,0,0-3.057,1.681l-.008.005-.015.009c-.435.272-.885.554-1.333.815-.034.036-.066.073-.1.109l-.039.043c-.142.159-.28.313-.425.455-.638.63-1.291,1.27-1.922,1.889l-.26.255-.386.378-.413.4c-.937.986-1.878,1.967-2.923,3.056l-.473.492-.645.672c-.513.6-1.029,1.211-1.529,1.8l-.155.184c-1.265,1.5-2.57,3.053-3.926,4.512a51.157,51.157,0,0,1-5.163,4.983,58.594,58.594,0,0,1-10.216,6.246c-2.085,1.078-4.22,2.14-6.285,3.167l-.041.02-.042.021c-1.071.532-2.179,1.083-3.266,1.628-.364.183-.729.382-1.081.574l-.021.011c-.528.289-1.075.587-1.637.843-.736.337-1.5.65-2.237.954l-.026.011-.006,0c-.594.244-1.208.5-1.8.758-2.556,1.121-5.053,2.221-7.509,3.35a8.5,8.5,0,0,0-1.215.731l0,0c-.184.125-.362.246-.541.36h0Zm-50.5.409-42.062,0,.1-.1h.358l2.854,0h.105l3.19,0c.03-.041.059-.087.085-.13l.015-.023a1.136,1.136,0,0,1,.228-.294c.758-.592,1.534-1.185,2.286-1.759l.041-.032c1.6-1.225,3.264-2.492,4.847-3.827,1.628-1.376,3.207-2.865,4.733-4.3l.008-.007c.532-.5,1.15-1.083,1.751-1.642,1.306-1.215,2.632-2.454,3.915-3.652l.136-.127.128-.119c1.947-1.819,3.962-3.7,5.948-5.539.8-.738,1.629-1.46,2.433-2.157.347-.3.717-.621,1.083-.943.423-.468.848-.936,1.247-1.374l.277-.3c.2-.122.4-.239.6-.353a10.349,10.349,0,0,0,1.3-.836c.932-.739,1.851-1.524,2.739-2.284l.074-.063c.328-.28.668-.57,1-.853l.752-.6.083-.066c.835-.666,1.7-1.355,2.538-2.045.679-.556,1.359-1.133,2.018-1.691l0,0,.169-.143q.425-.36.851-.719l-.02-.022-.09-.109-.041-.05.01.009.017.019.017.02h0l.02.02.048.057.042.05,3.373,3.235c-.152.154-.3.315-.449.471l-.013.014a12.046,12.046,0,0,1-1.032,1.017c-1.12.931-2.307,1.884-3.353,2.725l-1.241,1c-.1.011-.2.018-.327.027-.058.064-.113.133-.163.194a2.655,2.655,0,0,1-.4.422c-1.511,1.187-3.047,2.373-4.216,3.273-.575.443-1.166.887-1.737,1.317l-.1.075-.38.286-.425.32-1.179,1.178c-.46.365-.917.723-1.424,1.119l-.006,0c-1,.782-2.032,1.59-3.025,2.415-2.418,2.009-4.812,4.059-6.835,5.8-1.96,1.685-3.94,3.418-5.854,5.093l-.043.038-.482.422-.448.392-.007.006c-.823.718-1.675,1.461-2.483,2.224-.678.641-1.352,1.325-1.945,1.929-.268.271-.581.59-.889.9l2.791,0h.091l2.7,0c.121-.141.241-.295.348-.43a6.54,6.54,0,0,1,.781-.879c2.71-2.419,4.8-4.26,6.792-5.968,2.63-2.263,5.189-4.408,7.347-6.207.611-.511,1.254-1,1.876-1.475l.007-.005c.263-.2.57-.434.867-.665l.729-.67.116-.106c.441-.406.895-.823,1.338-1.233.12-.11.236-.225.348-.337.059-.059.117-.117.177-.175l.163-.1.058-.035.014-.008c.147-.09.3-.182.443-.283.355-.25.712-.51,1.058-.762l.054-.039.4-.292c.19-.164.379-.328.568-.493l.289-.251c.768-.666,1.561-1.355,2.362-2.021.6-.5,1.229-.986,1.836-1.457l.051-.04q.4-.309.8-.62c.123-.119.244-.239.366-.359l.063-.062.248-.244q.478-.367.957-.73c.65-.493,1.46-1.107,2.212-1.711.608-.49,1.209-1.009,1.789-1.511l.019-.016.07-.061c.28-.242.569-.491.855-.734l.264.262.787.786.059.059c.475.473.964.963,1.448,1.443.044.024.092.046.141.068a1.542,1.542,0,0,1,.184.093c-.057-.033-.12-.061-.181-.089s-.1-.044-.144-.068l-1.612,1.321-.477.39c-1.213.994-2.456,2.012-3.68,3.017l-.5.34-.016.01-.492.331c-2.238,1.777-4.352,3.452-5.729,4.544-.267.329-.48.6-.674.839-.384.27-.771.546-1.1.78l-.039.027c-.841.6-1.71,1.216-2.582,1.8a10.51,10.51,0,0,1-1.184.654c-.174.087-.354.177-.53.271.869-1.078,1.9-2.351,2.915-3.635a2.9,2.9,0,0,0,.246-.387l.023-.041c.024-.042.048-.085.073-.126l-.042-.042-.5.441-.16.142c-.443.395-.832.74-1.188,1.054-.237.212-.48.424-.717.63l-.041.037-.066.058c-.159.14-.319.279-.478.419a1.122,1.122,0,0,0-.044.107.527.527,0,0,1-.1.19c-1.588,1.575-3.208,3.179-4.775,4.731l-.832.824-1.185,1.173-1.281,1.329-.86.891-.229.239q1.143-1.191,2.272-2.361l.095-.1c-.077.036-.16.068-.24.1l-.02.008a1.893,1.893,0,0,0-.529.271c-2.09,1.749-4.316,3.618-6.546,5.553a9.07,9.07,0,0,0-1,1.08l-.008.009c-.133.16-.283.341-.432.509.549,0,1.1.011,1.642.019h.041l1.524,0,1.537,0,.5-.012.5-.012c.1-.1.188-.207.279-.311l0,0a4.115,4.115,0,0,1,.676-.666l.1-.071.348-.251.019-.013a30.433,30.433,0,0,1,2.988-1.98,5.1,5.1,0,0,1,2.2-.516h.06a.7.7,0,0,1,.616.28.979.979,0,0,1,.018.9c-.258.637-.566,1.258-.865,1.859l-.048.1c-.109.221-.223.449-.331.674h1.294c1.14,0,2.3,0,3.438,0,.048-.07.094-.144.134-.208l0-.005a2.7,2.7,0,0,1,.333-.456c3.062-3.123,6.182-6.3,9.2-9.371l.474-.482.039-.039c.115-.118.223-.252.317-.371l.007-.008.107-.133.246-.192.141-.109q.563-.439,1.127-.881c.172-.168.345-.34.513-.508l.055-.055c.354-.354.757-.755,1.165-1.135.9-.847,1.825-1.691,2.715-2.508l.353-.323.934-.858c.143-.117.289-.234.432-.346.33-.261.67-.53.981-.828.888-.846,1.776-1.719,2.637-2.564l.335-.328.675-.662c.289.332.585.669.871.994l.292.331.23.162.143-.142-20.981-20.978h0l0,0,21.031,21.032-21.082,21.086h0Zm197.115-4.5h0a10.56,10.56,0,0,0,1.183-1.688A10.351,10.351,0,0,1-15103.823,79.171Zm-12.6-1.8,0,0c-.421-.38-.85-.763-1.266-1.133l-.038-.034c-1.021-.909-2.077-1.85-3.092-2.828-1.587-1.525-3.16-3.114-4.682-4.651l-.644-.65-.154-.155c-.9-.9-1.806-1.83-2.683-2.727l-.124-.127-1.306-1.336-.6-.558-.579-.539-.589-.549-.589-.549q-1.3-1.32-2.6-2.638l-.184-.186c-1.225-1.241-2.423-2.457-3.623-3.679-.151-.154-.3-.319-.444-.488l-.05-.057q-.086-.1-.176-.2a9.144,9.144,0,0,0-3.612-2.176,4.4,4.4,0,0,0-1.1-.151,3.237,3.237,0,0,0-2.9,1.869c-.074.131-.155.265-.225.38a6.55,6.55,0,0,0-.43.787c-.136.31-.312.461-.538.461a1.037,1.037,0,0,1-.532-.2c-.369-.233-.735-.482-1.091-.723l-.025-.017-.113-.077-.227-.154-1.244-1.079-1.285-1.115c-.444-.455-.9-.915-1.34-1.366l-.37-.376c-1.127-1.144-2.4-2.442-3.6-3.7-.732-.769-1.442-1.581-2.129-2.366-.386-.443-.7-.8-.986-1.122l-1.348-1.351-.335-.335c-.339-.378-.681-.764-1.012-1.138l-.072-.082c-.79-.893-1.606-1.816-2.443-2.712-.981-1.048-2-2.1-2.981-3.111l-.073-.076-.062-.064c-.488-.5-.993-1.025-1.488-1.539-.427-.445-.866-.91-1.245-1.311l-.015-.016c-.78-.825-1.587-1.679-2.406-2.493l-.708-.7c-2.073-2.062-4.217-4.193-6.4-6.227-1.875-1.747-3.831-3.467-5.722-5.131l-.035-.031-.044-.039c-.643-.565-1.308-1.15-1.959-1.727a.656.656,0,0,0-.2-.123l2.444-2.444a4.227,4.227,0,0,0,.336.4l4.885,4.891.127.127c4.922,4.93,10.013,10.027,15.062,15.044,1.542,1.531,3.146,3.047,4.7,4.513l.088.083c.763.722,1.553,1.469,2.324,2.208.167.158.327.338.456.482l.172.191c1.806,1.564,3.649,3.157,5.433,4.7l1.105.955.033.029a1.251,1.251,0,0,0,.375.26,2.144,2.144,0,0,0,.435.085c.071.009.134.017.2.027.008-.059.022-.12.035-.18l0-.016v-.005a.834.834,0,0,0,.029-.411c-.333-1.159-.681-2.271-1.1-3.6q-.2-.647-.408-1.293l0-.014-.041-.13c-.306-.971-.622-1.975-.918-2.964a1.128,1.128,0,0,1,.02-.513l0-.016c.014-.076.027-.155.035-.23.081.029.168.051.252.073a1.294,1.294,0,0,1,.487.2c.749.6,1.633,1.319,2.5,2.106,1.117,1.013,2.24,2.056,3.326,3.066l.057.052,1.3,1.21.539.489.778.705c1.489,1.351,3.029,2.748,4.555,4.146.68.621,1.363,1.275,1.967,1.852l.024.023q.368.353.738.7l1.181,1.051.335.3c.94.837,1.912,1.7,2.863,2.558,1.925,1.736,3.882,3.506,5.722,5.171q.932.781,1.861,1.566l.012.01c1.491,1.257,3.033,2.556,4.568,3.811,1.14.926,2.322,1.834,3.467,2.711l.035.027.184.141c.379.291.767.588,1.147.883,0,2.427,0,4.935,0,7.4Zm-219.727-.548,0,0,13.875-13.875a3.521,3.521,0,0,0,.429-.1,19.3,19.3,0,0,0,5.845-3.423c1.009-.811,2.016-1.651,2.989-2.464q.6-.505,1.212-1.009l.2-.194c1.754-1.675,3.62-3.457,5.462-5.22.369-.332.743-.671,1.108-1l.173-.157.049-.044c1.02-.926,2.075-1.884,3.141-2.793.662-.568,1.374-1.1,2.063-1.613l.016-.012c.314-.235.64-.477.956-.72.152.129.31.26.461.387l.021.018c.37.309.791.659,1.182,1.016.292.272.573.574.821.84.122.132.253.272.384.408-.073.079-.145.163-.213.244l-.013.015a3.391,3.391,0,0,1-.491.507c-1.265.969-2.588,1.96-3.935,2.946-.727.532-1.477,1.058-2.2,1.566l-.057.04q-.426.3-.852.6-.729.666-1.462,1.331c-.716.651-1.477,1.343-2.216,2.019-.146.132-.289.275-.428.412l-.03.031-.052.051c-.064.064-.129.129-.194.192l-.715.482-.116.079-.683.46c-.1.106-.2.222-.281.322l-.012.013a4.75,4.75,0,0,1-.589.612c-.914.744-1.86,1.526-2.7,2.216-2.27,1.875-4.616,3.815-7.023,5.612-3.525,2.634-7.338,5.314-12,8.433a9.412,9.412,0,0,1-4.129,1.786Zm85.091-1.64h0l-2.328-1.832-.37-.292c-.867-.683-1.746-1.374-2.626-2.065l-2.077-1.5c-1.194-.862-2.271-1.64-3.349-2.421-.862-.626-1.743-1.271-2.521-1.841l-.11-.081-.814-.6c-1.4-.949-2.777-1.884-4.22-2.857l-.814-.534-.182-.119-.056-.037c-.891-.584-1.812-1.187-2.715-1.787a3.565,3.565,0,0,1-.424-.357l-.041-.038c-.052-.048-.1-.1-.158-.143-.663-.427-1.341-.856-2-1.271l-.013-.008c-1.383-.877-2.813-1.784-4.2-2.718-5.424-3.664-10.872-7.393-15.553-10.6-1.1-.755-2.2-1.546-3.271-2.311l-.042-.029-1.243-.889,3.529-3.529.4.333.1.084c.526.437,1.071.889,1.607,1.329.631.518,1.27,1.049,1.888,1.562l.069.057.04.034c1.561,1.3,3.175,2.636,4.8,3.9,3.363,2.607,6.831,5.194,10.077,7.6,1.02.756,2.086,1.483,3.118,2.187l.026.018c.465.317.992.676,1.507,1.034.283.279.572.568.844.839l.763.519.366.248c.976.662,1.985,1.346,2.968,2.04,1.093.772,2.2,1.577,3.173,2.288l.288.21q.521.38,1.044.759l.248.089.249.088,1.2.852.117.083c1.084.772,2.062,1.468,3.042,2.176,1.1.8,2.212,1.617,3.288,2.409l.075.055.885.651c1.309.966,2.636,1.944,3.884,2.862l1.86,1.37c-.371.349-.743.7-1.131,1.057l-.734.686-.467.435Zm1.714-1.144h0l2.458-2.459,1.795-1.791-1.795,1.794Zm1.96-2.514h0l-1.452-1.152-.437-.347c-.664-.527-1.342-1.064-2.011-1.592-1.038-.819-2.073-1.633-3.038-2.39l-1.667-1.31c-.047-.021-.1-.039-.147-.058a1.122,1.122,0,0,1-.295-.142c-1.41-1.051-2.832-2.121-4.055-3.04l-1.067-.8a.021.021,0,0,1,0,.011l0-.007-1.6-1.265-1.6-1.265c-.086-.05-.181-.1-.3-.167a7,7,0,0,1-.7-.422c-1.17-.815-2.356-1.652-3.5-2.46l-.138-.1-1.765-1.243c-.077-.077-.2-.2-.335-.339-.855-.609-1.708-1.212-2.654-1.879l-.086-.061c-2.108-1.49-4.29-3.031-6.4-4.594-3.222-2.384-6.72-5.041-11.009-8.36-.875-.676-1.7-1.414-2.5-2.128-.285-.256-.565-.506-.848-.754l3.244-3.244c.614.5,1.223,1,1.9,1.56l.053.044c1.4,1.157,2.851,2.354,4.318,3.478a28.5,28.5,0,0,0,2.626,1.707c.408.244.827.5,1.236.754a.164.164,0,0,1,.007.02l0,.008a.1.1,0,0,0,.014.03.038.038,0,0,0,.028.009l.018,0-.069-.069c-.085-.187-.179-.387-.279-.6-.2-.426-.41-.867-.591-1.312-.144-.356-.3-.726-.44-1.053a24.256,24.256,0,0,1-1.119-2.994,2.734,2.734,0,0,1,.447-2.391,3.189,3.189,0,0,1,2.452-1.279c.075,0,.151,0,.228,0a11.785,11.785,0,0,1,5.315,1.7l.02.009q.294.15.591.3a9.41,9.41,0,0,0,.882.375l.006,0,.014.005c.131.05.266.1.4.156-.4-.412-.815-.841-1.205-1.245l-.011-.011c-.892-.926-1.814-1.883-2.754-2.791-.859-.835-1.754-1.65-2.62-2.438l-.092-.084c-.519-.474-1.056-.964-1.578-1.452-.329-.312-.644-.657-.922-.96l-.151-.165-.017-.018,3.238-3.239,42.013,42.008-.053.052-.377-.377-.006,0-.052.021c-.039.082-.074.169-.108.254l0,.009a1.89,1.89,0,0,1-.277.531c-.388.463-.785.905-1.245,1.417l-.025.029-.021.024c-.219.243-.445.5-.687.767l-1.361-1.908c-1.369-1.922-2.476-3.475-3.541-4.973q-.615-.831-1.229-1.664c-.683-.925-1.414-1.914-2.132-2.88-.663-.895-1.345-1.8-2-2.681l-.182-.241-.026-.035-.823-1.1-.393-.553c-.487-.686-.962-1.356-1.409-2.019a.538.538,0,0,1-.043-.31,1.384,1.384,0,0,0,0-.156c-.351-.357-.705-.722-1.048-1.075l-.016-.016c-.631-.649-1.282-1.32-1.936-1.97-1.2-1.187-2.439-2.407-3.51-3.458l-1.762-1.733.722,1.239.456.783c1.673,2.328,3.231,4.5,4.764,6.65.22.308.435.63.643.942l.019.027q.155.234.313.467c.483.606.975,1.223,1.449,1.822l.045.056.521.656.086.125.622.9c.777,1.124,1.659,2.4,2.526,3.634.536.768,1.09,1.543,1.626,2.291l.062.086q.319.446.638.892c1.5,2.074,3.162,4.363,5.384,7.424l-.217.25-.788.909c-.338.3-.67.607-.962.873l-.227.207-.091.083c-1.258-1.731-2.615-3.6-4.273-5.876q-.388-.563-.773-1.127l-.251-.367c-.31-.376-.644-.765-.912-1.077a27.8,27.8,0,0,1-1.934-2.423c-1.167-1.708-2.294-3.484-3.384-5.2-.521-.823-.946-1.492-1.341-2.106l-.008-.012q-.5-.751-1.009-1.5l-.018-.03q-1.695-2.919-3.391-5.838c-.135-.231-.27-.46-.4-.689l-.017-.028c-.129-.22-.259-.44-.388-.661-.073-.092-.149-.184-.215-.262l-.009-.011a7.129,7.129,0,0,1-.438-.57,70.244,70.244,0,0,0-9.946-12.2c-1.027-1-2.17-2.024-3.492-3.142-.572-.487-1.19-.939-1.788-1.377l-.019-.013-.058-.043c-.247-.181-.5-.367-.75-.554l-.09.093-.095.1c.042.055.083.111.123.167l.014.018c.1.142.213.289.329.423.911,1.06,1.871,2.164,2.718,3.139l.057.066c1.88,2.165,3.824,4.4,5.688,6.645a30.064,30.064,0,0,1,4.274,7.178,9.181,9.181,0,0,1,1.8,4.355,2.789,2.789,0,0,1-.78,2.147,3.8,3.8,0,0,1-2.768,1.269,3.117,3.117,0,0,1-.711-.081,20.143,20.143,0,0,1-2.036-.633c-.265-.093-.594-.208-.905-.31l-2.133-1.057-1.119-.554-3.325-1.646-.188.262c.072.11.142.231.206.345a2.637,2.637,0,0,0,.529.729,30.823,30.823,0,0,0,2.622,2.068c1.044.727,2.117,1.432,3.155,2.113.426.28.93.61,1.432.944l2.816,1.767.127.08,2.689,1.687c.176.109.359.212.548.317l.061.034c.106.06.217.122.323.185.25.237.5.478.746.712l.106.1.007.007c.446.356.9.715,1.346,1.063l.1.077.026.021c.979.771,1.991,1.568,2.966,2.377.9.754,1.8,1.553,2.663,2.325l.008.007c.344.308.75.671,1.152,1.026l.634.5.411.324c.521.413,1.075.851,1.62,1.278.138.108.288.207.433.3l.015.009.045.03c.06.039.119.079.178.119l1.863,1.327c1.364.971,2.471,1.76,3.481,2.481a3.3,3.3,0,0,1,.311.259l.006.005c.052.047.1.094.157.14-.434.462-.883.936-1.244,1.317l-.09.042-.155.073-.247.116Zm-29.376-36.758a3.24,3.24,0,0,0-3.139,1.552,3.741,3.741,0,0,0-.02,3.469,8.429,8.429,0,0,0,5.973,4.821,2.914,2.914,0,0,0,.716.092,2.739,2.739,0,0,0,2.665-2.083,10.93,10.93,0,0,0,.215-1.156c.024-.168.053-.359.085-.538a7.249,7.249,0,0,0-1.147-3.5,6.377,6.377,0,0,0-5-2.653C-15276.538,34.769-15276.652,34.767-15276.766,34.767Zm160.346,28.113,0,0h0c-1.07-1.267-2.081-2.465-3.121-3.71-1.214-1.454-2.472-2.975-3.582-4.316l-.6-.72q-1.324-1.505-2.645-3.01l-.759-.863-2.815-3.2-.4-.442-1.133-1.248q-1.96-2.16-3.822-4.224c-.859-.954-1.745-1.962-2.526-2.851l-.307-.35-.725-.823q-.478-.512-.959-1.023l-.351-.373c-.91-.968-1.941-2.065-2.918-3.139-1.116-1.226-2.237-2.485-3.321-3.7l-.074-.083q-.732-.824-1.468-1.647a28.679,28.679,0,0,1-5.214-6.727c-1.483-2.63-3-5.3-4.476-7.882l-.051-.089c-1-1.75-2.057-3.612-3.1-5.448a3.106,3.106,0,0,1-.219-.536c-.028-.084-.054-.159-.081-.232l-.029-.057-.018-.035c-.018-.032-.035-.065-.052-.1l-.026-.049-.026-.049-.008,0h0l-8.433-8.436.161.344.222.479c.3.65.641,1.387,1.008,2.084,3.6,6.8,8.159,13.126,12.573,19.24.623.863,1.176,1.629,1.688,2.343.724,1.008,1.486,2.02,2.16,2.913l.186.246c.283.377.576.766.862,1.15l.671.717c2.472,2.643,5.272,5.64,7.974,8.536a.643.643,0,0,1,.113.2c.014.034.027.066.041.093l.316.308c.228.222.463.45.685.685l1.139,1.219.029.032c2,2.138,4.059,4.348,6.071,6.535.594.644,1.17,1.323,1.727,1.981l.021.024c.224.265.5.594.771.906.449.513.9,1.02,1.363,1.539,1.033,1.16,2.1,2.359,3.1,3.586,1.244,1.536,2.386,3.145,3.643,4.936a5.55,5.55,0,0,1,.739,1.868c-4.852-1.18-8.517-4.309-12.061-7.335-.383-.319-.776-.639-1.157-.949l-.085-.068-.014-.012c-.841-.683-1.709-1.389-2.525-2.125-1.467-1.33-2.93-2.716-4.344-4.056l-.062-.058-.322-.306q-.63-.6-1.26-1.191a.976.976,0,0,1-.167-.231c-.022-.039-.044-.076-.068-.112-.069-.055-.14-.108-.21-.162l-.006,0a5.589,5.589,0,0,1-.5-.408c-.879-.854-1.765-1.719-2.6-2.531-1.561-1.524-2.968-2.9-4.392-4.269-.4-.388-.838-.747-1.263-1.094l-.016-.012c-.191-.156-.379-.31-.562-.464-.276-.1-.556-.218-.825-.328l-.022-.009a13.7,13.7,0,0,0-1.951-.687,2.285,2.285,0,0,0-.529-.063,3.319,3.319,0,0,0-2.289,1.249c-.685.726-1.217,1.05-1.725,1.05-.579,0-1.119-.416-1.8-1.088-1.924-1.887-3.945-4.014-6.361-6.7-.926-1.029-1.828-2.113-2.7-3.161l-.026-.031c-.878-1.056-1.786-2.148-2.726-3.192-2.3-2.552-4.669-5.114-6.963-7.59l-.047-.05c-.842-.908-1.8-1.938-2.721-2.941a3.847,3.847,0,0,0-.445-.4l-.038-.031,1.525-1.526.04.033a4.179,4.179,0,0,1,.442.4c2.189,2.33,4.536,4.838,7.174,7.667.672.721,1.351,1.459,2.008,2.173l.189.206c1.42,1.545,2.889,3.143,4.384,4.687,1.566,1.618,3.19,3.233,4.76,4.795l.011.01c1.042,1.037,2.061,2.051,3.058,3.058a1.23,1.23,0,0,0,.825.436.836.836,0,0,0,.707-.486,5.966,5.966,0,0,0,.8-2.126,11.461,11.461,0,0,0,.053-1.989v-.005c-.008-.252-.018-.565-.018-.863.024.011.053.02.08.029a.565.565,0,0,1,.2.1c1.41,1.376,2.813,2.752,4,3.916l1.379,1.351.743.728.574.56.234.229.04.04c.662.646,1.346,1.315,2.031,1.96.53.5,1.1,1,1.6,1.436l.15.132.424.373q.141.153.28.308l.016.018c.215.237.437.482.667.71.772.761,1.544,1.514,2.4,2.347q.768.747,1.532,1.5l.1.091q4.668,4.252,9.338,8.508l1.559,1.227c1.1.871,2.354,1.858,3.566,2.793a3.733,3.733,0,0,0,.771.421c.116.052.233.1.346.161l.182-.219c-.095-.154-.187-.317-.274-.47l-.006-.01a7.283,7.283,0,0,0-.625-.972c-.934-1.166-1.9-2.342-2.834-3.479l-.112-.136-.061-.074q-.586-.712-1.171-1.425c-.047-.042-.1-.084-.145-.125l-.053-.044a4.343,4.343,0,0,1-.423-.389c-2.187-2.434-4.76-5.3-7.254-8.1-.655-.734-1.31-1.49-1.942-2.221l-.057-.065-.747-.863-.076-.076-1.183-1.188-.071-.072-1.187-1.193q-.612-.682-1.227-1.362c-.8-.891-1.634-1.813-2.447-2.727-.637-.716-1.277-1.451-1.9-2.161l-.106-.121-.293-.336c-.205-.235-.409-.47-.615-.7-.472-.508-.956-1.024-1.425-1.524l-.245-.262c-1.327-1.415-2.7-2.878-4.029-4.364-2.858-3.191-5-5.646-6.942-7.959l-.265-.315a25.3,25.3,0,0,1-4.206-6.147,10.245,10.245,0,0,0-.493-.949l-.01-.017c-.1-.183-.2-.348-.286-.517-.661-1.253-2-3.794-3.552-6.726l2.2-2.2,54.74,54.74v.1l-.089-.089q0,3.03,0,6.063t0,6.06Zm-118.127-1.366h0c.343-.317.667-.636.963-.947C-15233.88,60.879-15234.2,61.2-15234.547,61.515Zm2.4-3.733v0l.044-.014.044-.014.343-.106c.382-.182.772-.365,1.149-.542l.048-.022.152-.072.367-.172-.3.144-.273.129-.132.062c-.331.156-.674.317-1.009.477Zm-82.911-2.056,0,0,14.077-14.078c.674.726,1.216,1.317,1.708,1.858-2.409,1.95-4.858,3.927-7.02,5.67l-2.4,1.935-1.422,1.147C-15311.616,53.316-15313.361,54.545-15315.056,55.725Zm97.481-.919,0,0c.184-.123.346-.24.494-.357l.252-.2.114-.089-.122.1-.244.191C-15217.23,54.568-15217.392,54.684-15217.574,54.806Zm-6.555-5.806h0a3.62,3.62,0,0,0,.306-.378l.012-.011A3.458,3.458,0,0,1-15224.129,49Zm15.465-.227h0a3.39,3.39,0,0,0,.375-1.4A3.323,3.323,0,0,1-15208.664,48.772Zm73.857-.524h0c-.071-.034-.146-.065-.219-.095l-.008,0a2.15,2.15,0,0,1-.475-.244l-.314-.235-.008-.006a13.928,13.928,0,0,1-1.437-1.179c-2.562-2.532-5.142-5.122-7.636-7.628l-.173-.174c-.4-.407-.808-.83-1.22-1.264l-.151-.159q-.242-.254-.484-.506l-1-1.019-.077-.079c-.849-.868-1.727-1.766-2.581-2.656a3.847,3.847,0,0,1-.4-.528c-.06-.089-.119-.179-.182-.265-.051-.031-.1-.061-.156-.091l-.025-.014a2.107,2.107,0,0,1-.435-.292c-.593-.566-1.2-1.159-1.743-1.682-.971-.943-1.975-1.917-2.989-2.854-.664-.611-1.4-1.165-2.111-1.7l-.023-.018c-.161-.122-.323-.243-.483-.365a1.251,1.251,0,0,0-.757-.266,1.216,1.216,0,0,0-.864.37c-.254.25-.254.8-.254,1.244v.042a1.457,1.457,0,0,0,.136.513l0,0,0,.009a1.78,1.78,0,0,1,.132.435c.022.173.081.746-.108.882a.968.968,0,0,1-.56.134,2.677,2.677,0,0,1-.43-.038,1.7,1.7,0,0,1-.728-.4c-.321-.273-.651-.547-.961-.8l-.019-.016c-.882-.733-1.794-1.492-2.629-2.3-1.494-1.462-3-3.044-4.336-4.439l-.379-.4-.561-.586c-2.346-2.452-4.425-4.645-6.357-6.7-.476-.506-.947-1.048-1.363-1.525-.368-.422-.785-.9-1.2-1.351-.553-.6-1.136-1.189-1.7-1.761l-.012-.012-.607-.618,1.045-1.045a2.347,2.347,0,0,1,.3.262c3.021,3.162,6.17,6.465,10.208,10.708.394.414.791.839,1.164,1.239.6.639,1.213,1.3,1.839,1.938l.463.472.039.04c1.2,1.227,2.446,2.5,3.73,3.677a1.433,1.433,0,0,0,.974.412,1.364,1.364,0,0,0,1.3-1.263,4.28,4.28,0,0,0-.666-3.381c-.531-.682-1.11-1.347-1.671-1.99l-.029-.034c-.694-.8-1.412-1.62-2.051-2.485-2.127-2.88-4.613-6.294-6.931-9.777a40.361,40.361,0,0,1-2.216-3.962c-.236-.464-.513-1-.786-1.519l1.882-1.882.007.006a1.188,1.188,0,0,1,.116.178c.4.756.794,1.529,1.178,2.276l.171.331c.88,1.714,1.877,3.657,2.906,5.5a30.745,30.745,0,0,0,3.119,4.748c3.052,3.662,6.163,7.169,9.349,10.739,1.427,1.6,2.913,3.179,4.351,4.71l.12.128c.743.792,1.512,1.611,2.261,2.421a2.182,2.182,0,0,1,.267.4l0,.008.008.014c.036.065.074.133.114.2,1.065,1.114,2.149,2.244,3.207,3.346l.426.444.741.773,1.017,1.142.068.077c.759.853,1.544,1.736,2.319,2.6.629.7,1.328,1.476,2.078,2.305l.117.13c1.309,1.45,2.662,2.949,3.973,4.438a14.659,14.659,0,0,1,1.071,1.448l.008.011c.146.217.3.448.462.67l-.169.188Zm-142.291-7.9h-.007a1.435,1.435,0,0,1,.733-.186h.008c.066,0,.13-.009.19-.016-.062.009-.127.014-.2.019h0a1.441,1.441,0,0,0-.724.183Zm1.872-.528h0l-.035-.027.036.024c.214-.551.426-1.1.631-1.63l.154-.4c-.268.7-.537,1.4-.741,1.921l-.043.113Zm62.254-.753h0c.292-.268.522-.464.747-.635C-15212.454,38.606-15212.691,38.808-15212.972,39.066Zm-64.357-.556-.007,0-.054-.077-.4-.2-.125-.062.126.06v0c.136.064.271.13.4.2l.063.084Zm65.135-.1v0l.371-.284.163-.125c.813-.621,1.648-1.261,2.5-1.862-.813.576-1.611,1.185-2.383,1.775l-.01.008Zm-66.05-.4-.062-.03-.1-.049-1.017-.5-.021-.015c-.054-.037-.108-.075-.156-.112l-.046.062.043-.065.091.063.09.064.249.123.869.429v0l.062.028Zm4.586-.564h0l-.043-.212c.488-.056.968-.115,1.5-.181l-.205.029c-.4.049-.853.1-1.289.156l.043.207Zm66.19-2.418v0l.019-.012q.28-.168.563-.335l-.562.338-.013.007Zm.581-.346v0c.77-.455,1.571-.913,2.279-1.316a45.324,45.324,0,0,0,8.3-5.594c.244-.223.462-.423.664-.613-.217.206-.439.411-.66.613a45.329,45.329,0,0,1-8.315,5.6C-15205.357,33.791-15206.122,34.227-15206.887,34.679Zm-2.163-.831v0l16.914-16.912c.029.055.058.111.087.168l.029.056.042.08c.052.1.106.2.16.31-.12.22-.268.492-.45.832-.318.474-.638.96-.947,1.431l-.049.074c-.679,1.034-1.448,2.206-2.238,3.3a24.533,24.533,0,0,1-6.47,6.034c-.827.549-1.66,1.1-2.511,1.673-1.371.915-2.787,1.861-4.2,2.786A1.7,1.7,0,0,1-15209.05,33.848Zm30.112-3.861-1.938-1.912-1.285-1.267c1.1,1.083,2.159,2.123,3.226,3.178Zm10.492-11.177c-.354-.433-.716-.929-1.136-1.56-.439-.66-.867-1.33-1.341-2.074.389.607.871,1.364,1.345,2.074a19.167,19.167,0,0,0,1.134,1.559Zm-5.674-8.238c-.343-.407-.707-.815-1.083-1.21.386.4.75.809,1.085,1.209Zm-4.813-4.6q-.246-.2-.483-.386h0c.178.137.336.264.485.384Z" transform="translate(16179.032 401.038)" fill="#fff"/>
      <path id="Пересечение_4" data-name="Пересечение 4" d="M-15105.03,186.4c-.4-.562-.816-1.117-1.189-1.69a29.292,29.292,0,0,1-3.686-8.6c-.292-1.1-.474-2.222-.7-3.335a1.538,1.538,0,0,1,.662.389,4.326,4.326,0,0,0,4.544.855,3.961,3.961,0,0,0,2.553-3.477,40.718,40.718,0,0,0,.173-4.394,8.253,8.253,0,0,0-1.679-5c-1.309-1.714-2.965-2.749-5.21-2.168a21.383,21.383,0,0,0-2.7,1.074,4.329,4.329,0,0,1,.069-.863c.178-.7.4-1.386.612-2.079a2.193,2.193,0,0,0,.424-.4,24.648,24.648,0,0,0,2.818-5.691,59.161,59.161,0,0,1,2.11-5.568,1.745,1.745,0,0,1,1.217-.916c.3-.019.674.658.959,1.063a1.558,1.558,0,0,1,.208.72c.289,2.853.531,5.714.866,8.56a16.206,16.206,0,0,0,.809,4.417,23.311,23.311,0,0,1,1.344,11.767c-.285,2.8-.6,5.595-.8,8.4-.177,2.357.027,4.763-1.186,6.935Zm-6.642-1.086q-.861-3.194-1.783-6.377-1.254-4.309-2.549-8.6c-.025-.082-.139-.141-.231-.2V157.86a1.223,1.223,0,0,0,.25-.406c.42-1.648.832-3.3,1.217-4.956.674-2.869,1.391-5.734,1.972-8.625.728-3.6,1.317-7.22,2.014-10.824.408-2.1.917-4.189,1.375-6.284.4-1.3.705-2.642,1.205-3.9a55.314,55.314,0,0,1,2.719-6.2c.955-1.756,2.715-1.887,4.013-.362a10.486,10.486,0,0,1,1.836,3.242,40.592,40.592,0,0,1,1.868,12.114c.054,1.706.139,3.412.157,5.117.027,2.487,0,4.975,0,7.462,0,.139,0,.281-.007.42-.22,2.869-.428,5.734-.667,8.6-.157,1.864-.262,3.739-.565,5.576a40.086,40.086,0,0,0-.062,9.045c.123,2.029.4,4.051.635,6.072s.5,4.039.743,6.057q.393,3.194.778,6.392h-1.536c0-.142.015-.281.007-.424q-.242-3.968-.5-7.94c-.1-1.644-.231-3.285-.351-4.929-.224-3.007-.52-6.007-.644-9.018-.107-2.622-.069-5.252-.011-7.878q.075-3.437.347-6.862c.153-2.025.431-4.043.654-6.065a1.465,1.465,0,0,0,.157-.454c.066-2.126.139-4.251.174-6.38a34.377,34.377,0,0,0-1.024-9.211,8.3,8.3,0,0,0-2.479-4.578c-.739-.616-1.5-.8-2.049-.323a5.512,5.512,0,0,0-1.1,1.251,30.422,30.422,0,0,0-3.1,8.3c-.985,3.777-1.81,7.6-2.707,11.4-.431,2.041-.831,4.085-1.3,6.119-.6,2.63-1.268,5.248-1.9,7.871a37.339,37.339,0,0,0-.517,4.047,41.867,41.867,0,0,0,.15,6.916c.408,2.826,1.244,5.591,1.879,8.387q1.11,4.886,2.2,9.773c-.4,0-.8,0-1.2,0A5.124,5.124,0,0,0-15111.672,185.317Zm4.281-12.372c-2.113-1.159-3.966-2.615-4.782-5.033a1.666,1.666,0,0,1-.062-.381,13.38,13.38,0,0,0,1.96,2.095c2.646,1.883,5.622.381,5.961-2.842a10.126,10.126,0,0,0-.382-3.612c-.022-.081-.046-.166-.073-.246.085.023.17.05.251.077a5.136,5.136,0,0,1,1.186,3.543v1.182a6.656,6.656,0,0,1-1.775,4.74,1.988,1.988,0,0,1-1.436.709A1.716,1.716,0,0,1-15107.391,172.945Zm-2.033-3.681a6.355,6.355,0,0,1-2.183-6.169c.234-1.3,1.124-2.118,2.856-1.771a4.556,4.556,0,0,1,3.731,4.705,3.879,3.879,0,0,1-.978,2.923,2.577,2.577,0,0,1-1.9.92A2.291,2.291,0,0,1-15109.424,169.264Zm.971-3c.139.993.281,1.991.42,2.988.069-.008.135-.019.2-.027q-.208-1.5-.42-2.992Zm-.9.416c-.012.015-.008.042-.012.062.027,0,.059-.012.085-.015-.008-.023-.016-.039-.022-.062C-15109.319,166.669-15109.347,166.669-15109.354,166.68Zm.158-.466.034.058c.02-.012.047-.019.051-.035s0-.042-.008-.065A.493.493,0,0,1-15109.2,166.214Zm.135-.658c.054.123.381.123.585.185.1-.489.358-.412.62-.339a.9.9,0,0,0,.339.054,9.016,9.016,0,0,0,.982-.25c.054-.058.107-.116.165-.173a.158.158,0,0,0,.058-.027c.012-.008.012-.031.016-.046-.027.023-.054.05-.077.073-.058.054-.111.108-.169.166-1.183.069-2.392.208-2.98-1.251A6.756,6.756,0,0,0-15109.062,165.556Zm-.646-2.068.065.085.026-.062c-.012-.015-.022-.042-.038-.05S-15109.689,163.48-15109.708,163.488Zm6.376,3.061c.466.435.466.743,0,1.178Zm-12.9-20.277.023-2.291a2.67,2.67,0,0,1,.227.716q.023,3.471-.011,6.939a1.49,1.49,0,0,1-.239.617ZM-15320.8,83.558a16.312,16.312,0,0,1,1.44-1.6c2.16-1.875,4.352-3.716,6.546-5.553a3.559,3.559,0,0,1,.789-.377q-3.252,3.373-6.5,6.758a7.072,7.072,0,0,0-.59.789C-15319.677,83.569-15320.235,83.562-15320.8,83.558Zm66.431-4.806c-1.452-1.14-2.822-2.222-4.193-3.3q-2.542-1.744-5.079-3.489c-1.71-.889-3.377-1.868-5.133-2.642-1.556-.689-3.207-1.155-4.817-1.717l-1.309-.167-25.934-25.936.688-.689c1.537,1.093,3.062,2.207,4.617,3.273q7.764,5.32,15.553,10.6c2.037,1.375,4.136,2.665,6.207,4a6.841,6.841,0,0,0,.624.539c1.251.832,2.511,1.652,3.766,2.476-.012.035-.02.073-.03.108.011-.035.019-.073.03-.108q2.114,1.427,4.221,2.857c1.147.839,2.295,1.683,3.446,2.518,1.806,1.309,3.619,2.615,5.425,3.92,1.811,1.421,3.616,2.846,5.325,4.189.863-.8,1.6-1.49,2.334-2.179q-2.871-2.114-5.745-4.232c-1.413-1.04-2.826-2.083-4.247-3.115-1.444-1.044-2.9-2.075-4.355-3.111-.165-.058-.331-.119-.5-.177-1.5-1.086-2.988-2.187-4.506-3.258-1.352-.955-2.729-1.875-4.1-2.807-.281-.281-.562-.562-.843-.839-1.553-1.078-3.135-2.114-4.652-3.238-3.381-2.507-6.754-5.025-10.076-7.6-2.311-1.794-4.54-3.7-6.8-5.553-.725-.591-1.445-1.193-2.167-1.792l1.67-1.67c1.126.988,2.216,2.017,3.4,2.93,3.643,2.819,7.3,5.618,11.009,8.36,3.008,2.229,6.088,4.363,9.138,6.534.111.116.224.227.335.339-.081,1.14-.512,1.687-1.367,1.721.855-.035,1.286-.581,1.367-1.721,1.8,1.267,3.6,2.541,5.406,3.8.312.223.662.4.993.589q1.6,1.265,3.2,2.53a4.379,4.379,0,0,1,.054.624,4.429,4.429,0,0,0-.054-.628c1.706,1.282,3.411,2.568,5.121,3.843a2.191,2.191,0,0,0,.443.2c1.57,1.236,3.138,2.464,4.705,3.7,1.3,1.028,2.6,2.064,3.9,3.092l.493-.231c.416-.439.832-.882,1.243-1.321.183-.067.371-.12.555-.184l-1.794,1.793c0-.073,0-.15,0-.23,0,.081,0,.157,0,.231l-9.359,9.359c-.154.05-.315.088-.468.141C-15255.9,80.342-15255.191,79.607-15254.367,78.752Zm-18.147-23.258h0Zm25.726,16.088c.025.969.141,1.277.882,1.263-.737.011-.856-.3-.882-1.263l1.795-1.794a2.355,2.355,0,0,0,.438-.2c1.675-1.013,3.326-2.068,5.01-3.077,4.081-2.449,8.182-4.863,12.256-7.324,2.873-1.737,5.753-3.469,8.567-5.3,3.254-2.126,6.438-4.355,9.646-6.546.867-.593,1.71-1.213,2.568-1.825,0,0,0,0,.008-.008l1.521-1.509c.67-.589,1.359-1.159,2.01-1.771.778-.728,1.525-1.49,2.291-2.229q2.987-2.888,5.98-5.768c.377-.316.77-.612,1.128-.947.446-.412.858-.863,1.3-1.286,1.687-1.629,3.385-3.242,5.063-4.879.835-.816,1.637-1.671,2.452-2.507.174.173.347.35.521.528-.616.682-1.213,1.39-1.853,2.049q-4.9,5.013-9.815,10.008c-.115.119-.215.254-.319.385q-3.684,3.639-7.362,7.285c-.793.786-1.605,1.556-2.41,2.33q-1.774,1.6-3.539,3.2c.146-.343.208-.786.458-1.005-.254.219-.312.662-.462,1.005-3.088,2.53-6.053,5.233-9.295,7.551-4.895,3.5-9.98,6.723-14.994,10.05a6.155,6.155,0,0,1-.986.447c-.169.112-.339.219-.508.331l-.331.173c-.174.112-.343.223-.513.335-.111.054-.223.112-.331.169-.284.169-.565.339-.847.508v0c-1.187.732-2.356,1.482-3.558,2.183q-7.463,4.349-14.948,8.672a1.6,1.6,0,0,1-.3.125Zm.92,1.263h0Zm28.891-18.4a11.711,11.711,0,0,1-1.15.774,11.677,11.677,0,0,0,1.15-.77q1.421-1.109,2.831-2.229Q-15215.558,53.342-15216.979,54.447Zm8.791-7.074a2.778,2.778,0,0,1-.89,2.022,2.776,2.776,0,0,0,.894-2.025A0,0,0,0,1-15208.187,47.374Zm-38.355,31.436c-.038-.085-.081-.173-.123-.258a19.6,19.6,0,0,1,1.517-1.475,30.2,30.2,0,0,1,7.309-3.9,56.484,56.484,0,0,0,11.194-6.253c2.229-1.586,4.451-3.188,6.6-4.879,1.863-1.467,3.666-3.019,5.414-4.625,2.991-2.745,5.918-5.556,8.867-8.348.224-.208.412-.458.616-.689.674-.647,1.371-1.275,2.018-1.952,1.306-1.359,2.588-2.742,3.878-4.116.92-.951,1.849-1.9,2.765-2.861.212-.216.4-.454.6-.685,2.869-2.607,5.727-5.229,8.61-7.824,1.552-1.4,3.142-2.761,4.713-4.136h.509q2.7,2.663,5.4,5.333a1.19,1.19,0,0,1,.161.374,16.824,16.824,0,0,0-4.274,5.41c-.912,1.814-1.663,3.7-2.487,5.564q-1,2.478-2,4.96a1.865,1.865,0,0,1-.513.77c0-1.417.077-2.834-.022-4.243a19.024,19.024,0,0,0-.6-3.693,3.012,3.012,0,0,0-3.836-2.1,20.037,20.037,0,0,0-7.678,4.313c-.058,0-.107,0-.165,0-.3.258-.612.5-.882.774q-3.617,3.737-7.217,7.489c-1.5,1.613-2.991,3.25-4.524,4.836-2.295,2.376-4.6,4.744-6.938,7.07-3.357,3.327-7.64,5.241-11.69,7.493-3.33,1.848-6.7,3.635-10.127,5.306-1.925.936-3.989,1.594-6,2.337a1.039,1.039,0,0,1-.381.058C-15246.065,78.852-15246.312,78.81-15246.543,78.81Zm-33.635-16.3c-.389-.443-.777-.882-1.163-1.325q-2.379-2.414-4.763-4.825a1.785,1.785,0,0,0-.428-.239l-2.561-2.553-2.522-2.672-3.373-3.234c-.227-.27-.45-.539-.674-.809-.4-.416-.781-.855-1.205-1.248-.539-.493-1.109-.951-1.663-1.425-.212-.227-.424-.454-.64-.682q-.875-.958-1.756-1.91l.089-.088,21.031,21.028-.142.142C-15280.024,62.623-15280.1,62.57-15280.178,62.514Zm97.089-13.685c.565-1.159,1.14-2.314,1.709-3.469.2-.3.42-.581.6-.889q2.754-4.655,5.5-9.315c.178-.3.319-.624.478-.94.027,0,.069,0,.081.012q1.727,1.837,3.442,3.677-5.892,5.863-11.787,11.721c-.215.216-.454.4-.682.608C-15183.524,49.765-15183.316,49.3-15183.089,48.829Zm-40.462-.484a3.652,3.652,0,0,1-1.36,1.36Zm-50.3-3.737a8.4,8.4,0,0,1-5.972-4.821,3.768,3.768,0,0,1,.019-3.469,3.452,3.452,0,0,1,3.489-1.544,6.358,6.358,0,0,1,5,2.653,7.225,7.225,0,0,1,1.147,3.5c-.1.547-.154,1.132-.3,1.694a2.741,2.741,0,0,1-2.664,2.083A2.907,2.907,0,0,1-15273.848,44.609Zm.955-2.072c.008.012.027.012.043.015l-.062-.062A.128.128,0,0,0-15272.893,42.537Zm-1.644-1.275a1.344,1.344,0,0,0,.435.216c.058.054.115.112.17.166l.084.065-.073-.073-.165-.173a2.3,2.3,0,0,1-.481-2.414,9.982,9.982,0,0,0,.3-1.452l.228-.065-.042-.065-.186.127c-.288.751-.577,1.5-.858,2.222-.169-.123-.327-.243-.489-.362.135,1.044-.789.485-1.39.893a2.9,2.9,0,0,1,.6-.065A2.378,2.378,0,0,1-15274.536,41.263Zm-1.133-1.841a.1.1,0,0,0,.047.019l-.062-.065C-15275.681,39.391-15275.681,39.411-15275.669,39.422Zm-1.136-.639.343.162c.115.054.228.112.343.166l.073.073c0-.015,0-.039-.012-.046s-.042-.015-.062-.027l-.335-.173-.331-.173-.085-.065Zm-2.737-1.421.219.065q1,.508,2.015,1.024l.088.062-.065-.089q-1.017-.5-2.033-1l-.181-.127Zm5.941-.131.042.212,1.475-.25-.02-.142C-15272.6,37.112-15273.1,37.174-15273.6,37.231Zm58.871,2.615c.178-.292.361-.58.546-.867l5.078-5.077a2,2,0,0,0,.525-.228c2.245-1.471,4.471-2.973,6.712-4.459a24.694,24.694,0,0,0,6.469-6.034c1.132-1.563,2.16-3.2,3.234-4.8.374.181.763.343,1.125.551.531.3,1.047.643,1.566.966a33.706,33.706,0,0,1-6.727,7.871c-3.327,3.034-7.347,4.956-11.147,7.247a54.694,54.694,0,0,0-4.76,3.4c-.766.581-1.417,1.317-2.156,1.941-.157.131-.47.077-.708.112A3.522,3.522,0,0,1-15214.729,39.846Z" transform="translate(16178.931 401.195)" fill="#fff" opacity="0.9"/>
      <path id="Пересечение_3" data-name="Пересечение 3" d="M-15093.909,186.415c-.158-1.667-.266-3.338-.485-5-.608-4.621-1.409-9.222-1.841-13.858a59.874,59.874,0,0,1,.058-8.637c.131-2.534.513-5.056.755-7.586.2-2.087.377-4.174.535-6.265.231-3.065.439-6.13.658-9.2.108-1.444.281-2.892.3-4.336.05-3.219.038-6.442.023-9.657a14.084,14.084,0,0,0-.189-2.584c-.551-2.857-1.128-5.707-1.764-8.548a80.185,80.185,0,0,0-3.615-12.118,33.86,33.86,0,0,0-1.706-3.057c-.612-.874-1.3-1.76-2.6-1.679a3.977,3.977,0,0,0-3.424,2.545c-.227.631-.5,1.248-.678,1.894-.92,3.419-.874,6.939-.985,10.431a61.983,61.983,0,0,1-.724,10.385c-.539,2.657-1.155,5.3-1.737,7.951-.131.485-.258.966-.393,1.448-1.251,4.44-2.5,8.879-3.77,13.311a12.936,12.936,0,0,1-.747,1.718V138.9a65.189,65.189,0,0,0,3.065-8.515c1.009-4.574,1.644-9.245,2.194-13.9.5-4.247.686-8.529,1.009-12.8.135-1.783.228-3.569.4-5.345.224-2.191.4-4.4.816-6.558.362-1.906,1.017-3.758,1.544-5.633a5.125,5.125,0,0,0,.408-.512,4.87,4.87,0,0,1,5.576-2.5,9.47,9.47,0,0,1,2.229,1.19q.669,2.027,1.344,4.055c.177,1.948.393,3.9.527,5.849a85.264,85.264,0,0,0,1.74,13.215c.717,3.1,1.676,6.146,2.522,9.218a9.649,9.649,0,0,1,.377,1.017,34.861,34.861,0,0,1,1.221,9.488c-.1,3.462-.484,6.916-.747,10.377-.127.909-.254,1.821-.373,2.734-.312,2.349-.585,4.705-.936,7.047-.385,2.564-.882,5.114-1.256,7.678-.343,2.376-.612,4.759-.874,7.143a21.439,21.439,0,0,0,.186,6.762q1.056,5.037,2.052,10.085c.3,1.525.547,3.057.82,4.586q.1,1.409.212,2.819Zm-22.326,0v-3.763c.146.521.312,1.036.42,1.565.15.728.242,1.467.362,2.2Zm0-65.323a.348.348,0,0,0,.062-.133c.285-2.7.6-5.387.844-8.086.369-4.124.662-8.252,1.031-12.372a48.134,48.134,0,0,1,2.284-11.228c.866-2.561,1.425-5.225,2.121-7.84a58.473,58.473,0,0,0,.782-6.026c.1-3.019-.012-6.045-.15-9.064-.085-1.806-.389-3.6-.6-5.4q-.262-2.294-.532-4.591l3.853,3.853q.167,2.6.342,5.2a8.313,8.313,0,0,0,.142.874c-.054,1.671-.088,3.338-.165,5.01a16.641,16.641,0,0,1-.243,1.894c-.288,1.806-.6,3.608-.9,5.41-.924,3.25-1.625,6.584-2.83,9.727a40.257,40.257,0,0,0-2.568,15.364c-.058,2.268-.108,4.532-.166,6.8-.05,1.844-.131,3.689-.161,5.537a46.4,46.4,0,0,1-2.434,13.473,12,12,0,0,1-.713,1.513Zm29.427-.395-.867-3.87c-.161-1.244-.3-2.491-.488-3.735a74.652,74.652,0,0,0-1.337-8.433c-1.482-5.537-3.261-11-4.921-16.484-1.324-5.144-2.684-10.277-3.958-15.433-.444-1.783-.7-3.611-1.036-5.418l3,3a5.836,5.836,0,0,0,.1.875c2.453,10.031,5.037,20.031,7.324,30.1,1.036,4.54,1.486,9.211,2.2,13.824.051.747.093,1.494.146,2.241.039.489.093.978.139,1.467,0,.628,0,1.259,0,1.887C-15086.608,120.7-15086.709,120.7-15086.809,120.693Zm-30.39-32.141c-2.287-1.452-4.57-2.9-6.869-4.332a3.449,3.449,0,0,0-.862-.262l.016.012c-.116-.062-.235-.123-.347-.189-1.383-1.346-2.768-2.688-4.141-4.043l-1.057-1.057c-.576-.6-1.13-1.212-1.7-1.816,1.521.543,3.08,1,4.559,1.64a56.386,56.386,0,0,1,10.778,6.169c.157.112.339.2.5.3v4.22C-15116.608,88.975-15116.894,88.748-15117.2,88.552Zm-201.917-4.975a8.03,8.03,0,0,1,.59-.789q3.246-3.385,6.507-6.758,3.4-3.362,6.793-6.727a1.141,1.141,0,0,0,.146-.3c.431-.381.87-.759,1.3-1.144.616-.543,1.232-1.094,1.845-1.636l.042.042a5.051,5.051,0,0,1-.342.554q-1.45,1.825-2.915,3.635c-.043.05-.089.1-.131.15-.059.065-.116.131-.178.2-1.024,1.174-2.067,2.33-3.068,3.527q-2.791,3.333-5.541,6.7c-.686.832-1.325,1.7-1.987,2.549C-15317.074,83.581-15318.095,83.581-15319.115,83.577Zm213.53-4.54c.478-1.891,1.079-3.754,1.521-5.653.47-2.029.816-4.085,1.213-6.13-.042-1.166-.083-2.328-.125-3.494l1.5,1.5q.265,2.845.534,5.7a14.53,14.53,0,0,1-1.595,6.527,9.751,9.751,0,0,1-3.207,3.454A12.455,12.455,0,0,1-15105.585,79.037Zm-15.567-12.83c-2.168-1.771-4.3-3.589-6.442-5.387q-2.858-2.588-5.722-5.171c-1.455-1.309-2.919-2.607-4.378-3.908-.909-.863-1.806-1.737-2.73-2.58-1.948-1.787-3.912-3.562-5.872-5.341-1.56-1.444-3.111-2.9-4.686-4.328-.81-.732-1.652-1.425-2.5-2.106a2.564,2.564,0,0,0-.739-.27,2.149,2.149,0,0,0-.059.759c.439,1.471.913,2.934,1.371,4.4.377,1.2.755,2.4,1.1,3.6a1.656,1.656,0,0,1-.069.612,3.8,3.8,0,0,1-.632-.112,1.384,1.384,0,0,1-.408-.289q-3.27-2.824-6.538-5.653c-.208-.227-.4-.462-.628-.674-2.368-2.268-4.782-4.494-7.108-6.8q-10.066-10-20.072-20.062a4.169,4.169,0,0,1-.382-.454l1.317-1.317.062.062,1.121-1.122a4.775,4.775,0,0,1,.542.475c3.25,3.523,6.527,7.02,9.73,10.581,1.872,2.079,3.581,4.3,5.452,6.384,2.061,2.287,4.167,4.544,6.361,6.7,1.317,1.294,2.068,1.586,3.527.039a2.929,2.929,0,0,1,2.818-1.186,24.408,24.408,0,0,1,2.8,1.024c.616.52,1.263,1.009,1.841,1.571,2.341,2.256,4.659,4.536,6.988,6.8.22.212.474.385.713.574a1.825,1.825,0,0,0,.234.343c1.991,1.875,3.963,3.774,5.988,5.61,1.217,1.1,2.518,2.1,3.781,3.154,3.611,3.084,7.231,6.161,12.06,7.335a5.464,5.464,0,0,0-.739-1.868c-1.175-1.675-2.356-3.35-3.643-4.936-1.425-1.76-2.965-3.419-4.459-5.125-.836-.97-1.648-1.968-2.519-2.911-2.4-2.607-4.82-5.194-7.239-7.786-.323-.343-.666-.662-1-.993a1.193,1.193,0,0,0-.153-.293q-4.321-4.632-8.646-9.253c-1.07-1.436-2.163-2.853-3.207-4.309-5.036-7.008-10.216-13.924-14.263-21.583-.5-.949-.931-1.936-1.392-2.9l8.44,8.441c.054.1.106.195.159.294l-.008-.012a5.372,5.372,0,0,0,.3.77c2.537,4.474,5.1,8.941,7.624,13.419a28.58,28.58,0,0,0,5.214,6.727c1.621,1.814,3.227,3.635,4.863,5.433,1.39,1.529,2.818,3.027,4.228,4.536,1.187,1.344,2.36,2.7,3.559,4.024,1.778,1.979,3.569,3.943,5.355,5.915q3.108,3.535,6.219,7.077,2.086,2.518,4.179,5.037,1.553,1.86,3.122,3.712v7.093C-15117.93,68.721-15119.566,67.5-15121.152,66.207Zm-194.122-10.263a.157.157,0,0,0,.029-.014q2.622-1.825,5.237-3.673l10.843-8.752c.212.227.424.454.64.682-1.017.782-2.068,1.517-3.038,2.349-1.521,1.3-2.984,2.661-4.471,4q-2.83,2.709-5.664,5.414c-1.4,1.159-2.784,2.333-4.2,3.473a19.09,19.09,0,0,1-5.846,3.423,3.715,3.715,0,0,1-.554.127Zm90.359-6.234a3.671,3.671,0,0,0,1.37-1.37l9.374-9.374c-.188.293-.376.586-.559.883a4.04,4.04,0,0,0-.242.62c.238-.031.555.019.708-.112.739-.624,1.391-1.355,2.16-1.941a54.92,54.92,0,0,1,4.76-3.4c3.8-2.287,7.816-4.209,11.147-7.247a33.7,33.7,0,0,0,6.723-7.871c.393.4.79.789,1.183,1.182a20.909,20.909,0,0,1-5.525,7.05c-1.129,1.032-2.28,2.037-3.424,3.057a.744.744,0,0,0-.238.058q-4.863,3.564-9.723,7.139c-.782.574-1.556,1.159-2.334,1.737-1.3.9-2.626,1.771-3.889,2.722a25.087,25.087,0,0,0-5.1,4.686,36.012,36.012,0,0,1-2.83,3.616,24.715,24.715,0,0,1-6.48,4.7c-1.243.631-2.515,1.205-3.773,1.806q-.9.278-1.8.553Zm59.019-28.744a11.269,11.269,0,0,1-3.577-3.716c-1.07-1.606-2.067-3.265-3.157-4.859a31.353,31.353,0,0,0-6.681-6.8c-.252-.2-.5-.4-.746-.61l2.928-2.928a22.161,22.161,0,0,0,4.184,7.142c2.325,2.861,4.717,5.668,7,8.56a8.6,8.6,0,0,1,1.112,2.418c.1.281-.08.662-.135,1A3.135,3.135,0,0,1-15165.9,20.966Z" transform="translate(16178.931 401.195)" fill="#fff" opacity="0.8"/>
      <path id="Пересечение_2" data-name="Пересечение 2" d="M-15096.616,186.4q-.387-3.194-.778-6.392c-.246-2.018-.512-4.035-.743-6.057s-.512-4.043-.631-6.072a40.05,40.05,0,0,1,.058-9.041c.3-1.841.408-3.716.565-5.579.239-2.861.447-5.73.667-8.6.011-.139.011-.277.011-.42,0-2.487.023-4.975,0-7.459-.019-1.71-.1-3.415-.157-5.121a40.548,40.548,0,0,0-1.868-12.11,10.5,10.5,0,0,0-1.836-3.246c-1.3-1.525-3.058-1.394-4.009.362a55.649,55.649,0,0,0-2.723,6.2c-.5,1.263-.809,2.6-1.2,3.9-.462,2.091-.967,4.178-1.375,6.28-.7,3.6-1.286,7.228-2.014,10.828-.585,2.888-1.3,5.753-1.972,8.625-.385,1.656-.8,3.3-1.217,4.952a1.272,1.272,0,0,1-.254.412v-5.606a1.578,1.578,0,0,0,.243-.621q.034-3.471.007-6.943a2.447,2.447,0,0,0-.227-.716c-.009-.048-.016-.1-.023-.143v-.261a12.936,12.936,0,0,0,.747-1.718c1.274-4.432,2.519-8.872,3.77-13.311.135-.481.262-.963.393-1.448.358-.5.721-1.009,1.078-1.513.6-1.259,1.248-2.5,1.795-3.781a19.1,19.1,0,0,0,1.748-7.7c-.062-4.96-.1-9.915-.192-14.875-.016-.932-.2-1.86-.3-2.792a3.977,3.977,0,0,1,3.424-2.545c1.3-.081,1.99.8,2.6,1.683a32.409,32.409,0,0,1,1.71,3.054c-.054.092-.158.189-.15.277a51.459,51.459,0,0,0,.458,5.622c.531,2.93,1.367,5.8,1.941,8.725.393,2.018.508,4.085.839,6.119.632,3.9,1.51,7.778.959,11.775a15.7,15.7,0,0,1-.354,1.775,1.75,1.75,0,0,0,.4,1.906c.362.366.759.7,1.144,1.044-.219,3.069-.427,6.134-.662,9.2-.158,2.091-.331,4.182-.531,6.265-.242,2.53-.628,5.052-.759,7.586a60.44,60.44,0,0,0-.058,8.637c.436,4.636,1.236,9.238,1.845,13.858.216,1.66.323,3.331.481,5C-15094.722,186.411-15095.669,186.4-15096.616,186.4Zm-4.879-6.931c.208-2.8.516-5.6.8-8.4a23.354,23.354,0,0,0-1.344-11.767,16.206,16.206,0,0,1-.809-4.417c-.335-2.846-.578-5.707-.866-8.56a1.558,1.558,0,0,0-.208-.72c-.285-.4-.662-1.082-.959-1.059a1.728,1.728,0,0,0-1.217.913,58.892,58.892,0,0,0-2.11,5.568,24.648,24.648,0,0,1-2.818,5.691,2.221,2.221,0,0,1-.424.4,10.266,10.266,0,0,0-.951-.512.929.929,0,0,0-.343-.073.929.929,0,0,1,.343.073c.331.139.632.343.947.512-.208.693-.435,1.382-.612,2.079a4.642,4.642,0,0,0-.069.863,22.225,22.225,0,0,1,2.7-1.074c2.245-.581,3.9.454,5.21,2.168a8.265,8.265,0,0,1,1.683,5,40.681,40.681,0,0,1-.177,4.394,3.951,3.951,0,0,1-2.549,3.477,4.331,4.331,0,0,1-4.548-.855,1.52,1.52,0,0,0-.662-.389c.23,1.113.416,2.237.7,3.335a29.26,29.26,0,0,0,3.686,8.594c.377.578.793,1.132,1.189,1.694q-2.691,0-5.379,0c-.731-3.258-1.456-6.515-2.2-9.773-.635-2.8-1.471-5.56-1.875-8.387a41.444,41.444,0,0,1-.154-6.916,38.083,38.083,0,0,1,.517-4.047h0c.635-2.622,1.3-5.241,1.9-7.871.47-2.033.87-4.078,1.3-6.119.894-3.8,1.718-7.62,2.707-11.4a30.17,30.17,0,0,1,3.1-8.3,5.4,5.4,0,0,1,1.1-1.251c.551-.474,1.313-.293,2.049.323a8.285,8.285,0,0,1,2.479,4.578,34.377,34.377,0,0,1,1.024,9.211c-.031,2.129-.1,4.255-.17,6.38a1.734,1.734,0,0,1-.157.454c-.224,2.022-.5,4.039-.655,6.065q-.265,3.425-.346,6.862c-.059,2.626-.1,5.256.011,7.878.124,3.007.42,6.011.64,9.018.123,1.644.246,3.285.354,4.929q.259,3.968.5,7.94c.008.142,0,.281-.008.424-1.509,0-3.022,0-4.531,0C-15101.468,184.227-15101.672,181.825-15101.5,179.468Zm-10.535-11.556c.813,2.418,2.668,3.874,4.778,5.037a1.791,1.791,0,0,0,2.283-.481,6.633,6.633,0,0,0,1.775-4.74c.466-.435.466-.743,0-1.178a5.121,5.121,0,0,0-1.186-3.546c-.081-.027-.166-.054-.247-.077l.069.246a10.039,10.039,0,0,1,.382,3.612c-.339,3.223-3.315,4.725-5.961,2.846a13.719,13.719,0,0,1-1.96-2.1A1.536,1.536,0,0,0-15112.03,167.912Zm.566-4.821a6.358,6.358,0,0,0,2.183,6.173,2.342,2.342,0,0,0,3.427-.312,3.88,3.88,0,0,0,.975-2.926,4.551,4.551,0,0,0-3.731-4.7,3.911,3.911,0,0,0-.755-.081A2.006,2.006,0,0,0-15111.464,163.092Zm1.216-19.939a6.164,6.164,0,0,1,1.537-.3h0A6.169,6.169,0,0,0-15110.248,143.152Zm6.573-.026c.408,0,.816,0,1.225,0h0C-15102.862,143.126-15103.271,143.126-15103.675,143.126Zm10.608,35.864q-1-5.054-2.052-10.089a21.439,21.439,0,0,1-.186-6.762c.262-2.383.531-4.767.874-7.143.374-2.564.87-5.114,1.252-7.678.354-2.341.628-4.7.939-7.047.119-.913.246-1.821.373-2.734a6.888,6.888,0,0,1,2.311,3.473c.327.909.566,1.852.844,2.78.177,1.494.438,2.984.516,4.486a19.516,19.516,0,0,1-.085,4.5c-.809,4.444-1.84,8.849-2.68,13.288a47.7,47.7,0,0,0-.755,6.142c-.2,3.6-.25,7.216-.373,10.828a2.134,2.134,0,0,1-.158.535C-15092.52,182.044-15092.762,180.512-15093.066,178.991Zm6.238,2.041c-.143-1.078-.262-2.16-.339-3.242-.093-1.278-.131-2.564-.185-3.851-.062-1.533-.162-3.069-.15-4.605.016-2.657.054-5.318.169-7.971.1-2.422.316-4.844.5-7.262.016-.181.242-.347.369-.52.039.416.1.828.1,1.244q.006,12.9,0,25.807a8.793,8.793,0,0,1-.089.9C-15086.582,181.366-15086.806,181.212-15086.828,181.031Zm-21.486-14.767.208-.027c.139,1,.277,1.991.42,2.988-.069.012-.139.019-.208.031Q-15108.1,167.76-15108.314,166.264Zm-.9.416c.008-.012.031-.008.05-.012l.023.058c-.03.008-.058.012-.089.019A.179.179,0,0,1-15109.212,166.68Zm.154-.462c.027-.015.054-.031.077-.046,0,.023.016.05.008.069s-.031.019-.051.031Zm.135-.662a6.965,6.965,0,0,1-.462-1.606c.593,1.459,1.8,1.317,2.98,1.248.058-.054.111-.112.169-.166.027-.023.054-.046.077-.069,0,.015,0,.039-.012.046a.3.3,0,0,1-.062.027c-.054.058-.111.112-.165.169a7.984,7.984,0,0,1-.979.254.966.966,0,0,1-.335-.054c-.266-.077-.523-.154-.628.335C-15108.538,165.683-15108.865,165.679-15108.923,165.556Zm-.644-2.064c.02-.012.039-.035.051-.031s.026.035.038.054l-.026.058Zm22.564-61.644c-.827-4.328-1.621-8.664-2.456-12.988-.909-4.709-1.853-9.411-2.772-14.116a1.687,1.687,0,0,1,0-.378l4.214,4.214c-.052.132-.145.272-.124.388q.716,3.668,1.475,7.328c.023.127.182.231.281.343q.018,6.215.031,12.434c0,1.706-.027,3.412-.043,5.117C-15086.6,103.411-15086.848,102.637-15087,101.848ZM-15116.1,92.9l-.084-.084c0-.027,0-.054,0-.082l0-3.546v-4.22q-.012-2.183-.026-4.367.012-1.617.019-3.234.006-3.7,0-7.4l0-7.089q-.006-6.068-.007-12.129l.088.088v-.177l1.291,1.125.325.325a3.791,3.791,0,0,0-.114.906c.123,1.132.293,2.26.438,3.392.251,1.906.513,3.812.732,5.722.28,2.461.658,4.921.758,7.393a76.131,76.131,0,0,1-.47,12.4c-.139,1.159-.216,2.33-.423,3.473q-.844,4.632-1.791,9.241a25.673,25.673,0,0,1-.747,2.522Zm8.876-7.035c.03-1.833.088-3.662.111-5.495.008-.6-.073-1.194-.115-1.791.3-1.8.612-3.6.9-5.41a16.641,16.641,0,0,0,.243-1.894c.077-1.667.111-3.338.165-5.01a8.408,8.408,0,0,1-.143-.874c-.122-1.732-.226-3.464-.341-5.2l3.563,3.562c.042,1.166.087,2.328.129,3.494-.4,2.045-.743,4.1-1.217,6.13-.443,1.9-1.044,3.762-1.521,5.653a12.331,12.331,0,0,0-.161,1.9,9.716,9.716,0,0,0,3.207-3.454,14.585,14.585,0,0,0,1.6-6.527,9.593,9.593,0,0,1,.92,2.237c.374,2.668.632,5.356.894,8.04.1,1.024.092,2.056.139,3.088a9.523,9.523,0,0,0-2.226-1.19,4.873,4.873,0,0,0-5.58,2.5,4.621,4.621,0,0,1-.408.512C-15107.117,86.053-15107.221,85.96-15107.221,85.868Zm-206.711-4.832q2.754-3.367,5.545-6.7c1-1.194,2.044-2.353,3.068-3.527l.178-.2c.042-.05.088-.1.131-.15a19.279,19.279,0,0,0,1.713-.924c1.26-.847,2.48-1.737,3.72-2.611.224-.281.447-.558.674-.839q2.865-2.27,5.729-4.544l1.013-.682q2.883-2.368,5.769-4.729a1.834,1.834,0,0,1,.428.235q2.385,2.409,4.763,4.825c-1.213,1.186-2.418,2.384-3.646,3.554-.442.424-.939.786-1.413,1.174-1.332,1.228-2.676,2.449-4,3.689-.593.551-1.155,1.132-1.732,1.7q-.757.595-1.514,1.182c-.143.173-.277.354-.431.512q-4.857,4.944-9.712,9.892a4.67,4.67,0,0,0-.47.67q-2.367-.006-4.732,0c.42-.874.882-1.733,1.244-2.63.242-.6.054-1.213-.693-1.178a5.174,5.174,0,0,0-2.194.516,35.982,35.982,0,0,0-3.454,2.314,7.424,7.424,0,0,0-.959.982l-1,.023C-15315.257,82.734-15314.613,81.867-15313.932,81.036Zm-22.1-4.2a9.219,9.219,0,0,0,4.25-1.8c4.063-2.719,8.082-5.506,12-8.433,3.331-2.487,6.492-5.2,9.719-7.828a9.3,9.3,0,0,0,.882-.947c.5-.339,1.009-.682,1.514-1.02.234-.227.462-.466.705-.685q1.835-1.681,3.677-3.35c1.04-.732,2.087-1.452,3.111-2.2q1.98-1.45,3.936-2.946a6.414,6.414,0,0,0,.716-.766l.674.812c-1.013.851-2.018,1.717-3.042,2.557-1.112.916-2.245,1.81-3.373,2.711-1.267,1.07-2.515,2.168-3.815,3.2a18.974,18.974,0,0,1-1.906,1.19q-.763.838-1.525,1.679c-1.174,1.032-2.368,2.037-3.516,3.1-3.384,3.134-6.75,6.3-10.127,9.438-2.152,2-4.251,4.059-6.492,5.953-2.317,1.956-4.778,3.747-7.173,5.618a2.139,2.139,0,0,0-.327.447q-3.306,0-6.612,0Zm110.279,6.717a7.192,7.192,0,0,1,.739-.631c.9-.57,1.86-1.047,2.711-1.679,3.435-2.541,6.946-4.994,10.212-7.74a65.706,65.706,0,0,0,6.322-6.481,6.1,6.1,0,0,0,1.06-2.48c.143-.543-.235-.928-.87-.658a6.892,6.892,0,0,0-1.4.72c-3.284,2.414-6.5,4.929-9.834,7.266-4.944,3.466-9.969,6.808-14.956,10.212-.7.474-1.374.986-2.06,1.479-1.074,0-2.145,0-3.219-.008a13.9,13.9,0,0,1,1.439-1.059,214.265,214.265,0,0,0,22.16-14.979c3.046-2.272,6.138-4.482,9.241-6.673a2.938,2.938,0,0,1,2.5-.693,1.466,1.466,0,0,1,1.147,2.1,14.918,14.918,0,0,1-2.918,5.064,63.622,63.622,0,0,1-9.627,9.692,46.1,46.1,0,0,1-9.295,6.126,2.19,2.19,0,0,0-.466.431C-15223.828,83.558-15224.791,83.558-15225.75,83.554Zm-24.436.008-.012-.3a15.56,15.56,0,0,1,1.76-1.094c2.487-1.144,5-2.249,7.509-3.35,1.348-.593,2.734-1.113,4.074-1.725.936-.427,1.821-.966,2.737-1.429,3.212-1.613,6.442-3.184,9.635-4.836a58.422,58.422,0,0,0,10.215-6.246,50.83,50.83,0,0,0,5.164-4.983c1.944-2.095,3.746-4.328,5.61-6.5q2.021-2.108,4.039-4.216v0c.993-.974,1.991-1.948,2.98-2.926.2-.193.377-.4.563-.608a37.17,37.17,0,0,1,4.412-2.511c2.018-.824,3.912.709,4.039,2.9a12.057,12.057,0,0,1-1.2,5.175c-1.39,2.272-2.772,4.548-4.17,6.816a4.541,4.541,0,0,1-.551.6.671.671,0,0,1-.05.239c-1.013,1.379-2.037,2.745-3.042,4.132-.093.131-.065.347-.1.524-1.528,1.556-3.05,3.119-4.594,4.663q-5.845,5.857-11.7,11.7c-.12.119-.255.216-.382.323-1.116,1.136-2.19,2.31-3.369,3.373-.3.27-.916.189-1.386.266a2.968,2.968,0,0,1,.427-.593c1.313-1.086,2.642-2.152,3.963-3.227.034.019.073.039.107.054-.034-.015-.069-.035-.1-.054.716-.743,1.459-1.471,2.152-2.241,2.2-2.453,4.439-4.875,6.554-7.4,2.634-3.146,5.171-6.369,7.724-9.58.59-.743,1.074-1.563,1.61-2.349.276-.339.558-.678.835-1.017a42.561,42.561,0,0,0,2.087-4.093,7.486,7.486,0,0,0,.59-3.281c-.154-1.571-1.355-2-2.677-1.094-.939.643-1.79,1.413-2.676,2.133-.239.193-.462.4-.693.6q-1.011,1.011-2.021,2.025c-1.163,1.205-2.322,2.418-3.492,3.62-2.207,2.26-4.29,4.667-6.662,6.742-3.885,3.4-8.4,5.922-12.868,8.467-3.793,2.16-7.64,4.224-11.5,6.257-2.949,1.552-5.961,2.988-8.937,4.49a4.363,4.363,0,0,0-.692.543Zm55.452-26.415c.108-.027.212-.054.315-.085C-15194.525,57.093-15194.629,57.12-15194.733,57.147Zm.315-.085c.281-.085.563-.166.84-.25Zm-135.513,26.5c.943-.943,1.863-1.91,2.834-2.826.954-.9,1.948-1.756,2.938-2.622,2.122-1.856,4.243-3.716,6.381-5.553,2.264-1.948,4.535-3.889,6.834-5.8,1.46-1.213,2.969-2.36,4.455-3.539l1.179-1.178c.882-.666,1.768-1.325,2.642-2q2.114-1.629,4.217-3.273a4.8,4.8,0,0,0,.562-.616c.112-.008.22-.015.331-.027h0c1.537-1.24,3.081-2.464,4.594-3.724.539-.451,1-1,1.494-1.5l2.526,2.676c-.913.774-1.8,1.571-2.734,2.322-1.039.836-2.109,1.629-3.169,2.441a.878.878,0,0,1-.038-.108.878.878,0,0,0,.038.108c-.227.223-.45.447-.678.666-.9.7-1.806,1.39-2.684,2.118-1.09.9-2.148,1.841-3.219,2.765-.5.366-1,.735-1.514,1.094-.22.154-.45.285-.678.427-.173.169-.343.347-.523.512-.724.67-1.456,1.34-2.184,2.01-.916.712-1.855,1.4-2.749,2.145q-3.691,3.079-7.347,6.207c-2.284,1.964-4.544,3.962-6.793,5.968a12.207,12.207,0,0,0-1.128,1.309Q-15327.138,83.562-15329.931,83.558Zm211.848-4.32q-3.448-3.044-6.851-6.149-3.472-3.154-6.916-6.334-1.438-1.508-2.868-3.027h0q-1.935-1.773-3.87-3.55c-.858-.882-1.69-1.791-2.584-2.638a28.2,28.2,0,0,0-2.183-1.821c-.481-.374-.909-.366-1.175.308a5.891,5.891,0,0,1-.624,1.09,3.544,3.544,0,0,1-4.405,1.583,1.964,1.964,0,0,0-.674-.015l-1.813-1.814c-2.287-2.264-4.582-4.517-6.857-6.792-1.841-1.841-3.658-3.7-5.487-5.553q-2.946-2.905-5.892-5.814-.113-.112-.229-.221l-.491-.491-.016.016-.111-.1q-1.721-1.843-3.442-3.677c-.016-.019-.054-.012-.085-.015l-1.69-1.7a1.151,1.151,0,0,0-.166-.37q-2.691-2.68-5.4-5.337c-.165-.116-.331-.231-.5-.343-.27-.243-.523-.5-.8-.716s-.59-.408-.882-.608l-.521-.528c-.815.836-1.617,1.69-2.452,2.507-1.679,1.636-3.377,3.254-5.063,4.883-.439.42-.852.87-1.294,1.282-.362.335-.751.635-1.132.947q-2.993,2.888-5.98,5.768c-.767.739-1.513,1.506-2.291,2.233-.65.608-1.34,1.182-2.01,1.767-.509.5-1.013,1.009-1.521,1.509-.854.612-1.705,1.24-2.576,1.833-3.207,2.195-6.392,4.424-9.646,6.546-2.814,1.837-5.691,3.569-8.567,5.306-4.074,2.457-8.179,4.871-12.257,7.32-1.683,1.009-3.334,2.064-5.009,3.08a2.463,2.463,0,0,1-.44.194l11.591-11.59c.6-.183,1.2-.367,1.795-.548,1.259-.6,2.53-1.178,3.773-1.81a24.632,24.632,0,0,0,6.477-4.7,36.047,36.047,0,0,0,2.834-3.616,25.087,25.087,0,0,1,5.1-4.686c1.263-.951,2.587-1.817,3.889-2.722.778-.578,1.552-1.163,2.334-1.737q4.857-3.575,9.723-7.139a.744.744,0,0,1,.238-.058c1.144-1.02,2.295-2.022,3.424-3.057a20.909,20.909,0,0,0,5.525-7.05c-.393-.393-.79-.786-1.183-1.178-.52-.327-1.031-.666-1.563-.97-.361-.208-.75-.366-1.128-.547.154-.289.312-.581.45-.836-.125-.242-.241-.463-.355-.68l1.947-1.947a.852.852,0,0,1,.276.152c2.595,2.3,5.221,4.563,7.759,6.927,2.422,2.253,4.763,4.6,7.112,6.931,1.251,1.244,2.441,2.545,3.665,3.82,1.537,1.6,3.093,3.173,4.605,4.79,1.2,1.286,2.353,2.618,3.527,3.931q.844.843,1.683,1.687c1.04,1.167,2.041,2.36,3.115,3.489,1.748,1.837,3.543,3.631,5.313,5.445l2.53,2.195v0c.485.327.963.658,1.455.97.436.277.813.327,1.07-.262a12.973,12.973,0,0,1,.655-1.167,3.256,3.256,0,0,1,4-1.717,9.017,9.017,0,0,1,3.611,2.176c.224.246.436.5.67.743q3.2,3.258,6.407,6.5a3.1,3.1,0,0,1-.092.4,3.1,3.1,0,0,0,.092-.4l2.356,2.195c1.371,1.4,2.73,2.8,4.113,4.189,1.813,1.829,3.619,3.67,5.479,5.456,1.424,1.375,2.926,2.668,4.4,4-.007,1.078-.011,2.156-.019,3.231A21.924,21.924,0,0,1-15118.083,79.237Zm-122.961-12.765a45.138,45.138,0,0,0,7.7-5.907A45.291,45.291,0,0,1-15241.044,66.473Zm35.6-22.295h0Zm-3.939-3.951c0-.039-.008-.073-.012-.108C-15209.393,40.154-15209.389,40.189-15209.385,40.227Zm24.548-16.234-.362-.35Zm68.651,53.377Zm-129.7-7.8q-2.667-1.906-5.345-3.808c-.223-.154-.458-.3-.67-.462-.889-.7-1.774-1.4-2.664-2.1-1.271-1.121-2.522-2.272-3.824-3.358-1.455-1.209-2.957-2.36-4.436-3.539-.285-.273-.569-.547-.858-.82-.309-.181-.628-.347-.932-.535q-2.82-1.767-5.634-3.535c-1.528-1.017-3.076-2.006-4.586-3.057a30.6,30.6,0,0,1-2.622-2.068,4.733,4.733,0,0,1-.735-1.074l.188-.262,6.576,3.258c.979.32,1.941.709,2.942.943,2.114.5,4.467-1.363,4.259-3.335a9.3,9.3,0,0,0-1.8-4.355,30.142,30.142,0,0,0-4.274-7.177c-2.769-3.327-5.642-6.569-8.464-9.85-.165-.193-.312-.4-.466-.608.062-.062.123-.127.185-.189.874.658,1.783,1.278,2.615,1.987,1.193,1.009,2.367,2.052,3.492,3.142a70.806,70.806,0,0,1,9.946,12.2c.2.3.438.562.662.843.27.462.539.916.809,1.379l3.407,5.868q.508.762,1.017,1.517c1.567,2.441,3.089,4.913,4.725,7.308.844,1.236,1.891,2.337,2.846,3.5.343.5.682,1,1.024,1.494,1.421,1.952,2.838,3.9,4.274,5.876.343-.312.809-.739,1.278-1.163.339-.393.682-.786,1-1.159-1.825-2.514-3.6-4.967-5.383-7.424-.778-1.09-1.56-2.172-2.326-3.269-1.086-1.548-2.156-3.1-3.234-4.655-.67-.843-1.34-1.69-2.014-2.534-.323-.477-.64-.966-.975-1.436q-2.373-3.327-4.763-6.65l-1.179-2.022c1.756,1.729,3.52,3.454,5.271,5.191,1.013,1.009,2,2.041,3,3.061.012.154-.035.35.042.466.586.866,1.2,1.717,1.8,2.572,1.013,1.352,2.029,2.7,3.035,4.055q1.686,2.27,3.361,4.544c1.574,2.214,3.149,4.424,4.9,6.881.767-.863,1.395-1.536,1.979-2.237a3.622,3.622,0,0,0,.389-.793l.059-.022.377.377-7.257,7.257c-.183.063-.371.118-.553.187C-15245.568,69.842-15245.715,69.692-15245.885,69.572Zm-4.874-3.731h0Zm-7.725-16.627c.077-.089.246-.1.369-.158C-15258.237,49.11-15258.406,49.122-15258.483,49.214Zm130.407,5.718c-1.717-1.325-3.419-2.68-5.125-4.02q-4.718-4.3-9.437-8.6c-1.31-1.282-2.626-2.557-3.932-3.843-.335-.331-.643-.689-.963-1.036-.728-.643-1.467-1.275-2.175-1.941-.975-.916-1.922-1.856-2.881-2.788q-3.06-3-6.122-6a.962.962,0,0,0-.281-.127,20.165,20.165,0,0,1-.034,2.857,5.944,5.944,0,0,1-.8,2.126c-.393.655-.966.624-1.532.05-2.6-2.63-5.256-5.206-7.828-7.863-2.237-2.31-4.386-4.709-6.581-7.066q-3.58-3.841-7.173-7.667a5.758,5.758,0,0,0-.539-.481l.989-.99c.793.811,1.6,1.611,2.372,2.442.87.943,1.687,1.941,2.564,2.876q3.16,3.367,6.357,6.7c1.744,1.821,3.473,3.658,5.275,5.422,1.14,1.109,2.395,2.095,3.607,3.123a1.672,1.672,0,0,0,.729.4,1.467,1.467,0,0,0,.989-.1c.165-.119.146-.585.107-.882-.038-.327-.273-.643-.273-.963,0-.439-.008-1.028.255-1.286a1.2,1.2,0,0,1,1.621-.1c.885.674,1.8,1.328,2.618,2.083,1.605,1.482,3.149,3.027,4.732,4.536a3.491,3.491,0,0,0,.616.4,7.4,7.4,0,0,0,.577.793c1.209,1.259,2.434,2.5,3.654,3.754.62.643,1.229,1.3,1.855,1.929q3.894,3.91,7.81,7.8a17.414,17.414,0,0,0,1.76,1.421,3.954,3.954,0,0,0,.7.343l.17-.189c-.509-.712-.967-1.475-1.54-2.129-2.033-2.31-4.112-4.582-6.169-6.873-1.14-1.271-2.271-2.549-3.4-3.82q-2.188-2.281-4.374-4.563a4.193,4.193,0,0,0-.393-.62c-2.241-2.422-4.532-4.8-6.73-7.258-3.162-3.543-6.312-7.093-9.35-10.739a30.939,30.939,0,0,1-3.119-4.748c-1.486-2.665-2.838-5.4-4.255-8.109a1.353,1.353,0,0,0-.171-.241l.826-.826q1.794,3.4,3.588,6.793c.263.5.566.97.79,1.482a26.632,26.632,0,0,0,4.471,6.461c2.264,2.7,4.594,5.337,6.942,7.959,1.863,2.083,3.8,4.1,5.7,6.149.971,1.109,1.934,2.222,2.911,3.323,1.217,1.367,2.449,2.726,3.674,4.089l2.519,2.53c.912,1.051,1.817,2.11,2.745,3.15q3.615,4.06,7.255,8.1a7.9,7.9,0,0,0,.619.558c1.395,1.7,2.8,3.4,4.179,5.114a13.544,13.544,0,0,1,.9,1.452l-.181.219A6.537,6.537,0,0,1-15128.076,54.932Zm-144.678-12.391a.161.161,0,0,1-.016-.046l.062.062A.171.171,0,0,1-15272.754,42.541Zm-.023-.054c-.072-.023-.146-.042-.219-.065l.223.062a.014.014,0,0,0,0,.012Zm-1.013-.839.012-.012.069.077C-15273.735,41.69-15273.767,41.671-15273.79,41.648Zm0,0c-.058-.058-.119-.112-.169-.166-.15-.073-.339-.1-.436-.219a2.336,2.336,0,0,0-2.468-.913c.6-.412,1.524.146,1.394-.893.158.119.32.235.485.362.281-.724.574-1.475.858-2.222.062-.042.124-.085.189-.127l.038.065c-.077.019-.15.042-.224.062a10.173,10.173,0,0,1-.308,1.456,2.307,2.307,0,0,0,.481,2.414c.058.058.107.116.165.169l-.008.012Zm-7.559-1.633a.311.311,0,0,1-.022-.058l.069.069C-15281.317,40.023-15281.341,40.027-15281.349,40.015Zm-3.885-2.518c-2.155-1.65-4.223-3.413-6.327-5.129l8.71-8.709c.373.4.739.818,1.141,1.2,1.425,1.332,2.892,2.615,4.289,3.974,1.359,1.313,2.649,2.7,3.97,4.047-.431-.177-.882-.327-1.3-.539-1.952-.974-3.851-2.083-6.153-2.006a2.978,2.978,0,0,0-2.9,3.67,37.379,37.379,0,0,0,1.56,4.047c.262.647.577,1.271.87,1.906v0C-15282.665,39.141-15284.024,38.417-15285.233,37.5Zm9.761,1.956s-.008,0-.008-.008.008,0,.012,0v.008A0,0,0,0,1-15275.473,39.453Zm0,0Zm-.062-.035c-.008-.008-.008-.027-.012-.042.02.019.039.046.062.065A.1.1,0,0,1-15275.53,39.422Zm-.446-.308a.387.387,0,0,1,.058.027c.012.008.012.031.016.042A.561.561,0,0,1-15275.977,39.114Zm-.347-.166-.339-.162-.065-.085c.027.023.054.042.085.065.1.054.219.112.327.169l.339.177Zm-.848-.5v0q-1-.514-2.01-1.024l-.223-.069.046-.062c.054.042.115.085.177.127.678.335,1.355.666,2.033,1l.062.089A.714.714,0,0,0-15277.171,38.452Zm3.713-1.217c.5-.058,1-.119,1.5-.181l.016.142-1.471.25Zm109.8-12.341c-1.459-1.344-2.842-2.772-4.231-4.189-1.021-1.04-2-2.122-3-3.177q-5.1-5.36-10.208-10.708a2.958,2.958,0,0,0-.355-.306l1.535-1.535c.247.207.49.412.742.61a31.371,31.371,0,0,1,6.685,6.8c1.09,1.594,2.083,3.254,3.153,4.859a11.28,11.28,0,0,0,3.581,3.716,3.233,3.233,0,0,0,.932.2c.051-.339.235-.72.132-1a8.512,8.512,0,0,0-1.109-2.418c-2.287-2.892-4.683-5.7-7-8.56a22.108,22.108,0,0,1-4.187-7.139l1.224-1.223c.994,1.862,1.876,3.8,3.039,5.547,2.215,3.327,4.56,6.565,6.932,9.777,1.159,1.571,2.549,2.969,3.75,4.509a4.325,4.325,0,0,1,.666,3.381,1.355,1.355,0,0,1-1.3,1.263A1.439,1.439,0,0,1-15163.655,24.894Z" transform="translate(16178.79 401.195)" fill="#fff" opacity="0.4"/>
    </g>
  </g>
</svg>
