<svg id="Сгруппировать_527" data-name="Сгруппировать 527" xmlns="http://www.w3.org/2000/svg" xmlns:xlink="http://www.w3.org/1999/xlink" width="148.032" height="40.576" viewBox="0 0 148.032 40.576">
  <defs>
    <linearGradient id="linear-gradient" x1="0.243" y1="0.262" x2="0.413" y2="0.719" gradientUnits="objectBoundingBox">
      <stop offset="0" stop-color="#ff8a4c"/>
      <stop offset="1" stop-color="#ec651d"/>
    </linearGradient>
    <linearGradient id="linear-gradient-2" x1="0.5" y1="0" x2="0.441" y2="0.796" xlink:href="#linear-gradient"/>
    <linearGradient id="linear-gradient-3" x1="0.765" y1="0.256" x2="0.052" y2="0.695" xlink:href="#linear-gradient"/>
    <linearGradient id="linear-gradient-4" x1="0.196" y1="0.416" x2="0.329" y2="1.008" xlink:href="#linear-gradient"/>
    <linearGradient id="linear-gradient-5" x1="0.556" y1="0.627" x2="0.965" y2="0.113" xlink:href="#linear-gradient"/>
    <linearGradient id="linear-gradient-6" x1="0.556" y1="0.627" x2="0.906" y2="0" xlink:href="#linear-gradient"/>
  </defs>
  <g id="Home" transform="translate(66.94 23.419)" style="isolation: isolate">
    <g id="Сгруппировать_528" data-name="Сгруппировать 528" style="isolation: isolate">
      <path id="Контур_1794" data-name="Контур 1794" d="M96.028,49.473V32.625h3.8v6.486h5.814V32.625h3.824V49.473h-3.824V42.445H99.827v7.028Z" transform="translate(-96.028 -32.625)" fill="#262626"/>
      <path id="Контур_1795" data-name="Контур 1795" d="M125.069,51.246a6.3,6.3,0,0,1-2.351-.451,5.949,5.949,0,0,1-2-1.3,6.246,6.246,0,0,1-1.382-2.106,8.138,8.138,0,0,1,0-5.712,6.271,6.271,0,0,1,1.382-2.105,5.972,5.972,0,0,1,2-1.306,6.331,6.331,0,0,1,2.351-.451,6.239,6.239,0,0,1,2.339.451,6.019,6.019,0,0,1,1.99,1.306,6.291,6.291,0,0,1,1.382,2.105,8.138,8.138,0,0,1,0,5.712,6.266,6.266,0,0,1-1.382,2.106,6,6,0,0,1-1.99,1.3A6.212,6.212,0,0,1,125.069,51.246Zm0-3.074a1.928,1.928,0,0,0,1.758-.981,5.131,5.131,0,0,0,.594-2.662,5.123,5.123,0,0,0-.594-2.661,2.074,2.074,0,0,0-3.527,0,5.2,5.2,0,0,0-.581,2.661,5.209,5.209,0,0,0,.581,2.662A1.919,1.919,0,0,0,125.069,48.172Z" transform="translate(-102.458 -34.088)" fill="#262626"/>
      <path id="Контур_1796" data-name="Контур 1796" d="M139.84,50.937V38.119h3.1l.258,1.655h.1a10.158,10.158,0,0,1,1.706-1.382,4.5,4.5,0,0,1,4.38-.027,3.811,3.811,0,0,1,1.331,1.59,11.241,11.241,0,0,1,1.8-1.513,3.912,3.912,0,0,1,2.235-.632,3.454,3.454,0,0,1,3.037,1.382,6.5,6.5,0,0,1,.968,3.786v7.959h-3.8V43.468a3.47,3.47,0,0,0-.374-1.912,1.387,1.387,0,0,0-1.2-.515,3.409,3.409,0,0,0-2.2,1.24v8.656h-3.8V43.468a3.468,3.468,0,0,0-.375-1.912,1.388,1.388,0,0,0-1.2-.515,3.251,3.251,0,0,0-2.17,1.24v8.656Z" transform="translate(-108.391 -34.088)" fill="#262626"/>
      <path id="Контур_1797" data-name="Контур 1797" d="M176.134,51.246a7.135,7.135,0,0,1-2.559-.451,5.885,5.885,0,0,1-2.067-1.318,6.037,6.037,0,0,1-1.37-2.105,7.686,7.686,0,0,1-.491-2.843,7.291,7.291,0,0,1,.517-2.8,6.654,6.654,0,0,1,1.357-2.119,5.9,5.9,0,0,1,1.925-1.33,5.627,5.627,0,0,1,2.248-.465,5.7,5.7,0,0,1,2.39.465,4.707,4.707,0,0,1,1.706,1.291,5.481,5.481,0,0,1,1.021,1.952,8.489,8.489,0,0,1,.336,2.442,8.9,8.9,0,0,1-.051.981q-.053.465-.1.7h-7.674a3.133,3.133,0,0,0,1.149,2.054,3.576,3.576,0,0,0,2.184.659,5.281,5.281,0,0,0,2.765-.852l1.267,2.3a8.384,8.384,0,0,1-2.184,1.059A7.675,7.675,0,0,1,176.134,51.246Zm-2.843-8.113h4.625a2.919,2.919,0,0,0-.491-1.759,1.913,1.913,0,0,0-1.653-.671,2.355,2.355,0,0,0-1.59.594A2.985,2.985,0,0,0,173.291,43.133Z" transform="translate(-116.803 -34.088)" fill="#262626"/>
    </g>
  </g>
  <g id="Barin" transform="translate(0 21.61)" style="isolation: isolate">
    <g id="Сгруппировать_529" data-name="Сгруппировать 529" style="isolation: isolate">
      <path id="Контур_1798" data-name="Контур 1798" d="M2.772,49.473V32.625H8.535a14.4,14.4,0,0,1,2.442.194,5.818,5.818,0,0,1,1.964.685A3.652,3.652,0,0,1,14.258,34.8a3.882,3.882,0,0,1,.478,2.016,4.313,4.313,0,0,1-.155,1.137,4.438,4.438,0,0,1-.439,1.059,3.982,3.982,0,0,1-.685.879,2.467,2.467,0,0,1-.917.568v.1a4.276,4.276,0,0,1,1.189.478,3.78,3.78,0,0,1,.956.814A3.675,3.675,0,0,1,15.331,43a4.531,4.531,0,0,1,.233,1.512,4.6,4.6,0,0,1-.5,2.222,4.329,4.329,0,0,1-1.4,1.538,6.429,6.429,0,0,1-2.08.9,10.489,10.489,0,0,1-2.558.3Zm3.8-10.1H8.354a3.089,3.089,0,0,0,2.029-.542,1.81,1.81,0,0,0,.633-1.447,1.525,1.525,0,0,0-.646-1.395,3.759,3.759,0,0,0-1.99-.414H6.571Zm0,7.159H8.715q3.127,0,3.127-2.274a1.724,1.724,0,0,0-.775-1.59,4.579,4.579,0,0,0-2.352-.478H6.571Z" transform="translate(-2.772 -30.816)" fill="#ec651d"/>
      <path id="Контур_1799" data-name="Контур 1799" d="M27.116,51.246a4.054,4.054,0,0,1-1.589-.3,3.391,3.391,0,0,1-1.2-.825,3.818,3.818,0,0,1-.762-1.228,4.173,4.173,0,0,1-.271-1.524A3.59,3.59,0,0,1,25,44.218a12.6,12.6,0,0,1,5.5-1.525,2.159,2.159,0,0,0-.5-1.355,1.947,1.947,0,0,0-1.512-.505,4.562,4.562,0,0,0-1.641.312A11.853,11.853,0,0,0,25.1,42l-1.37-2.507a13.476,13.476,0,0,1,2.6-1.214,8.785,8.785,0,0,1,2.881-.465A4.912,4.912,0,0,1,33,39.217,6.288,6.288,0,0,1,34.3,43.6v7.338H31.2l-.258-1.318h-.1a8.22,8.22,0,0,1-1.731,1.176A4.388,4.388,0,0,1,27.116,51.246ZM28.409,48.3a2.077,2.077,0,0,0,1.111-.285,5.388,5.388,0,0,0,.982-.8V44.967a6.9,6.9,0,0,0-2.791.828,1.562,1.562,0,0,0-.775,1.292,1.065,1.065,0,0,0,.4.917A1.752,1.752,0,0,0,28.409,48.3Z" transform="translate(-8.563 -32.279)" fill="#ec651d"/>
      <path id="Контур_1800" data-name="Контур 1800" d="M43.091,50.937V38.119h3.1l.258,2.249h.1a4.949,4.949,0,0,1,1.679-1.939A3.652,3.652,0,0,1,50.2,37.81a5.041,5.041,0,0,1,.891.064,2.784,2.784,0,0,1,.633.194L51.1,41.35a6.273,6.273,0,0,0-.672-.156,4.545,4.545,0,0,0-.723-.05,2.76,2.76,0,0,0-1.512.516,3.737,3.737,0,0,0-1.306,1.835v7.442Z" transform="translate(-14.15 -32.279)" fill="#ec651d"/>
      <path id="Контур_1801" data-name="Контур 1801" d="M59.184,34.058a2.268,2.268,0,0,1-1.576-.555,1.834,1.834,0,0,1-.62-1.434,1.8,1.8,0,0,1,.62-1.421,2.579,2.579,0,0,1,3.166,0,1.818,1.818,0,0,1,.607,1.421,1.856,1.856,0,0,1-.607,1.434A2.262,2.262,0,0,1,59.184,34.058ZM57.3,48.762V35.945h3.8V48.762Z" transform="translate(-18.071 -30.105)" fill="#ec651d"/>
      <path id="Контур_1802" data-name="Контур 1802" d="M67.354,50.937V38.119h3.1l.258,1.628h.1a10.279,10.279,0,0,1,1.809-1.356,4.421,4.421,0,0,1,2.3-.581,3.424,3.424,0,0,1,3.036,1.37,6.625,6.625,0,0,1,.943,3.8v7.959h-3.8V43.468a3.475,3.475,0,0,0-.375-1.912,1.387,1.387,0,0,0-1.2-.515,2.3,2.3,0,0,0-1.24.322,7.3,7.3,0,0,0-1.137.918v8.656Z" transform="translate(-20.997 -32.279)" fill="#ec651d"/>
    </g>
  </g>
  <rect id="Прямоугольник_191" data-name="Прямоугольник 191" width="6.46" height="24.405" transform="translate(125.691 4.568) rotate(-45)" fill="url(#linear-gradient)"/>
  <path id="Вычитание_1" data-name="Вычитание 1" d="M200,38.942h0V15.656l6.46,6.46V38.942H200Z" transform="translate(-58.428 -4.418)" fill="url(#linear-gradient-2)"/>
  <rect id="Прямоугольник_196" data-name="Прямоугольник 196" width="12.921" height="6.46" transform="translate(135.112 33.807)" fill="url(#linear-gradient-3)"/>
  <rect id="Прямоугольник_193" data-name="Прямоугольник 193" width="6.46" height="12.921" transform="translate(100.82 11.166) rotate(-45)" fill="url(#linear-gradient-4)"/>
  <path id="Вычитание_2" data-name="Вычитание 2" d="M155.924,22.121,171.681,6.364l4.568,4.568L165.06,22.121Z" transform="translate(-45.99 -1.796)" fill="url(#linear-gradient-5)"/>
  <path id="Вычитание_3" data-name="Вычитание 3" d="M139.605,24.715h-9.136l9.159-9.159,4.568,4.568L139.6,24.718Z" transform="translate(-38.807 -4.39)" fill="url(#linear-gradient-6)"/>
</svg>
