<svg xmlns="http://www.w3.org/2000/svg" width="398" height="81.873" viewBox="0 0 398 81.873">
  <g id="logo_serptop" transform="translate(0.237 0.479)">
    <circle id="yellow" cx="40.937" cy="40.937" r="40.937" transform="translate(278.781 -0.479)" fill="#ffea05"/>
    <path id="black" d="M-8872.266-645.441a14.131,14.131,0,0,1-4.352-10.99,14.13,14.13,0,0,1,4.387-10.955,18.563,18.563,0,0,1,23.023,0v-.034a14.152,14.152,0,0,1,4.32,10.99,14.142,14.142,0,0,1-4.359,10.99,18.609,18.609,0,0,1-11.5,3.973A18.636,18.636,0,0,1-8872.266-645.441Zm-302.582,2.971a15.145,15.145,0,0,1-5.629-4.09l4.465-5.113a11.565,11.565,0,0,0,8.4,3.238,6.836,6.836,0,0,0,3.41-.682,2.042,2.042,0,0,0,1.227-1.874q0-2.18-4.777-2.625a30.549,30.549,0,0,1-4.5-.716,14.492,14.492,0,0,1-3.613-1.465,6.46,6.46,0,0,1-2.629-2.76,9.549,9.549,0,0,1-.887-4.363,7.158,7.158,0,0,1,3.414-6.476,15.569,15.569,0,0,1,8.492-2.215,16.836,16.836,0,0,1,10.6,3.476l-3.984,4.942a10.9,10.9,0,0,0-6.824-1.977,6.477,6.477,0,0,0-2.559.682,1.707,1.707,0,0,0-1.125,1.6,1.774,1.774,0,0,0,1.09,1.806,13.433,13.433,0,0,0,3.449.75,22.42,22.42,0,0,1,4.262.852,16.172,16.172,0,0,1,3.652,1.67,7.552,7.552,0,0,1,2.727,2.829,8.516,8.516,0,0,1,.992,4.159,7.858,7.858,0,0,1-1.844,5.283,10.23,10.23,0,0,1-4.609,3.1,20.038,20.038,0,0,1-6.105.955c-.246.01-.5.014-.766.014A20.5,20.5,0,0,1-9174.848-642.47Zm367.094.075v-28.737h13.82a11.383,11.383,0,0,1,8.473,3.011,10.3,10.3,0,0,1,2.98,7.458,10.3,10.3,0,0,1-2.98,7.525,11.65,11.65,0,0,1-8.473,2.977h-5.758v7.766Zm8.063-14.607h5.766a3.152,3.152,0,0,0,2.473-.992,3.669,3.669,0,0,0,.875-2.531,3.83,3.83,0,0,0-.875-2.566,3.109,3.109,0,0,0-2.473-1.06h-5.766Zm-127.98-7.345h-8.344v-6.808h24.816v6.808h-8.437v21.918l-8.035.034Zm-67.719,21.953v-28.737h13.82a11.383,11.383,0,0,1,8.473,3.011,10.315,10.315,0,0,1,2.984,7.458,10.3,10.3,0,0,1-2.984,7.525,11.65,11.65,0,0,1-8.473,2.977h-5.758v7.766Zm8.066-14.607h5.762a3.147,3.147,0,0,0,2.473-.992,3.651,3.651,0,0,0,.875-2.531,3.83,3.83,0,0,0-.875-2.566,3.11,3.11,0,0,0-2.473-1.06h-5.762ZM-9040.91-642.4l-6.793-9.284h-2.82v9.284h-7.953v-28.74h13.93a11.211,11.211,0,0,1,8.164,2.867,9.4,9.4,0,0,1,2.918,7,9.19,9.19,0,0,1-1.328,5.018,10.167,10.167,0,0,1-4.719,3.618l7.477,9.763v.478Zm-9.48-15.463h6.082a2.74,2.74,0,0,0,2.277-.956,3.647,3.647,0,0,0,.785-2.355,4,4,0,0,0-.812-2.526,2.79,2.79,0,0,0-2.449-.99h-5.883Zm-68.156,15.463v-28.76h22.379v6.856h-14.387v4.114h13.668v6.616h-13.668v4.354l14.969-.035v6.856Z" transform="translate(9180.239 696.886)" fill="#262626"/>
    <path id="black-2" data-name="black" d="M-7866.1-644.675a14.128,14.128,0,0,1-4.355-10.99,14.127,14.127,0,0,1,4.391-10.955,18.565,18.565,0,0,1,23.025,0v-.034a14.155,14.155,0,0,1,4.316,10.99,14.142,14.142,0,0,1-4.352,10.99,18.636,18.636,0,0,1-11.514,3.973A18.637,18.637,0,0,1-7866.1-644.675Z" transform="translate(8174.074 696.119)"/>
  </g>
</svg>
