<svg xmlns="http://www.w3.org/2000/svg" width="174" height="68" viewBox="0 0 174 68">
  <g id="case_02" transform="translate(-1368 -1878)">
    <rect id="Прямоугольник_21260" data-name="Прямоугольник 21260" width="174" height="68" transform="translate(1368 1878)" opacity="0"/>
    <path id="tild6463-3636-4665-a662-633837353237__monacologowhite" d="M86.907,42.679c-.166.331-.331.5-.5.828a5.807,5.807,0,0,0-3.81-1.16,6.862,6.862,0,0,0-3.81.994c-.166-.331-.331-.5-.5-.828a8.025,8.025,0,0,1,4.307-1.16,10.052,10.052,0,0,1,4.307,1.325m74.046,19.05a19,19,0,0,1-1.16,6.626,7.991,7.991,0,0,1-3.313,3.976,9.057,9.057,0,0,1-4.8,1.325,8.677,8.677,0,0,1-6.957-3.147,14.949,14.949,0,0,1-2.319-8.779c0-3.81.828-6.792,2.485-8.779a8.345,8.345,0,0,1,6.792-3.147,8.213,8.213,0,0,1,6.957,3.147C160.124,54.772,160.953,57.754,160.953,61.729Zm-1.988,0c0-6.792-2.485-10.1-7.289-10.1s-7.123,3.479-7.123,10.436c0,6.626,2.485,9.939,7.289,9.939C156.48,71.834,158.965,68.355,158.965,61.729Zm-23.357,6.626h.5L135.443,72c-1.325.5-2.65.828-3.81,1.16a13,13,0,0,1-3.644.331q-5.218,0-7.951-2.982c-1.988-1.988-2.982-4.8-2.982-8.614s1.16-6.626,3.147-8.614A11.143,11.143,0,0,1,128.32,50.3a23.579,23.579,0,0,1,7.454,1.325c-.166,1.822-.166,2.816-.166,3.147V56.1a8.751,8.751,0,0,1-.166,2.153h-.331c-.994-4.307-3.313-6.46-7.289-6.46a8.033,8.033,0,0,0-6.46,2.65c-1.491,1.657-2.319,4.307-2.319,7.62a10.756,10.756,0,0,0,2.153,7.123A8.382,8.382,0,0,0,127.988,72a9.863,9.863,0,0,0,4.473-.994A8.6,8.6,0,0,0,135.608,68.355ZM94.2,65.871a21.565,21.565,0,0,0-1.325,2.816,4.319,4.319,0,0,0-.5,1.822A2.382,2.382,0,0,0,94.2,72.828v.5H92.87c-.828,0-1.657-.166-2.153-.166a11,11,0,0,0-2.153.166c-.5,0-.994.166-1.325.166v-.5c1.657-.828,2.982-2.485,4.141-4.97L98.5,54.275a5.374,5.374,0,0,0-2.153-2.485,7.079,7.079,0,0,0-3.313-.994v-.5h.828a19.152,19.152,0,0,1,2.816.166c1.325,0,1.988.166,2.485.166l10.767,22.363c-1.325,0-2.982,0-4.97.166v-.331a1.505,1.505,0,0,0,1.491-1.657,7.141,7.141,0,0,0-1.16-3.313l-.828-1.988Zm5.3-10.1-4.473,8.448h8.448C102.147,61.4,100.822,58.748,99.5,55.766ZM62.722,50.631,84.754,71.337V73.49h0L66.7,56.594V66.7a9.218,9.218,0,0,0,.828,4.473,3.907,3.907,0,0,0,2.65,1.657v.5c-2.153-.166-3.644-.331-4.473-.331s-2.153.166-3.81.331v-.331a2.872,2.872,0,0,0,2.485-1.657,13.721,13.721,0,0,0,.663-4.638V55.435l-.663-.663a16.324,16.324,0,0,0-5.466-3.479v-.828Zm-9.111,11.1c0-6.792-2.485-10.1-7.454-10.1-4.8,0-7.289,3.479-7.289,10.436,0,6.626,2.485,9.939,7.289,9.939C51.292,71.834,53.611,68.355,53.611,61.729Zm1.988,0a19,19,0,0,1-1.16,6.626,7.992,7.992,0,0,1-3.313,3.976,8.3,8.3,0,0,1-4.97,1.325,8.345,8.345,0,0,1-6.792-3.147c-1.657-2.153-2.485-4.97-2.485-8.779s.828-6.792,2.485-8.779a9.081,9.081,0,0,1,13.749,0C54.771,54.772,55.6,57.754,55.6,61.729ZM6.235,50.631l9.773,20.706-.994,1.988L6.235,54.441,5.573,67.2v1.657c0,2.485.994,3.976,2.982,4.141v.5h-.5c-1.491,0-2.65-.166-3.147-.166a35.326,35.326,0,0,0-3.644.166v-.5c1.822-.5,2.65-2.319,2.982-5.632l.5-14.577A7.148,7.148,0,0,0,1.1,50.631v-.5a28.077,28.077,0,0,0,3.81.166ZM26.776,72.994l-.994-22.363h.828a22.855,22.855,0,0,0,4.307-.331v.331A4.1,4.1,0,0,0,28.6,51.956a3.9,3.9,0,0,0-.828,2.65v2.319L28.1,67.2a11.242,11.242,0,0,0,.828,4.141,3.564,3.564,0,0,0,2.319,1.657v.5A17.118,17.118,0,0,0,26.776,72.994Zm11.43-20.375c-1.657,2.485-2.319,5.466-2.319,9.276a16.919,16.919,0,0,0,2.319,8.779C35.224,68.687,33.9,65.7,33.9,61.564S35.39,54.275,38.206,52.618ZM54.274,70.84c1.657-2.153,2.319-5.135,2.319-9.442a14.949,14.949,0,0,0-2.319-8.779q4.473,2.485,4.473,8.945C58.581,65.7,57.256,68.852,54.274,70.84ZM83.76,68.852,64.378,50.631h2.485L82.269,65.374V57.091a8.765,8.765,0,0,0-.331-3.313,2.724,2.724,0,0,0-1.325-1.988,4.3,4.3,0,0,0-2.319-.994v-.5h.828c1.822.166,3.147.166,3.81.166a31.039,31.039,0,0,0,4.473-.331v.5a4.252,4.252,0,0,0-1.988.828,4.934,4.934,0,0,0-1.16,1.822,12.339,12.339,0,0,0-.331,2.982L83.76,68.852Zm27,4.141L99.993,50.631h2.153c.331.828.663,1.657,1.16,2.816A14.477,14.477,0,0,0,104.3,55.6c0,.166,0,.166.166.5l4.97,10.436c1.822,3.644,3.644,5.8,5.466,6.626v.5A11.447,11.447,0,0,0,110.761,72.994Zm7.62-19.381c-1.657,2.153-2.319,4.8-2.319,8.283,0,3.976.994,7.123,2.982,9.111a7.406,7.406,0,0,1-3.644-3.479,10.512,10.512,0,0,1-1.325-5.632,14.238,14.238,0,0,1,.663-3.976,14.444,14.444,0,0,1,1.491-2.816A9.963,9.963,0,0,1,118.381,53.612Zm25.345-.994a17.485,17.485,0,0,0-2.319,9.276,16.842,16.842,0,0,0,2.153,8.779c-2.982-1.988-4.307-4.97-4.307-9.111C139.087,57.422,140.578,54.275,143.725,52.618Zm15.9,18.222c1.491-2.153,2.319-5.135,2.319-9.442,0-3.81-.663-6.626-2.319-8.779Q164.1,55.1,164.1,61.564C163.934,65.7,162.609,68.852,159.628,70.84ZM16.34,65.374l6.792-14.743h1.657l.994,22.363h-.828a11.735,11.735,0,0,0-2.319.166l-1.491.166v-.5c1.822-.5,2.65-1.988,2.65-4.638a10.226,10.226,0,0,0-.166-1.491l-.663-12.424L16.174,69.184,7.395,50.631H9.217ZM1.763,38.87h.166A1.8,1.8,0,0,1,3.75,37.544a1.553,1.553,0,0,1,1.491.828,2.531,2.531,0,0,0,1.657.663l63.941.331c.166-.331.331-.5.663-.5s.828.331.828.663a.607.607,0,0,1-.663.663c-.331,0-.5-.166-.663-.5l-64.107.5a2.578,2.578,0,0,0-1.491.5,1.74,1.74,0,0,1-1.491.828,1.938,1.938,0,0,1-1.822-1.325H1.928c-.166,0-.663-.331-.663-.663C.934,39.2,1.6,38.87,1.763,38.87Zm1.988,0a.783.783,0,0,0-.828.828c0,.5.331.663.828.663a.907.907,0,0,0,.828-.663A.783.783,0,0,0,3.75,38.87Zm114.133,45.72h.331a2.247,2.247,0,0,1,1.822-1.16,1.74,1.74,0,0,1,1.491.828,2.578,2.578,0,0,0,1.491.5l39.756.331c.166-.331.331-.5.663-.5a.663.663,0,1,1,0,1.325c-.331,0-.5-.166-.663-.5l-39.756.331a1.786,1.786,0,0,0-1.491.5,1.615,1.615,0,0,1-1.491.663,2.11,2.11,0,0,1-1.822-1.325c-.166,0,0,.166-.331.166a.713.713,0,0,1-.663-.663C117.221,84.755,117.552,84.589,117.884,84.589Zm1.988-.166a.607.607,0,0,0-.663.663.713.713,0,0,0,.663.663.7.7,0,0,0,.663-.663C120.7,84.92,120.368,84.423,119.871,84.423ZM163.437,38.87h-.331a2.11,2.11,0,0,0-1.822-1.325,1.74,1.74,0,0,0-1.491.828,1.819,1.819,0,0,1-1.491.663l-63.941.331c-.166-.331-.331-.5-.663-.5a.713.713,0,0,0-.663.663.607.607,0,0,0,.663.663c.331,0,.5-.166.663-.5l63.941.5a2.578,2.578,0,0,1,1.491.5,1.74,1.74,0,0,0,1.491.828,2.11,2.11,0,0,0,1.822-1.325h.331a.713.713,0,0,0,.663-.663C163.934,39.2,163.6,38.87,163.437,38.87Zm-2.153,0c.5,0,.663.331.663.828a.607.607,0,0,1-.663.663.7.7,0,0,1-.663-.663A.667.667,0,0,1,161.284,38.87ZM47.316,84.589h-.166a1.864,1.864,0,0,0-1.822-1.16,2.208,2.208,0,0,0-1.657.663,2.578,2.578,0,0,1-1.491.5L2.425,84.92c0-.331-.331-.5-.663-.5a.663.663,0,0,0,0,1.325c.331,0,.663-.166.663-.5l39.756.331a1.786,1.786,0,0,1,1.491.5,1.615,1.615,0,0,0,1.491.663,1.938,1.938,0,0,0,1.822-1.325.162.162,0,0,0,.166.166c.166,0,.663-.331.663-.663C47.979,84.755,47.482,84.589,47.316,84.589Zm-1.988-.166a.679.679,0,1,1,0,1.325.679.679,0,1,1,0-1.325Zm67.917,1.491a.955.955,0,0,1-.994.994c-.828,0-1.16-.828-1.16-1.657s.331-1.491,1.16-1.491c.331,0,.828,0,.994.828h.5a1.516,1.516,0,0,0-1.657-1.325,1.859,1.859,0,0,0-1.822,1.988c0,1.988,1.325,1.988,1.822,1.988a1.36,1.36,0,0,0,1.491-1.491l-.331.166Zm-5.963-.828V83.429h-.663v3.644h.663V85.252l1.657,1.822h.663l-1.822-1.988,1.822-1.657h-.663Zm-4.8,0c0-.5.166-1.325,1.16-1.325.828,0,.994.663.994,1.325Zm2.319.994c0,.5-.5.663-.994.663a1.174,1.174,0,0,1-1.16-1.325h2.816v-.166c0-.828-.331-1.988-1.657-1.988a1.991,1.991,0,0,0,.166,3.976,1.516,1.516,0,0,0,1.657-1.325l-.828.166Zm-7.62.994c1.325.331,1.491-.994,1.491-2.319v-.994h1.325v3.313h.663V83.429H98.171v1.325c0,.994,0,1.988-.828,1.822A.818.818,0,0,0,97.177,87.074ZM93.7,83.926h1.988v3.147h.663V83.429H93.2v3.644h.5V83.926Zm-4.473,3.147h.5l1.325-2.982h0v2.982h.663V83.429h-.828l-1.325,2.982-1.325-2.982H87.4v3.644h.663V84.092h0Zm-6.295-1.822c0-1.491.828-1.657,1.16-1.657s1.16,0,1.16,1.657c0,1.491-.828,1.491-1.16,1.491S82.931,86.743,82.931,85.252Zm-.5,0a1.829,1.829,0,1,0,1.822-1.988A1.777,1.777,0,0,0,82.434,85.252Zm-3.147-.166V83.429h-.663v3.644h.663V85.252l1.657,1.822h.828L79.95,85.086l1.657-1.657h-.828ZM73.655,82.1c0,.331-.331.5-.663.5h-.331a.578.578,0,0,0-.331-.166.513.513,0,0,1-.166-.331h-.5v.166a1.1,1.1,0,0,0,1.16.828h.331a1.474,1.474,0,0,0,.994-.994Zm-1.822,4.307V83.6H71.17v3.479H72l1.988-2.982v2.982h.663V83.429h-.828Zm-4.638-1.16c0-1.491.828-1.657,1.16-1.657s1.16,0,1.16,1.657c0,1.491-.828,1.491-1.16,1.491S67.195,86.743,67.195,85.252Zm-.828,0a1.829,1.829,0,1,0,1.822-1.988A1.777,1.777,0,0,0,66.366,85.252Zm-4.638,1.822c1.325.331,1.491-.994,1.491-2.319v-.994h1.325v3.313h.663V83.429H62.722v1.325c0,.994,0,1.988-.828,1.822A.818.818,0,0,0,61.728,87.074Zm-3.644-.663V83.6h-.828v3.479h.828l1.988-2.982v2.982h.663V83.429h-.828Zm-4.473.663h.663V85.252l1.491,1.822h.828l-1.657-1.822,1.657-1.822H55.6l-1.325,1.657V83.429h-.663v1.657L52.12,83.429h-.828l1.491,1.822-1.657,1.822h.828l1.491-1.822.166,1.822Zm32.8-48.867h0a1.293,1.293,0,0,0-.663.663,1.307,1.307,0,0,0,1.325,1.325,1.265,1.265,0,0,0,.828-.331.911.911,0,0,1-.5-.828,1.069,1.069,0,0,1,.994-.994.758.758,0,0,1,.828.663.928.928,0,0,1,.994-.828.609.609,0,0,1,.5.166l-1.16.994A16.814,16.814,0,0,0,87.4,42.017a9.057,9.057,0,0,0-4.8-1.325,9.983,9.983,0,0,0-4.8,1.325,33.591,33.591,0,0,0-2.153-2.982l-1.16-1.16a.609.609,0,0,0,.5-.166,1.05,1.05,0,0,1,.994.828c0-.5.5-.663.828-.663a1.069,1.069,0,0,1,.994.994,1.033,1.033,0,0,1-.5.828.912.912,0,0,0,.828.331A1.307,1.307,0,0,0,79.453,38.7a1.293,1.293,0,0,0-.663-.663h0a.911.911,0,0,1-.5-.828.994.994,0,1,1,1.988,0v1.325c.331.166.5.331.828.331a1.307,1.307,0,0,0,1.325-1.325v-.166a.609.609,0,0,1-.5.166.994.994,0,1,1,0-1.988h.331a1.256,1.256,0,0,1-.331-.663,1.069,1.069,0,0,1,.994-.994h0a1.069,1.069,0,0,1,.994.994c0,.331,0,.5-.331.663h.331a1.069,1.069,0,0,1,.994.994.955.955,0,0,1-.994.994c-.166,0-.5,0-.5-.166v.166a1.307,1.307,0,0,0,1.325,1.325.912.912,0,0,0,.828-.331V37.213a.994.994,0,1,1,1.988,0A5.285,5.285,0,0,1,86.41,38.207Z" transform="translate(1372.4 1851.43)"/>
  </g>
</svg>
