<svg xmlns="http://www.w3.org/2000/svg" width="174" height="68.035" viewBox="0 0 174 68.035">
  <g id="case_01" transform="translate(-1368 -1878)">
    <rect id="Прямоугольник_21260" data-name="Прямоугольник 21260" width="174" height="68" transform="translate(1368 1878)" opacity="0"/>
    <path id="Объединение_43" data-name="Объединение 43" d="M8351.955,2324.019a3.733,3.733,0,0,1-3.246-4.965,3.4,3.4,0,0,1,3.051-2.314,3.655,3.655,0,0,1,3.59,1.558c-.35.264-.707.532-1.117.844a2.478,2.478,0,0,0-2.2-1.089,2.092,2.092,0,0,0-1.523.788,2.271,2.271,0,0,0,.484,3.362c1,.719,2.316.317,3.352-1.059l1.061.811a3.5,3.5,0,0,1-1.7,1.649,3.332,3.332,0,0,1-1.5.429A2.286,2.286,0,0,1,8351.955,2324.019Zm-21.115-1.956h-3.158c-.262.493-.557,1.048-.842,1.576h-1.561c1.146-2.262,2.271-4.475,3.408-6.723h1.139c1.135,2.22,2.27,4.435,3.422,6.695a2.791,2.791,0,0,1-.863.07,3.822,3.822,0,0,0-.654.022C8331.436,2323.155,8331.148,2322.628,8330.84,2322.063Zm-1.959-1.35a5.314,5.314,0,0,0,1.26-.066c-.293-.564-.553-1.061-.879-1.684-.328.626-.6,1.134-.912,1.743h.078C8328.586,2320.706,8328.738,2320.709,8328.881,2320.713Zm49.434,2.906v-6.7h5.5a3.792,3.792,0,0,1,.088,1.268h-4.121v1.242h2.428a1.619,1.619,0,0,1-.043,1.3h-2.346a9.281,9.281,0,0,0-.117,1.624c.545.027,1.063.023,1.57.02.236,0,.473,0,.709,0,.715,0,1.428,0,2.2,0v1.189a25.242,25.242,0,0,1-3.285.141C8379.893,2323.7,8378.91,2323.675,8378.314,2323.619Zm29.369-6.646a4.763,4.763,0,0,1,1.584-.048v6.675a2.548,2.548,0,0,1-.928.082,5,5,0,0,0-.656.01Zm-32.014,6.7c-.137-.008-.279-.017-.428-.011v-4.032c-.615.414-.812,1.006-1.189,1.458-.387.467-.723.977-1.137,1.55-.711-.984-1.377-1.908-2.166-3v3.978c-.289.023-.527.05-.764.061-.213.009-.424,0-.678,0v-6.733h1.131c.791,1.066,1.605,2.164,2.473,3.331.865-1.152,1.689-2.244,2.523-3.35h1.014a.745.745,0,0,1,.068.074.163.163,0,0,1,.033.079c0,2.154,0,4.309,0,6.5a1.294,1.294,0,0,1-.57.11C8375.883,2323.689,8375.777,2323.683,8375.67,2323.676Zm-57.668-.037v-6.627a40.594,40.594,0,0,1,6.018-.083,46.919,46.919,0,0,1,.055,6.707h-1.234a20.755,20.755,0,0,1-.057-2.68c-.018-.878,0-1.756,0-2.682a3.422,3.422,0,0,0-1.082-.079c-.164.005-.326.01-.486.005-.494-.017-.99,0-1.6,0v5.405a2.8,2.8,0,0,1-.727.085C8318.594,2323.687,8318.307,2323.657,8318,2323.639Zm16.365.012a55.247,55.247,0,0,1-.062-6.75c1.482,0,2.914-.041,4.34.013a2.115,2.115,0,0,1,.057,4.207c-.49.056-.98.111-1.475.136-.461.023-.928,0-1.453,0v2.323a2.524,2.524,0,0,1-.732.1C8334.811,2323.684,8334.588,2323.663,8334.367,2323.651Zm1.4-5.341v1.535c.918,0,1.754.019,2.586-.008a.73.73,0,0,0,.756-.749.794.794,0,0,0-.605-.888,3.429,3.429,0,0,0-.574-.03A14.714,14.714,0,0,0,8335.764,2318.31Zm65.006,5.343v-6.695a5.312,5.312,0,0,1,1.432-.046v2.34c.328.021.6.036.861.054.709.046,1.426.055,2.127.148a1.992,1.992,0,0,1,1.848,1.938,2.133,2.133,0,0,1-1.387,2.138,1.286,1.286,0,0,1-.439.118c-.8.005-1.605.006-2.416.006Zm2.252-2.929c-.264,0-.529.03-.781.046v1.615c.865,0,1.637.014,2.408,0,.652-.014.955-.309.943-.857s-.312-.789-.994-.8c-.236,0-.479-.007-.717-.007C8403.594,2320.716,8403.309,2320.719,8403.021,2320.724Zm-60.186,2.927a2.527,2.527,0,0,1,.559-1.125,1.381,1.381,0,0,0,.01-1.808c-.738-1.151-1.41-2.342-2.109-3.516-.059-.1-.105-.2-.184-.357a2.989,2.989,0,0,1,1.316-.065.907.907,0,0,1,.555.407c.42.634.795,1.3,1.184,1.945.174.282.35.562.586.945.543-.912,1.07-1.707,1.5-2.552a1.2,1.2,0,0,1,1.385-.771,6.087,6.087,0,0,0,.713,0c-1.385,2.39-2.689,4.644-3.992,6.894Zm13.2,0a53.053,53.053,0,0,1,3.32-6.733h1.045c1.229,2.138,2.221,4.443,3.459,6.715h-1.6c-.268-.494-.553-1.022-.854-1.575h-3.111q-.41.776-.846,1.594Zm3.545-2.934a4.024,4.024,0,0,0,1.1-.073c-.26-.543-.492-1.023-.814-1.693a4.916,4.916,0,0,0-.732,1.761h.1C8359.355,2320.708,8359.469,2320.711,8359.582,2320.714Zm30.3,2.931v-2.715c-.654,0-1.24.022-1.82-.007a7.913,7.913,0,0,1-1.283-.175,1.721,1.721,0,0,1-1.385-1.626,19.054,19.054,0,0,1-.018-2.195h1.445c.006.481.006.957.018,1.433.025.905.367,1.242,1.307,1.274.529.018,1.057,0,1.637,0a26.454,26.454,0,0,0,.117-2.662,3.672,3.672,0,0,1,1.381-.055v6.724Zm5.416-.014v-5.384a6.484,6.484,0,0,0-1.252-.047,5.046,5.046,0,0,1-1.369-.085v-1.175h6.678c.17.348.016.744.113,1.161a6.1,6.1,0,0,1-1.486.1,7.727,7.727,0,0,0-1.193.04v5.395Zm-26.7-13.469c-1.186,0-2.373,0-3.559-.024-2.926-.055-5.855-.049-8.777-.211-2.021-.113-4.043-.087-6.064-.147-2.334-.069-4.668-.117-7-.2a8.8,8.8,0,0,1-1.547-.241c2.5-.1,5.008-.087,7.568-.27-.291-.189-.592-.369-.873-.573-.621-.453-1.24-.915-1.85-1.382a2.056,2.056,0,0,0-1.363-.445c-1.686.036-3.373.015-5.059.013-.984,0-1-.014-1.225-1.024-.227-.012-.467-.035-.705-.035q-5.9,0-11.8,0c-1.1,0-1.09,0-.939-1.041a3.4,3.4,0,0,1,3.191-2.814c.463-.04.932-.006,1.406-.006a11.682,11.682,0,0,1,.66-1.675,4.242,4.242,0,0,1,6.4-1.125c.113.092.227.191.377.319.211-.24.383-.439.541-.619-3.7-7.732-4-15.513-.309-23.226s10-12.558,18.58-14.841c-.75-1.081-1.455-2.1-2.146-3.091.072-.421.426-.481.7-.566a15.476,15.476,0,0,1,1.883-.472,18.74,18.74,0,0,1,3.865-.463,31.547,31.547,0,0,1,3.4.433c.818.113,1.623.319,2.428.482.215.842-.678,1.183-.727,1.922.758-.092,1.477-.227,2.2-.256a10.806,10.806,0,0,1,5.869,1.441c.148.083.234.264.334.382-.1.338-.336.353-.6.344a10.547,10.547,0,0,0-2.912.249,27.8,27.8,0,0,1,17.4,15.031c.424,0,.855-.017,1.283,0,1.242.059,2.482.134,3.725.194.313.015.545.109.629.427s-.041.516-.443.694a5.981,5.981,0,0,1-.959.336,9.863,9.863,0,0,1-3.373.578,26.248,26.248,0,0,1-2.039,21.306l2.055,1.576a3.924,3.924,0,0,1,2.721,0,3.174,3.174,0,0,1,1.875,1.891,3.069,3.069,0,0,1,4.053.771,3.278,3.278,0,0,1,3.457.866,3.114,3.114,0,0,1,.689,3.382,1.387,1.387,0,0,1-1.033.269h-.1q-4.729,0-9.453.013c-4.277,0-8.553.019-12.83,0a2.194,2.194,0,0,0-1.371.429,6.851,6.851,0,0,0-.961.72,2.486,2.486,0,0,1-1.945.669c-1.584.007-3.164.011-4.75.011Zm-18.408-1.534a7.521,7.521,0,0,0,1.891.42c1.363.1,2.732.135,4.1.167,3.176.075,6.352.134,9.529.2.75.015,1.5.015,2.246.015q3.091,0,6.182-.01a1.507,1.507,0,0,0,1.061-.26c.334-.292.658-.6,1.033-.945-1.961-.072-3.82-.167-5.682-.2-2.246-.044-4.5-.038-6.742-.056-.221,0-.443-.026-.664-.038a17.637,17.637,0,0,1,2.611-.136c.623,0,1.246-.01,1.871-.026,1.117-.028,2.234-.081,3.352-.091.275,0,.551.022.826.045s.563.049.844.045c.959-.013,1.926-.149,2.881-.094a4.63,4.63,0,0,0,3.3-.931h-31.617A11.154,11.154,0,0,0,8350.193,2308.628Zm31.318-2.448a3.241,3.241,0,0,1-1.158.729,2.25,2.25,0,0,0-1.168.647c2.814.161,13.73.092,14.412-.086a2.134,2.134,0,0,0-2.742-1.6c-.232.059-.467.1-.615.133-.461-.594-.861-1.109-1.25-1.608.557.192.557.192,1.359,1.241a4.052,4.052,0,0,1,2.41.089,3.549,3.549,0,0,1,1.479,1.845h6.6a.151.151,0,0,0,.078-.041.69.69,0,0,0,.064-.066,2.383,2.383,0,0,0-.645-2.323,2.688,2.688,0,0,0-3.236-.406c-.209-.279-.365-.5-.531-.715a1.565,1.565,0,0,0-1.361-.644,2.462,2.462,0,0,0-1.482.43c-.209.153-.373.443-.779.293a4.321,4.321,0,0,1-.258-.707,2.533,2.533,0,0,0-3.064-1.683l-1.291.287a3.686,3.686,0,0,0-2-1.616A27.608,27.608,0,0,1,8381.512,2306.18Zm-1.469-.192a1.223,1.223,0,0,0,.98-.406,26.028,26.028,0,0,0,5.7-7.686,26.831,26.831,0,0,0,2.545-9.937,39.158,39.158,0,0,0-.2-4.809c0-.08-.084-.157-.145-.263a1.969,1.969,0,0,1-1.98-.289,1.115,1.115,0,0,0-.338-.144,4.453,4.453,0,0,0-3.58.422,3.014,3.014,0,0,0-1.453,1.465,25.942,25.942,0,0,1-1.637,2.638.73.73,0,0,1-.789.363c-.318-.07-.387-.373-.471-.63a1.644,1.644,0,0,1-.035-.451c0-.516-.035-1.036,0-1.549a8.043,8.043,0,0,1,.787-3.14,2.755,2.755,0,0,1,1.16-1.261.692.692,0,0,0,.293-.29,2.4,2.4,0,0,1,2.656-1.3c.148.032.3.043.424.062a1.394,1.394,0,0,0,.652-1.1c.033-.893.586-1.275,1.4-1.442.287-.059.568-.144.889-.227-.172-.364-.289-.643-.434-.908-.236-.427-.484-.846-.727-1.267a25.366,25.366,0,0,0-7.189-7.9,26.913,26.913,0,0,0-9.523-4.377,2.262,2.262,0,0,0-1.1-.037,20.442,20.442,0,0,0-1.986.8,21.979,21.979,0,0,1,6.463,4.362c1.5,1.394,4.25,4.831,4.477,6.032-.021,0-.053.011-.062,0a1.061,1.061,0,0,1-.184-.2,24.087,24.087,0,0,0-4.8-5.752,24.746,24.746,0,0,0-6.389-4.034,1.323,1.323,0,0,0-.613-.146c-.562.051-1.121.153-1.645.229,8.4,4.7,13.113,11.665,13.721,21.162-.016,9.469-4.26,16.7-12.441,22.005,1.352,0,2.5-.008,3.654.006a1.254,1.254,0,0,0,.764-.274,26.7,26.7,0,0,0,5.094-4.379,24.666,24.666,0,0,0,3.914-5.83c.424-.917.826-1.844,1.293-2.891a8.868,8.868,0,0,1-1.033,3.081,26.05,26.05,0,0,1-8.463,10.286c1.215,0,2.242.009,3.264-.009a1,1,0,0,0,.506-.193,19.762,19.762,0,0,0,5.7-5.928c.088-.142.188-.274.283-.411a17.9,17.9,0,0,1-5.109,6.541c.934,0,1.676.014,2.418-.01a.92.92,0,0,0,.484-.225,23.763,23.763,0,0,0,3.684-3.611,27.81,27.81,0,0,0,5.516-11.052,14.044,14.044,0,0,1-1.072,4.14,29.1,29.1,0,0,1-1.811,3.871,20.8,20.8,0,0,1-2.457,3.634c-.949,1.091-1.959,2.129-3,3.253.422,0,.813-.01,1.193-.01C8379.545,2305.968,8379.795,2305.973,8380.043,2305.988Zm-23.031-2.064a2.794,2.794,0,0,0-1.551.6,1.4,1.4,0,0,0-.625,1.377,1.119,1.119,0,0,0,.238.068c2.494,0,4.988.015,7.479,0a1.788,1.788,0,0,0,.867-.264c1.074-.659,2.166-1.3,3.176-2.048a18.708,18.708,0,0,0,2.99-2.713,2.729,2.729,0,0,0-3.334.841c-.4.474-.449.5-.992.192a2.185,2.185,0,0,0-1.947-.232,2.427,2.427,0,0,1-.537.056c-.131-.2-.221-.36-.326-.506a2.548,2.548,0,0,0-4.428.231c-.107.208-.256.4-.4.616-.219-.112-.383-.189-.541-.278a2.177,2.177,0,0,0-3.059,1.138c-.125.3-.156.738-.377.863a1.458,1.458,0,0,1-.746.086c-.117-.005-.232-.01-.344-.006-.1,0-.189,0-.281.011a2.651,2.651,0,0,0-2.244,1.993h4.191c.27-.583.354-1.236.963-1.623a2.293,2.293,0,0,1,1.279-.469A2.385,2.385,0,0,1,8357.012,2303.924Zm-16.4-.742a2.638,2.638,0,0,0-.881,2.76h4.174c-.029-.3-.057-.561-.08-.823l.117-.025c.146.287.289.573.426.84h2.162c.045-.559-.451-1-.238-1.65.283.619.525,1.139.762,1.656h2.109a.9.9,0,0,0,.15-1.195c-.227-.463-.453-.927-.672-1.394a3.087,3.087,0,0,1-.137-.417l.119-.045c.35.636.7,1.274,1.045,1.9.584-.468,1.174-.939,1.814-1.451-.217-.376-.484-.779-.691-1.209-.189-.4-.611-.705-.605-1.36.648.955,1.209,1.782,1.736,2.563l1.291-.12c.18-.394.355-.776.547-1.2-.457-.647-.918-1.3-1.381-1.961l.135-.1q.771.917,1.531,1.828c.824-.609.824-.609,2.354-.871-.41-.436-.787-.827-1.148-1.232a1.966,1.966,0,0,1-.219-.4,6.626,6.626,0,0,1,1.152.969l1.033,1.024c.576-.568,1.086-1.072,1.629-1.605-.344-.385-.67-.75-.994-1.114l.115-.11c.393.318.787.636,1.2.968.5-.613.961-1.176,1.451-1.775-.158-.137-.3-.252-.436-.383-.1-.1-.187-.228-.281-.343l.119-.094c.455.334.91.667,1.383,1.011-.432.565-.812,1.067-1.217,1.6a4.164,4.164,0,0,1,3.006,1.628,3.7,3.7,0,0,1,2.471.389,3.558,3.558,0,0,1,2.037-1.288,4.858,4.858,0,0,1,2.463.213l2.135-2.755a2.474,2.474,0,0,0-3.139-.605c-.184-.368-.344-.68-.5-.992l.121-.081.58.634a4.736,4.736,0,0,1,1.676-.176,4.1,4.1,0,0,1,1.5.763,22.979,22.979,0,0,0,2.283-4.623,1.77,1.77,0,0,0,.012-.606,3.814,3.814,0,0,0-1.635.58c-.369.233-.561.16-.73-.214-.049-.109-.057-.235-.1-.347a2.517,2.517,0,0,0-4.773.448c-.061.189-.129.375-.207.6a4.276,4.276,0,0,0-2.713-.6,3.076,3.076,0,0,0-2.23,1.588c.652-.179,1.113-.622,1.768-.3a2.081,2.081,0,0,0-1.578.752c-.357.471-.635,1-.986,1.564a5.423,5.423,0,0,0-6.5.069.862.862,0,0,1-.5-.67,2.354,2.354,0,0,0-.449-.875,2.309,2.309,0,0,0-3.674.228c-.182.266-.346.547-.514.811-2.469-1.022-4.73-.49-5.461,1.324a3.057,3.057,0,0,1,2.9-.088,1.577,1.577,0,0,1-.516-.06,2.594,2.594,0,0,0-2.869,1.362c-.16.305-.152.725-.58.883-.164-.094-.332-.174-.484-.279a3.5,3.5,0,0,0-4.828.943c-.566.887-.592.869-1.361.123a3.328,3.328,0,0,0-3.4-.922,2.945,2.945,0,0,0-2.072,1.86,2.8,2.8,0,0,1,3-.417c-.324,0-.506.015-.686,0a2.527,2.527,0,0,0-2.771,1.928,2.041,2.041,0,0,1-.234.443c-2.521-.586-4.521.428-4.377,2.2h12.691a3.913,3.913,0,0,1,2.176-2.882,4.359,4.359,0,0,1,3.8.049,2.987,2.987,0,0,1,2.359-1.476c.074-.012.168.082.467.238-1.607.066-2.107,1.1-2.617,2.167a4.7,4.7,0,0,0-2.283-.693A3.245,3.245,0,0,0,8340.613,2303.182Zm-3.715-17.072a5.757,5.757,0,0,0,0,.757c.1.867.23,1.73.334,2.6.082.689.135,1.382.215,2.071.111.957.268,1.909.346,2.867a8.493,8.493,0,0,0,1.158,3.533l.752-.418c-.8-3.709-1.59-7.378-2.385-11.046a1.85,1.85,0,0,0-.182-.386Zm1.436-.133c1.146,3.832,2.3,7.662,3.438,11.442l1.381.441a1.338,1.338,0,0,0,0-1.2c-.891-2.053-1.717-4.131-2.568-6.2q-.935-2.264-1.881-4.523c-.037-.091-.146-.153-.26-.264C8338.385,2285.82,8338.313,2285.912,8338.334,2285.978Zm-.764-.005c.738,3.85,1.619,7.673,2.395,11.51l1.529-.133-3.572-11.44Zm1.494.026c1.475,3.6,2.941,7.2,4.428,10.843l.988-1.384c-.68-1.32-1.377-2.664-2.064-4.015a1.146,1.146,0,0,0-.758-.731c-.338-.081-.4-.365-.309-.653.061-.2.178-.334.047-.576-.742-1.353-1.449-2.721-2.168-4.085C8338.826,2285.557,8338.967,2285.761,8339.064,2286Zm5.641,9.314,1.2-.775c-.5-.819-.955-1.573-1.422-2.318-.668-1.067-.672-1.065-2.066-1.341C8343.205,2292.411,8343.939,2293.827,8344.705,2295.313Zm10.357-.879c.129.2.26.39.389.584.391-.207.742-.39,1.09-.575-.238-.266-.439-.49-.639-.714.166.067.387.09.486.209a1.229,1.229,0,0,0,1.266.339,3.42,3.42,0,0,1,.906-.109,6.592,6.592,0,0,1,2.3.581,1.892,1.892,0,0,0,.467.109l-.158-.387c.135-.185.273-.369.4-.557.33-.478.658-.958,1.014-1.478-.42-.219-.881-.444-1.324-.694a2.694,2.694,0,0,1-.426-.352v0c-.125,0-.275-.054-.367,0a1.4,1.4,0,0,1-1.484-.159,16.568,16.568,0,0,0-1.748-.853c-.711-.294-1.439-.552-2.176-.78-.268-.084-.625-.207-.83.289.574.375,1.166.749,1.748,1.142.529.36,1.043.742,1.564,1.115a7.029,7.029,0,0,1-.906-.4c-.781-.477-1.549-.976-2.311-1.481a.73.73,0,0,0-.686-.128c-.51.166-1.023.314-1.543.471l1.336,1.17c-.646-.048-.957-.616-1.455-.9a4.543,4.543,0,0,0-.607-.391c-.908-.331-.955-.389-.754-1.3a4.576,4.576,0,0,0-2.291.389c1.041.978,2.039,1.918,3.035,2.865a.571.571,0,0,1,.1.2.9.9,0,0,1,.5.2.923.923,0,0,0,.574.2c.051,0,.1,0,.148,0A2.763,2.763,0,0,1,8355.063,2294.434Zm-7.572-1.012a2.115,2.115,0,0,0,1.783,1.082,1.653,1.653,0,0,1,.367.16c.127-.191.24-.36.346-.514a20.724,20.724,0,0,0-3.6-3.828c0,.366.016.741,0,1.114a1.218,1.218,0,0,0,.316.906c.26.311.611.588.654,1.033C8347.41,2293.388,8347.477,2293.392,8347.49,2293.422Zm-1.393-.443a2.229,2.229,0,0,1-.6.362c.248.381.494.758.723,1.111l1.488-.251c-.141-.3-.258-.567-.377-.829l-1.029-1.029A1.847,1.847,0,0,1,8346.1,2292.979Zm-8.738,1.073a13.778,13.778,0,0,0-.2-2.935c-.029-.8-.209-1.6-.309-2.405-.084-.685-.135-1.375-.229-2.06a3.232,3.232,0,0,0-.312-.685A23.345,23.345,0,0,0,8337.359,2294.052Zm9.473-3.876q1.717,1.858,3.379,3.657l1.4-.8c-.051-.114-.1-.235-.156-.358-.359.008-.51-.3-.725-.492-.953-.865-1.9-1.745-2.846-2.624C8347.5,2289.822,8347.053,2289.814,8346.832,2290.176Zm3.264-8.027c.3.845.75,1.612.3,2.552-2.607.646-4.33,2.454-5.7,4.643a4.982,4.982,0,0,0-2.686.86l2.432.493,1.123,1.766c.5-.824.154-1.631.094-2.427a9.655,9.655,0,0,1,4.674-1.422,6.294,6.294,0,0,0,1.008-.128c.293-.059.574-.167.863-.255.012.768-.74,1.031-1.18,1.592a3.064,3.064,0,0,0,3.313-.976,16.94,16.94,0,0,1,4.7,1.758c.217.116.439.224.662.33.268.128.4-.042.574-.3-.16-.307-.346-.647-.52-.993a.757.757,0,0,1-.1-.581,2.228,2.228,0,0,0-.7-2.154,8.152,8.152,0,0,0-4.848-2.473,1.207,1.207,0,0,1-.91-.517,5.012,5.012,0,0,0-1.025-1.052,3.02,3.02,0,0,0-1.9-.724C8350.217,2282.144,8350.158,2282.145,8350.1,2282.149Zm12.814,10.135c.318-.152.645-.325.98-.468.371-.157.4-.5.52-.8.107-.261.23-.5-.031-.732.119-.066.314-.109.348-.2.186-.528.293-1.087.51-1.6.145-.338-.018-.559-.137-.819.313.064.361-.156.4-.367.119-.618.229-1.237.336-1.83a.659.659,0,0,0-.068-.1c-.047-.042-.09-.1-.145-.113q-6.161-1.4-12.322-2.787a1.966,1.966,0,0,0-.375-.025.13.13,0,0,0-.078.04c-.02.014-.025.04-.037.057a8.394,8.394,0,0,1,.711.837,1.1,1.1,0,0,0,.83.511,7.138,7.138,0,0,1,2.619.881,15.409,15.409,0,0,0,2.906,1.171c1.051.328,2.076.724,3.113,1.091-.447-.091-.9-.149-1.338-.277-.891-.263-1.771-.563-2.859-.915a4.766,4.766,0,0,1,1.539,2.543l1.158.671-1.236-.317a3.523,3.523,0,0,0,.158.747,2.188,2.188,0,0,1,.316,1.688c-.02.053.057.138.1.212Zm2.238-.775,1.793.394a3.079,3.079,0,0,1,2.973-2.191,3.355,3.355,0,0,1,3.168,1.851l2.143-.436a15.454,15.454,0,0,0,.748-3.334l-3.271-.881c1.121-.117,2.139.451,3.244.46a10.483,10.483,0,0,0,.242-3.068c-1.213-.35-2.461-.42-3.664-.713a8.228,8.228,0,0,1,2.018.117,10.472,10.472,0,0,0,1.66.142,14.743,14.743,0,0,0-.441-3.167l-4.191-.323c.682-.091,1.365-.047,2.041-.1a3.8,3.8,0,0,1,.867.061,3.01,3.01,0,0,0,1.316-.012c-.275-1.021-.539-2-.809-3h-4.17v-.056l4.023-.285a13.117,13.117,0,0,0-1.346-2.918,7.833,7.833,0,0,1-2.619.121l2.58-.432c-.6-.956-1.131-1.795-1.617-2.57a1.881,1.881,0,0,0-.781.078,1.251,1.251,0,0,1-1-.022l1.49-.449c-.705-.841-1.35-1.607-1.965-2.344l-1.377.357-.035-.119,1.15-.5-2.213-1.99c-.2.051-.318.078-.434.111s-.219.066-.449.137c.193-.229.3-.356.441-.521a23.648,23.648,0,0,0-8.051-4.072C8366.746,2270.537,8368.8,2280.438,8365.148,2291.509Zm-25.617-6.232c.373.727.723,1.466,1.125,2.178a11.337,11.337,0,0,0,1.205,2.129l.631-.4c-.279-.442-.516-.828-.762-1.209-.561-.867-1.117-1.736-1.693-2.593-.076-.114-.258-.161-.389-.239Zm.645-.346c.867,1.428,1.754,2.847,2.684,4.215l.822-.282c-1.07-1.374-2.09-2.686-3.117-3.99-.045-.055-.162-.054-.242-.079Zm.6-.4c1.039,1.494,2.17,2.921,3.414,4.477l.6-.669c-1.348-1.439-2.588-2.771-3.875-4.15C8340.838,2284.375,8340.752,2284.49,8340.779,2284.529Zm.6-.351q1.658,1.824,3.33,3.638c.053.055.152.067.264.112.125-.22.242-.42.348-.607a17.327,17.327,0,0,0-3.994-3.4C8341.357,2284.066,8341.346,2284.141,8341.379,2284.178Zm.2-.771c1.471,1.256,2.627,2.585,4.1,3.669.189-.207.336-.364.477-.518a.569.569,0,0,0-.1-.166c-1.291-1-2.582-1.995-3.883-2.978a.227.227,0,0,0-.137-.031C8341.932,2283.384,8341.783,2283.407,8341.576,2283.407Zm41.023-4.08a9.692,9.692,0,0,0-1.047.6l1.363.4a7.113,7.113,0,0,1-1.516.425,1.618,1.618,0,0,0-1.451,1.1,8.656,8.656,0,0,0-.7,4.688c0,.028.092.051.176.092l.414-.59a7.236,7.236,0,0,1,.287-2.614v2.038a19.235,19.235,0,0,0,1.236-1.969,1.934,1.934,0,0,1,.523-.615,7,7,0,0,1,1.209-.672,4.614,4.614,0,0,1,4.523.114c.533.333.982.157,1.461-.52a7.059,7.059,0,0,1-2.436-1.128,5.03,5.03,0,0,1,1.049-2.189,1.651,1.651,0,0,1,1.557-.791,9.93,9.93,0,0,0,3.4-.819,5.458,5.458,0,0,0-1.275-.234c-1.344-.03-2.684-.047-4.025-.018a6.564,6.564,0,0,0-1.453.269c-.338.087-.672.288-.678.667a2.966,2.966,0,0,1-.734,1.7l.855.526a.617.617,0,0,1-.445-.032c-.527-.167-1.051-.353-1.588-.48a1.086,1.086,0,0,0-.244-.027A1.229,1.229,0,0,0,8382.6,2279.327Zm-36.312,6.873c.041.033.115.024.223.042.137-.163.293-.342.443-.526.012-.016-.006-.055-.01-.083a20.72,20.72,0,0,0-4.666-2.715A51.06,51.06,0,0,0,8346.287,2286.2Zm-3.443-3.582c1.48.971,2.971,1.925,4.459,2.884.293-.18.541-.335.881-.546l-5.658-2.935C8342.7,2282.356,8342.73,2282.544,8342.844,2282.618Zm1.139-2.571c.693.148,1.393.267,2.082.425q5.537,1.271,11.068,2.557c2.746.643,5.49,1.309,8.24,1.959a2.262,2.262,0,0,0,.479,0,6,6,0,0,0,.15-2.316l-22.346-3.1C8343.547,2279.932,8343.771,2280,8343.982,2280.047Zm-1.16,1.769,5.668,2.976,1.219-.537c-2.33-.934-4.486-1.8-6.645-2.66h0C8343.035,2281.6,8342.971,2281.678,8342.822,2281.816Zm.375-.563c2.248.906,4.453,1.909,6.736,2.791.033-1.006.033-1.008-.818-1.288-1.75-.573-3.5-1.148-5.256-1.709a2.652,2.652,0,0,0-.605-.049Zm.084-.736c2.123.741,4.133,1.39,6.166,2,.1-.3.18-.519.268-.775-.076-.064-.1-.1-.125-.1-1.98-.459-3.957-.918-5.943-1.364h-.012C8343.57,2280.275,8343.467,2280.39,8343.281,2280.517Zm.377-1.506a.675.675,0,0,0,.438.319c.607.1,1.227.156,1.838.245,1.07.157,2.137.336,3.207.488,1.039.148,2.084.259,3.127.41,1.494.218,2.982.47,4.477.685,1.469.21,2.941.376,4.408.591s2.91.467,4.369.692a2.518,2.518,0,0,0,.535-.03v-2.315c-1.605-.076-3.119-.149-4.637-.218-.113-.006-.23-.005-.342-.005-.137,0-.271,0-.406-.008-1.533-.1-3.064-.234-4.6-.318-1.768-.1-3.541-.152-5.311-.226-.062,0-.125,0-.187,0-2.1-.118-4.2-.239-6.3-.351l-.072,0C8344.023,2278.962,8343.84,2279,8343.658,2279.011Zm43.754,1.506c.336.159.68.325,1.117.535a4.723,4.723,0,0,0-.533-2.046C8387.719,2279.582,8387.365,2279.935,8387.412,2280.517Zm-22.189-2.995c-.676.047-1.352.119-2.025.152-1.705.081-3.412.028-5.123.153-2.383.174-4.785.153-7.176.22q-3.36.094-6.717.2a2.646,2.646,0,0,0-.41.076l0,.219c.752.076,1.5.169,2.26.225,1.02.075,2.039.128,3.063.181,1.457.076,2.916.144,4.375.215q2.139.1,4.277.2c.063,0,.127.006.188.01,1.387.108,2.771.226,4.156.32.744.051,1.494.047,2.236.089.551.031,1.094.1,1.635.144a6.1,6.1,0,0,0-.3-2.387c-.113-.006-.234-.024-.363-.024Zm-10.549-1.251c-1.045.094-2.088.234-3.131.355-.613.07-1.225.135-1.84.212-.8.1-1.59.217-2.387.312-1.137.136-2.271.254-3.406.394-.1.013-.18.137-.375.3.367.021.605.055.842.047,1.8-.062,3.6.006,5.4-.143,2.1-.172,4.219-.075,6.328-.164,3.039-.128,6.088-.08,9.129-.224.146-.007.291-.032.533-.06-.158-.757-.3-1.45-.445-2.131-.5,0-.9-.035-1.3.007-.857.092-1.705.231-2.561.333-.7.084-1.412.133-2.117.212-.949.108-1.9.249-2.848.338a3.979,3.979,0,0,0-.855.286,1.119,1.119,0,0,1-.535-.025,2.038,2.038,0,0,0-.367-.048C8354.721,2276.268,8354.7,2276.269,8354.674,2276.271Zm-3.127-.956c-2.6.512-5.193,1.007-7.787,1.52-.064.013-.1.158-.2.323a26.175,26.175,0,0,0,3.955-.355c1.287-.149,2.59-.21,3.869-.4a33.011,33.011,0,0,0,3.844-.5c-.141-.484-.25-.875-.369-1.294C8353.7,2274.854,8352.623,2275.1,8351.547,2275.315Zm1.381-1.856c-2.936.919-5.906,1.74-8.863,2.6a5.836,5.836,0,0,0-.645.273l.061.272c3.715-.775,7.447-1.451,11.234-2.245-.125-.2-.2-.327-.287-.445a1.134,1.134,0,0,0-.945-.555A1.887,1.887,0,0,0,8352.928,2273.459Zm-2.34-.7c-1.635.634-3.279,1.241-4.914,1.87-.82.316-1.633.654-2.445.981l.07.317c1.113-.26,2.2-.613,3.3-.938,1.121-.332,2.252-.624,3.375-.946,1.107-.316,2.205-.647,3.354-.986a3.249,3.249,0,0,0-1.625-.547A3.056,3.056,0,0,0,8350.588,2272.756Zm5.813,1.554a2.132,2.132,0,0,0-.422,1.572l9.225-1.008a8.09,8.09,0,0,0-.7-2.212Zm-6.631-2.683c-1.551.76-3.1,1.532-4.648,2.291-.521.256-1.068.47-1.584.739-.217.113-.535.2-.486.613a5.171,5.171,0,0,0,.527-.139q3.278-1.259,6.551-2.527c.316-.122.721-.172.92-.395a1.483,1.483,0,0,1,.99-.381,3.588,3.588,0,0,0,2.615-1.707,1.66,1.66,0,0,0,.316-1.027C8353.191,2269.961,8351.477,2270.79,8349.77,2271.627Zm3.293.524a2.441,2.441,0,0,0,4.881.015,4.481,4.481,0,0,1-2.439-2.362A3.937,3.937,0,0,1,8353.063,2272.151Zm1.449-4.882q-5.815,3.493-11.643,6.97a1.21,1.21,0,0,0-.223.231.809.809,0,0,0,.625-.005c1.059-.5,2.111-1.009,3.166-1.519q3.993-1.933,7.984-3.874a2.988,2.988,0,0,0,.711-.418c.182-.161-.057-.592.369-.632.137-.014.215.089.293.191.09.12.184.24.381.175a.7.7,0,0,0-.2.739c.133.362.287.719.447,1.12,1.98-.85,3.98-1.5,5.975-2.34-.43-.641-.8-1.2-1.182-1.74-.035-.05-.154-.042-.24-.06-.02-.143.006-.321-.07-.424-.389-.518-.8-1.016-1.186-1.491-.383.177-.686.316-.984.456.242-.242.486-.482.764-.754-.381-.419-.754-.855-1.16-1.257a1.8,1.8,0,0,0-.551-.242c.008-.089.059-.2.02-.262a.911.911,0,0,0-1.076-.475c-.586.154-1.17.323-1.76.467a1.975,1.975,0,0,0-.855.486c-.381.342-.795.646-1.2.967l.793-1.049c-1.156.429-2.184.888-3.2,1.374a6.484,6.484,0,0,0-2.121,1.587,2.665,2.665,0,0,1-.469.35c.02.323-.26.461-.443.649q-2.871,2.937-5.748,5.868c-.137.142-.254.307-.381.463.334.277.5.046.68-.108q1.617-1.381,3.223-2.769,2.728-2.353,5.457-4.708a5.833,5.833,0,0,1,.611-.4,4.479,4.479,0,0,1-.486.63q-2.1,1.863-4.229,3.7c-.719.622-1.463,1.219-2.182,1.838q-1.154.992-2.283,2.008a1.516,1.516,0,0,0-.238.4.565.565,0,0,0,.467-.077q3.149-2.246,6.295-4.5,3.179-2.28,6.365-4.557a3.518,3.518,0,0,1,.656-.288,4.546,4.546,0,0,1-.461.445q-2.613,1.9-5.24,3.783-3.744,2.7-7.486,5.407a1.157,1.157,0,0,0-.213.324,1.935,1.935,0,0,0,.965-.283c3.469-2.062,6.928-4.138,10.4-6.19a5.026,5.026,0,0,1,1.789-.914A10.208,10.208,0,0,1,8354.512,2267.269Zm4.4,4.452c.367.245.92-.021.934.647-.342.074-.691.16-1.051.226a3.026,3.026,0,0,0-2.137,1.439,3.8,3.8,0,0,1,.441-.144q1.9-.372,3.795-.734c1.023-.195,2.053-.373,3.072-.577a1.88,1.88,0,0,0,.477-.265,7.655,7.655,0,0,0-.9-1.957Zm-11.477-6.012a25.974,25.974,0,0,0-5.35,4.906c-.4.5-.781,1.017-1.17,1.529-.166.221,0,.308.283.432a5.206,5.206,0,0,1,.377-.474q2.81-2.862,5.639-5.713a6.514,6.514,0,0,1,.674-.533l-.018-.363A3.54,3.54,0,0,0,8347.436,2265.708Zm9.2,4.74a3.551,3.551,0,0,0,1.715,1.2l5.225-1.533c-.377-.7-.7-1.3-1.07-1.984C8360.486,2268.971,8358.535,2269.6,8356.631,2270.448Zm4.758-8.574c.512.1.928.181,1.348.25a4.442,4.442,0,0,0,.645.059,8.387,8.387,0,0,0,3.146-.667,13.457,13.457,0,0,1,2.738-.823c.98-.149,1.945-.378,2.963-.581a8.732,8.732,0,0,0-4.748-.786,12.528,12.528,0,0,1-5.117-.212C8362.051,2260,8361.744,2260.871,8361.389,2261.874Zm-2.371-.827-.025.17,1.52.466a.641.641,0,0,0,.254-.81Zm.053-3.13a13.945,13.945,0,0,0-3.311.707q.686.978,1.293,1.85c.746-.1,1.414-.208,2.082-.283.705-.08,1.414-.132,2.15-.2.117-.355.256-.69.34-1.036a1.229,1.229,0,0,1,.893-.94c.672-.216,1.336-.457,2-.686a18.059,18.059,0,0,0-9.541.292l.563.608a12.1,12.1,0,0,1,2.57-.4A5.411,5.411,0,0,1,8359.07,2257.917Zm4,.539a2.5,2.5,0,0,0,1.646.256c.2-.3.385-.56.631-.919A7.811,7.811,0,0,0,8363.066,2258.456Zm-13.074,26.919c1.092-.35,1.111-.364,1.111-1.435v-.783a1.535,1.535,0,0,1,.314,1.484,1.091,1.091,0,0,1-.977.945,7.653,7.653,0,0,0-1.643.6c-.213.085-.416.2-.625.294A3.361,3.361,0,0,1,8349.992,2285.375Zm3.35-.13c.039-.1.057-.189.078-.191a5.879,5.879,0,0,1,2.8.846Z" transform="translate(-6908.634 -377.999)"/>
  </g>
</svg>
