<svg xmlns="http://www.w3.org/2000/svg" width="174" height="68" viewBox="0 0 174 68">
  <g id="case_03" transform="translate(-1368 -1878)">
    <rect id="Прямоугольник_21260" data-name="Прямоугольник 21260" width="174" height="68" transform="translate(1368 1878)" opacity="0"/>
    <g id="tild3234-3932-4665-a236-643231643162__logo_white" transform="translate(1410.8 1867.9)">
      <g id="Сгруппировать_9460" data-name="Сгруппировать 9460" transform="translate(10.7 10.1)">
        <g id="Сгруппировать_9436" data-name="Сгруппировать 9436" transform="translate(6.603)">
          <path id="Контур_12613" data-name="Контур 12613" d="M76.525,31.843a10.733,10.733,0,0,0-2.631-.859,1.06,1.06,0,0,0,.322-.752,1.319,1.319,0,0,0-.268-.805,1.251,1.251,0,0,0-.805-.376,1.082,1.082,0,0,0-.591.161c.054-.268.054-.644.107-.859V28.3a.394.394,0,0,0-.107-.322c-.054-.107-.161-.107-.268-.107h0c-.161,0-.322.054-.483.054a3.412,3.412,0,0,0-.966.322c-.161-.054-.322-.107-.537-.161-.054,0-.107-.054-.161-.054a1.18,1.18,0,0,0,.429-1.45,1.121,1.121,0,0,0-1.074-.7,1.567,1.567,0,0,0-.483.107h0a6.636,6.636,0,0,0-.215-2.845.516.516,0,0,0-.483-.376.763.763,0,0,0-.322.107,7,7,0,0,1-.805.537,1.884,1.884,0,0,1-.429.268,1.214,1.214,0,0,0-1.02-1.235,1.021,1.021,0,0,0-1.127.752,2.95,2.95,0,0,0-.483-.376,1.458,1.458,0,0,0,.913-.429,1.652,1.652,0,0,0,.322-1.02A1.4,1.4,0,0,0,63.8,20.139c-.107,0-.215.054-.322.054a7.169,7.169,0,0,0,.376-.966,11.451,11.451,0,0,1,.966-2.04.325.325,0,0,0,0-.429c-.054-.161-.215-.215-.376-.268a9.623,9.623,0,0,0-3.329.537,1.655,1.655,0,0,0,0-1.02,1.7,1.7,0,0,0-.752-.752,1.588,1.588,0,0,0-.537-.107,1.488,1.488,0,0,0-1.235.7A11.359,11.359,0,0,0,58,14.717a.488.488,0,0,0-.591-.161,1.928,1.928,0,0,0-.537.376,6.493,6.493,0,0,0-.859.859c0-.215.054-.429.054-.591a2.407,2.407,0,0,0-.054-.591.473.473,0,0,0-.483-.429.2.2,0,0,0-.161.054c-.322.107-.752.215-1.181.322a1.206,1.206,0,0,0,.107-.966,1.482,1.482,0,0,0-.644-.859,2.916,2.916,0,0,0-.591-.107,1.475,1.475,0,0,0-1.181.644c-.054.054-.054.107-.107.161-.161-.376-.376-.7-.483-1.02a3.575,3.575,0,0,0-.322-.644,4.91,4.91,0,0,0-.483-.913,4.965,4.965,0,0,1-.268-.537.359.359,0,0,0-.376-.215.325.325,0,0,0-.322.161A13.933,13.933,0,0,0,47.8,13.375h0a1.347,1.347,0,0,0-1.181-.644,1.079,1.079,0,0,0-.7.215,1.438,1.438,0,0,0-.537,1.772c-.376-.107-.752-.268-1.127-.376h-.215a.509.509,0,0,0-.483.429c0,.215-.054.376-.054.591a2.013,2.013,0,0,0,.054.591,6.493,6.493,0,0,0-.859-.859,4.643,4.643,0,0,0-.537-.376.445.445,0,0,0-.591.161,11.36,11.36,0,0,0-.591,1.127,1.42,1.42,0,0,0-1.235-.7,1.907,1.907,0,0,0-.537.107,1.7,1.7,0,0,0-.752.752,1.137,1.137,0,0,0,0,1.02,8.508,8.508,0,0,0-3.329-.537.4.4,0,0,0-.376.268.588.588,0,0,0,0,.429,8.633,8.633,0,0,1,.966,2.04c.107.322.268.644.376.966.054-.107-.054-.107-.161-.107a1.4,1.4,0,0,0-1.557,1.235A1.187,1.187,0,0,0,34.7,22.5a1.121,1.121,0,0,0,.859.429c-.107.107-.322.268-.429.376a1.12,1.12,0,0,0-1.181-.752,1.2,1.2,0,0,0-.805.429,1.319,1.319,0,0,0-.268.805,1.883,1.883,0,0,0-.429-.268c-.268-.161-.537-.376-.805-.537a.763.763,0,0,0-.322-.107.516.516,0,0,0-.483.376,6.636,6.636,0,0,0-.215,2.845h0a1.568,1.568,0,0,0-.483-.107,1.174,1.174,0,0,0-1.074.7,1.331,1.331,0,0,0,0,.913,1.462,1.462,0,0,0,.429.537c-.054,0-.107.054-.161.054-.161.054-.322.107-.537.161a6.491,6.491,0,0,0-.966-.268c-.161,0-.268-.054-.483-.054h0a.41.41,0,0,0-.268.107.763.763,0,0,0-.107.322v.054a4.7,4.7,0,0,1,.107.859,1.082,1.082,0,0,0-.591-.161,1.142,1.142,0,0,0-.805.376.886.886,0,0,0-.268.805,1.06,1.06,0,0,0,.322.752A10.733,10.733,0,0,0,23.107,32c0-.054-.107.054-.107.215a.383.383,0,0,0,.161.322c.107.054.215.161.376.268l.644.483a2.978,2.978,0,0,0,.429.322l.644.483c-.054,0-.054,0-.107.054a1.063,1.063,0,0,0-.591.591,1.186,1.186,0,0,0,0,.859,1.1,1.1,0,0,0,1.02.7.4.4,0,0,0,.268-.054,5.767,5.767,0,0,1-.376.805.342.342,0,0,0,0,.322c.054.107.107.215.268.215.161.054.322.054.429.107a1.655,1.655,0,0,0,.537.054c-.107.107-.215.161-.268.268a.362.362,0,0,0,.054.537,5.686,5.686,0,0,0,.644.537,1.079,1.079,0,0,0,.376,2.094h.161a.2.2,0,0,0,.161-.054,3.027,3.027,0,0,0-.215.644,8.757,8.757,0,0,1-.644,1.557.459.459,0,0,0,0,.376.452.452,0,0,0,.376.215h0a7.207,7.207,0,0,0,2.416-.537,1.073,1.073,0,0,0,.107.7.976.976,0,0,0,.591.537.681.681,0,0,0,.322.054,1.2,1.2,0,0,0,.913-.483,3.423,3.423,0,0,0,.429.752.416.416,0,0,0,.537.107,2.335,2.335,0,0,0,.376-.322,4.751,4.751,0,0,0,.966-5.852,8.807,8.807,0,0,1,4.617-1.02,4.764,4.764,0,0,1,.805.107v8.429c-.376-.215-.752-.483-1.127-.7a.715.715,0,0,0-.268-.161h-.054c-.054,0-.161-.054-.215-.054a.769.769,0,0,0-.752.591l-.7,2.631a10.32,10.32,0,0,0-4.456-.859c-.591,0-1.235,0-1.986.054l-.429.054.161.429a5.324,5.324,0,0,0,1.074,1.611,7.667,7.667,0,0,0,.966.805,3.875,3.875,0,0,0-1.074.483,3.7,3.7,0,0,0-1.235,1.772,4.941,4.941,0,0,0-.161.483l.483-.054c.268,0,.537-.054.805-.054a16.278,16.278,0,0,1,5.744,1.288.053.053,0,0,1,.054.054.789.789,0,0,0-.429.7c0,.107,0,.161.054.161.054.054.054.107.429.107h3.973s.215.107.483.215a4.753,4.753,0,0,0,2.147.161,6.926,6.926,0,0,0,1.5-.429h2.684l.054-.054a5.379,5.379,0,0,0,.805-.7l.107-.107h0c.644.054,1.288.054,1.879.054h.107c.805,0,1.557-.054,2.362-.107h.054l.107.107a9.334,9.334,0,0,1,.805.7l.054.054h2.04a6.6,6.6,0,0,0,1.557.429,3.3,3.3,0,0,0,.752.054,4,4,0,0,0,1.4-.215,3.125,3.125,0,0,0,.591-.268h4.134a.279.279,0,0,0,.215-.107c.054-.054.054-.107.054-.268-.054-.322-.215-.483-.591-.752a14.782,14.782,0,0,1,5.422-1.288,3.545,3.545,0,0,1,.752.054l.537.054-.215-.483a4.928,4.928,0,0,0-1.127-1.718,3.48,3.48,0,0,0-1.181-.591,3.746,3.746,0,0,0,.966-.7,6.593,6.593,0,0,0,1.127-1.611l.215-.429H69.6c-.429,0-.805-.054-1.181-.054A11.92,11.92,0,0,0,63.1,48.915l-.752-2.738v-.054a.79.79,0,0,0-.752-.591,1.264,1.264,0,0,0-.429.107c-.161.107-.376.268-.537.376a14.759,14.759,0,0,0,2.04-7.946v-.322a9.581,9.581,0,0,1,3.275.913,4.611,4.611,0,0,0,.913,5.905,2.335,2.335,0,0,0,.376.322.416.416,0,0,0,.537-.107,3.423,3.423,0,0,0,.429-.752,1.055,1.055,0,0,0,.913.483.681.681,0,0,0,.322-.054,1.254,1.254,0,0,0,.644-.537,1.073,1.073,0,0,0,.107-.7,7.207,7.207,0,0,0,2.416.537.294.294,0,0,0,.322-.215.459.459,0,0,0,0-.376,8.756,8.756,0,0,1-.644-1.557c-.054-.215-.161-.429-.215-.644.054,0,.107.054.161.054h.161a1.092,1.092,0,0,0,1.074-.913,1.028,1.028,0,0,0-.7-1.181,5.685,5.685,0,0,0,.644-.537.416.416,0,0,0,.054-.537l-.322-.322h0c.215,0,.376-.054.537-.054a1.263,1.263,0,0,0,.429-.107.536.536,0,0,0,.268-.215.253.253,0,0,0-.054-.322,5.767,5.767,0,0,1-.376-.805c.107,0,.161.054.268.054a1.05,1.05,0,0,0,1.02-.7,1.186,1.186,0,0,0,0-.859,1.063,1.063,0,0,0-.591-.591c-.054,0-.054,0-.107-.054.268-.161.483-.376.644-.483a1.76,1.76,0,0,1,.429-.322l.644-.483c.161-.107.268-.215.376-.268A.325.325,0,0,0,76.793,32C76.74,32.058,76.686,31.9,76.525,31.843ZM72.66,29.7a.866.866,0,0,1,.483-.161.661.661,0,0,1,.537.268.649.649,0,0,1,.161.537.564.564,0,0,1-.268.483,1.62,1.62,0,0,1-1.02.268h-.107l.107-.107.107-.107c.054-.054.054-.107.107-.107.054-.054.054-.107.107-.107.054-.054.054-.107.107-.161s.054-.107.107-.107c.054-.054.054-.107.107-.107.054-.054.054-.054.054-.107s.054-.054.054-.107a1068.455,1068.455,0,0,1,.107-.107l-.054.054-.054.054a.187.187,0,0,1-.107.054l-.107.107-.107.107c-.054.054-.107.054-.107.107-.054.054-.107.054-.107.107-.054.054-.107.054-.107.107-.054.054-.107.054-.107.107a.187.187,0,0,0-.107.054c-.054,0-.054.054-.107.054A1.727,1.727,0,0,1,72.66,29.7Zm-1.772-1.074a5.671,5.671,0,0,1,1.02-.322c.107,0,.268-.054.429-.054h0V28.3a12.051,12.051,0,0,0-.161,1.288,3.2,3.2,0,0,1-.322,1.45,10.824,10.824,0,0,0-1.557.429v-.054c.054-.054.054-.107.107-.161s.054-.107.107-.161.054-.107.107-.161.054-.107.107-.161.054-.107.107-.161.054-.107.107-.161.054-.107.107-.161.054-.107.107-.161.054-.107.107-.161l.161-.322c0-.054.054-.107.054-.161s.054-.107.054-.161c.054-.107.054-.161.107-.268,0-.054.054-.054.054-.107s0-.054.054-.107a.415.415,0,0,0,.054-.161.235.235,0,0,0-.054.161.166.166,0,0,1-.054.107c0,.054-.054.054-.054.107-.054.054-.054.161-.107.268,0,.054-.054.107-.054.161s-.054.107-.107.161l-.161.322c-.054.054-.054.107-.107.161s-.054.107-.107.161-.054.107-.107.161-.054.107-.107.161-.054.107-.107.161-.054.107-.107.161-.107.107-.107.161c-.054.054-.107.107-.107.161-.054.054-.107.107-.107.161-.054.054-.054.107-.107.107-.054.107-.161.161-.215.215l-.107.107-.107.107L69.653,32a6.022,6.022,0,0,0-1.45,1.4,4.553,4.553,0,0,1,.644-2.9,4.466,4.466,0,0,0,1.772-1.4A4.837,4.837,0,0,1,70.888,28.622ZM34.542,36.245a2.765,2.765,0,0,0-.7-1.611,2.962,2.962,0,0,0-1.127-.752h.376a3.472,3.472,0,0,0,1.986-.591,3.172,3.172,0,0,0,1.181-1.611,10.374,10.374,0,0,0,1.45,3.973,6.4,6.4,0,0,0,.805.966,10.479,10.479,0,0,0-3.49.644,6.3,6.3,0,0,0-.591.268A3.215,3.215,0,0,0,34.542,36.245Zm-1.288,1.986h0a3.006,3.006,0,0,0,.644-1.4,2.5,2.5,0,0,0-.483-1.825,2.666,2.666,0,0,0-1.664-.966c0-.107.054-.215.054-.322h0a4.571,4.571,0,0,1,1.986,1.02,2.835,2.835,0,0,1,.429,2.953,5.319,5.319,0,0,0-.913.591h0Zm-.268-.376a4.757,4.757,0,0,0-2.738-1.235,4.787,4.787,0,0,0,1.45-2.147,2.184,2.184,0,0,1,1.342.805,2.3,2.3,0,0,1,.429,1.557A2.217,2.217,0,0,1,32.986,37.856Zm2.577-7.892.054-.054h0l.054-.054.054-.054h0l.054-.054a5.489,5.489,0,0,1,.376,1.557,2.86,2.86,0,0,1-1.181,1.879,3.812,3.812,0,0,1-3.275.322,1.209,1.209,0,0,0,.054-.376,2.926,2.926,0,0,0,1.181.268,3.014,3.014,0,0,0,1.664-.483A2.582,2.582,0,0,0,35.67,31.2,1.933,1.933,0,0,0,35.563,29.964Zm-.268,1.181a2.135,2.135,0,0,1-.913,1.45,2.553,2.553,0,0,1-2.416.215,4.825,4.825,0,0,0-.429-1.933,5.2,5.2,0,0,0,1.235.161,4.535,4.535,0,0,0,2.47-.7A2.047,2.047,0,0,1,35.294,31.145ZM37.925,35.6a7.615,7.615,0,0,1-1.181-2.792c-.107-.483-.161-.859-.215-1.235a9.253,9.253,0,0,0-.483-1.933l.322-.322a4.3,4.3,0,0,1,.537,1.772V31.2h0a8.092,8.092,0,0,0,2.147,4.993,6.64,6.64,0,0,0,4.832,1.879h.429a3.259,3.259,0,0,0-.376.537h0l-.161.268A8.073,8.073,0,0,1,37.925,35.6Zm-.752-11.381c.107,0,.161-.054.268-.054h.322c.107,0,.215-.054.322-.054h.322c.215,0,.429-.054.644-.054A.681.681,0,0,0,39.374,24H42.7c.161,0,.268.054.376.054h.215a5.808,5.808,0,0,1-4.349,1.879,6.664,6.664,0,0,1-1.45-.161,4.96,4.96,0,0,0-.429-1.45C37.066,24.219,37.119,24.219,37.173,24.219Zm-.161,0a4.636,4.636,0,0,0-.537-.859c-.107-.107-.215-.268-.322-.376a5.3,5.3,0,0,1,1.664-.805c.054,0,.054.054.107.054a6.855,6.855,0,0,0,2.953,1.4h-.805a.681.681,0,0,0-.322.054h-.376c-.107,0-.215.054-.322.054-.215.054-.429.054-.644.107a15928.027,15928.027,0,0,1-.322.107c-.107,0-.215.054-.322.054a9557.077,9557.077,0,0,1-.322.107c-.107,0-.161.054-.268.054A.2.2,0,0,0,37.012,24.219Zm8.107-4.885a6.42,6.42,0,0,0,3.651,2.147,3.524,3.524,0,0,1-1.181,1.879A2.954,2.954,0,0,1,45.709,24a3.014,3.014,0,0,1-1.664-.483A6.73,6.73,0,0,0,45.119,19.334Zm10.576,4.134a3.52,3.52,0,0,1-1.772.483,3.1,3.1,0,0,1-1.718-.537,3.281,3.281,0,0,1-1.235-1.933,6.325,6.325,0,0,0,3.6-2.094A6.809,6.809,0,0,0,55.695,23.468Zm3.329.376h1.342a.681.681,0,0,1,.322.054c.215,0,.429.054.644.054h.322c.107,0,.215.054.322.054H62.3c.107,0,.161.054.268.054h.107a4.96,4.96,0,0,0-.429,1.45,5.852,5.852,0,0,1-1.4.161A6.01,6.01,0,0,1,56.5,23.79h.215a1.048,1.048,0,0,0,.376-.054H58.7A.394.394,0,0,0,59.023,23.844Zm-.161-.215a6.573,6.573,0,0,0,2.953-1.4c.054,0,.054-.054.107-.054a5.3,5.3,0,0,1,1.664.805l-.376.376a7.517,7.517,0,0,0-.537.859c-.054,0-.107,0-.107-.054-.107,0-.161-.054-.268-.054A6826.688,6826.688,0,0,1,61.976,24c-.107,0-.215-.054-.322-.054a47791.668,47791.668,0,0,1-.322-.107c-.215-.054-.429-.054-.644-.107-.107,0-.215-.054-.322-.054H59.99a.681.681,0,0,1-.322-.054h-.805ZM56.607,40.862c-.107-.161-.268-.376-.376-.537l.483-.483A7.336,7.336,0,0,0,56.607,40.862Zm-.537-.752c-.268-.376-.537-.805-.805-1.127h.376a8.5,8.5,0,0,0,2.04-.268,3.447,3.447,0,0,0-.7.537A6.914,6.914,0,0,0,56.071,40.111Zm2.255,3.758L58,43.976h0c-.107,0-.215.054-.322.054a1.6,1.6,0,0,1-.805-.268L55,42.258a7.917,7.917,0,0,0,.859.054h.107V42.2A7.323,7.323,0,0,0,54.3,38.446h0c-1.288-1.4-2.309-1.986-3.436-2.04h-.054a2.458,2.458,0,0,0-1.5.537v-.322l.429-.537h0a.342.342,0,0,0,0-.322.3.3,0,0,0-.268-.161h0l-.644.054a1.665,1.665,0,0,0-1.181-.483.914.914,0,0,0-.376.054h-.107l.537-.644v-.054a1.628,1.628,0,0,1,1.611-1.235,2.012,2.012,0,0,1,1.288.591,21.507,21.507,0,0,1,3.6,4.349l.054.054C55.265,39.627,57.735,43.063,58.325,43.869Zm-4.188,3.06a8.469,8.469,0,0,1-3.49,2.309,9.229,9.229,0,0,1,.483-6.764,5.852,5.852,0,0,0,1.4.161h.107a11.133,11.133,0,0,0-.537,1.772,8.7,8.7,0,0,0,.161,4.08c.054-.054.107-.054.161-.107a8.626,8.626,0,0,1,0-4.671h0l.107-.322a1.227,1.227,0,0,1,.376-.537,1.171,1.171,0,0,1,.268-.215.166.166,0,0,1,.107-.054c.054,0,.054-.054.107-.054a3.809,3.809,0,0,0,1.02-.322l.215.161a7.026,7.026,0,0,0-.483,1.5A7.347,7.347,0,0,0,54.138,46.929Zm-9.663-6.657a5.724,5.724,0,0,0-1.127,1.181,6.515,6.515,0,0,1,.752-1.5A2.335,2.335,0,0,0,44.474,40.272Zm-.215-.483a3.028,3.028,0,0,1,2.47-1.5,1.365,1.365,0,0,1,1.235.752,1.5,1.5,0,0,1-.322,1.611,2.031,2.031,0,0,1-2.309-.107A5.122,5.122,0,0,1,44.26,39.788Zm.322.591a1.169,1.169,0,0,0,.429.268A10.918,10.918,0,0,0,43.132,42.2a2.325,2.325,0,0,0,.054-.268A6.576,6.576,0,0,1,44.582,40.379Zm.537.376.054.054c.161.107.376.161.537.268a17.429,17.429,0,0,0-2.47,1.4h-.161A11.722,11.722,0,0,1,45.119,40.755Zm.805.322a3.625,3.625,0,0,0,.752.107,1.826,1.826,0,0,0,.537-.054c-.054.054-.107.107-.161.107a9.263,9.263,0,0,1-3.436,1.127A21.018,21.018,0,0,1,45.924,41.077Zm1.288.376a3.219,3.219,0,0,0,.591-.644,3.775,3.775,0,0,0,.376-.537.763.763,0,0,0,.107-.322,2.229,2.229,0,0,1-1.127,1.986,4.441,4.441,0,0,1-2.04.537,2.2,2.2,0,0,1-.591-.054A6.359,6.359,0,0,0,47.212,41.453Zm4.724-1.127A4.258,4.258,0,0,0,52.8,39.9c.054,0,.054-.054.107-.054.483.268.966.591,1.342.805a16.842,16.842,0,0,1,1.45,1.235c0,.107.054.161.054.215H55.48A29.285,29.285,0,0,0,51.937,40.325ZM55.1,42.1a11.033,11.033,0,0,1-4.778-1.45,2.273,2.273,0,0,0-.376-.268,2.154,2.154,0,0,0,.805.161,5.353,5.353,0,0,0,.859-.107A15.2,15.2,0,0,1,55.1,42.1ZM54.3,40.54a13.505,13.505,0,0,0-1.288-.805,5.623,5.623,0,0,0,.591-.429,9.907,9.907,0,0,1,1.879,1.879,1.264,1.264,0,0,1,.107.429A7.8,7.8,0,0,0,54.3,40.54ZM53.762,39.2a4.39,4.39,0,0,0,.483-.429,7.646,7.646,0,0,1,1.127,1.986A7.477,7.477,0,0,0,53.762,39.2Zm-1.127.483a2.684,2.684,0,0,1-3.06.161l-.054-.054c-.054-.054-.054-.054-.054-.107a1.864,1.864,0,0,1-.322-1.933v-.054a.407.407,0,0,0,.107-.215,1.981,1.981,0,0,1,1.664-.859c1.02,0,1.986.591,3.221,1.879A5.388,5.388,0,0,1,52.635,39.681Zm-3.49.054h0c.107.107.161.215.215.268a3.478,3.478,0,0,0,.913.859,8.216,8.216,0,0,0,3.436,1.288,2.77,2.77,0,0,1-.591.107c-.161,0-.376.054-.537.054A5.65,5.65,0,0,1,50.7,41.99a2.913,2.913,0,0,1-1.986-2.2h0a2.6,2.6,0,0,1,.107-1.074,1.749,1.749,0,0,0,.215.7C48.984,39.52,49.091,39.627,49.145,39.735Zm.805,2.308h0c-.483.805-.966,1.611-1.342,2.309a12.016,12.016,0,0,0-.752-2.47,2.42,2.42,0,0,0,.537-.752,1.706,1.706,0,0,0,.161-.483A3.493,3.493,0,0,0,49.95,42.043Zm-3.06,1.074c-.054-.215-.161-.376-.215-.591.215-.107.429-.161.644-.268a.536.536,0,0,0,.268-.215,8.631,8.631,0,0,1,.752,2.684,1.123,1.123,0,0,1-.215.322c-.322.537-.537.966-.7,1.181-.054.054-.054.107-.107.215A7.815,7.815,0,0,0,46.89,43.117Zm-1.933-.161h.107a7.425,7.425,0,0,1,.054,4.939,6.009,6.009,0,0,1-.161-1.557Zm.805,1.288a5.942,5.942,0,0,0-.376-1.4c.161,0,.268-.054.429-.054a1.29,1.29,0,0,1,.537.107l.161.161c.054.054.107.107.107.161a.166.166,0,0,1,.054.107.541.541,0,0,0,.054.161h0a8.322,8.322,0,0,1,.322,3.275,15.685,15.685,0,0,1-1.772,2.255l-.054-.054a1.171,1.171,0,0,1-.215-.268A6.523,6.523,0,0,0,45.763,44.244ZM47.32,47.09h0c.161-.215.268-.429.429-.644.161-.268.376-.7.7-1.235a3.189,3.189,0,0,0,.215-.429h0a10.529,10.529,0,0,0,.644-1.127c-.054.215-.107.429-.161.591a8.651,8.651,0,0,0-.322,2.362,20.17,20.17,0,0,1-1.718,2.953,3.4,3.4,0,0,1-1.5-.376A13.236,13.236,0,0,0,47.32,47.09Zm1.5-.054a2.614,2.614,0,0,0,.054.644,9.972,9.972,0,0,0,.322,1.825,10.426,10.426,0,0,1-1.288.107h-.537A29.315,29.315,0,0,0,48.823,47.036Zm1.4-4.885c.107.054.161.054.268.107a3.7,3.7,0,0,0,.429.161,11.244,11.244,0,0,0-.7,1.879,9.106,9.106,0,0,0,.215,4.939,6.9,6.9,0,0,1-1.02.215A10.413,10.413,0,0,1,50.219,42.151Zm4.671.644.913.752a8.49,8.49,0,0,1-1.4,2.684A7.444,7.444,0,0,1,54.89,42.795Zm-8-7.516a5.911,5.911,0,0,1-3.7,1.5,5.027,5.027,0,0,1-3.973-1.45,5.56,5.56,0,0,0,3.275,1.074,5.459,5.459,0,0,0,3.382-1.127,5.37,5.37,0,0,0,1.664-6.55,5.209,5.209,0,0,1,.913.054,7.378,7.378,0,0,1,.322,2.255,6.24,6.24,0,0,1-.429,2.255,1.91,1.91,0,0,0-.859,1.181L47,35.01a.41.41,0,0,0-.107.268Zm-1.074.966q-.725.725-1.45,1.611H43.83a6.457,6.457,0,0,1-6.442-4.832,4.985,4.985,0,0,0,.7,1.235h0c.107.161.268.268.376.429A5.245,5.245,0,0,0,42.81,37h.322A6.035,6.035,0,0,0,45.817,36.245Zm-6.281-1.02Zm10.254-2.2c-.107,0-.215-.054-.376-.054a2.226,2.226,0,0,0-.859.161,5.65,5.65,0,0,0,.376-2.147,7.378,7.378,0,0,0-.322-2.255c.215,0,.429.054.591.054a4.777,4.777,0,0,1,.429,2.255A10.6,10.6,0,0,0,49.789,33.024Zm-.215-4.08c.215.054.376.054.537.107-.107.322-.161.7-.268,1.02A4.339,4.339,0,0,0,49.575,28.944Zm.376,2.2v-.322a8.843,8.843,0,0,1,.322-1.718,4.724,4.724,0,0,1,.805.268,6.05,6.05,0,0,0-.268,1.718,6.607,6.607,0,0,0,.429,2.362,6.878,6.878,0,0,0,.591,1.074c-.268-.268-.537-.591-.859-.859a2.52,2.52,0,0,0-.859-.537,4.187,4.187,0,0,1-.161-1.181Zm1.02-.107a5.684,5.684,0,0,1,.268-1.664c.268.107.483.215.752.322a5.354,5.354,0,0,0,2.04,5.53,5.584,5.584,0,0,0,6.657.054,5.439,5.439,0,0,1-3.919,1.45A5.5,5.5,0,0,1,50.97,31.038Zm1.342-.913a6.333,6.333,0,0,1,.966.7h0a8.757,8.757,0,0,1,2.9,4.993,5.571,5.571,0,0,1-1.986-.913A4.928,4.928,0,0,1,52.313,30.125Zm5.046,6.013h-.483a9.486,9.486,0,0,0-3.167-5.691,9.247,9.247,0,0,0-6.281-2.094c-1.5,0-2.2.215-2.631.7-.322.322-.429.7-.429,1.933v4.832a5.53,5.53,0,0,1-1.879.322h-.322V29.427a1.685,1.685,0,0,1,1.718-1.664s1.4-.054,2.309-.054h.376c2.147,0,7.14,0,10.308,3.221a9.228,9.228,0,0,1,2.47,4.885A7.688,7.688,0,0,1,57.359,36.138Zm-11.7-1.181a3.044,3.044,0,0,1-.7.429v-4.4c0-.966.054-1.4.268-1.611.376-.376.7-.483,1.933-.537A5.068,5.068,0,0,1,45.656,34.957Zm8.7,2.684a24.834,24.834,0,0,0-1.611-2.147,6.121,6.121,0,0,0,3.973,1.45h.107a5.188,5.188,0,0,0,4.617-2.362,1.423,1.423,0,0,0,.268-.322,9.792,9.792,0,0,0,.805-1.4,9.864,9.864,0,0,1-.752,1.825A6.248,6.248,0,0,1,55.91,37.8,13.865,13.865,0,0,1,54.353,37.641Zm7.409-4.188A10.222,10.222,0,0,0,59.184,29.7a12.082,12.082,0,0,0-5.315-2.631,8.1,8.1,0,0,1,3.221-2.147,6.3,6.3,0,0,0,3.758,1.235,9.584,9.584,0,0,0,1.235-.107,4.733,4.733,0,0,0,1.127,3.221,9.33,9.33,0,0,0-.537,1.718A12.972,12.972,0,0,1,61.761,33.453Zm-5.208-9.18.322.322a9.228,9.228,0,0,0-3.49,2.416c-.268-.054-.483-.107-.752-.161A8.3,8.3,0,0,1,56.554,24.273Zm-3.114,1.5a4.778,4.778,0,0,0-1.02,1.074c-.268-.054-.591-.107-.913-.161a9.536,9.536,0,0,1,3.7-2.577h0a5.418,5.418,0,0,0,.805-.376h0l.054.054h0c.107.107.161.215.268.322A10.229,10.229,0,0,0,53.44,25.776Zm-1.45-2.04a3.1,3.1,0,0,0,1.933.644,1.826,1.826,0,0,0,.537-.054,7.953,7.953,0,0,0-1.342.752,6.06,6.06,0,0,1-1.181-.591,2.876,2.876,0,0,1-.805-.805,4.215,4.215,0,0,1-.859-2.309.681.681,0,0,0,.322-.054v.107A3.736,3.736,0,0,0,51.99,23.736Zm-.966.054a4.036,4.036,0,0,0,.859.805,6.877,6.877,0,0,0,1.074.591,8.042,8.042,0,0,0-1.557,1.45c-.859-.107-1.825-.161-2.845-.215A7.374,7.374,0,0,0,47,25.132a5.1,5.1,0,0,0,.913-.537,6.1,6.1,0,0,0,.859-.805,4.628,4.628,0,0,0,.913-2.416h.429A4.464,4.464,0,0,0,51.024,23.79Zm-2.362-.054a2.876,2.876,0,0,1-.805.805,4.352,4.352,0,0,1-.966.537c-.429-.268-.859-.483-1.342-.752h.215a3.5,3.5,0,0,0,2.094-.7,3.762,3.762,0,0,0,1.4-2.255h.322A4.746,4.746,0,0,1,48.662,23.736Zm-4.188.429h0a9.613,9.613,0,0,1,3.758,2.362H47.051a10.963,10.963,0,0,0-3.758-2.309,1.423,1.423,0,0,0,.268-.322h0l.054-.054h0A4.069,4.069,0,0,1,44.474,24.166Zm2.416,2.309h-.859A3.069,3.069,0,0,0,45.6,26.1a9.29,9.29,0,0,0-2.684-1.557c.107-.107.215-.161.268-.268A10.9,10.9,0,0,1,46.89,26.474ZM42.81,24.81h0A7.264,7.264,0,0,1,45.6,26.474H37.5v-.591c.054,0,.107,0,.107.054H37.5A6,6,0,0,0,42.81,24.81ZM47.964,26.9c4.778,0,8.429.966,10.791,3.275a9.952,9.952,0,0,1,2.631,4.08,5.716,5.716,0,0,1-1.825,1.4,10.093,10.093,0,0,0-2.523-4.939c-3.221-3.275-8.268-3.275-10.469-3.275H46.3c-.913,0-2.362.054-2.362.054A1.95,1.95,0,0,0,42,29.373v6.711a4.776,4.776,0,0,1-2.094-.644v-3.6c0-3.275-.322-3.49-3.114-3.7V26.9H47.964ZM36.9,28.729c1.181.107,1.772.215,2.04.537.322.376.376,1.235.376,2.631v3.06a4.9,4.9,0,0,1-.913-.913,5.74,5.74,0,0,1-1.127-3.06,5.864,5.864,0,0,0-.644-1.933C36.744,28.944,36.8,28.836,36.9,28.729Zm5.208,9.986a12.784,12.784,0,0,0,1.4.268l-.376.537c-.107-.107-.215-.161-.322-.268A2.408,2.408,0,0,0,42.112,38.715Zm0,.322c-.054,0-.054-.054-.107-.054C42.059,38.983,42.059,39.037,42.112,39.037Zm.591.429c.107.107.215.161.322.268l-.805,1.127V39.09A2.95,2.95,0,0,1,42.7,39.466Zm1.181-.376h0l.107-.161c.752-1.02,2.147-2.792,3.114-3.221A1.93,1.93,0,0,1,47.7,35.6a1.257,1.257,0,0,1,.966.429l.054.054.7-.054-.429.591v.054a1.047,1.047,0,0,1-.215.913,1.174,1.174,0,0,0-.161.268,3.2,3.2,0,0,0-.376,1.342.407.407,0,0,0-.107-.215,1.68,1.68,0,0,0-1.45-.913,3.481,3.481,0,0,0-2.631,1.5h0a6.775,6.775,0,0,0-1.288,3.006v.161l-1.288,1.02a1.082,1.082,0,0,1-.591.161.484.484,0,0,1-.268-.054l-.215-.054Zm-.376,3.543c.107,0,.268-.054.376-.054a1.283,1.283,0,0,0,.483.161h0v3.6c0,2.9.859,3.651,3.49,3.651a8.577,8.577,0,0,0,8.482-6.174l.322.268h0a1.652,1.652,0,0,0,1.02.322.914.914,0,0,0,.376-.054h.054l.7-.268c-2.523,6.55-9.771,6.55-12.455,6.55H43.938a1.72,1.72,0,0,1-1.718-1.664V43.654Zm15.247,1.235s-.859-1.181-1.825-2.523a10.04,10.04,0,0,0,.161-1.825l.054-.054a9.225,9.225,0,0,1,2.47-1.342v.913a14.389,14.389,0,0,1-.805,4.939Zm-3.114-5.046H55.1c-.161-.268-.322-.483-.429-.644l-.054-.054c-.054-.107-.107-.161-.161-.268a13.163,13.163,0,0,0,1.45.107c2.792,0,4.832-1.074,6.013-3.167a9.77,9.77,0,0,0,1.02-3.06c.054-.215.107-.376.161-.591a7.093,7.093,0,0,1,.537-1.611l.322.322a7.671,7.671,0,0,0-.537,2.04,8,8,0,0,1-.215.966,8.571,8.571,0,0,1-1.235,2.792A7.9,7.9,0,0,1,55.641,38.822Zm8.482-7.409A2.37,2.37,0,0,0,65.2,33.024a2.619,2.619,0,0,0,1.5.429,2.731,2.731,0,0,0,1.181-.215.681.681,0,0,0,.054.322v.054h0a3.739,3.739,0,0,1-3.167-.268,2.767,2.767,0,0,1-1.127-1.772,8.418,8.418,0,0,1,.429-1.557.741.741,0,0,0,.215.161A2.316,2.316,0,0,0,64.124,31.413Zm.483-.966a4.708,4.708,0,0,0,2.255.591,5.3,5.3,0,0,0,1.288-.161,5.344,5.344,0,0,0-.429,2.04,2.906,2.906,0,0,1-1.02.161,2.29,2.29,0,0,1-1.288-.322,2.115,2.115,0,0,1-.913-1.342A5.917,5.917,0,0,1,64.607,30.447Zm-2.47,5.261a8.337,8.337,0,0,0,1.288-2.845c.054-.322.107-.644.161-.913a2.721,2.721,0,0,0,1.074,1.5,3.1,3.1,0,0,0,1.879.537h.376a2.485,2.485,0,0,0-.966.7,3.155,3.155,0,0,0-.537,3.006l-.644-.322a10.609,10.609,0,0,0-3.49-.7A3.7,3.7,0,0,0,62.137,35.708ZM66.11,34.8a3.611,3.611,0,0,1,1.825-1.02c0,.107.054.215.054.322a2.634,2.634,0,0,0-1.557.859,2.345,2.345,0,0,0-.483,1.879,2.535,2.535,0,0,0,.591,1.342h0l-.054.054-.054.054c-.268-.161-.537-.376-.752-.483A2.989,2.989,0,0,1,66.11,34.8Zm.7.429a1.9,1.9,0,0,1,1.235-.7,5.093,5.093,0,0,0,1.45,2.094A4.691,4.691,0,0,0,66.754,37.8,2.176,2.176,0,0,1,66.808,35.225Zm3.382-6.764.483.161c-.107.107-.161.268-.268.376a4.376,4.376,0,0,1-3.49,1.664,4.278,4.278,0,0,1-2.523-.805h0c.054,0,.054-.054.161-.107.054-.054.107-.054.215-.107s.161-.107.268-.161a2.617,2.617,0,0,1,.376-.161,3.7,3.7,0,0,1,.429-.161,1.264,1.264,0,0,1,.429-.107c.054,0,.054,0,.107-.054.054,0,.054,0,.107-.054.054,0,.161-.054.215-.054.161-.054.322-.054.483-.107a.323.323,0,0,0,.215-.054h.215a1.047,1.047,0,0,0,.429-.054h1.235a.847.847,0,0,1-.215-.054.584.584,0,0,1-.268-.054H67.184c-.161,0-.322.054-.483.054a.484.484,0,0,0-.268.054h-.215c-.161.054-.322.054-.483.107a1.264,1.264,0,0,1-.429.107,1.366,1.366,0,0,1-.376.107.763.763,0,0,1-.322.107c-.054,0-.054.054-.107.054,0-.054.054-.054.054-.107A.053.053,0,0,1,64.607,29a4,4,0,0,1,2.953-1.45C68.418,27.816,69.331,28.139,70.19,28.461Zm-1.02-2.094a.681.681,0,0,1,.322-.054.693.693,0,0,1,.7.483.579.579,0,0,1,0,.591c-.054.215-.215.322-.429.429a.681.681,0,0,1-.322.054,4.069,4.069,0,0,1-.859-.161h0c.054,0,.107-.054.161-.054s.107-.054.161-.054.107-.054.161-.107.107-.054.161-.107.107-.054.161-.107.107-.054.161-.107.107-.054.107-.107l.107-.107c.054-.054.054-.054.107-.054a.053.053,0,0,0,.054-.054l.054-.054-.054.054a.166.166,0,0,0-.107.054c-.054,0-.054.054-.107.054a.187.187,0,0,0-.107.054c-.054,0-.107.054-.161.054s-.107.054-.161.054-.107.054-.161.054-.107.054-.161.054-.107.054-.161.054a.2.2,0,0,0-.161.054h-.107C68.687,26.9,68.9,26.474,69.17,26.367ZM67.4,23.79A7.681,7.681,0,0,0,68.2,23.2h.054a.115.115,0,0,1,.107.107,5.522,5.522,0,0,1-.107,3.758v.054c-.107.161-.215.376-.322.537h-.429a3.9,3.9,0,0,0-2.47.913h0l.322-.483c.268-.322.537-.644.805-1.02.268-.322.591-.7.805-1.02l.322-.483a.741.741,0,0,1,.161-.215.407.407,0,0,0,.107-.215c.054-.161.161-.268.215-.429,0-.054.054-.107.054-.161s.054-.107.054-.161v-.107c0-.054,0-.054.054-.107v-.054l-.054.054a.166.166,0,0,1-.054.107v.054a.053.053,0,0,1-.054.054c0,.054-.054.107-.054.161s-.054.107-.107.161a1.345,1.345,0,0,1-.215.376c-.054.054-.107.161-.161.215s-.107.161-.161.215a2.951,2.951,0,0,1-.376.483c-.268.322-.537.644-.859.966s-.591.644-.859.966a2.95,2.95,0,0,0-.376.483l-.107.107-.107.107c-.054.054-.107.161-.161.215s-.107.161-.161.215-.107.107-.107.161a.053.053,0,0,1-.054.054,5.467,5.467,0,0,1,1.074-3.543,4.636,4.636,0,0,1,.7-.752c.054,0,.054-.054.107-.054C66.486,24.434,66.915,24.112,67.4,23.79Zm-1.772-.859h.054a.745.745,0,0,1,.537.268.705.705,0,0,1,.161.537,2.042,2.042,0,0,1-.7.966h0V23.9a4778.445,4778.445,0,0,0-.107.322c0,.054-.054.107-.054.161s-.054.107-.054.161a.187.187,0,0,1-.054.107h0c-.215-.322-.483-.752-.429-1.02A.609.609,0,0,1,65.627,22.931ZM65.2,25.347l-.161.161a4.663,4.663,0,0,0-.913,1.772V26.8a2.014,2.014,0,0,0-.054-.537c0-.161-.054-.322-.054-.483s-.054-.322-.054-.483-.054-.268-.054-.429c0-.107-.054-.268-.054-.322a2.325,2.325,0,0,0-.054-.268.847.847,0,0,1-.054-.215.535.535,0,0,0,.054.215.584.584,0,0,0,.054.268c0,.107.054.215.054.376a1.334,1.334,0,0,0,.054.429,1.487,1.487,0,0,0,.054.483v2.094a1.487,1.487,0,0,1-.054.483c0,.161-.054.268-.054.429,0,.107-.054.268-.054.322a2.325,2.325,0,0,1-.054.268v.054a4.59,4.59,0,0,1-.376-6.013c.107-.107.215-.268.322-.376A4.124,4.124,0,0,1,65.2,25.347Zm-1.342-4.671h.107a.931.931,0,0,1,.913.859.845.845,0,0,1-.215.7.765.765,0,0,1-.644.322h-.054a2.781,2.781,0,0,1-1.288-.591c.054,0,.107-.054.215-.054.054,0,.054,0,.107-.054.054,0,.054,0,.107-.054.054,0,.161-.054.215-.054h.215a.323.323,0,0,0,.215-.054H62.567A2.548,2.548,0,0,1,63.855,20.676ZM58.97,16.328a.92.92,0,0,1,.859-.591,1.048,1.048,0,0,1,.376.054,1.175,1.175,0,0,1,.537.483.8.8,0,0,1,0,.7,2.594,2.594,0,0,1-1.181.913c0-.054.054-.107.054-.161s.054-.161.054-.215a2.325,2.325,0,0,0,.054-.268c0-.107.054-.161.054-.268s.054-.161.054-.215.054-.161.054-.215a.323.323,0,0,1,.054-.215v-.376a.166.166,0,0,1-.054.107c0,.054,0,.054-.054.107,0,.054-.054.107-.054.161s-.054.107-.054.215c0,.054-.054.161-.054.215-.054.054-.054.161-.107.215s-.054.161-.107.215-.054.161-.107.215-.054.161-.107.215-.054.107-.107.215A2.961,2.961,0,0,1,58.97,16.328Zm0,2.577h0c.054-.054.107-.054.107-.107.054,0,.054-.054.107-.054l.107-.107h0a8.057,8.057,0,0,1,4.993-1.611h.161c.054,0,.054,0,.054.054v.054a18.127,18.127,0,0,0-1.02,2.094,6.855,6.855,0,0,1-1.5,2.523h0a1.423,1.423,0,0,1-.322.268,7.763,7.763,0,0,1-5.046,1.557H56.5c.054-.054.054-.107.107-.161.054-.107.161-.215.268-.376.054-.054.107-.161.161-.215s.107-.161.215-.215a1.171,1.171,0,0,0,.215-.268c.054-.107.161-.161.268-.268l.537-.537a1.423,1.423,0,0,1,.322-.268A1.423,1.423,0,0,1,58.916,21l.161-.161.161-.161a1.423,1.423,0,0,1,.322-.268,7.891,7.891,0,0,1,.7-.537l.644-.483c.107-.054.215-.161.322-.215.054-.054.107-.054.161-.107s.107-.054.161-.107c.107-.054.215-.161.322-.215a1.173,1.173,0,0,0,.268-.161,3.768,3.768,0,0,0,.483-.322A2.272,2.272,0,0,0,63,17.992a1.329,1.329,0,0,0,.322-.215s-.107.054-.376.215c-.107.054-.268.161-.376.215-.161.107-.322.161-.537.322a1.174,1.174,0,0,0-.268.161,1.123,1.123,0,0,0-.322.215c-.054.054-.107.054-.161.107s-.107.054-.161.107c-.107.054-.215.161-.322.215-.215.161-.483.322-.7.483s-.483.322-.7.483c-.107.107-.215.161-.322.268-.054.054-.107.107-.161.107l-.161.161c-.107.107-.215.161-.322.268s-.215.161-.322.268c-.215.161-.376.376-.591.537l-.268.268-.268.268-.215.215c-.054.054-.107.161-.215.215-.054.107-.161.161-.215.215a7.925,7.925,0,0,1,2.416-4.026C58.916,18.958,58.916,18.9,58.97,18.9ZM57.2,15.361l.483-.322h.054a.053.053,0,0,1,.054.054,9.16,9.16,0,0,1,.913,2.094c0,.107.054.215.054.322a4.605,4.605,0,0,1,.107,1.235,7.131,7.131,0,0,0-1.933,2.416c0-.107.054-.161.054-.268a.2.2,0,0,1,.054-.161v-.215c.054-.215.107-.483.161-.7a3.142,3.142,0,0,0,.107-.7c0-.107.054-.215.054-.376v-.322c0-.107.054-.215.054-.322a.681.681,0,0,1,.054-.322v-.322a.681.681,0,0,1-.054.322c0,.107-.054.215-.054.322s-.054.215-.054.322a4344.016,4344.016,0,0,0-.107.322c0,.107-.054.215-.054.322-.054.215-.107.483-.161.7s-.107.483-.161.7v.215c0,.054-.054.107-.054.161-.054.107-.054.215-.107.322s-.054.215-.107.322-.054.215-.107.322-.054.215-.107.268c-.054.107-.054.161-.107.268l-.161.483a2.617,2.617,0,0,1-.161.376c0,.054-.054.107-.054.161a5.991,5.991,0,0,1-.7-5.208l.322-.805A6.863,6.863,0,0,1,57.2,15.361Zm-2.953-.268a12.518,12.518,0,0,0,1.342-.322h0a.053.053,0,0,1,.054.054c0,.215.054.376.054.537a5.851,5.851,0,0,1-5.422,5.8,9.681,9.681,0,0,0,1.5-1.986c.054-.054.054-.107.107-.161.054-.107.107-.161.161-.268.054-.054.054-.107.107-.161s.054-.107.107-.161.054-.107.107-.161.107-.107.107-.161c.054-.054.107-.107.107-.161l.161-.161.161-.161.161-.161.161-.161c.054-.054.054-.054.054-.107l.107-.107.161-.161.161-.161.161-.161.161-.161c.107-.107.215-.161.322-.268.107-.054.161-.161.268-.215l.107-.107c.054,0,.054-.054.107-.054.107-.107.161-.107.161-.107a.664.664,0,0,1-.161.107c-.054,0-.054.054-.107.054s-.054.054-.107.054c-.107.054-.161.107-.268.161s-.215.161-.322.215c-.054.054-.107.107-.161.107l-.161.161-.161.161-.161.161c-.054,0-.054.054-.107.054l-.107.107-.161.161-.161.161-.161.161-.161.161-.161.161c0,.054-.054.054-.054.107a4.972,4.972,0,0,0,.161-1.772c0-.161-.054-.322-.054-.483A5.584,5.584,0,0,1,54.245,15.093Zm-1.986-1.557a.947.947,0,0,1,.805-.429.866.866,0,0,1,.483.161.955.955,0,0,1,.322,1.288,2.5,2.5,0,0,1-1.235.7V15.2c0-.054.054-.107.054-.161s.054-.107.054-.161.054-.107.107-.161.054-.107.107-.161.054-.107.107-.161.054-.107.107-.161.054-.107.107-.161.054-.107.107-.161.054-.107.107-.107c0-.054.054-.054.054-.107l.054-.054-.054.054a.187.187,0,0,1-.107.054l-.107.107-.107.107c-.054.054-.107.107-.107.161l-.161.161-.161.161c-.054.054-.107.107-.107.161-.054.054-.107.107-.107.161-.054.054-.054.107-.107.161s-.054.107-.107.161a.053.053,0,0,1-.054.054A2.109,2.109,0,0,1,52.259,13.536ZM49.9,10.583l.268.537a6.989,6.989,0,0,1,.429.913l.322.644a9.937,9.937,0,0,1,.913,2.147c.107.483.161.644.161.7a5.4,5.4,0,0,1-.537,3.436,1.765,1.765,0,0,0-.161.322,13.258,13.258,0,0,1-1.181,1.557v-.376c0-.161.054-.376.054-.591v-4.08a1.182,1.182,0,0,0-.054-.429,1.182,1.182,0,0,0-.054-.429c0-.268-.054-.537-.054-.805a.914.914,0,0,0-.054-.376c0-.107-.054-.215-.054-.322,0-.215-.054-.429-.054-.591s-.054-.322-.054-.483c0-.107-.054-.215-.054-.322v0a.945.945,0,0,0,.054.322,1.849,1.849,0,0,0,.054.483c0,.161.054.376.054.591v.7a4.063,4.063,0,0,0,.054.805v2.577a4.618,4.618,0,0,1-.054.859c0,.268-.054.537-.054.805a.914.914,0,0,1-.054.376v.322a2.407,2.407,0,0,0-.054.591v.215a.406.406,0,0,1-.054.215A7.788,7.788,0,0,1,48.5,19.28a.053.053,0,0,0-.054-.054,9.09,9.09,0,0,1-.537-1.45C47.427,15.469,48.071,13.106,49.9,10.583Zm-3.7,2.792a.866.866,0,0,1,.483-.161.947.947,0,0,1,.805.429,2.389,2.389,0,0,1,.054,1.5.053.053,0,0,0-.054-.054c-.054-.054-.054-.107-.107-.161s-.054-.107-.107-.161-.107-.107-.107-.161c-.054-.054-.107-.107-.107-.161l-.161-.161-.161-.161c-.054-.054-.107-.107-.107-.161l-.107-.107-.107-.107c-.054-.054-.054-.054-.107-.054l-.054-.054a.053.053,0,0,0,.054.054.187.187,0,0,1,.054.107c0,.054.054.054.107.107s.054.107.107.161.054.107.107.161.054.107.107.161.054.107.107.161.054.107.107.161.054.107.107.161c0,.054.054.107.054.161s.054.107.054.161v.054a2.343,2.343,0,0,1-1.235-.7A.775.775,0,0,1,46.192,13.375Zm-2.094,1.4h.107c.483.161,1.127.376,1.557.483a3.832,3.832,0,0,1,1.718.752,9.454,9.454,0,0,0,.161,1.772c.054.161.054.268.107.429a.053.053,0,0,0-.054-.054l-.161-.161-.161-.161-.161-.161-.161-.161-.161-.161-.161-.161-.161-.161a17489936990817.012,17489936990817.012,0,0,1-.429-.322l-.161-.161a1.631,1.631,0,0,0-.376-.268c-.054-.054-.107-.107-.161-.107-.054-.054-.107-.054-.161-.107a1.171,1.171,0,0,1-.268-.215.166.166,0,0,0-.107-.054c-.054,0-.054-.054-.107-.054l-.215-.107a.588.588,0,0,0,.215.107c.054,0,.054.054.107.054s.054.054.107.107a.942.942,0,0,1,.268.215c.054.054.107.054.161.107l.161.161.322.322.161.161.161.161.161.161.161.161.161.161.161.161.161.161.161.161.161.161c.054.054.107.107.107.161a1.123,1.123,0,0,1,.215.322c.054.054.054.107.107.161s.054.107.107.161a.741.741,0,0,0,.161.215l.107.215h0a6.758,6.758,0,0,0,1.342,1.772,5.829,5.829,0,0,1-5.53-5.8C44.045,15.146,44.045,14.932,44.1,14.771Zm-3.114,2.684a.681.681,0,0,0,.054-.322,7.3,7.3,0,0,1,.913-2.094L42,14.985h.054l.483.322a4.873,4.873,0,0,1,1.45,1.718,4.207,4.207,0,0,0,.483,1.127,5.909,5.909,0,0,1-.752,4.993c0-.054-.054-.107-.054-.161a2.618,2.618,0,0,1-.161-.376,5.07,5.07,0,0,1-.161-.483c-.054-.107-.054-.161-.107-.268s-.054-.215-.107-.268c-.054-.107-.054-.215-.107-.322s-.054-.215-.107-.322-.054-.215-.107-.322c0-.054-.054-.107-.054-.161v-.215c-.054-.215-.107-.483-.161-.7s-.107-.483-.161-.7c0-.107-.054-.215-.054-.322a6826.4,6826.4,0,0,1-.107-.322c0-.107-.054-.215-.054-.322s-.054-.215-.054-.322a.681.681,0,0,0-.054-.322v.322a.681.681,0,0,0,.054.322.681.681,0,0,0,.054.322v.322c0,.107.054.215.054.376.054.215.054.483.107.7s.107.483.161.7v.215c0,.054.054.107.054.161,0,.107.054.161.054.268a8.344,8.344,0,0,0-1.933-2.416A3.152,3.152,0,0,0,40.985,17.455ZM39,16.328a.807.807,0,0,1,.537-.483.8.8,0,0,1,.376-.054.871.871,0,0,1,.859.591,2.748,2.748,0,0,1-.215,1.557c-.054-.054-.054-.107-.107-.215-.054-.054-.054-.161-.107-.215s-.054-.161-.107-.215-.054-.161-.107-.215-.054-.161-.107-.215a.323.323,0,0,1-.054-.215c0-.054-.054-.107-.054-.215,0-.054-.054-.107-.054-.161a4223.664,4223.664,0,0,1-.107-.215v.376a.406.406,0,0,0,.054.215.323.323,0,0,0,.054.215c0,.054.054.161.054.215,0,.107.054.161.054.268s.054.161.054.268.054.161.054.215.054.107.054.161a2.594,2.594,0,0,1-1.181-.913A1.18,1.18,0,0,1,39,16.328Zm-2.792,2.9a12.363,12.363,0,0,0-1.02-2.094v-.054l.054-.054H35.4a8.4,8.4,0,0,1,4.993,1.611h0l.107.107c.054,0,.054.054.107.054.054.054.107.054.107.107h0c.054.054.107.054.107.107a7.925,7.925,0,0,1,2.416,4.026c-.054-.054-.107-.161-.215-.215-.054-.054-.107-.161-.215-.215l-.215-.215-.268-.268-.268-.268a5.878,5.878,0,0,0-.591-.537c-.107-.107-.215-.161-.322-.268s-.215-.161-.322-.268l-.161-.161c-.054-.054-.107-.107-.161-.107-.107-.107-.215-.161-.322-.268-.215-.161-.483-.322-.7-.483s-.483-.322-.7-.483c-.107-.054-.215-.161-.322-.215-.054-.054-.107-.054-.161-.107s-.107-.054-.161-.107a1.123,1.123,0,0,1-.322-.215,1.174,1.174,0,0,1-.268-.161c-.161-.107-.376-.215-.537-.322a3.079,3.079,0,0,0-.376-.215,3.884,3.884,0,0,1-.376-.215,2.456,2.456,0,0,1,.322.215c.107.054.215.161.376.268l.483.322c.107.054.161.107.268.161s.215.161.322.215c.054.054.107.054.161.107s.107.054.161.107c.107.054.215.161.322.215l.644.483a7.892,7.892,0,0,0,.7.537c.107.107.215.161.322.268l.161.161.161.161a1.423,1.423,0,0,0,.322.268,1.423,1.423,0,0,0,.322.268,5.061,5.061,0,0,1,.537.537l.268.268c.054.107.161.161.215.268l.215.215c.054.054.107.161.161.215a1.631,1.631,0,0,1,.268.376c.054.054.107.107.107.161h-.107a7.567,7.567,0,0,1-5.046-1.557A1.423,1.423,0,0,0,37.6,21.7h0A6,6,0,0,1,36.207,19.227Zm-1.181,2.953a1.079,1.079,0,0,1-.215-.7.931.931,0,0,1,.913-.859h.107a2.738,2.738,0,0,1,1.288.966H35.938a.323.323,0,0,1,.215.054h.215c.054,0,.161.054.215.054s.054,0,.107.054c.054,0,.054,0,.107.054.054,0,.107.054.215.054a2.561,2.561,0,0,1-1.288.591H35.67A.616.616,0,0,1,35.026,22.179Zm.913.913c.107.107.215.268.322.376a4.251,4.251,0,0,1,.913,3.006h-.752v1.986h.215a4.234,4.234,0,0,1-.644.805v-.054a2.325,2.325,0,0,1-.054-.268c0-.107-.054-.215-.054-.322s-.054-.268-.054-.429a1.486,1.486,0,0,0-.054-.483V25.615a1.486,1.486,0,0,1,.054-.483,1.182,1.182,0,0,1,.054-.429c0-.107.054-.268.054-.376a2.325,2.325,0,0,1,.054-.268.314.314,0,0,1,.054-.215.535.535,0,0,1-.054.215,2.325,2.325,0,0,0-.054.268c0,.107-.054.215-.054.322s-.054.268-.054.429-.054.322-.054.483-.054.322-.054.483a2.014,2.014,0,0,1-.054.537v.483a4.663,4.663,0,0,0-.913-1.772l-.161-.161A4.224,4.224,0,0,1,35.938,23.092Zm-2.47.107a.661.661,0,0,1,.537-.268h.054a.8.8,0,0,1,.752.7,1.571,1.571,0,0,1-.429,1.02h0a.187.187,0,0,0-.054-.107c0-.054-.054-.107-.054-.161s-.054-.107-.054-.161a5973.162,5973.162,0,0,1-.107-.322V24.7h0a1.939,1.939,0,0,1-.7-.966A.494.494,0,0,1,33.469,23.2Zm-2.2.107c0-.054.107-.107.107-.107h.054c.268.215.537.376.805.591a13.294,13.294,0,0,1,1.4,1.02c.054,0,.054.054.107.054a9.6,9.6,0,0,1,.7.752,5.381,5.381,0,0,1,1.074,3.543.053.053,0,0,0-.054-.054c-.054-.054-.054-.107-.107-.161a.741.741,0,0,1-.161-.215c-.054-.054-.107-.161-.161-.215l-.107-.107-.107-.107c-.107-.161-.268-.322-.376-.483-.268-.322-.591-.644-.859-.966-.322-.322-.591-.644-.859-.966-.107-.161-.268-.322-.376-.483-.054-.054-.107-.161-.161-.215s-.107-.161-.161-.215A3.08,3.08,0,0,1,31.8,24.6c-.054-.054-.054-.107-.107-.161,0-.054-.054-.107-.054-.161a.053.053,0,0,0-.054-.054v-.054c0-.054,0-.054-.054-.107A.053.053,0,0,0,31.482,24v.054a.166.166,0,0,0,.054.107v.107c0,.054.054.107.054.161s.054.107.054.161a3.165,3.165,0,0,0,.215.429c.054.054.054.161.107.215s.107.161.161.215l.322.483c.268.322.537.7.805,1.02s.537.7.805,1.02l.322.483h0a3.818,3.818,0,0,0-2.47-.913h-.429a4.721,4.721,0,0,1-.322-.537v-.054A7.106,7.106,0,0,1,31.268,23.307ZM29.5,27.333a1.1,1.1,0,0,1,0-.591.764.764,0,0,1,.7-.483.681.681,0,0,1,.322.054,1.8,1.8,0,0,1,.7.913h-.107a.2.2,0,0,1-.161-.054c-.054,0-.107-.054-.161-.054s-.107-.054-.161-.054-.107-.054-.161-.054-.107-.054-.161-.054-.107-.054-.161-.054a.187.187,0,0,1-.107-.054c-.054,0-.054-.054-.107-.054s-.054-.054-.107-.054a.053.053,0,0,1-.054-.054l.054.054.054.054c.054,0,.054.054.107.054l.107.107c.054.054.107.054.107.107.054.054.107.054.161.107s.107.054.161.107.107.054.161.107.107.054.161.107c.054,0,.107.054.161.054s.107.054.161.054h0a2.226,2.226,0,0,1-.859.161c-.107,0-.268,0-.322-.054A.47.47,0,0,1,29.5,27.333Zm.054,1.127a7.569,7.569,0,0,1,2.631-.644,4.094,4.094,0,0,1,2.953,1.45.053.053,0,0,0,.054.054c0,.054.054.054.054.107-.054,0-.054-.054-.107-.054a.763.763,0,0,0-.322-.107,1,1,0,0,0-.376-.107,1.264,1.264,0,0,0-.429-.107c-.161-.054-.322-.054-.483-.107h-.215a.584.584,0,0,1-.268-.054c-.161,0-.322-.054-.483-.054H30.946a.484.484,0,0,0-.268.054.847.847,0,0,0-.215-.054H31.7a1.182,1.182,0,0,1,.429.054h.215a.323.323,0,0,1,.215.054,1.568,1.568,0,0,1,.483.107c.054,0,.161.054.215.054s.054,0,.107.054c.054,0,.054,0,.107.054a1.66,1.66,0,0,0,.429.107c.161.054.268.107.429.161.107.054.268.107.376.161a1.174,1.174,0,0,1,.268.161c.107.054.161.107.215.107.054.054.107.054.161.107h0a4.278,4.278,0,0,1-2.523.805,4.453,4.453,0,0,1-3.49-1.664,2.273,2.273,0,0,1-.268-.376A.853.853,0,0,1,29.55,28.461ZM27.4,28.3h0a1.047,1.047,0,0,1,.429.054,2.932,2.932,0,0,1,.966.322l.322.483a5,5,0,0,0,1.772,1.4,4.634,4.634,0,0,1,.644,2.953,5.577,5.577,0,0,0-1.4-1.4l-.054-.054-.107-.107-.107-.107-.215-.215c-.054-.054-.054-.107-.107-.107-.054-.054-.054-.107-.107-.161s-.054-.107-.107-.161-.054-.107-.107-.161-.054-.107-.107-.161-.054-.107-.107-.161-.054-.107-.107-.161-.054-.107-.107-.161-.054-.107-.107-.161-.054-.107-.107-.161l-.161-.322a.2.2,0,0,1-.054-.161c0-.054-.054-.107-.054-.161-.054-.107-.107-.161-.107-.268,0-.054-.054-.054-.054-.107S28.1,29,28.1,28.944a.416.416,0,0,1-.054-.161.416.416,0,0,0,.054.161c0,.054,0,.054.054.107,0,.054.054.054.054.107.054.054.054.161.107.268,0,.054.054.107.054.161s.054.107.054.161l.161.322c.054.054.054.107.107.161s.054.107.107.161.054.107.107.161.054.107.107.161.054.107.107.161.054.107.107.161.054.107.107.161.054.107.107.161.054.107.107.161v.054a4.45,4.45,0,0,0-1.5-.429,3.363,3.363,0,0,1-.322-1.45,12.052,12.052,0,0,0-.161-1.288L27.4,28.3Zm-1.342,1.45a.725.725,0,0,1,1.02-.107,1.936,1.936,0,0,1,.376,1.02c-.054,0-.054-.054-.107-.054a.187.187,0,0,1-.107-.054.115.115,0,0,1-.107-.107c-.054-.054-.107-.054-.107-.107-.054-.054-.107-.054-.107-.107-.054-.054-.107-.054-.107-.107l-.107-.107L26.6,29.91c-.054-.054-.054-.054-.107-.054l-.054-.054-.054-.054.054.054.054.054c0,.054.054.054.054.107s.054.054.054.107c.054.054.054.107.107.107.054.054.054.107.107.107.054.054.054.107.107.161s.054.107.107.107c.054.054.054.107.107.107l.107.107.107.107h-.107a1.717,1.717,0,0,1-1.02-.268.583.583,0,0,1-.215-.483C26.006,29.964,25.9,29.91,26.06,29.749Zm-1.235,3.6a2.95,2.95,0,0,0-.483-.376l-.644-.483c-.161-.107-.268-.215-.376-.268a8.135,8.135,0,0,1,3.651-.913,5.217,5.217,0,0,1,4.295,2.147H29.925c-.215,0-.429-.054-.644-.054a2.7,2.7,0,0,1-.644-.107h-.161a.2.2,0,0,1-.161-.054c-.107,0-.215-.054-.322-.054s-.215-.054-.322-.054-.215-.054-.322-.054-.215-.054-.322-.054-.215-.054-.322-.054l-.644-.161a2.325,2.325,0,0,1-.268-.054c-.107,0-.161-.054-.268-.054a1.567,1.567,0,0,0-.483-.107,3.422,3.422,0,0,1-.376-.107.406.406,0,0,0-.215-.054h-.107a.053.053,0,0,1,.054.054c.054,0,.107.054.215.054a3.422,3.422,0,0,0,.376.107,5.067,5.067,0,0,0,.483.161c.107,0,.161.054.268.107s.161.054.268.107c.215.054.376.107.591.161.107.054.215.054.322.107s.215.054.322.107.215.054.322.107.215.054.322.107c.107,0,.215.054.322.054a9556.975,9556.975,0,0,1,.322.107,2.7,2.7,0,0,0,.644.107c.215.054.429.054.644.107a2.325,2.325,0,0,1,.268.054h.322c.161,0,.322.054.483.054h.268a5.169,5.169,0,0,1-2.845.966A7.875,7.875,0,0,1,24.825,33.346Zm1.02,2.523a.484.484,0,0,1-.268.054h0a.693.693,0,0,1-.7-.483.915.915,0,0,1,0-.537.614.614,0,0,1,.429-.376.4.4,0,0,1,.268-.054,2.527,2.527,0,0,1,.859.215h0a.187.187,0,0,0-.107.054c-.054,0-.107.054-.161.054s-.107.054-.161.054c-.054.054-.107.054-.161.107s-.107.054-.161.107-.107.054-.161.107-.107.054-.107.107l-.107.107c-.054,0-.054.054-.107.054l-.054.054V35.44l.054-.054a.166.166,0,0,0,.107-.054c.054,0,.054-.054.107-.054a.187.187,0,0,0,.107-.054c.054,0,.107-.054.161-.054s.107-.054.161-.054.107-.054.161-.054.107-.054.161-.054a.2.2,0,0,0,.161-.054H26.6A1.905,1.905,0,0,1,25.845,35.869Zm.376,1.5a1.66,1.66,0,0,1-.429-.107h0a9.208,9.208,0,0,0,.483-1.02l.322-.805c.215-.322.322-.537.376-.591a4,4,0,0,0,1.4.215h.215c-.054,0-.054.054-.107.054-.054.054-.107.054-.161.107s-.107.054-.161.107-.107.054-.161.107-.107.054-.161.107l-.054.054-.054.054c-.054.054-.107.054-.161.107s-.107.107-.161.107c-.054.054-.107.054-.107.107-.054.054-.107.054-.107.107l-.215.215a.741.741,0,0,0-.161.215l-.161.161c-.054.107-.107.107-.107.107l.107-.107.161-.161a.741.741,0,0,1,.215-.161c.054-.054.161-.107.215-.215.054-.054.107-.054.107-.107.054-.054.107-.054.161-.107s.107-.054.161-.107.107-.054.161-.107l.054-.054.054-.054c.054-.054.107-.054.161-.107s.107-.054.161-.107.107-.054.161-.107.107-.054.161-.107a.2.2,0,0,1,.161-.054c.054,0,.107-.054.161-.054s.107-.054.161-.054.107-.054.161-.054.107-.054.161-.054.054,0,.107-.054a5.877,5.877,0,0,0,2.04-.966,4.6,4.6,0,0,1-4.456,3.49A1.554,1.554,0,0,1,26.221,37.373Zm.429,1.02s-.054-.054,0-.054l.268-.268a2.95,2.95,0,0,1,.483-.376,5.061,5.061,0,0,0,2.2-.7h.215a4.408,4.408,0,0,1,3.006,1.181h-.054a2.325,2.325,0,0,1-.268.054c-.107,0-.215.054-.322.054h-.429a1.486,1.486,0,0,0-.483.054H29.711a1.486,1.486,0,0,1-.483-.054c-.161,0-.322-.054-.483-.054h-.752a2.325,2.325,0,0,1-.268-.054.314.314,0,0,1-.215-.054.535.535,0,0,1,.215.054,2.325,2.325,0,0,0,.268.054h.161a.2.2,0,0,1,.161.054.406.406,0,0,1,.215.054h.215c.161,0,.322.054.483.054s.322.054.483.054h1.235a4.289,4.289,0,0,0-1.986,1.127l-.054.054A4.135,4.135,0,0,1,26.651,38.393Zm.913,2.47h-.107a.743.743,0,0,1-.7-.591.72.72,0,0,1,.591-.805h.107a1.885,1.885,0,0,1,.859.322c-.054,0-.054.054-.107.054a.187.187,0,0,0-.107.054c-.054,0-.107.054-.161.054s-.107.054-.161.054-.107.054-.161.054a6826.4,6826.4,0,0,0-.322.107h1.074A1.621,1.621,0,0,1,27.563,40.862Zm-.322,2.792h0c.268-.644.483-1.181.644-1.664a4.658,4.658,0,0,1,1.235-2.147A5.587,5.587,0,0,1,32.771,38.5a.053.053,0,0,1-.054.054c-.054.054-.107.161-.215.268-.054.054-.054.107-.107.161l-.161.161a.741.741,0,0,0-.161.215c-.054.054-.107.161-.161.215-.107.161-.268.268-.376.429l-.215.215-.215.215L31,40.54l-.107.107-.215.215c-.161.161-.322.268-.483.429s-.322.268-.483.429c-.054.054-.161.107-.215.215l-.107.107-.107.107c-.054.054-.161.107-.215.161s-.161.107-.215.161c-.107.107-.268.161-.376.268a1.171,1.171,0,0,0-.268.215,2.789,2.789,0,0,1-.268.161,2.788,2.788,0,0,0,.268-.161,1.174,1.174,0,0,1,.268-.161,2.335,2.335,0,0,1,.376-.215c.054-.054.161-.107.215-.161s.161-.107.215-.161c.054,0,.054-.054.107-.054L29.5,42.1a1.174,1.174,0,0,1,.268-.161c.161-.107.322-.268.483-.376a3.473,3.473,0,0,0,.483-.429c.107-.054.161-.161.268-.215.054-.054.107-.054.107-.107.054-.054.107-.054.107-.107l.215-.215.215-.215.429-.429c.054-.054.107-.161.161-.215a.741.741,0,0,0,.161-.215l.161-.161.161-.161.054-.054A6.113,6.113,0,0,1,30.946,42.2,5.747,5.747,0,0,1,27.241,43.654Zm4.08.268a.752.752,0,0,1-.644.483h0a.323.323,0,0,1-.215-.054.681.681,0,0,1-.429-.859,1.742,1.742,0,0,1,.805-.7c0,.054,0,.054-.054.107a143370.586,143370.586,0,0,1-.161.483v.7c0-.054,0-.054.054-.107,0-.054,0-.054.054-.107a.187.187,0,0,1,.054-.107c0-.054.054-.107.054-.161s.054-.107.054-.161.054-.107.054-.161A.187.187,0,0,1,31,43.171a.187.187,0,0,1,.054-.107c0-.054.054-.054.054-.107A1.1,1.1,0,0,1,31.321,43.922Zm1.4.644c-.107.107-.215.161-.322.268h0a5.061,5.061,0,0,1-.966-2.631,5.61,5.61,0,0,0,1.235-1.718v.107a9106.076,9106.076,0,0,0-.107.537,16694.487,16694.487,0,0,0-.107.537v.7a13239.687,13239.687,0,0,1,.107-.429.323.323,0,0,1,.054-.215,2.325,2.325,0,0,0,.054-.268c0-.107.054-.161.054-.268s.054-.161.054-.268c0-.054.054-.161.054-.215.054-.161.054-.322.107-.483s.054-.268.107-.429a3.42,3.42,0,0,1,.107-.376c.054-.107.054-.215.107-.322s.054-.161.107-.268v-.054A4.389,4.389,0,0,1,32.717,44.566Zm5.852-7.033h-.644a8.806,8.806,0,0,0-4.349,1.181.741.741,0,0,0-.161-.215,8.972,8.972,0,0,1,5.261-1.611,9.875,9.875,0,0,0,1.181.913A5.512,5.512,0,0,0,38.569,37.534Zm.966.429ZM37.5,46.231a.279.279,0,0,1,.215-.107h.107c.054,0,.054,0,.054.054h.054c.537.376,1.074.7,1.611,1.02a5.946,5.946,0,0,1-.215,1.664.053.053,0,0,0-.054-.054,7.4,7.4,0,0,0-1.127-1.342,5.346,5.346,0,0,1-.537-.591A.513.513,0,0,1,37.5,46.231Zm-.215.591c.054.054.054.107.107.215a6.434,6.434,0,0,0,.591.644,7.122,7.122,0,0,1,1.074,1.288c.054.054.054.161.107.215-.054.054-.054.107-.107.161a2.044,2.044,0,0,1-1.235.483c-.429-.215-.805-.376-1.127-.537Zm-6.389,3.006a5.738,5.738,0,0,1-.913-1.342,11.851,11.851,0,0,1,7.409,1.4c-.161,0-.376.054-.591.054l-.376.054v1.986h1.986l-.054.215c-.591.429-.966.322-2.362-.268a3.284,3.284,0,0,1-.644-.268c-.483-.161-1.611-.483-2.362-.644l-.322-.107A4.908,4.908,0,0,1,30.892,49.828Zm7.784,2.684c.429.215.859.376,1.342.591a20.01,20.01,0,0,1-1.879.859c.054-.107.054-.161.107-.268Zm-.054-.537h3.49a12.674,12.674,0,0,1-1.4.913C40.394,52.727,39.321,52.244,38.623,51.975ZM29.711,53.1a3.171,3.171,0,0,1,1.02-1.4,3.955,3.955,0,0,1,1.933-.591h.161c.752.161,1.986.483,2.47.644.215.107.429.161.644.268a5.368,5.368,0,0,0,1.718.537,1.224,1.224,0,0,0,.591-.161l-.429,1.127h0a1.392,1.392,0,0,1-.591.859.836.836,0,0,1-.805.054c-.054,0-.107-.054-.161-.054A16.5,16.5,0,0,0,29.711,53.1Zm10.737,2.309H36.1c.107-.215.483-.429,1.074-.7.107-.054.215-.054.268-.107.107-.054.161-.054.268-.107a19.41,19.41,0,0,0,4.832-2.577H45.28a5.061,5.061,0,0,1-.537.537,12.4,12.4,0,0,1-4.295,2.953Zm3.543.054a6.425,6.425,0,0,1-1.4.376,2.614,2.614,0,0,1-.644.054,3.329,3.329,0,0,1-1.235-.215c-.107-.054-.161-.054-.215-.107a14.407,14.407,0,0,0,4.349-2.953c.215-.215.429-.483.644-.7h2.362A10.329,10.329,0,0,1,43.991,55.465Zm3.6-.7a9.346,9.346,0,0,1-.752.644H44.474a11.056,11.056,0,0,0,3.6-3.49c.644-.054,1.288-.054,1.879-.161a16.366,16.366,0,0,1-1.02,1.611A8.175,8.175,0,0,1,47.588,54.767ZM50,54.552H49.9c-.537,0-1.074,0-1.611-.054.322-.322.591-.644.859-.966a9.708,9.708,0,0,0,1.02-1.557,15.55,15.55,0,0,0,1.02,1.557c.268.322.537.644.805.913A11.676,11.676,0,0,1,50,54.552Zm3.543.859a9.349,9.349,0,0,1-.752-.644,10.768,10.768,0,0,1-1.342-1.4,10.979,10.979,0,0,1-1.074-1.664l1.127-.161a10.959,10.959,0,0,0,3.812,3.865Zm5.53.268a4.573,4.573,0,0,1-1.235.215,2.614,2.614,0,0,1-.644-.054,6.425,6.425,0,0,1-1.4-.376,10.717,10.717,0,0,1-4.134-3.973c.483-.107.966-.215,1.4-.322a1.263,1.263,0,0,1,.429-.107,14.365,14.365,0,0,0,5.744,4.563A.541.541,0,0,1,59.077,55.679Zm4.671-.268H59.292a14.286,14.286,0,0,1-5.583-4.456,19.573,19.573,0,0,0,1.879-.752.741.741,0,0,1,.161.215,9.393,9.393,0,0,0,1.02,1.074,17.828,17.828,0,0,0,5.315,3.06c.107.054.161.054.268.107s.215.054.268.107A2.232,2.232,0,0,1,63.748,55.411ZM59.023,52.78a13.517,13.517,0,0,1-1.986-1.4,9.81,9.81,0,0,0,2.9-1.342V50.1l.7,1.986C60.1,52.3,59.56,52.566,59.023,52.78Zm1.986.859A8.939,8.939,0,0,1,59.775,53a4.28,4.28,0,0,0,.859-.429Zm7.677-1.986A4.556,4.556,0,0,1,69.653,53a14.876,14.876,0,0,0-6.5,1.45c-.107.054-.161.054-.215.107-.054,0-.107-.054-.161-.054-.107-.054-.215-.054-.268-.107-.107-.054-.161-.054-.268-.107-.215-.054-.376-.161-.591-.215a1.949,1.949,0,0,1-.161-.376h0l-.429-1.127a.681.681,0,0,0,.322.054,4.356,4.356,0,0,0,1.557-.483,3.284,3.284,0,0,0,.644-.268,17.344,17.344,0,0,1,2.684-.805h.215A3.718,3.718,0,0,1,68.687,51.653Zm.7-3.275a8.249,8.249,0,0,1-.966,1.4,5,5,0,0,1-1.879,1.074l-.215.054a17.344,17.344,0,0,0-2.684.805,3.9,3.9,0,0,0-.644.268c-1.074.429-1.5.591-1.933.376l-.7-1.933a.681.681,0,0,0,.322.054,2.158,2.158,0,0,0,.805-.215h0c.483-.215.966-.376,1.342-.537A12.175,12.175,0,0,1,69.385,48.378ZM62.03,47.036l.644,2.47c-.429.161-.859.376-1.342.537h0c-.268.107-.913.268-1.127-.054h0v-.054h0a.975.975,0,0,1,.107-.913,8.837,8.837,0,0,1,1.074-1.235l.591-.591C61.922,47.143,61.976,47.09,62.03,47.036Zm-.591-.805c.054,0,.054-.054.107-.054.107,0,.268.107.268.215h0v.054h0l.054.107a.857.857,0,0,1-.161.429,5.347,5.347,0,0,1-.537.591,7.114,7.114,0,0,0-1.127,1.288,1.087,1.087,0,0,0-.161.966,10.143,10.143,0,0,1-3.006,1.342,7.546,7.546,0,0,1-.913-.966c-.054-.054-.054-.107-.107-.161a12.153,12.153,0,0,0,2.255-1.4,9.9,9.9,0,0,0,1.342-1.235A9.667,9.667,0,0,0,61.439,46.231Zm-3.6,2.2C55.051,50.579,51.454,51.6,46.729,51.6H36.8V50.365c2.577-.215,3.114-.483,3.114-3.7V38.07A7.3,7.3,0,0,1,42,38.983v2.2l-2.094,2.9.7.161c.107,0,.215.054.322.054a1.233,1.233,0,0,0,.752-.215h0l.268-.215v5.154A1.835,1.835,0,0,0,43.83,50.9h2.416a17.813,17.813,0,0,0,8-1.5c3.6-1.825,5.476-5.315,5.53-10.254v-.966a13.732,13.732,0,0,1,1.45-.268c.215,0,.429-.054.644-.054h.107v.483C62.083,42.848,60.741,46.231,57.842,48.432Zm4.188-10.9a3.545,3.545,0,0,0-.752.054,10.749,10.749,0,0,0-1.288.215,9.875,9.875,0,0,0,1.181-.913,9.408,9.408,0,0,1,5.208,1.557c-.054.054-.107.107-.107.161A8.885,8.885,0,0,0,62.03,37.534Zm5.369,7.3h0a2.273,2.273,0,0,1-.376-.268,4.317,4.317,0,0,1-.591-5.8v.054a.907.907,0,0,0,.107.268c.054.107.054.215.107.322s.054.268.107.376c.054.161.054.268.107.429s.054.322.107.483c0,.054.054.161.054.215a2.325,2.325,0,0,1,.054.268c0,.107.054.161.054.268s.054.161.054.268a33100009164316.742,33100009164316.742,0,0,1,.107.429.323.323,0,0,0,.054.215v-.7a9106.076,9106.076,0,0,0-.107-.537,11129.569,11129.569,0,0,1-.107-.537v-.107A6.678,6.678,0,0,0,68.365,42.2,5.061,5.061,0,0,1,67.4,44.835Zm1.879-.483c-.054,0-.161.054-.215.054h0a.693.693,0,0,1-.644-.483,1.607,1.607,0,0,1,.161-.966c0,.054.054.054.054.107s.054.054.054.107a.187.187,0,0,0,.054.107c0,.054.054.107.054.161s.054.107.054.161.054.107.054.161a1689.393,1689.393,0,0,0,.107.215c0,.054,0,.054.054.107v-.7A5513.706,5513.706,0,0,1,68.9,42.9c0-.054,0-.107-.054-.107a1.742,1.742,0,0,1,.805.7A.585.585,0,0,1,69.277,44.352Zm3.275-.752h0a5.762,5.762,0,0,1-5.691-4.617l.054.054.161.161.161.161a11805.65,11805.65,0,0,0,.322.429l.429.429.215.215.215.215.107.107c.054.054.107.054.107.107.107.054.161.161.268.215.161.161.322.268.483.429.161.107.322.268.483.376.107.054.161.107.268.161l.107.107c.054.054.054.054.107.054.054.054.161.107.215.161s.161.107.215.161a3.08,3.08,0,0,0,.376.215,1.174,1.174,0,0,1,.268.161,2.789,2.789,0,0,0,.268.161,2.788,2.788,0,0,1-.268-.161c-.054-.054-.161-.107-.268-.215-.107-.054-.215-.161-.376-.268a.741.741,0,0,0-.215-.161c-.054-.054-.161-.107-.215-.161l-.107-.107-.107-.107c-.054-.054-.161-.107-.215-.215a3.473,3.473,0,0,1-.483-.429c-.161-.161-.322-.268-.483-.429l-.215-.215-.107-.107-.107-.107-.215-.215-.215-.215c-.161-.161-.268-.322-.376-.429-.054-.054-.107-.161-.161-.215a.741.741,0,0,1-.161-.215l-.161-.161c-.054-.054-.107-.107-.107-.161a1.171,1.171,0,0,0-.215-.268.053.053,0,0,0-.054-.054,5.886,5.886,0,0,1,3.651,1.342,4.061,4.061,0,0,1,1.235,2.147C72.069,42.473,72.23,43.01,72.552,43.6Zm.429-3.275a.7.7,0,0,1-.7.591h-.107a1.67,1.67,0,0,1-.859-.644h1.074a11947,11947,0,0,0-.322-.107.2.2,0,0,1-.161-.054c-.054,0-.107-.054-.161-.054S71.64,40,71.586,40a.187.187,0,0,1-.107-.054c-.054,0-.054-.054-.107-.054a1.885,1.885,0,0,1,.859-.322h.107A.6.6,0,0,1,72.982,40.325Zm.107-1.986v.054a4.415,4.415,0,0,1-2.255,1.288l-.054-.054A5.185,5.185,0,0,0,68.794,38.5h1.235c.161,0,.322-.054.483-.054s.322-.054.483-.054h.215a.406.406,0,0,0,.215-.054.2.2,0,0,0,.161-.054h.161a2.325,2.325,0,0,0,.268-.054.847.847,0,0,1,.215-.054.535.535,0,0,0-.215.054,2.325,2.325,0,0,1-.268.054H71c-.161,0-.322.054-.483.054a1.486,1.486,0,0,0-.483.054H68.472a1.486,1.486,0,0,1-.483-.054h-.429c-.107,0-.215-.054-.322-.054a2.326,2.326,0,0,1-.268-.054h-.054a4.408,4.408,0,0,1,3.006-1.181h.215a5.069,5.069,0,0,0,2.147.7c.161.107.376.268.537.376A.357.357,0,0,1,73.089,38.339Zm.859-1.127h0a1.264,1.264,0,0,1-.429.107,4.34,4.34,0,0,1-.859.054A4.561,4.561,0,0,1,68.2,33.937,6.1,6.1,0,0,0,70.3,34.9c.054,0,.054,0,.107.054.054,0,.107.054.161.054s.107.054.161.054.107.054.161.054.107.054.161.054.107.054.161.054c.054.054.107.054.161.107s.107.054.161.107.107.054.161.107.107.054.161.107l.054.054.054.054c.054.054.107.054.161.107s.107.054.161.107.107.054.161.107.107.054.107.107c.107.054.161.161.215.215s.161.107.215.161l.161.161c.107.054.107.107.107.107l-.107-.107-.161-.161a.741.741,0,0,1-.161-.215l-.215-.215c-.054-.054-.107-.054-.107-.107-.054-.054-.107-.054-.107-.107-.054-.054-.107-.054-.161-.107s-.107-.054-.161-.107l-.054-.054-.054-.054c-.054-.054-.107-.054-.161-.107s-.107-.054-.161-.107-.107-.054-.161-.107-.107-.054-.161-.107c-.054,0-.054-.054-.107-.054h.215a5.44,5.44,0,0,0,1.4-.215.741.741,0,0,1,.161.215,3.165,3.165,0,0,0,.215.429l.322.805A6.407,6.407,0,0,0,73.948,37.211Zm.859-2.362a.627.627,0,0,1,0,.537.764.764,0,0,1-.7.483h0a.484.484,0,0,1-.268-.054,1.742,1.742,0,0,1-.7-.805h.268a23892.565,23892.565,0,0,1,.322.107c.054,0,.107.054.161.054s.107.054.161.054.107.054.161.054a.187.187,0,0,1,.107.054c.054,0,.054.054.107.054s.054,0,.107.054a.053.053,0,0,1,.054.054l-.054-.054-.054-.054a.187.187,0,0,0-.107-.054c-.054,0-.054-.054-.107-.107s-.107-.054-.107-.107c-.054-.054-.107-.054-.161-.107s-.107-.054-.161-.107-.107-.054-.161-.107c-.054,0-.107-.054-.161-.054s-.107-.054-.161-.054a.187.187,0,0,1-.107-.054h0a2.251,2.251,0,0,1,.859-.215.4.4,0,0,1,.268.054A.614.614,0,0,1,74.807,34.849Zm1.235-2.362-.644.483a2.95,2.95,0,0,0-.483.376,6.01,6.01,0,0,1-3.543,1.5,5.169,5.169,0,0,1-2.845-.966h.268c.161,0,.322-.054.483-.054H69.6c.107,0,.215-.054.322-.054.215-.054.429-.054.644-.107a2.72,2.72,0,0,1,.7-.107,11947,11947,0,0,1,.322-.107c.107,0,.215-.054.322-.054a.763.763,0,0,0,.322-.107c.107-.054.215-.054.322-.107s.215-.054.322-.107.215-.054.322-.107c.215-.054.429-.107.591-.161.107-.054.215-.054.268-.107.107-.054.161-.054.268-.107l.483-.161a1.366,1.366,0,0,1,.376-.107.406.406,0,0,1,.215-.054.053.053,0,0,0,.054-.054h-.107c-.054,0-.107.054-.215.054a3.423,3.423,0,0,1-.376.107c-.161.054-.322.054-.483.107-.107,0-.161.054-.268.054a2.325,2.325,0,0,0-.268.054l-.644.161c-.107,0-.215.054-.322.054s-.215.054-.322.054-.215.054-.322.054-.215.054-.322.054-.215.054-.322.054a.2.2,0,0,0-.161.054h-.161c-.215.054-.429.054-.7.107-.215,0-.429.054-.644.054H68.472a5.217,5.217,0,0,1,4.295-2.147,9.349,9.349,0,0,1,3.7.913A1.3,1.3,0,0,1,76.042,32.487Z" transform="translate(-23 -10.1)"/>
          <circle id="Эллипс_155" data-name="Эллипс 155" cx="0.215" cy="0.215" r="0.215" transform="translate(25.93 24.32)"/>
          <circle id="Эллипс_156" data-name="Эллипс 156" cx="0.215" cy="0.215" r="0.215" transform="translate(24.535 26.414)"/>
        </g>
        <g id="Сгруппировать_9459" data-name="Сгруппировать 9459" transform="translate(0 48.854)">
          <g id="Сгруппировать_9445" data-name="Сгруппировать 9445" transform="translate(0 0)">
            <g id="Сгруппировать_9437" data-name="Сгруппировать 9437">
              <path id="Контур_12614" data-name="Контур 12614" d="M15.317,101.1H10.861v.483c1.127.107,1.235.161,1.235,1.5v5.905c0,1.288-.161,1.4-1.4,1.5v.483h3.919a6.817,6.817,0,0,0,4.4-1.235,4.851,4.851,0,0,0,1.879-4.026,4.259,4.259,0,0,0-1.288-3.221C18.646,101.476,17.2,101.1,15.317,101.1Zm0,9.18c-1.074,0-1.4-.322-1.4-1.45v-6.12c0-.483.054-.752.161-.859a1.631,1.631,0,0,1,1.02-.215,3.407,3.407,0,0,1,2.362.805,4.364,4.364,0,0,1,1.45,3.436C18.914,108.509,17.625,110.28,15.317,110.28Z" transform="translate(-10.7 -101.1)"/>
            </g>
            <g id="Сгруппировать_9438" data-name="Сгруппировать 9438" transform="translate(11.167 2.738)">
              <path id="Контур_12615" data-name="Контур 12615" d="M36.761,106.307a1.366,1.366,0,0,1-.107.376l-3.06,5.53h0c.054-1.127.054-1.718.054-2.147V107.7c0-.966.107-1.02.913-1.127V106.2H31.5v.376c.859.054.966.161.966,1.127v4.08c0,1.02-.107,1.127-.966,1.181v.376h2.308v-.161a.646.646,0,0,1,.107-.429l3.06-5.583h.054c-.054,1.074-.054,1.611-.054,1.986v2.684c0,1.02-.107,1.074-.966,1.127v.376h3.114v-.376c-.859-.054-.966-.161-.966-1.127V107.7c0-.966.107-1.074.966-1.127V106.2H36.815v.107Z" transform="translate(-31.5 -106.2)"/>
            </g>
            <g id="Сгруппировать_9439" data-name="Сгруппировать 9439" transform="translate(19.756 2.684)">
              <path id="Контур_12616" data-name="Контур 12616" d="M48.413,107.55v4.295c0,.913-.107.966-.913,1.074v.376h3.114v-.376c-.859-.054-.913-.161-.913-1.074v-2.094h3.275v2.094c0,.913-.107.966-.966,1.074v.376h3.221v-.376c-.859-.054-.966-.161-.966-1.074V107.55c0-.913.054-.966.966-1.074V106.1H52.117v.376c.805.054.913.107.913,1.074v1.664H49.755V107.55c0-.913.107-1.02.913-1.074V106.1H47.554v.376C48.305,106.529,48.413,106.637,48.413,107.55Z" transform="translate(-47.5 -106.1)"/>
            </g>
            <g id="Сгруппировать_9440" data-name="Сгруппировать 9440" transform="translate(27.97 2.577)">
              <path id="Контур_12617" data-name="Контур 12617" d="M65.216,112.772c-.805-.107-.859-.215-.644-.805A8.344,8.344,0,0,1,65,110.732h2.2c.215.537.376,1.02.483,1.4.161.483.107.591-.591.7v.376h2.953v-.376c-.7-.107-.859-.215-1.181-1.181-.7-1.879-1.4-3.865-2.094-5.744l-.483.107-2.255,5.637c-.376.966-.537,1.02-1.235,1.127v.376h2.416v-.376Zm.859-5.1h0l.913,2.523H65.162C65.431,109.336,65.753,108.531,66.075,107.672Z" transform="translate(-62.8 -105.9)"/>
            </g>
            <g id="Сгруппировать_9441" data-name="Сгруппировать 9441" transform="translate(35.164 2.577)">
              <path id="Контур_12618" data-name="Контур 12618" d="M82.911,111.322l-.376-.161c-.537,1.074-1.181,1.664-2.2,1.664-1.557,0-2.684-1.342-2.684-3.382,0-1.664.913-3.167,2.577-3.167a2.028,2.028,0,0,1,2.094,1.664l.376-.054c-.054-.644-.161-1.127-.215-1.718a9.677,9.677,0,0,0-1.986-.268c-2.577,0-4.295,1.557-4.295,3.812,0,1.718,1.235,3.6,4.026,3.6a12.639,12.639,0,0,0,2.04-.268A12.757,12.757,0,0,0,82.911,111.322Z" transform="translate(-76.2 -105.9)"/>
            </g>
            <g id="Сгруппировать_9442" data-name="Сгруппировать 9442" transform="translate(42.466 2.47)">
              <path id="Контур_12619" data-name="Контур 12619" d="M96.135,107.74c-.054-.7-.107-1.611-.107-2.04h-.268a.63.63,0,0,1-.591.268h-4.4c-.322,0-.429,0-.591-.268h-.268c0,.591-.107,1.342-.107,2.094h.376a2.578,2.578,0,0,1,.429-1.074c.161-.215.376-.322,1.235-.322h.483v5.261c0,.913-.107,1.02-1.074,1.074v.376h3.436v-.376c-1.02-.054-1.074-.161-1.074-1.074V106.4H94.2c.7,0,.966.054,1.127.268a3.059,3.059,0,0,1,.429,1.074Z" transform="translate(-89.8 -105.7)"/>
            </g>
            <g id="Сгруппировать_9443" data-name="Сгруппировать 9443" transform="translate(49.552 2.738)">
              <path id="Контур_12620" data-name="Контур 12620" d="M108.261,106.307a1.366,1.366,0,0,1-.107.376l-3.06,5.53h0c.054-1.127.054-1.718.054-2.147V107.7c0-.966.107-1.02.913-1.127V106.2H103v.376c.859.054.966.161.966,1.127v4.08c0,1.02-.107,1.127-.966,1.181v.376h2.309v-.161a.646.646,0,0,1,.107-.429l3.06-5.583h.054c-.054,1.074-.054,1.611-.054,1.986v2.684c0,1.02-.107,1.074-.966,1.127v.376h3.114v-.376c-.859-.054-.966-.161-.966-1.127V107.7c0-.966.107-1.074.966-1.127V106.2h-2.309v.107Z" transform="translate(-103 -106.2)"/>
            </g>
            <g id="Сгруппировать_9444" data-name="Сгруппировать 9444" transform="translate(57.713)">
              <path id="Контур_12621" data-name="Контур 12621" d="M126.146,108.831v-5.637c0-1.4.107-1.5,1.235-1.611V101.1h-4.134c-2.416,0-3.6,1.074-3.6,2.684a2.556,2.556,0,0,0,2.577,2.47v.054c-.644.161-1.127.537-1.772,1.664a15.935,15.935,0,0,1-1.127,1.986,1.571,1.571,0,0,1-1.127.483v.483h1.235a2.061,2.061,0,0,0,2.2-1.288c.429-.859.752-1.611,1.127-2.255a1.366,1.366,0,0,1,1.288-.859h.429v2.309c0,1.4-.161,1.557-1.235,1.611v.483h4.241v-.483C126.253,110.334,126.146,110.173,126.146,108.831Zm-1.718-2.9h-.483c-1.5,0-2.416-.7-2.416-2.094a1.987,1.987,0,0,1,2.094-2.147c.644,0,.859.107.859.7v3.543Z" transform="translate(-118.2 -101.1)"/>
            </g>
          </g>
          <g id="Сгруппировать_9458" data-name="Сгруппировать 9458" transform="translate(15.891 13.26)">
            <g id="Сгруппировать_9446" data-name="Сгруппировать 9446" transform="translate(0 0.054)">
              <path id="Контур_12622" data-name="Контур 12622" d="M42.447,127.94c-.161-.322-.268-.429-.322-.591a1.126,1.126,0,0,0-.429-.322h0c.107-.107.268-.215.322-.376.161-.215.268-.376.483-.376h.107c.161,0,.215-.054.215-.161a.246.246,0,0,0-.268-.215c-.268,0-.429.268-.537.429a2.384,2.384,0,0,1-.429.591.49.49,0,0,1-.429.161v-.591c0-.322.054-.376.376-.376v-.161H40.3v.161c.322.054.376.054.376.376v1.5c0,.322-.054.376-.376.376v.161h1.288v-.161c-.376-.054-.376-.107-.376-.376v-.752a.469.469,0,0,1,.483.268,4.346,4.346,0,0,1,.322.7.541.541,0,0,0,.591.322h.429v-.161C42.77,128.37,42.662,128.262,42.447,127.94Z" transform="translate(-40.3 -125.9)"/>
            </g>
            <g id="Сгруппировать_9447" data-name="Сгруппировать 9447" transform="translate(2.899 0.054)">
              <path id="Контур_12623" data-name="Контур 12623" d="M47.042,125.9a1.352,1.352,0,0,0-1.342,1.45,1.326,1.326,0,0,0,1.342,1.342,1.347,1.347,0,0,0,1.288-1.45A1.285,1.285,0,0,0,47.042,125.9Zm.054,2.523c-.483,0-.805-.537-.805-1.288,0-.7.322-1.02.644-1.02.483,0,.752.537.752,1.288C47.74,128.155,47.418,128.423,47.1,128.423Z" transform="translate(-45.7 -125.9)"/>
            </g>
            <g id="Сгруппировать_9448" data-name="Сгруппировать 9448" transform="translate(5.905 0.107)">
              <path id="Контур_12624" data-name="Контур 12624" d="M51.354,126a3.8,3.8,0,0,1-.054.752h.161a1.818,1.818,0,0,1,.161-.429.325.325,0,0,1,.322-.161h.268v1.825c0,.322,0,.376-.429.429v.161h1.4v-.161c-.429-.054-.429-.107-.429-.429v-1.825h.268c.215,0,.322.054.376.161a.832.832,0,0,1,.107.429h.161V126Z" transform="translate(-51.3 -126)"/>
            </g>
            <g id="Сгруппировать_9449" data-name="Сгруппировать 9449" transform="translate(8.643 0.107)">
              <path id="Контур_12625" data-name="Контур 12625" d="M56.454,126a3.8,3.8,0,0,1-.054.752h.161a1.818,1.818,0,0,1,.161-.429.325.325,0,0,1,.322-.161h.268v1.825c0,.322,0,.376-.429.429v.161h1.4v-.161c-.429-.054-.429-.107-.429-.429v-1.825h.268c.215,0,.322.054.376.161a.832.832,0,0,1,.107.429h.161V126Z" transform="translate(-56.4 -126)"/>
            </g>
            <g id="Сгруппировать_9450" data-name="Сгруппировать 9450" transform="translate(11.381 0.054)">
              <path id="Контур_12626" data-name="Контур 12626" d="M63.647,126.813a.9.9,0,0,0-.913-.913,1.121,1.121,0,0,0-.859.429A1.462,1.462,0,0,0,61.5,127.4a1.185,1.185,0,0,0,1.181,1.288,1.286,1.286,0,0,0,.966-.591l-.107-.107a.889.889,0,0,1-.7.268c-.429,0-.859-.322-.859-1.127.7,0,1.45-.107,1.557-.107C63.647,126.974,63.647,126.92,63.647,126.813Zm-.7,0h-.966c.054-.483.322-.752.591-.752.322,0,.483.268.483.591C63.111,126.813,63.057,126.813,62.95,126.813Z" transform="translate(-61.5 -125.9)"/>
            </g>
            <g id="Сгруппировать_9451" data-name="Сгруппировать 9451" transform="translate(13.69 0.107)">
              <path id="Контур_12627" data-name="Контур 12627" d="M68.055,128.094v-1.557c0-.322,0-.376.429-.376V126H66.068v.161h.161c.215.054.268.107.268.268a10.482,10.482,0,0,1-.107,1.235,4.476,4.476,0,0,1-.215.644c-.054.054-.054.107-.161.107H65.8v1.127h.161l.107-.483c.107-.376.107-.43.322-.43h1.342c.215,0,.268.054.322.376l.054.537h.161l.107-1.127h-.215C68.108,128.362,68.055,128.362,68.055,128.094Zm-.537,0c0,.322,0,.322-.322.322h-.591c-.054,0-.107-.054-.054-.107a13.06,13.06,0,0,0,.268-1.879c0-.215,0-.215.215-.215h.322c.215,0,.215,0,.215.215v1.664Z" transform="translate(-65.8 -126)"/>
            </g>
            <g id="Сгруппировать_9452" data-name="Сгруппировать 9452" transform="translate(16.589 0)">
              <path id="Контур_12628" data-name="Контур 12628" d="M74.851,127.894a3.852,3.852,0,0,0-.376-.591.556.556,0,0,0-.376-.268h0c.107-.054.215-.215.322-.322.161-.268.322-.429.537-.429h.107c.161,0,.215-.054.215-.161a.246.246,0,0,0-.268-.215c-.268,0-.429.268-.537.429a2.384,2.384,0,0,1-.429.591.814.814,0,0,1-.429.215v-.7c0-.322.054-.376.322-.376v-.161H72.7v.161c.322.054.376.054.376.376v.591a.554.554,0,0,1-.429-.215,1.682,1.682,0,0,1-.429-.591c-.107-.161-.322-.429-.537-.429a.246.246,0,0,0-.268.215c0,.107.054.161.215.161h.107c.215,0,.376.161.483.429a1.164,1.164,0,0,0,.322.376h0a.822.822,0,0,0-.376.268c-.107.161-.161.268-.376.591s-.322.429-.591.429v.161h.429a.555.555,0,0,0,.591-.376,3.575,3.575,0,0,1,.322-.644.476.476,0,0,1,.537-.322v.752c0,.322,0,.376-.376.429v.161h1.288v-.161c-.376-.054-.376-.107-.376-.429v-.752a.449.449,0,0,1,.483.322,7.168,7.168,0,0,0,.322.644c.161.322.376.322.644.322h.376v-.161C75.173,128.323,75.065,128.216,74.851,127.894Z" transform="translate(-71.2 -125.8)"/>
            </g>
            <g id="Сгруппировать_9453" data-name="Сгруппировать 9453" transform="translate(21.206 1.181)">
              <path id="Контур_12629" data-name="Контур 12629" d="M79.8,128.376h1.4L81.3,128h-1.4Z" transform="translate(-79.8 -128)"/>
            </g>
            <g id="Сгруппировать_9454" data-name="Сгруппировать 9454" transform="translate(23.192 0.107)">
              <path id="Контур_12630" data-name="Контур 12630" d="M86.077,127.986v-1.45c0-.322,0-.376.376-.429V126H83.5v.161c.376.054.429.054.429.429v1.45c0,.376-.054.43-.376.43v.161h1.288v-.161c-.322-.054-.322-.054-.322-.43v-1.557c0-.215,0-.268.215-.268h.591c.215,0,.215,0,.215.268v1.557c0,.376,0,.43-.376.43v.161h1.288v-.161C86.077,128.416,86.077,128.362,86.077,127.986Z" transform="translate(-83.5 -126)"/>
            </g>
            <g id="Сгруппировать_9455" data-name="Сгруппировать 9455" transform="translate(26.575)">
              <path id="Контур_12631" data-name="Контур 12631" d="M91.894,128.162c-.107,0-.215-.107-.215-.376v-1.074a.872.872,0,0,0-.268-.752.749.749,0,0,0-.483-.161,2.066,2.066,0,0,0-.913.43c-.107.107-.215.161-.215.268a.288.288,0,0,0,.268.268c.107,0,.161-.054.215-.161a1.282,1.282,0,0,1,.161-.376.41.41,0,0,1,.268-.107c.268,0,.483.215.483.644v.107a3.9,3.9,0,0,1-.913.376c-.322.107-.483.268-.483.591a.768.768,0,0,0,.752.752c.161,0,.429-.215.7-.376,0,.107.054.161.161.268a.567.567,0,0,0,.268.107l.537-.322-.054-.161A.584.584,0,0,1,91.894,128.162ZM91.142,128a.663.663,0,0,1-.429.215.459.459,0,0,1-.429-.429c0-.215.107-.322.322-.429.107-.054.376-.161.483-.215V128Z" transform="translate(-89.8 -125.8)"/>
            </g>
            <g id="Сгруппировать_9456" data-name="Сгруппировать 9456" transform="translate(28.99)">
              <path id="Контур_12632" data-name="Контур 12632" d="M96.125,125.854a1.113,1.113,0,0,0-.322.107l-.537.322V125.8a8.279,8.279,0,0,1-.913.268v.161c.376.054.376.054.376.429v2.684c0,.376-.054.429-.429.429v.161h1.45v-.161c-.483-.054-.483-.054-.483-.483v-.805a.626.626,0,0,0,.376.107,1.77,1.77,0,0,0,1.5-1.611A.986.986,0,0,0,96.125,125.854Zm-.268,2.416a.82.82,0,0,1-.537-.215v-1.611a1.134,1.134,0,0,1,.537-.215c.429,0,.752.322.752,1.02C96.662,127.894,96.34,128.27,95.857,128.27Z" transform="translate(-94.3 -125.8)"/>
            </g>
            <g id="Сгруппировать_9457" data-name="Сгруппировать 9457" transform="translate(32.265 0.054)">
              <path id="Контур_12633" data-name="Контур 12633" d="M102.547,127.94c-.161-.322-.268-.429-.322-.591a1.126,1.126,0,0,0-.429-.322h0c.107-.107.268-.215.322-.376.161-.215.268-.376.483-.376h.107c.161,0,.215-.054.215-.161a.246.246,0,0,0-.268-.215c-.268,0-.429.268-.537.429a2.384,2.384,0,0,1-.429.591.49.49,0,0,1-.429.161v-.591c0-.322.054-.376.376-.376v-.161H100.4v.161c.322.054.376.054.376.376v1.5c0,.322-.054.376-.376.376v.161h1.288v-.161c-.376-.054-.376-.107-.376-.376v-.752a.469.469,0,0,1,.483.268,4.347,4.347,0,0,1,.322.7.541.541,0,0,0,.591.322h.429v-.161C102.87,128.37,102.762,128.262,102.547,127.94Z" transform="translate(-100.4 -125.9)"/>
            </g>
          </g>
        </g>
      </g>
    </g>
  </g>
</svg>
