<svg xmlns="http://www.w3.org/2000/svg" width="60" height="45" viewBox="0 0 60 45">
  <g id="bank_05" transform="translate(-426 -3450)">
    <g id="Прямоугольник_447" data-name="Прямоугольник 447" transform="translate(426 3450)" fill="#fff" stroke="#707070" stroke-width="1" opacity="0">
      <rect width="60" height="45" stroke="none"/>
      <rect x="0.5" y="0.5" width="59" height="44" fill="none"/>
    </g>
    <path id="Объединение_36" data-name="Объединение 36" d="M-1901-3570v-4.275h21.2V-3570Zm4.374-9.962c-1.3-.02-2.605-.008-3.97-.008.108-.3.2-.556.29-.809,2.1-5.715,4.189-11.435,6.318-17.14a6.219,6.219,0,0,1,1.167-2.054,3.631,3.631,0,0,1,5.667.775,36.188,36.188,0,0,1,1.461,3.829q2.635,7.47,5.245,14.948c.046.133.082.269.137.451h-3.724c-.9,0-.9,0-1.169-.817-.344-1.037-.7-2.072-1.03-3.113a.386.386,0,0,0-.439-.316q-3.846.011-7.692,0a.42.42,0,0,0-.472.337c-.408,1.183-.843,2.358-1.251,3.541a.465.465,0,0,1-.516.378Zm6.142-16.27-2.948,8.387h5.862l-2.793-8.4Z" transform="translate(2346.402 7058)" fill="#ef3427" stroke="rgba(0,0,0,0)" stroke-miterlimit="10" stroke-width="1"/>
  </g>
</svg>
