<svg xmlns="http://www.w3.org/2000/svg" xmlns:xlink="http://www.w3.org/1999/xlink" width="60" height="45" viewBox="0 0 60 45">
  <defs>
    <linearGradient id="linear-gradient" x1="0.744" y1="0.962" x2="0.178" y2="0.001" gradientUnits="objectBoundingBox">
      <stop offset="0.14" stop-color="#f1e813"/>
      <stop offset="0.3" stop-color="#e6e418"/>
      <stop offset="0.58" stop-color="#c9da26"/>
      <stop offset="0.89" stop-color="#a2cc39"/>
    </linearGradient>
    <linearGradient id="linear-gradient-2" x1="0.087" y1="0.731" x2="0.949" y2="0.201" gradientUnits="objectBoundingBox">
      <stop offset="0.06" stop-color="#0fa7df"/>
      <stop offset="0.54" stop-color="#0098f8"/>
      <stop offset="0.92" stop-color="#0290ea"/>
    </linearGradient>
    <linearGradient id="linear-gradient-3" x1="-0.02" y1="0.695" x2="0.953" y2="0.34" gradientUnits="objectBoundingBox">
      <stop offset="0.12" stop-color="#a2cc39"/>
      <stop offset="0.28" stop-color="#86c239"/>
      <stop offset="0.87" stop-color="#219f38"/>
    </linearGradient>
    <linearGradient id="linear-gradient-4" x1="-0.076" y1="0.212" x2="0.926" y2="0.73" gradientUnits="objectBoundingBox">
      <stop offset="0.06" stop-color="#0290ea"/>
      <stop offset="0.79" stop-color="#0c89ca"/>
    </linearGradient>
    <linearGradient id="linear-gradient-5" x1="0.078" y1="0.262" x2="1.004" y2="0.778" gradientUnits="objectBoundingBox">
      <stop offset="0.13" stop-color="#f1e813"/>
      <stop offset="0.3" stop-color="#eae616"/>
      <stop offset="0.53" stop-color="#d8df1f"/>
      <stop offset="0.8" stop-color="#bad52d"/>
      <stop offset="0.98" stop-color="#a2cc39"/>
    </linearGradient>
    <linearGradient id="linear-gradient-6" x1="0.178" y1="1.038" x2="0.758" y2="0.078" gradientUnits="objectBoundingBox">
      <stop offset="0.07" stop-color="#a2cc39"/>
      <stop offset="0.26" stop-color="#81c45e"/>
      <stop offset="0.92" stop-color="#0fa7df"/>
    </linearGradient>
  </defs>
  <g id="bank_04" transform="translate(-426 -3450)">
    <g id="Прямоугольник_447" data-name="Прямоугольник 447" transform="translate(426 3450)" fill="#fff" stroke="#707070" stroke-width="1" opacity="0">
      <rect width="60" height="45" stroke="none"/>
      <rect x="0.5" y="0.5" width="59" height="44" fill="none"/>
    </g>
    <g id="Sberbank_Logo_2020" transform="translate(437.293 3453.542)">
      <path id="Контур_12137" data-name="Контур 12137" d="M31.919,6.355a19.068,19.068,0,0,1,2.242,3.77L17.12,22.855,10,18.331V12.888l7.122,4.524Z" transform="translate(1.592 1.012)" fill="#21a038"/>
      <path id="Контур_12138" data-name="Контур 12138" d="M4.322,16.484q0-.366.018-.728L.024,15.541c-.015.313-.024.628-.024.947a19.128,19.128,0,0,0,1.422,7.253,18.925,18.925,0,0,0,4.058,6.146l3.061-3.1a14.541,14.541,0,0,1-3.124-4.724A14.7,14.7,0,0,1,4.322,16.484Z" transform="translate(0 2.474)" fill="url(#linear-gradient)"/>
      <path id="Контур_12139" data-name="Контур 12139" d="M17.955,4.379c.241,0,.48.009.718.021L18.89.024Q18.425,0,17.955,0A18.441,18.441,0,0,0,10.795,1.44,18.642,18.642,0,0,0,4.727,5.553l3.061,3.1A14.324,14.324,0,0,1,12.45,5.489,14.17,14.17,0,0,1,17.955,4.379Z" transform="translate(0.753 0)" fill="url(#linear-gradient-2)"/>
      <path id="Контур_12140" data-name="Контур 12140" d="M16.267,29.519c-.241,0-.48,0-.72-.019l-.216,4.374q.466.024.936.024a18.429,18.429,0,0,0,7.157-1.44,18.631,18.631,0,0,0,6.064-4.114l-3.056-3.1a14.332,14.332,0,0,1-4.662,3.166A14.174,14.174,0,0,1,16.267,29.519Z" transform="translate(2.441 4.019)" fill="url(#linear-gradient-3)"/>
      <path id="Контур_12141" data-name="Контур 12141" d="M24.248,6.923l3.637-2.717A18.469,18.469,0,0,0,16.133,0V4.379A14.18,14.18,0,0,1,24.248,6.923Z" transform="translate(2.569 0)" fill="url(#linear-gradient-4)"/>
      <path id="Контур_12142" data-name="Контур 12142" d="M33.52,16.821a19.325,19.325,0,0,0-.294-3.4L29.2,16.431v.39a14.708,14.708,0,0,1-1.237,5.913,14.534,14.534,0,0,1-3.5,4.892l2.9,3.253a18.9,18.9,0,0,0,4.552-6.366A19.124,19.124,0,0,0,33.52,16.821Z" transform="translate(3.894 2.137)" fill="#21a038"/>
      <path id="Контур_12143" data-name="Контур 12143" d="M18.044,29.591a14.2,14.2,0,0,1-5.835-1.254A14.366,14.366,0,0,1,7.38,24.789L4.172,27.73a18.669,18.669,0,0,0,6.282,4.614,18.447,18.447,0,0,0,7.59,1.626Z" transform="translate(0.664 3.947)" fill="url(#linear-gradient-5)"/>
      <path id="Контур_12144" data-name="Контур 12144" d="M9.061,7.48l-2.9-3.253A18.9,18.9,0,0,0,1.6,10.593,19.124,19.124,0,0,0,0,18.285H4.322a14.71,14.71,0,0,1,1.237-5.913A14.536,14.536,0,0,1,9.061,7.48Z" transform="translate(0 0.673)" fill="url(#linear-gradient-6)"/>
    </g>
  </g>
</svg>
