<svg xmlns="http://www.w3.org/2000/svg" width="60" height="45" viewBox="0 0 60 45">
  <g id="bank_02" transform="translate(-426 -3450)">
    <g id="Прямоугольник_447" data-name="Прямоугольник 447" transform="translate(426 3450)" fill="#fff" stroke="#707070" stroke-width="1" opacity="0">
      <rect width="60" height="45" stroke="none"/>
      <rect x="0.5" y="0.5" width="59" height="44" fill="none"/>
    </g>
    <g id="vtb-bank--2" transform="translate(426 3462.99)">
      <path id="Контур_12099" data-name="Контур 12099" d="M17.47,2.855H3.11L4.145.01H18.5Zm-.517,1.422H2.586L1.552,7.122h14.36ZM15.4,8.532H1.035L0,11.377H14.347Z" fill="#009fdf"/>
      <path id="Контур_12100" data-name="Контур 12100" d="M63.368,20.824h2.586a2.257,2.257,0,0,0,1.979-.769,2.47,2.47,0,0,0,.5-1.623,2.25,2.25,0,0,0-.886-1.94,2.586,2.586,0,0,0-1.623-.414h-2.56Zm-3.394,2.864V6.606H71.088l-.976,2.864H63.368v3.782h2.748a5.942,5.942,0,0,1,4.164,1.209,5.03,5.03,0,0,1,1.688,4.048,4.907,4.907,0,0,1-2.011,4.229c-1.067.737-2.185.944-4.461.944Zm-9.841,0V9.464h-4.94V6.606H58.906L57.93,9.471H53.559V23.7ZM36.444,13.447h1.94a4.119,4.119,0,0,0,1.183-.091,1.869,1.869,0,0,0,1.293-1.94,1.726,1.726,0,0,0-1.293-1.894,4.707,4.707,0,0,0-1.293-.116h-1.83Zm0,2.955v4.481h2.366a2.541,2.541,0,0,0,1.83-.5,2.231,2.231,0,0,0,.711-1.759,2.431,2.431,0,0,0-.453-1.461c-.5-.647-1.125-.769-2.185-.769Zm5.47-1.8v.058a5.994,5.994,0,0,1,1.6.918,4.028,4.028,0,0,1,1.448,3.343,4.329,4.329,0,0,1-3.278,4.526,8.709,8.709,0,0,1-2.483.239H33.05V6.606h5.47a10.112,10.112,0,0,1,2.586.239,4.014,4.014,0,0,1,3.278,4.048,3.782,3.782,0,0,1-1.093,2.78,4.144,4.144,0,0,1-1.345.912Z" transform="translate(-11.975 -2.433)" fill="#0a2973"/>
    </g>
  </g>
</svg>
