<svg xmlns="http://www.w3.org/2000/svg" width="60.277" height="45" viewBox="0 0 60.277 45">
  <g id="bank_01" transform="translate(-426 -3450)">
    <g id="Прямоугольник_447" data-name="Прямоугольник 447" transform="translate(426 3450)" fill="#fff" stroke="#707070" stroke-width="1" opacity="0">
      <rect width="60" height="45" stroke="none"/>
      <rect x="0.5" y="0.5" width="59" height="44" fill="none"/>
    </g>
    <g id="Сгруппировать_9067" data-name="Сгруппировать 9067" transform="translate(555.81 3406.866)">
      <path id="Контур_12094" data-name="Контур 12094" d="M-129.807,428.84a.291.291,0,0,1,0-.095c.093-.216.141-.446.212-.669.091-.287.183-.574.266-.864.072-.252.149-.5.222-.753.034-.119.086-.239.119-.361.079-.291.179-.576.264-.865s.2-.6.281-.9c.086-.332.212-.651.288-.986a3.122,3.122,0,0,1,.12-.36c.05-.138.074-.285.129-.423s.083-.282.129-.422c.1-.311.195-.626.293-.938.09-.287.151-.584.267-.864-.029-.133.091-.224.1-.351a1.316,1.316,0,0,1,.093-.329,3.872,3.872,0,0,1,.127-.4c.051-.118.065-.245.113-.364a1.957,1.957,0,0,0,.106-.369,3.045,3.045,0,0,1,.119-.36c.091-.28.171-.564.262-.844.1-.305.2-.612.285-.919.1-.362.212-.721.323-1.079.095-.306.193-.613.287-.918.079-.255.165-.511.231-.771s.166-.51.221-.775c.019-.093.1-.178.077-.289H-69.81a.534.534,0,0,0-.047.1c-.047.238-.141.462-.207.692-.054.187-.128.369-.171.557s-.116.371-.173.557c-.039.129-.063.262-.1.391s-.087.252-.128.379c-.1.306-.2.611-.284.92-.087.332-.218.65-.283.988a2.348,2.348,0,0,1-.134.4c-.046.119-.063.245-.111.365a2.439,2.439,0,0,0-.107.369c-.031.139-.1.277-.136.418-.092.33-.214.649-.292.984a3.332,3.332,0,0,1-.133.42c-.045.119-.064.245-.112.364a1.98,1.98,0,0,0-.106.37,3.035,3.035,0,0,1-.119.36c-.091.28-.176.562-.261.844-.093.307-.2.611-.287.919-.1.363-.212.721-.323,1.08-.095.306-.193.613-.287.918-.079.255-.165.511-.231.771a6.678,6.678,0,0,0-.214.777,1.436,1.436,0,0,0-.169.492c-.048.168-.12.328-.159.5-.061.269-.174.522-.235.79a2.315,2.315,0,0,0-.133.465.092.092,0,0,1-.106.081c-.043,0-.087,0-.13,0h-54.818Z" transform="translate(0 -345.005)" fill="#00adc7"/>
      <path id="Объединение_35" data-name="Объединение 35" d="M.035,19.084C0,18.9-.015,5.685.02,4.765H3.368c.215,0,.237,0,.274.195.043.227.147.434.184.662a2.189,2.189,0,0,0,.13.369,1.014,1.014,0,0,1,.09-.128,4.943,4.943,0,0,1,.641-.6,4.605,4.605,0,0,1,.763-.456,4,4,0,0,1,.864-.269,3.324,3.324,0,0,1,.723-.082.824.824,0,0,0,.177-.041c.128-.027.246.042.371.043.041,0,.083,0,.126-.005a.784.784,0,0,1,.262.012,2.7,2.7,0,0,1,.687.167,2.13,2.13,0,0,1,.755.266,4.054,4.054,0,0,1,.7.457c.172.14.326.3.482.45a3.642,3.642,0,0,1,.54.75c.065.11.139.216.194.331a4.791,4.791,0,0,1,.213.517c.057.171.106.348.165.517.074.213.092.435.157.648a1.68,1.68,0,0,1,.046.478,3.5,3.5,0,0,1,.05.437,4.122,4.122,0,0,0,0,.454c0,.151.005.3,0,.454a3.014,3.014,0,0,1-.042.307,1.07,1.07,0,0,1-.034.289,2.42,2.42,0,0,0-.046.348c-.038.165-.087.327-.118.492a5.543,5.543,0,0,1-.24.746,3.774,3.774,0,0,1-.269.537,3.754,3.754,0,0,1-.489.707c-.073.084-.138.176-.215.256a4.171,4.171,0,0,1-1.222.862,5.127,5.127,0,0,1-.777.268c-.088.026-.183.006-.259.051a.232.232,0,0,1-.143.022A.263.263,0,0,0,8,15.285a1.2,1.2,0,0,1-.455.042c-.066,0-.133,0-.2,0a3.36,3.36,0,0,1-.648,0,3.884,3.884,0,0,1-.984-.234c-.182-.08-.373-.146-.55-.238a2.591,2.591,0,0,1-.626-.427.048.048,0,0,0-.013.008.031.031,0,0,0-.009.017c0,1.543,0,3.086,0,4.637ZM5.456,8.09a1.612,1.612,0,0,0-.88.536.419.419,0,0,0-.109.3c.013.317,0,.634,0,.951s0,.648,0,.972a.444.444,0,0,0,.054.217,1.164,1.164,0,0,0,.36.368,1.778,1.778,0,0,0,.807.3,1.106,1.106,0,0,0,.478-.043,1.442,1.442,0,0,0,.335-.13,1.36,1.36,0,0,0,.565-.568,2.108,2.108,0,0,0,.259-.951,2.038,2.038,0,0,0-.035-.589c-.029-.1-.046-.212-.075-.316a1.677,1.677,0,0,0-.453-.722A1.316,1.316,0,0,0,6,8.063a1.22,1.22,0,0,0-.194-.015A1.553,1.553,0,0,0,5.456,8.09ZM44.2,15.326c-.142,0-.285-.008-.427,0a1.941,1.941,0,0,1-.328-.041.579.579,0,0,0-.1,0,.324.324,0,0,1-.2-.037.161.161,0,0,0-.1-.008.324.324,0,0,1-.071,0c-.046-.006-.09-.042-.133-.039a2.21,2.21,0,0,1-.5-.1,3.834,3.834,0,0,1-.4-.117c-.13-.035-.238-.13-.378-.134-.255-.163-.539-.271-.793-.439a5.246,5.246,0,0,1-.994-.882,3.285,3.285,0,0,1-.449-.656c-.051-.095-.118-.182-.163-.279-.1-.212-.179-.431-.269-.646-.134-.319-.177-.66-.291-.983-.041-.115-.005-.259-.054-.367-.069-.153.016-.323-.079-.465-.007-.01,0-.028,0-.043a2.055,2.055,0,0,0-.021-.425,2.043,2.043,0,0,1-.021-.4c-.008-.144,0-.288,0-.433,0-.166-.005-.332,0-.5.005-.124.033-.247.04-.372a1.736,1.736,0,0,1,.008-.366c.037-.127.009-.255.041-.372a4.8,4.8,0,0,1,.119-.621,2.781,2.781,0,0,0,.045-.305,8.263,8.263,0,0,1,.383-1.249c.081-.182.136-.38.232-.552a8.283,8.283,0,0,1,.564-.894,6.51,6.51,0,0,1,.819-.89,6.193,6.193,0,0,1,.724-.546,8.021,8.021,0,0,1,1.163-.643,7.042,7.042,0,0,1,1.026-.4c.148-.043.3-.077.443-.132a2.662,2.662,0,0,0,.425-.124,2.448,2.448,0,0,0,.524-.1c.19-.024.379-.061.57-.089.11-.016.221-.019.329-.039s.2-.032.307-.045a1.2,1.2,0,0,1,.264-.038A.345.345,0,0,0,46.57.542a.336.336,0,0,1,.15-.023.937.937,0,0,0,.262-.047A3.408,3.408,0,0,0,47.42.384a1.224,1.224,0,0,0,.4-.12,1.46,1.46,0,0,0,.469-.119,2.021,2.021,0,0,0,.441-.139c.023-.011.056,0,.1,0v3.7a2.29,2.29,0,0,1-.655.438,4.835,4.835,0,0,1-.88.282,5.7,5.7,0,0,0-.619.122.057.057,0,0,1-.026,0h-.017c-.174.014-.35.019-.523.047-.11.017-.222.024-.327.047s-.225.011-.329.04c-.272.075-.555.108-.821.21a3.078,3.078,0,0,0-.906.484,3.118,3.118,0,0,0-.5.552,2.726,2.726,0,0,0-.362.759,2.512,2.512,0,0,0-.065.453,3.412,3.412,0,0,1,.843-.712,1.765,1.765,0,0,1,.375-.19c.129-.053.271-.078.4-.135s.272-.068.406-.116a1.231,1.231,0,0,1,.389-.052c.169,0,.338,0,.506,0s.326,0,.489,0a.931.931,0,0,1,.22.045.286.286,0,0,0,.076,0,.152.152,0,0,1,.143.043,3.121,3.121,0,0,1,1.147.418,2.983,2.983,0,0,1,.6.428c.049.043.091.093.138.137a3.536,3.536,0,0,1,.771,1.088,5.483,5.483,0,0,1,.349,1.046c.036.153.061.307.09.461.037.2.009.4.045.588a2.346,2.346,0,0,1,.033.481c0,.1-.032.2-.039.307a2,2,0,0,1-.006.323c-.037.153-.047.311-.085.462a6.329,6.329,0,0,1-.215.668,3.859,3.859,0,0,1-.475.863,3.455,3.455,0,0,1-.229.294c-.091.1-.2.191-.289.293a3.174,3.174,0,0,1-.687.538,5.118,5.118,0,0,1-1.27.588,3.692,3.692,0,0,1-.63.157c-.168.019-.336.059-.5.089-.14.024-.281.011-.416.038a2.537,2.537,0,0,1-.515.044C44.379,15.331,44.287,15.329,44.2,15.326Zm-.484-6.367a1.133,1.133,0,0,0-.676.5c-.073.137-.116.285-.178.424-.072.162.019.337-.077.487a.061.061,0,0,0,.013.057c.046.041.031.094.027.14a1.3,1.3,0,0,0,.089.5,1.035,1.035,0,0,0,.471.614,1.533,1.533,0,0,0,1.349.069.451.451,0,0,0,.074-.031,1.235,1.235,0,0,0,.529-.706,1.6,1.6,0,0,0,.086-.634,1.239,1.239,0,0,0-.044-.478,2.709,2.709,0,0,1-.078-.27,1.137,1.137,0,0,0-.3-.419.922.922,0,0,0-.593-.284,2.946,2.946,0,0,0-.308-.019A1.45,1.45,0,0,0,43.711,8.959ZM33.228,14.846c-.073-.193-.155-.383-.232-.574-.07-.173-.145-.344-.209-.519-.125-.345-.283-.677-.4-1.025a1.536,1.536,0,0,0-.086-.2c-.138-.275-.218-.573-.347-.852a.31.31,0,0,0-.058-.066H30.881V14.97h-4.5V4.775h4.49V8.131h.814a2.938,2.938,0,0,1,.112-.323c.187-.392.326-.8.495-1.2a4.579,4.579,0,0,0,.235-.6,4.169,4.169,0,0,1,.223-.577c.077-.177.153-.355.223-.535a.172.172,0,0,1,.179-.136c1.406,0,2.813,0,4.219,0,.012,0,.024.01.052.022-.1.253-.2.506-.295.76-.059.156-.111.314-.169.471-.085.231-.17.463-.26.693-.149.378-.274.766-.44,1.138-.092.206-.154.426-.231.64q-.091.254-.185.507a2.622,2.622,0,0,1-.109.279c-.043.086.017.156.041.214.112.272.189.557.3.826.1.24.185.487.274.73.127.344.24.695.375,1.035.145.366.265.74.416,1.1.1.238.184.487.265.734.075.229.171.449.249.676.043.125.086.249.133.384h-.1c-1.413,0-2.827,0-4.24,0h0A.2.2,0,0,1,33.228,14.846Zm-13.154.134a.1.1,0,0,1-.014-.015.039.039,0,0,1-.007-.019q0-1.655,0-3.311c0-.006-.005-.012-.011-.025H18.024v3.364h-4.5V4.765H17.79c.036,0,.072,0,.108,0,.087.005.118.039.121.133,0,.043,0,.087,0,.13v3.1h2.031V4.774h4.494V14.98Z" transform="translate(-119.865 46.433)" fill="#303f47" stroke="rgba(0,0,0,0)" stroke-miterlimit="10" stroke-width="1"/>
    </g>
  </g>
</svg>
