<svg xmlns="http://www.w3.org/2000/svg" width="60" height="45" viewBox="0 0 60 45">
  <g id="bank_03" transform="translate(-426 -3450)">
    <g id="Прямоугольник_447" data-name="Прямоугольник 447" transform="translate(426 3450)" fill="#fff" stroke="#707070" stroke-width="1" opacity="0">
      <rect width="60" height="45" stroke="none"/>
      <rect x="0.5" y="0.5" width="59" height="44" fill="none"/>
    </g>
    <g id="ff59e890-eb57-4b28-971f-cfdda8b10a7a" transform="translate(435 3453.862)">
      <path id="Контур_12101" data-name="Контур 12101" d="M41.455,17.436,42,15.7l-1.8.056a4.267,4.267,0,0,1-2.335-.806c.08.008.16.019.242.019a2.908,2.908,0,0,0,2.6-1.608l.776-1.71a14.177,14.177,0,0,1-1.862-.109,2.9,2.9,0,0,1-1.519-.913,2.879,2.879,0,0,0-2.08-.9,3.005,3.005,0,0,0-.908.144,3.238,3.238,0,0,0,.1-.425,3.819,3.819,0,0,0-.789-2.82L33.073,4.959,32.232,6.92a1.752,1.752,0,0,1-.6.69,3.639,3.639,0,0,0-1-1.844A4.488,4.488,0,0,0,27.4,4.425a4.115,4.115,0,0,0-.632.045l-1.637.32A5.559,5.559,0,0,1,25.8,3.224l.9-1.4-2.274.258L23.7.554l-1.4.718L21,0,19.71,1.272,18.3.554l-.723,1.528-2.272-.258.9,1.4a5.5,5.5,0,0,1,.662,1.564l-1.562-.306-.053-.009a4.148,4.148,0,0,0-.652-.048,4.484,4.484,0,0,0-3.235,1.341,3.64,3.64,0,0,0-1,1.844,1.724,1.724,0,0,1-.588-.674L8.943,4.963,7.565,6.643A3.85,3.85,0,0,0,6.792,9.45a3.535,3.535,0,0,0,.1.423,2.987,2.987,0,0,0-.907-.144,2.885,2.885,0,0,0-2.082.9,2.933,2.933,0,0,1-1.5.912,10.726,10.726,0,0,1-1.878.111l.771,1.71a2.907,2.907,0,0,0,2.605,1.608c.083,0,.163-.011.245-.019a4.276,4.276,0,0,1-2.313.807L0,15.7l.556,1.733a3.594,3.594,0,0,0,3.006,2.532A2.864,2.864,0,0,1,1.986,22.08l-1.368.56.746,1.291a3.312,3.312,0,0,0,2.817,1.511,4.393,4.393,0,0,0,.881-.091,9.582,9.582,0,0,0,.27.952,3.167,3.167,0,0,1,.053,2.114L4.71,29.825l1.508.4a4.254,4.254,0,0,0,1.045.13A3.222,3.222,0,0,0,8,30.269a3.337,3.337,0,0,0,.506-.161,4.526,4.526,0,0,0,.709.949,5.462,5.462,0,0,0,4.069,1.485h.006l1.238-.016-2.558,1.055,1.942.932a25.647,25.647,0,0,0,2.394,1.055l-.242.659.669.3a10.549,10.549,0,0,0,3.486.721s.517.023.8.023.795-.025.795-.025a10.492,10.492,0,0,0,3.463-.72l.671-.3-.245-.66a25.946,25.946,0,0,0,2.42-1.066l1.906-.92-2.55-1.057,1.243.016A5.456,5.456,0,0,0,32.8,31.052,4.589,4.589,0,0,0,33.5,30.1a3.383,3.383,0,0,0,.507.161,3.2,3.2,0,0,0,.737.081,4.42,4.42,0,0,0,1.034-.126l1.515-.4-.66-1.38A3.154,3.154,0,0,1,36.68,26.3a9.824,9.824,0,0,0,.269-.952,4.345,4.345,0,0,0,.888.091,3.294,3.294,0,0,0,2.819-1.525l.738-1.277-1.368-.559a2.857,2.857,0,0,1-1.574-2.113A3.614,3.614,0,0,0,41.455,17.436ZM17,5.386l-.019,0,.016-.02Z" fill="#fff"/>
      <path id="Контур_12102" data-name="Контур 12102" d="M237.562,68.377c-1.449,0-2.534.473-2.772,1.027l2.772,1.087,2.772-1.087C240.1,68.85,239.012,68.379,237.562,68.377Z" transform="translate(-216.557 -63.067)" fill="#fff"/>
      <path id="Контур_12103" data-name="Контур 12103" d="M230.159,434.744H230.1a11.422,11.422,0,0,1-2.669-.342l-.7,1.884a12.354,12.354,0,0,0,6.794,0l-.7-1.884A11.351,11.351,0,0,1,230.159,434.744Z" transform="translate(-209.126 -400.667)" fill="#fff"/>
      <path id="Контур_12104" data-name="Контур 12104" d="M311.061,414.68a15.385,15.385,0,0,1-2.363.938l.569,1.557a14.262,14.262,0,0,0,2.627-.973l-1.18-.39Z" transform="translate(-284.725 -382.477)" fill="#fff"/>
      <path id="Контур_12105" data-name="Контур 12105" d="M191.962,414.68l.349,1.132-1.182.39a14.319,14.319,0,0,0,2.625.973l.569-1.557A15.657,15.657,0,0,1,191.962,414.68Z" transform="translate(-176.286 -382.477)" fill="#fff"/>
      <path id="Контур_12106" data-name="Контур 12106" d="M231.212,24.313a6.3,6.3,0,0,1,2.987.715,7.212,7.212,0,0,1,.324-.874l-.311.037-.327.034-.138-.3-.416-.874-.759.393-.3.15-.236-.231-.825-.812-.823.812-.236.231-.3-.15-.764-.393-.412.874-.141.3-.327-.034-.311-.037a7.575,7.575,0,0,1,.324.874A6.3,6.3,0,0,1,231.212,24.313Z" transform="translate(-210.207 -20.805)" fill="#fff"/>
      <path id="Контур_12107" data-name="Контур 12107" d="M454.182,144.474a1.319,1.319,0,0,0,.429.07,1.629,1.629,0,0,0,1.42-.851,4.011,4.011,0,0,1-2.351-1.3,1.567,1.567,0,0,0-1.15-.517,1.83,1.83,0,0,0-.957.287C453.045,142.944,453.345,144.193,454.182,144.474Z" transform="translate(-416.506 -130.861)" fill="#fff"/>
      <path id="Контур_12108" data-name="Контур 12108" d="M33.429,144.544a1.287,1.287,0,0,0,.426-.07c.841-.281,1.142-1.53,2.613-2.308a1.834,1.834,0,0,0-.955-.287,1.574,1.574,0,0,0-1.153.517,4,4,0,0,1-2.349,1.3A1.622,1.622,0,0,0,33.429,144.544Z" transform="translate(-29.524 -130.861)" fill="#fff"/>
      <path id="Контур_12109" data-name="Контур 12109" d="M340.194,86.556c.025,0,.047,0,.074,0a2.356,2.356,0,0,0,2.065-1.641h-.03a5.6,5.6,0,0,1-4.2-2.112c-1.067-1.346-1.94-2.529-3.667-2.994l-.17-.03-.038-.172c-.047-.262.134-.508.544-.773a2.293,2.293,0,0,0,.765-3.527,2.645,2.645,0,0,1-2.2,1.582l-.113,0a3.259,3.259,0,0,1-.508-.052l-.281-.055a2.24,2.24,0,0,0-.613-2.25,3.176,3.176,0,0,0-2.3-.951,2.547,2.547,0,0,0-.457.036c.526.684.907,1.817.3,2.517-.525.6-1.807.631-1.807,1.527,0,.379.357.823,1,1.221a10.723,10.723,0,0,1,4.636,4.952,4.216,4.216,0,0,1-1.725,5.469,2.253,2.253,0,0,0,1.229.517c.148.014.292.02.427.02a3.619,3.619,0,0,0,2.328-.715,4.028,4.028,0,0,1-4.11,3.274,1.685,1.685,0,0,0,.607,1.269,3.237,3.237,0,0,0,1.384.493s-1.808.364-2.008,3.018a4.048,4.048,0,0,1-.478,1.937h.033c4.2,0,4.088-3.577,4.088-3.577a2.029,2.029,0,0,0,1.463,1.335,1.725,1.725,0,0,0,.437.051,3.053,3.053,0,0,0,.7-.087,4.361,4.361,0,0,1,0-3.082,7.253,7.253,0,0,0,.423-2.6,2.367,2.367,0,0,0,1.967.857h.014a1.973,1.973,0,0,0,1.676-.879c-2.8-1.154-2.522-4.879-2.522-4.879A2.032,2.032,0,0,0,340.194,86.556Zm-.842,3.891a4.877,4.877,0,0,1-2.031-2.571c-.189,2.935-1.631,4.973-3.317,6.934a6.253,6.253,0,0,0-1.18,2,4.627,4.627,0,0,1,.925-2.031,11.867,11.867,0,0,0,3.179-6.918,8.171,8.171,0,0,0-1.174-4.676,4.189,4.189,0,0,1-1.081,4.422s2.88-3.43-1.147-6.946a33.445,33.445,0,0,0-4.283-2.749c3.28,1.063,4.881-.108,4.881-.108a4.008,4.008,0,0,1-3.244.757c.228.111.465.226.721.362,2.765,1.493,5.251,3.948,5.675,7.351V86.25C337.921,89.59,339.352,90.447,339.352,90.447Z" transform="translate(-302.119 -67.868)" fill="#fff"/>
      <path id="Контур_12110" data-name="Контур 12110" d="M32.126,94.163a3.215,3.215,0,0,0,1.384-.493,1.693,1.693,0,0,0,.607-1.269,3.993,3.993,0,0,1-3.185-1.366,4.043,4.043,0,0,1-.925-1.906,3.617,3.617,0,0,0,2.327.715c.138,0,.281-.006.429-.02a2.261,2.261,0,0,0,1.23-.517,4.22,4.22,0,0,1-1.728-5.471A10.738,10.738,0,0,1,36.9,78.882c.641-.4,1-.84,1-1.221,0-.9-1.28-.926-1.805-1.527-.608-.7-.226-1.835.3-2.517a2.5,2.5,0,0,0-.456-.036,3.175,3.175,0,0,0-2.3.951,2.234,2.234,0,0,0-.614,2.25l-.281.055a3.275,3.275,0,0,1-.507.052l-.112,0a2.639,2.639,0,0,1-2.2-1.58,2.293,2.293,0,0,0,.764,3.527c.41.265.589.511.542.773l-.038.172-.173.03c-1.724.465-2.6,1.649-3.665,2.994a5.592,5.592,0,0,1-4.192,2.111h-.032a2.356,2.356,0,0,0,2.065,1.641l.074,0a2.024,2.024,0,0,0,1.073-.3s.273,3.724-2.522,4.879a1.974,1.974,0,0,0,1.676.879H25.5a2.364,2.364,0,0,0,1.967-.857,7.27,7.27,0,0,0,.421,2.6,4.372,4.372,0,0,1,0,3.082,3.05,3.05,0,0,0,.7.087,1.7,1.7,0,0,0,.435-.051,2.033,2.033,0,0,0,1.463-1.335s-.107,3.577,4.09,3.577h.03a4.056,4.056,0,0,1-.474-1.937C33.934,94.526,32.126,94.163,32.126,94.163Zm-.674.646c-1.686-1.961-3.127-4-3.317-6.934a4.875,4.875,0,0,1-2.028,2.571s1.43-.857,2.072-4.2v.027c.426-3.4,2.91-5.858,5.676-7.351.253-.137.493-.253.72-.362a4.008,4.008,0,0,1-3.244-.757s1.6,1.171,4.88.108a33.448,33.448,0,0,0-4.281,2.749C27.9,84.18,30.782,87.61,30.782,87.61A4.187,4.187,0,0,1,29.7,83.188a8.149,8.149,0,0,0-1.172,4.676A11.871,11.871,0,0,0,31.7,94.782a4.638,4.638,0,0,1,.93,2.031A6.319,6.319,0,0,0,31.452,94.809Z" transform="translate(-21.327 -67.868)" fill="#fff"/>
      <path id="Контур_12111" data-name="Контур 12111" d="M216.326,148.436c.069.073.137.153.2.233.016.019.03.036.045.058.06.079.121.164.179.25.013.017.025.037.039.058.071.106.137.215.2.328a2.615,2.615,0,0,0,4.869,0c.068-.116.135-.228.206-.333.011-.016.022-.03.031-.045.06-.089.123-.176.189-.261l.039-.05c.068-.083.137-.164.207-.239.012-.012.022-.023.033-.033a2.512,2.512,0,0,1,1.156-.686l-.214-.123H223.5l-.852-.492-.875-.5-2.338,1.265-.006,0,0,0-2.339-1.265-.873.5-.853.492h-.01l-.217.123a2.513,2.513,0,0,1,1.158.682C216.3,148.409,216.312,148.423,216.326,148.436Zm2.156-.1h1.978v.675a.838.838,0,0,0-.685-.225v.973a1.476,1.476,0,0,0,.185.686h-.979a1.44,1.44,0,0,0,.187-.686v-.973a.843.843,0,0,0-.687.225Z" transform="translate(-198.424 -135.218)" fill="#fff"/>
      <path id="Контур_12112" data-name="Контур 12112" d="M237.83,95.03V91.082l-2.53-.852.668,3.827Zm-.544-2.979v.634l-.123-.056a1.574,1.574,0,0,1-.5-.292,1.141,1.141,0,0,1-.528-.768Z" transform="translate(-217.027 -83.223)" fill="#fff"/>
      <path id="Контур_12113" data-name="Контур 12113" d="M274.957,94.056l.665-3.827-2.528.852V95.03Zm-1.32-2,1.15-.481a1.14,1.14,0,0,1-.529.768,1.555,1.555,0,0,1-.5.292l-.122.056v-.635Z" transform="translate(-251.886 -83.223)" fill="#fff"/>
      <path id="Контур_12114" data-name="Контур 12114" d="M214.721,253.74a2.243,2.243,0,0,0,.7.108c.006-.019.014-.042.022-.07a1.223,1.223,0,0,0,.036-.139,3.942,3.942,0,0,0,.061-.626.871.871,0,0,1-.331-.348.438.438,0,0,0-.424-.287,1.373,1.373,0,0,0-.644.223A1.12,1.12,0,0,0,214.721,253.74Z" transform="translate(-197.497 -232.778)" fill="#fff"/>
      <path id="Контур_12115" data-name="Контур 12115" d="M240.253,242.941c-.47.507-1.389,1.391-1.435,1.436l-.055.056-2.905-.045a2.916,2.916,0,0,1-.094.707l-.024.092,3.457.617c.36-.25,1.35-.968,1.733-1.249a1.663,1.663,0,0,1-.244-1.226A1.757,1.757,0,0,1,240.253,242.941Z" transform="translate(-217.434 -224.075)" fill="#fff"/>
      <path id="Контур_12116" data-name="Контур 12116" d="M264.68,198.179a3.063,3.063,0,0,1-1.885.96,3.008,3.008,0,0,1-.316.017h-.014a3.038,3.038,0,0,1-.317-.017,2.524,2.524,0,0,1-.311-.048,1.168,1.168,0,0,0,.05.753,1.192,1.192,0,0,0,.728.6l.121.047,0,.13a1.2,1.2,0,0,0,.95,1.112c.151-.155.288-.293.388-.409a.944.944,0,0,1,.184-1.11,1.53,1.53,0,0,0,.757,1.558l.146.069-.044.155a1.214,1.214,0,0,0,.765,1.51l.19.072-.085.184a1.189,1.189,0,0,0,.553,1.558H268.7v-1.7a1.362,1.362,0,0,1-1.175-1.14,1.246,1.246,0,0,1-.822-.464,1.01,1.01,0,0,1-.058-1.163,1.459,1.459,0,0,0,.358.938,1.111,1.111,0,0,0,.707.334l.157.014.014.159a1.056,1.056,0,0,0,.82.938l0-3.475a4.534,4.534,0,0,1,.349-1.58H264.68Z" transform="translate(-241.466 -182.784)" fill="#fff"/>
      <path id="Контур_12117" data-name="Контур 12117" d="M223.484,212.5l-.058,2.214.253.037.619-2.123-.314-.653Z" transform="translate(-206.075 -195.518)" fill="#fff"/>
      <path id="Контур_12118" data-name="Контур 12118" d="M228.684,312.412a.28.28,0,0,1,.061.008c.385.109.482,1.489,1.158,1.613a.86.86,0,0,0,.181.017.531.531,0,0,0,.437-.229s-.339-.531-.594-.889c-.338-.468-.6-1.035-1.229-1.035h-.049a.634.634,0,0,0-.335.111,1.307,1.307,0,0,0-.707-.214,4.891,4.891,0,0,0-.853.179h-.006l-1.4-.137a.74.74,0,0,1-.456-.326c-.016-.023-.024-.037-.024-.037,0-.038,0-.076,0-.111a1.65,1.65,0,0,0-1.252-1.638s.038-.217-.049-.3l-.31.373-1.017-.507.724.842-.614.685a.19.19,0,0,0-.036.228l.266.233.336-.2a.155.155,0,0,1,.085-.016c.093,0,.233.023.358.023s.256-.03.27-.158c-.042.423-.437,1.158-.178,1.736l.192.436-1.241-.178-.581.976a.779.779,0,0,0-.035.867l.217.27a2.066,2.066,0,0,0,.374-.532l-.1-.108a.209.209,0,0,1-.028-.27l.365-.6,1.466.344.077-.131a.429.429,0,0,1,.4-.214,1.287,1.287,0,0,1,.2.019,6.364,6.364,0,0,0,1.167.125,1.677,1.677,0,0,0,1.238-.376c.531.782,1.607.907,1.523,1.3l-.283,1.34c.187-.008.368-.02.539-.044l.269-1.394c.03-.151.058-.356.058-.356a2.589,2.589,0,0,1-.5-.595c-.19-.362-.086-.551-.264-1.023A.245.245,0,0,1,228.684,312.412Zm-5.483-1.958a.125.125,0,0,1-.121-.134.126.126,0,0,1,.135-.117.126.126,0,1,1-.014.251Z" transform="translate(-204.451 -285.272)" fill="#fff"/>
      <path id="Контур_12119" data-name="Контур 12119" d="M213.739,346.648s.485-.2.529-.34l-.064-.161a.221.221,0,0,1,.049-.281l.525-.361.877.167a.732.732,0,0,1-.143-.461l-.836-.176-.789.478a.758.758,0,0,0-.251.906Z" transform="translate(-196.99 -318.24)" fill="#fff"/>
      <path id="Контур_12120" data-name="Контур 12120" d="M295.467,372.765c.157-.006.33-.01.52-.01,0,0,.451-1.31.476-1.352a10.97,10.97,0,0,1-.98-.514c.134.2.459.426.394.6Z" transform="translate(-272.522 -342.088)" fill="#fff"/>
      <path id="Контур_12121" data-name="Контур 12121" d="M202.7,295H190.238v4.659c0,1.9,1.387,3.1,3.435,3.1,1.711,0,2.162.066,2.8.693a2.11,2.11,0,0,1,1.546-.657l.017-.072.393-1.207c-.022-.027-.665-.753-.665-.753a2.412,2.412,0,0,1-.828.1,6.815,6.815,0,0,1-1.237-.126.54.54,0,0,0-.13-.014c-.055,0-.06,0-.074.031l-.079.128-.143.234L195,301.05l-1.2-.28-.163.268.025.028.146.159-.064.208a2.155,2.155,0,0,1-.46.676l-.3.318-.272-.342-.2-.254a1,1,0,0,1-.145-.99.018.018,0,0,1-.012,0l-.338.139-.153-.328-.107-.233a1.127,1.127,0,0,1,.379-1.368l.963-.54.916.18c.022-.088.055-.4.082-.479-.017,0-.035-.006-.052-.006l-.528.2-.509-.35a.267.267,0,0,1-.019-.381l.493-.742-1.249-1.558,1.92.784.127-.158.259-.307.294.278a.556.556,0,0,1,.154.276,2.362,2.362,0,0,1,1.56,1.791l-.3.119v.008a.36.36,0,0,0,.141.115l1.37.134c.035-.006.079-.022.127-.036a2.222,2.222,0,0,1,.729-.141,1.69,1.69,0,0,1,.715.162,1.111,1.111,0,0,1,.308-.062h.066a1.694,1.694,0,0,1,1.391.979c.049.075.1.147.148.217.256.359.591.885.6.907l.151.234-.185.214a.916.916,0,0,1-.724.356,1.322,1.322,0,0,1-.248-.025,1.071,1.071,0,0,1-.218-.066c-.011.072-.025.158-.039.231l-.24,1.246a2.915,2.915,0,0,0,2.35-2.973Z" transform="translate(-175.465 -272.089)" fill="#ffdd2d"/>
      <path id="Контур_12122" data-name="Контур 12122" d="M186.138,205.337h9.692a1.537,1.537,0,0,1-.354-1.535,1.663,1.663,0,0,1-.361-.236c-.379.278-1.535,1.115-1.837,1.324l-.064.044-3.8-.684h-.077a3.2,3.2,0,0,1-.371-.02.369.369,0,0,1-.358.287.277.277,0,0,1-.061-.006.367.367,0,0,1-.243-.15.358.358,0,0,1-.066-.278l.014-.081a1.506,1.506,0,0,1-.594-1.535l.016-.069.055-.039c.008-.006.074-.05.171-.106l-.277-.042a.19.19,0,0,1-.157-.215.187.187,0,0,1,.217-.156l.658.1.06-2.3.98-1.03.611,1.279-.646,2.217.581.091a.187.187,0,0,1-.03.372.192.192,0,0,1-.03,0l-.473-.076c.006.014.016.022.022.037a.51.51,0,0,0,.228.209l2.9.045c.122-.119.427-.415.74-.729a1.558,1.558,0,0,1-1.017-1.286,1.509,1.509,0,0,1-.826-.751,1.57,1.57,0,0,1-.071-1.013,3.4,3.4,0,0,1-1.208-.806h-4.368a4.6,4.6,0,0,1,.346,1.58Z" transform="translate(-171.364 -182.803)" fill="#ffdd2d"/>
      <path id="Контур_12123" data-name="Контур 12123" d="M240.042,321.024a.125.125,0,0,0-.135.117.124.124,0,0,0,.121.134.128.128,0,0,0,.137-.117A.13.13,0,0,0,240.042,321.024Z" transform="translate(-221.276 -296.094)"/>
      <path id="Контур_12124" data-name="Контур 12124" d="M193.4,408.269l-.718-.273.2-.737.218-.8a17.094,17.094,0,0,1-3.065,1.2c-.509.145-.894.211-.894.211v.547a12.964,12.964,0,0,1-1.928.165h-.055a12.964,12.964,0,0,1-1.928-.165v-.547s-.387-.066-.894-.211a17.041,17.041,0,0,1-3.064-1.2l.215.8.2.737-.72.273-.8.3a21.031,21.031,0,0,0,3.345,1.394l-.273.743a10.377,10.377,0,0,0,3.925.673v0h.035v0a10.371,10.371,0,0,0,3.926-.673l-.275-.743a20.832,20.832,0,0,0,3.343-1.394Zm-12.378.347,1.181-.39-.349-1.132a15.4,15.4,0,0,0,2.363.939l-.57,1.556A14.547,14.547,0,0,1,181.02,408.616Zm6.164,2.37a13.208,13.208,0,0,1-3.4-.476l.7-1.884a11.413,11.413,0,0,0,2.669.342h.055a11.436,11.436,0,0,0,2.669-.342l.7,1.884A13.127,13.127,0,0,1,187.183,410.986Zm3.535-1.4-.569-1.556a15.405,15.405,0,0,0,2.363-.939l-.347,1.132,1.18.39A14.483,14.483,0,0,1,190.718,409.588Z" transform="translate(-166.177 -374.891)"/>
      <path id="Контур_12125" data-name="Контур 12125" d="M221.554,17.131a5.4,5.4,0,0,1,3.276.995,6.441,6.441,0,0,1,.847-2.161L224.5,16.1l-.616-1.3L222.7,15.4l-1.147-1.127L220.41,15.4l-1.185-.606-.614,1.3-1.177-.133a6.444,6.444,0,0,1,.847,2.161A5.4,5.4,0,0,1,221.554,17.131Zm-3-.578.327.034.141-.295.412-.874.764.392.3.15.236-.231.823-.812.825.812.236.231.3-.15.759-.392.416.874.138.295.327-.034.311-.037a7.321,7.321,0,0,0-.324.874,6.589,6.589,0,0,0-5.97,0,7.449,7.449,0,0,0-.324-.874Z" transform="translate(-200.549 -13.167)"/>
      <path id="Контур_12126" data-name="Контур 12126" d="M334.269,81.123a2.844,2.844,0,0,0,2.548-1.992l.211-.673-.709.022h0a5.083,5.083,0,0,1-3.813-1.922l-.14-.173a7.417,7.417,0,0,0-3.52-2.91,1.644,1.644,0,0,1,.207-.155,2.767,2.767,0,0,0,.88-4.264l-.526-.646-.328.767a2.121,2.121,0,0,1-1.738,1.276h-.086c-.08,0-.156-.008-.231-.014a2.777,2.777,0,0,0-.833-2.19,3.7,3.7,0,0,0-2.666-1.1,3.365,3.365,0,0,0-.553.042l-.795.156.49.642c.385.495.734,1.408.32,1.886a2.211,2.211,0,0,1-.665.4c-.536.245-1.266.585-1.266,1.454a2.178,2.178,0,0,0,1.233,1.649c2.354,1.471,3.805,3.005,4.432,4.7a3.725,3.725,0,0,1-1.524,4.874l-.552.353.482.44a2.792,2.792,0,0,0,1.527.648c.165.011.324.02.471.02a4.891,4.891,0,0,0,1.422-.2,3.6,3.6,0,0,1-.4.565,3.48,3.48,0,0,1-2.809,1.2l-.462.008-.036.461a2.161,2.161,0,0,0,.775,1.672,1.851,1.851,0,0,0,.432.281,4,4,0,0,0-1.221,2.824,3.883,3.883,0,0,1-.39,1.688l-.511.774.922.012a4.679,4.679,0,0,0,3.5-1.246,3.946,3.946,0,0,0,.913-1.533,2.473,2.473,0,0,0,1.609.587,3.7,3.7,0,0,0,.831-.1l.589-.156-.261-.546a3.866,3.866,0,0,1,.019-2.7,8.819,8.819,0,0,0,.4-1.753,3.253,3.253,0,0,0,1.51.353,2.5,2.5,0,0,0,2.13-1.127l.288-.5-.533-.219c-1.738-.717-2.123-2.642-2.2-3.685a3.418,3.418,0,0,0,.539.064Zm1.378,4.081a1.974,1.974,0,0,1-1.677.879h-.014a2.368,2.368,0,0,1-1.967-.857,7.238,7.238,0,0,1-.424,2.6,4.36,4.36,0,0,0,0,3.082,3.058,3.058,0,0,1-.7.087,1.721,1.721,0,0,1-.437-.052,2.029,2.029,0,0,1-1.463-1.335s.108,3.577-4.088,3.577h-.033a4.058,4.058,0,0,0,.479-1.937c.2-2.654,2.008-3.018,2.008-3.018a3.211,3.211,0,0,1-1.383-.493,1.69,1.69,0,0,1-.608-1.269,3.972,3.972,0,0,0,3.18-1.368,4.025,4.025,0,0,0,.93-1.906,3.619,3.619,0,0,1-2.328.715c-.135,0-.28-.006-.427-.02a2.26,2.26,0,0,1-1.229-.517,4.219,4.219,0,0,0,1.725-5.471,10.746,10.746,0,0,0-4.636-4.952c-.641-.4-1-.84-1-1.221,0-.9,1.282-.924,1.809-1.527.606-.7.226-1.835-.3-2.517a2.541,2.541,0,0,1,.457-.036,3.182,3.182,0,0,1,2.3.951,2.236,2.236,0,0,1,.613,2.25l.281.055a3.055,3.055,0,0,0,.507.05l.113,0a2.645,2.645,0,0,0,2.2-1.582,2.292,2.292,0,0,1-.764,3.527c-.41.265-.591.511-.544.773l.038.172.17.03c1.727.465,2.6,1.649,3.667,2.994a5.6,5.6,0,0,0,4.195,2.112h.03a2.356,2.356,0,0,1-2.064,1.641l-.074,0a2.013,2.013,0,0,1-1.072-.3S332.849,84.049,335.647,85.2Z" transform="translate(-296.122 -61.932)"/>
      <path id="Контур_12127" data-name="Контур 12127" d="M439.858,136.638a4.635,4.635,0,0,1,1.475,1.316,2.78,2.78,0,0,0,1.214,1.023,1.805,1.805,0,0,0,.586.094,2.12,2.12,0,0,0,1.881-1.143l.3-.665-.731-.044a3.506,3.506,0,0,1-2.021-1.149,2.1,2.1,0,0,0-1.512-.665,2.4,2.4,0,0,0-1.249.375l-.672.47Zm1.2-.731a1.568,1.568,0,0,1,1.15.517,4.009,4.009,0,0,0,2.35,1.3,1.631,1.631,0,0,1-1.42.851,1.328,1.328,0,0,1-.429-.07c-.837-.281-1.138-1.53-2.61-2.308A1.839,1.839,0,0,1,441.055,135.908Z" transform="translate(-405.03 -124.89)"/>
      <path id="Контур_12128" data-name="Контур 12128" d="M357.312,136.412v.025c-.424-3.4-2.91-5.856-5.675-7.351-.256-.136-.492-.251-.721-.362a4.006,4.006,0,0,0,3.244-.757s-1.6,1.171-4.882.108a33.319,33.319,0,0,1,4.283,2.749c4.027,3.516,1.145,6.946,1.145,6.946a4.189,4.189,0,0,0,1.081-4.421,8.183,8.183,0,0,1,1.174,4.676,11.867,11.867,0,0,1-3.179,6.918,4.65,4.65,0,0,0-.925,2.031,6.254,6.254,0,0,1,1.18-2c1.686-1.961,3.127-4,3.315-6.934a4.876,4.876,0,0,0,2.031,2.571S357.956,139.752,357.312,136.412Z" transform="translate(-322.155 -118.029)"/>
      <path id="Контур_12129" data-name="Контур 12129" d="M26.742,92.879a3.993,3.993,0,0,1-.388-1.688,4,4,0,0,0-1.222-2.824,1.7,1.7,0,0,0,.432-.281,2.163,2.163,0,0,0,.773-1.672l-.031-.461-.465-.008a3.491,3.491,0,0,1-2.808-1.2,3.7,3.7,0,0,1-.4-.565,4.87,4.87,0,0,0,1.42.2c.151,0,.306-.009.471-.02a2.794,2.794,0,0,0,1.529-.648l.482-.44-.551-.353a3.723,3.723,0,0,1-1.526-4.874c.627-1.694,2.077-3.229,4.434-4.7A2.173,2.173,0,0,0,30.12,71.7c0-.868-.729-1.21-1.265-1.454a2.21,2.21,0,0,1-.665-.4c-.415-.476-.065-1.391.319-1.886L29,67.325l-.8-.156a3.344,3.344,0,0,0-.553-.042,3.7,3.7,0,0,0-2.665,1.1,2.788,2.788,0,0,0-.837,2.191c-.075.006-.151.009-.229.014h-.085A2.119,2.119,0,0,1,22.1,69.156l-.328-.767-.531.646a2.773,2.773,0,0,0,.883,4.264,1.528,1.528,0,0,1,.207.155,7.42,7.42,0,0,0-3.516,2.912l-.14.173a5.086,5.086,0,0,1-3.816,1.922l-.712-.022.217.673A2.837,2.837,0,0,0,16.906,81.1l.091,0a3.337,3.337,0,0,0,.539-.064c-.079,1.041-.464,2.966-2.2,3.685l-.531.219.288.5a2.5,2.5,0,0,0,2.134,1.127,3.256,3.256,0,0,0,1.507-.353,8.817,8.817,0,0,0,.4,1.753,3.86,3.86,0,0,1,.017,2.7l-.261.546.591.156a3.7,3.7,0,0,0,.831.1,2.43,2.43,0,0,0,.553-.061,2.461,2.461,0,0,0,1.056-.526,3.94,3.94,0,0,0,.911,1.533,4.682,4.682,0,0,0,3.5,1.246l.924-.013Zm-.446.286c-4.2,0-4.09-3.577-4.09-3.577a2.029,2.029,0,0,1-1.463,1.335,1.693,1.693,0,0,1-.435.052,3.035,3.035,0,0,1-.7-.087,4.372,4.372,0,0,0,0-3.082,7.271,7.271,0,0,1-.421-2.6,2.364,2.364,0,0,1-1.967.857H17.2a1.974,1.974,0,0,1-1.676-.879c2.8-1.154,2.522-4.879,2.522-4.879a2.032,2.032,0,0,1-1.073.3c-.025,0-.049,0-.074,0a2.354,2.354,0,0,1-2.065-1.641h.031a5.592,5.592,0,0,0,4.193-2.112c1.067-1.346,1.942-2.528,3.665-2.995l.173-.03.038-.172c.047-.262-.132-.507-.542-.773a2.292,2.292,0,0,1-.764-3.527,2.639,2.639,0,0,0,2.2,1.58l.112,0a3.229,3.229,0,0,0,.507-.051l.281-.055a2.234,2.234,0,0,1,.614-2.25,3.175,3.175,0,0,1,2.3-.951,2.489,2.489,0,0,1,.456.036c-.525.684-.9,1.817-.3,2.517.525.6,1.805.631,1.805,1.527,0,.379-.357.823-1,1.221a10.73,10.73,0,0,0-4.637,4.952,4.219,4.219,0,0,0,1.728,5.471,2.261,2.261,0,0,1-1.23.517c-.148.014-.291.02-.429.02a3.617,3.617,0,0,1-2.327-.715,4.043,4.043,0,0,0,.925,1.906,3.989,3.989,0,0,0,3.185,1.368,1.685,1.685,0,0,1-.607,1.269,3.244,3.244,0,0,1-1.384.493s1.81.364,2.008,3.018a4.079,4.079,0,0,0,.474,1.937Z" transform="translate(-13.044 -61.914)"/>
      <path id="Контур_12130" data-name="Контур 12130" d="M24.4,139.109a1.809,1.809,0,0,0,.588-.094,2.767,2.767,0,0,0,1.216-1.023,4.647,4.647,0,0,1,1.474-1.316l.726-.387-.674-.47a2.372,2.372,0,0,0-1.246-.375,2.09,2.09,0,0,0-1.513.665,3.515,3.515,0,0,1-2.019,1.149l-.731.042.3.667A2.125,2.125,0,0,0,24.4,139.109Zm.93-2.646a1.574,1.574,0,0,1,1.153-.517,1.834,1.834,0,0,1,.955.287c-1.471.779-1.772,2.027-2.613,2.308a1.287,1.287,0,0,1-.426.07,1.624,1.624,0,0,1-1.419-.851A4.031,4.031,0,0,0,25.328,136.463Z" transform="translate(-20.493 -124.927)"/>
      <path id="Контур_12131" data-name="Контур 12131" d="M63.952,138.045a8.146,8.146,0,0,1,1.172-4.676A4.186,4.186,0,0,0,66.2,137.79s-2.882-3.43,1.147-6.946a33.558,33.558,0,0,1,4.281-2.749c-3.279,1.063-4.88-.108-4.88-.108a4,4,0,0,0,3.245.756c-.228.111-.467.226-.72.362-2.768,1.494-5.252,3.95-5.678,7.351v-.027c-.643,3.34-2.072,4.2-2.072,4.2a4.869,4.869,0,0,0,2.028-2.571c.19,2.935,1.631,4.973,3.317,6.934a6.3,6.3,0,0,1,1.183,2,4.646,4.646,0,0,0-.93-2.031A11.858,11.858,0,0,1,63.952,138.045Z" transform="translate(-56.749 -118.048)"/>
      <path id="Контур_12132" data-name="Контур 12132" d="M258.281,168.9v.674a.842.842,0,0,1,.687-.225v.973a1.444,1.444,0,0,1-.187.685h.979a1.473,1.473,0,0,1-.185-.685v-.973a.838.838,0,0,1,.685.225V168.9h-1.978Z" transform="translate(-238.224 -155.785)"/>
      <path id="Контур_12133" data-name="Контур 12133" d="M246.589,108.269a1.551,1.551,0,0,0,.5.292l.123.056v-.635l-1.15-.481A1.145,1.145,0,0,0,246.589,108.269Z" transform="translate(-226.953 -99.153)"/>
      <path id="Контур_12134" data-name="Контур 12134" d="M280.713,108.269a1.14,1.14,0,0,0,.529-.768l-1.15.481v.635l.121-.056A1.532,1.532,0,0,0,280.713,108.269Z" transform="translate(-258.341 -99.153)"/>
      <path id="Контур_12135" data-name="Контур 12135" d="M183.449,62.346c0-.963-1.632-1.83-3.435-1.83H180c-1.8,0-3.435.867-3.435,1.83l.036.237.719,4.1-.723.417-1.87,1.085h.006s-.421.214-.616.347c-.712.492-.863,1.208-.449,1.505a1.409,1.409,0,0,1,1.438-1.2,1.877,1.877,0,0,1,1.491.8,3.917,3.917,0,0,1,.281.392c.108.176.217.331.325.481h-4.816a5.153,5.153,0,0,1,.69,2.27V83.384c0,2.564,1.984,3.788,4.131,3.788,1.659,0,1.882-.075,2.8.831.911-.907,1.134-.831,2.8-.831,2.148,0,4.129-1.224,4.129-3.788V72.792a5.135,5.135,0,0,1,.691-2.27H182.81c.107-.148.215-.3.324-.481a4.481,4.481,0,0,1,.28-.392,1.88,1.88,0,0,1,1.493-.8,1.409,1.409,0,0,1,1.438,1.2c.413-.3.264-1.013-.453-1.505-.192-.133-.613-.347-.613-.347h.006l-1.87-1.085-.72-.417.72-4.1Zm-6.172.478,2.53.852v3.948l-1.862-.976Zm.523,8.387a3.375,3.375,0,0,0,1.208.806,1.554,1.554,0,0,0,.071,1.015,1.518,1.518,0,0,0,.826.749,1.557,1.557,0,0,0,1.017,1.286c-.313.314-.618.609-.742.729l-2.9-.045a.514.514,0,0,1-.228-.211.274.274,0,0,1-.02-.037l.473.076.03,0a.187.187,0,0,0,.03-.372l-.581-.091.646-2.215-.611-1.279-.98,1.031-.06,2.3-.658-.1a.188.188,0,0,0-.217.156.19.19,0,0,0,.157.215l.277.042c-.1.056-.163.1-.171.106l-.057.039-.016.069a1.508,1.508,0,0,0,.594,1.535l-.014.081a.374.374,0,0,0,.308.428.436.436,0,0,0,.061,0,.372.372,0,0,0,.36-.287,3.2,3.2,0,0,0,.371.02h.077l3.8.682.064-.042c.3-.211,1.458-1.048,1.837-1.324a1.6,1.6,0,0,0,.361.237,1.538,1.538,0,0,0,.355,1.535h-9.694v-5.56a4.6,4.6,0,0,0-.346-1.58H177.8Zm4.7,5.087c-.385.281-1.375,1-1.733,1.249l-3.457-.617.024-.092a3,3,0,0,0,.094-.707l2.9.047.055-.056c.044-.044.965-.927,1.434-1.436a1.787,1.787,0,0,0,.434.389A1.661,1.661,0,0,0,182.5,76.3Zm-5.787-.595a.884.884,0,0,0,.332.348,3.951,3.951,0,0,1-.061.626,1.269,1.269,0,0,1-.036.139c-.008.028-.016.051-.022.07a2.239,2.239,0,0,1-.7-.108,1.118,1.118,0,0,1-.583-1.14,1.378,1.378,0,0,1,.644-.223A.436.436,0,0,1,176.715,75.7Zm-.36-.685.058-2.212.5-.526.314.653-.619,2.123Zm6.115,11.469c-.189,0-.363,0-.52.009l.412-1.272c.064-.176-.261-.4-.394-.6a10.982,10.982,0,0,0,.98.514C182.921,85.176,182.47,86.486,182.47,86.486Zm1.292-1.446-.269,1.393c-.171.023-.354.036-.54.044l.283-1.34c.085-.4-.991-.521-1.522-1.3a1.673,1.673,0,0,1-1.238.376,6.365,6.365,0,0,1-1.167-.125,1.281,1.281,0,0,0-.2-.019.426.426,0,0,0-.4.214l-.079.131-1.466-.343-.365.6a.207.207,0,0,0,.028.27l.1.108a2.007,2.007,0,0,1-.372.532l-.218-.27a.776.776,0,0,1,.036-.867l.581-.976,1.241.178L178,83.206c-.259-.578.135-1.313.178-1.736-.014.128-.132.156-.27.156s-.265-.023-.358-.023a.158.158,0,0,0-.085.016l-.336.2-.266-.233a.188.188,0,0,1,.036-.228l.614-.684-.726-.842,1.016.507.309-.373c.085.083.049.3.049.3a1.649,1.649,0,0,1,1.254,1.636c0,.034,0,.073,0,.111,0,0,.008.014.024.037a.74.74,0,0,0,.456.326l1.4.137h.006a4.958,4.958,0,0,1,.853-.179,1.311,1.311,0,0,1,.707.214.634.634,0,0,1,.335-.111c.016,0,.033,0,.049,0,.63,0,.891.565,1.229,1.035.255.358.594.888.594.888a.527.527,0,0,1-.437.23.976.976,0,0,1-.181-.017c-.676-.123-.773-1.5-1.158-1.613a.209.209,0,0,0-.24.1c.176.47.074.66.262,1.023a2.587,2.587,0,0,0,.5.595S183.792,84.887,183.762,85.04Zm-7.543-1.318.064.161c-.042.141-.529.34-.529.34L175.648,84a.756.756,0,0,1,.251-.906l.789-.478.836.176a.732.732,0,0,0,.143.461l-.877-.167-.525.361A.217.217,0,0,0,176.219,83.722Zm7.675,2.634.24-1.246c.012-.073.028-.159.039-.231a1.05,1.05,0,0,0,.218.065,1.323,1.323,0,0,0,.248.025.917.917,0,0,0,.724-.356l.185-.214-.151-.234c-.014-.023-.347-.548-.6-.907-.05-.07-.1-.141-.148-.217a1.7,1.7,0,0,0-1.392-.979l-.066,0a1.08,1.08,0,0,0-.308.062,1.672,1.672,0,0,0-.715-.162,2.223,2.223,0,0,0-.729.141c-.049.014-.093.03-.127.036l-1.372-.134a.356.356,0,0,1-.141-.117v-.006l.3-.119a2.364,2.364,0,0,0-1.562-1.791.555.555,0,0,0-.154-.276l-.3-.278-.259.309-.127.158-1.92-.784,1.249,1.558-.493.742a.267.267,0,0,0,.019.381l.509.348.528-.2a.518.518,0,0,1,.052.006c-.025.08-.058.392-.08.479l-.916-.18-.963.54a1.127,1.127,0,0,0-.379,1.368l.107.233.152.328.336-.139a.029.029,0,0,0,.013-.006,1,1,0,0,0,.145.99l.2.256.272.342.3-.318a2.129,2.129,0,0,0,.46-.676l.064-.208-.146-.159-.024-.028.163-.269,1.2.279.269.061.143-.234.079-.128c.014-.026.019-.031.074-.031a.645.645,0,0,1,.13.014,6.806,6.806,0,0,0,1.236.126,2.419,2.419,0,0,0,.828-.1s.643.724.665.753l-.393,1.205-.017.073a2.1,2.1,0,0,0-1.546.657c-.636-.628-1.087-.693-2.8-.693-2.047,0-3.435-1.193-3.435-3.1V78.725H186.24l0,4.657A2.911,2.911,0,0,1,183.894,86.356Zm2.694-15.146a4.537,4.537,0,0,0-.349,1.58l0,3.475a1.055,1.055,0,0,1-.82-.938l-.014-.159-.157-.014a1.111,1.111,0,0,1-.705-.336,1.459,1.459,0,0,1-.358-.938,1.01,1.01,0,0,0,.058,1.163,1.248,1.248,0,0,0,.822.464,1.362,1.362,0,0,0,1.175,1.14v1.7h-2.156a1.187,1.187,0,0,1-.553-1.558l.085-.184-.19-.072a1.213,1.213,0,0,1-.765-1.51l.044-.156-.146-.069a1.534,1.534,0,0,1-.757-1.558.944.944,0,0,0-.184,1.11c-.1.116-.239.256-.388.409a1.2,1.2,0,0,1-.949-1.113l0-.13-.121-.047a1.2,1.2,0,0,1-.728-.6,1.158,1.158,0,0,1-.05-.753,2.245,2.245,0,0,0,.311.048,3.013,3.013,0,0,0,.317.017h.014a2.983,2.983,0,0,0,.316-.017,3.07,3.07,0,0,0,1.885-.96h4.363ZM183.229,67.7l.852.492h.013l.214.123a2.513,2.513,0,0,0-1.156.685c-.011.009-.022.022-.033.033-.071.075-.141.156-.207.239l-.039.05c-.066.084-.127.17-.187.261a.47.47,0,0,1-.031.045c-.071.1-.138.217-.206.333a2.615,2.615,0,0,1-4.869,0c-.066-.112-.132-.222-.2-.328-.014-.02-.027-.041-.039-.058-.06-.086-.119-.17-.181-.25-.016-.022-.03-.039-.046-.058-.066-.08-.134-.159-.2-.233-.014-.011-.024-.025-.038-.037a2.5,2.5,0,0,0-1.158-.682l.217-.123h.009l.852-.492.875-.5L180,68.464l0,0,.006,0,2.338-1.265Zm-1.153-1.048-1.863.976v-3.95l2.528-.852Zm-2.066-3.408-2.772-1.088c.236-.554,1.323-1.026,2.772-1.027s2.537.473,2.772,1.027Z" transform="translate(-159.005 -55.816)"/>
    </g>
  </g>
</svg>
