<svg xmlns="http://www.w3.org/2000/svg" width="17" height="17" viewBox="0 0 17 17">
  <g id="tag_06" transform="translate(-663 -4660)">
    <circle id="Эллипс_4" data-name="Эллипс 4" cx="8.5" cy="8.5" r="8.5" transform="translate(663 4660)" fill="#e4ffee"/>
    <path id="home" d="M5.648,34.4,1.924,37.465v3.31a.323.323,0,0,0,.323.323l2.264-.006a.323.323,0,0,0,.322-.323V38.836a.323.323,0,0,1,.323-.323H6.448a.323.323,0,0,1,.323.323v1.932a.323.323,0,0,0,.323.324l2.263.006a.323.323,0,0,0,.323-.323V37.462L5.957,34.4a.246.246,0,0,0-.309,0Zm5.883,2.085L9.842,35.09v-2.8A.242.242,0,0,0,9.6,32.05H8.469a.242.242,0,0,0-.242.242v1.467L6.418,32.271a.97.97,0,0,0-1.232,0L.073,36.482a.242.242,0,0,0-.032.341l.515.626a.242.242,0,0,0,.342.033l4.751-3.913a.246.246,0,0,1,.309,0l4.751,3.913a.242.242,0,0,0,.341-.032l.515-.626a.242.242,0,0,0-.034-.342Z" transform="translate(665.697 4631.426)" fill="#53b374"/>
  </g>
</svg>
