<svg xmlns="http://www.w3.org/2000/svg" width="17" height="17" viewBox="0 0 17 17">
  <g id="tag_10" transform="translate(-382 -4693)">
    <circle id="Эллипс_4" data-name="Эллипс 4" cx="8.5" cy="8.5" r="8.5" transform="translate(382 4693)" fill="#fff8f5"/>
    <path id="cogs" d="M10.024,3.852l-.161.28a.242.242,0,0,1-.3.106,2.165,2.165,0,0,1-.629-.364.243.243,0,0,1-.055-.308l.161-.28a1.691,1.691,0,0,1-.312-.537H8.41a.242.242,0,0,1-.239-.2,2.207,2.207,0,0,1,0-.727.244.244,0,0,1,.239-.2h.323a1.691,1.691,0,0,1,.312-.537L8.884.8A.241.241,0,0,1,8.939.492,2.191,2.191,0,0,1,9.568.128a.242.242,0,0,1,.3.106l.161.28a1.741,1.741,0,0,1,.621,0l.161-.28a.242.242,0,0,1,.3-.106,2.165,2.165,0,0,1,.629.364A.243.243,0,0,1,11.785.8l-.161.28a1.691,1.691,0,0,1,.312.537h.323a.242.242,0,0,1,.239.2,2.207,2.207,0,0,1,0,.727.244.244,0,0,1-.239.2h-.323a1.691,1.691,0,0,1-.312.537l.161.28a.241.241,0,0,1-.055.308,2.191,2.191,0,0,1-.629.364.242.242,0,0,1-.3-.106l-.161-.28A1.741,1.741,0,0,1,10.024,3.852ZM9.818,2.7a.732.732,0,0,0,1.034-1.034A.732.732,0,0,0,9.818,2.7ZM7.559,5.716l.66.329a.471.471,0,0,1,.206.57A4.625,4.625,0,0,1,7.591,7.9a.468.468,0,0,1-.594.1l-.57-.329A3.366,3.366,0,0,1,5.351,8.3v.658a.469.469,0,0,1-.386.462,4.406,4.406,0,0,1-1.487,0,.471.471,0,0,1-.392-.462V8.3a3.4,3.4,0,0,1-1.076-.621l-.57.327a.469.469,0,0,1-.594-.1A4.618,4.618,0,0,1,.02,6.615a.473.473,0,0,1,.206-.57l.652-.329a3.394,3.394,0,0,1,0-1.242L.226,4.142A.467.467,0,0,1,.02,3.574,4.6,4.6,0,0,1,.847,2.285a.468.468,0,0,1,.594-.1l.57.329a3.366,3.366,0,0,1,1.076-.621v-.66A.467.467,0,0,1,3.47.768a4.468,4.468,0,0,1,1.489,0,.471.471,0,0,1,.392.462v.658a3.4,3.4,0,0,1,1.076.621L7,2.179a.469.469,0,0,1,.594.1,4.594,4.594,0,0,1,.825,1.289.468.468,0,0,1-.2.57l-.66.329A3.4,3.4,0,0,1,7.559,5.716Zm-2.3.413A1.465,1.465,0,0,0,3.184,4.058,1.465,1.465,0,0,0,5.255,6.129Zm4.769,3.58-.161.28a.242.242,0,0,1-.3.106,2.165,2.165,0,0,1-.629-.364.243.243,0,0,1-.055-.308l.161-.28a1.691,1.691,0,0,1-.312-.537H8.41a.242.242,0,0,1-.239-.2,2.207,2.207,0,0,1,0-.727.244.244,0,0,1,.239-.2h.323a1.691,1.691,0,0,1,.312-.537l-.161-.28a.241.241,0,0,1,.055-.308,2.191,2.191,0,0,1,.629-.364.242.242,0,0,1,.3.106l.161.28a1.741,1.741,0,0,1,.621,0l.161-.28a.242.242,0,0,1,.3-.106,2.165,2.165,0,0,1,.629.364.243.243,0,0,1,.055.308l-.161.28a1.691,1.691,0,0,1,.312.537h.323a.242.242,0,0,1,.239.2,2.207,2.207,0,0,1,0,.727.244.244,0,0,1-.239.2h-.323a1.691,1.691,0,0,1-.312.537l.161.28a.241.241,0,0,1-.055.308,2.191,2.191,0,0,1-.629.364.242.242,0,0,1-.3-.106l-.161-.28A1.741,1.741,0,0,1,10.024,9.708ZM9.818,8.554A.732.732,0,0,0,10.853,7.52.732.732,0,0,0,9.818,8.554Z" transform="translate(383.714 4696.389)" fill="#ff8a4c"/>
  </g>
</svg>
