<svg xmlns="http://www.w3.org/2000/svg" width="17" height="17" viewBox="0 0 17 17">
  <g id="tag_03" transform="translate(-680 -4792)">
    <circle id="Эллипс_3" data-name="Эллипс 3" cx="8.5" cy="8.5" r="8.5" transform="translate(680 4792)" fill="#fff"/>
    <path id="fire" d="M5.284.583A.588.588,0,0,0,4.2.264C1.174,4.693,5.48,4.892,5.48,7.045a1.566,1.566,0,1,1-3.131-.023V4.93a.587.587,0,0,0-1.014-.4A4.892,4.892,0,0,0,0,7.828a4.7,4.7,0,0,0,9.394,0c0-4.166-4.11-4.722-4.11-7.245Z" transform="translate(683.803 4793.237)" fill="#ff8000"/>
  </g>
</svg>
