<svg xmlns="http://www.w3.org/2000/svg" width="17" height="17" viewBox="0 0 17 17">
  <g id="tag_02" transform="translate(-627 -4693)">
    <circle id="Эллипс_3" data-name="Эллипс 3" cx="8.5" cy="8.5" r="8.5" transform="translate(627 4693)" fill="#ebfdff"/>
    <circle id="Эллипс_4" data-name="Эллипс 4" cx="8.5" cy="8.5" r="8.5" transform="translate(627 4693)" fill="#ebfdff"/>
    <path id="Пересечение_1" data-name="Пересечение 1" d="M-192.514-23.765l4.709-4.4a2.9,2.9,0,0,0,.293.356l1.466,1.466a2.876,2.876,0,0,0,.341.28l-4.377,4.689A8.549,8.549,0,0,1-192.514-23.765Zm10.181-.212-.675-.675a.477.477,0,0,1,0-.675l.337-.337-.861-.862a1.9,1.9,0,0,1-1.838-.487l-1.466-1.466a1.908,1.908,0,0,1-.559-1.35v-.559l-2.7-1.35a4.772,4.772,0,0,1,6.749,0l1.35,1.35a1.9,1.9,0,0,1,.488,1.838l.862.862.338-.337a.477.477,0,0,1,.675,0l.675.675a.476.476,0,0,1,0,.674l-2.7,2.7a.476.476,0,0,1-.337.14A.476.476,0,0,1-182.333-23.977Z" transform="translate(820.953 4730)" fill="#02c7d9"/>
  </g>
</svg>
