<svg xmlns="http://www.w3.org/2000/svg" width="17" height="17" viewBox="0 0 17 17">
  <g id="tag_11" transform="translate(-331 -4726)">
    <circle id="Эллипс_4" data-name="Эллипс 4" cx="8.5" cy="8.5" r="8.5" transform="translate(331 4726)" fill="#e4ffee"/>
    <path id="box" d="M8.632,3.127,7.774.556A.811.811,0,0,0,7,0h-2.4V3.253H8.652A.774.774,0,0,0,8.632,3.127ZM4.066,0H1.67A.811.811,0,0,0,.9.556L.042,3.127a.774.774,0,0,0-.02.125H4.066ZM0,3.795V7.861a.813.813,0,0,0,.813.813H7.861a.813.813,0,0,0,.813-.813V3.795Z" transform="translate(335.163 4730.163)" fill="#53b374"/>
  </g>
</svg>
