<svg xmlns="http://www.w3.org/2000/svg" width="17" height="17" viewBox="0 0 17 17">
  <g id="tag_08" transform="translate(-423 -4627)">
    <circle id="Эллипс_4" data-name="Эллипс 4" cx="8.5" cy="8.5" r="8.5" transform="translate(423 4627)" fill="#dcf2ff"/>
    <path id="hand-holding-seedling" d="M8.735,0H7.571A2.892,2.892,0,0,0,5.645.742,3.475,3.475,0,0,1,6.4,2.854,2.913,2.913,0,0,0,8.735,0ZM4.659,2.912V4.95a.292.292,0,0,0,.291.291h.582a.292.292,0,0,0,.291-.291V2.912A2.911,2.911,0,0,0,2.912,0H1.747A2.911,2.911,0,0,0,4.659,2.912Zm5.629,3.059a.6.6,0,0,0-.775,0L7.831,7.316a1.159,1.159,0,0,1-.728.255H4.95a.291.291,0,0,1,0-.582H6.375A.606.606,0,0,0,6.981,6.5a.583.583,0,0,0-.575-.681H3.494A2.142,2.142,0,0,0,2.146,6.3L1.3,6.988H.291A.292.292,0,0,0,0,7.279V9.026a.292.292,0,0,0,.291.291H6.784a1.166,1.166,0,0,0,.728-.255l2.752-2.2A.582.582,0,0,0,10.288,5.971Z" transform="translate(426.684 4630.785)" fill="#028ad9"/>
  </g>
</svg>
