<svg xmlns="http://www.w3.org/2000/svg" width="17" height="17" viewBox="0 0 17 17">
  <g id="tag_01" transform="translate(-602 -4726)">
    <circle id="Эллипс_3" data-name="Эллипс 3" cx="8.5" cy="8.5" r="8.5" transform="translate(602 4726)" fill="#fff0e8"/>
    <path id="check" d="M2.891,71.319.125,68.554a.426.426,0,0,1,0-.6l.6-.6a.425.425,0,0,1,.6,0l1.863,1.863,3.991-3.991a.426.426,0,0,1,.6,0l.6.6a.426.426,0,0,1,0,.6L3.492,71.32a.425.425,0,0,1-.6,0Z" transform="translate(606.745 4666.631)" fill="#ff8a4c"/>
  </g>
</svg>
