<svg xmlns="http://www.w3.org/2000/svg" width="17" height="17" viewBox="0 0 17 17">
  <g id="tag_14" transform="translate(-411 -4827)">
    <circle id="Эллипс_4" data-name="Эллипс 4" cx="8.5" cy="8.5" r="8.5" transform="translate(411 4827)" fill="#ebfdff"/>
    <path id="Объединение_27" data-name="Объединение 27" d="M4601.5,4.942a.565.565,0,0,1-.57-.559V.946a2.4,2.4,0,0,0,.292.063,2.485,2.485,0,0,0,.321.021,2.392,2.392,0,0,0,.526-.067V2.706h6.844V.963a2.319,2.319,0,0,0,.526.067,2.525,2.525,0,0,0,.324-.021,1.8,1.8,0,0,0,.292-.063V4.383a.564.564,0,0,1-.57.559Zm6.62-5.051a1.787,1.787,0,0,1-2.486.142,1.675,1.675,0,0,1-.143-.142,1.787,1.787,0,0,1-2.488.14,1.8,1.8,0,0,1-.142-.14,1.776,1.776,0,0,1-1.315.579,1.912,1.912,0,0,1-.244-.016,1.551,1.551,0,0,1-1.047-2.382l1.155-1.809a.572.572,0,0,1,.484-.262h7.2a.573.573,0,0,1,.483.262l1.156,1.809a1.55,1.55,0,0,1-1.051,2.382,1.92,1.92,0,0,1-.245.016A1.781,1.781,0,0,1,4608.116-.109Z" transform="translate(-4186 4835.529)" fill="#02c7d9"/>
  </g>
</svg>
