<svg xmlns="http://www.w3.org/2000/svg" width="17" height="17" viewBox="0 0 17 17">
  <g id="tag_18" transform="translate(-706 -4759)">
    <circle id="Эллипс_4" data-name="Эллипс 4" cx="8.5" cy="8.5" r="8.5" transform="translate(706 4759)" fill="#e4ffee"/>
    <path id="Объединение_37" data-name="Объединение 37" d="M12686.875,6.452c-.356-.081-.712-.162-1.067-.247a1.5,1.5,0,0,0-.654.047c-.383.075-.765.156-1.149.225a1.388,1.388,0,0,1-.561,0,1.123,1.123,0,0,1-.682-.463c-.2-.282-.379-.575-.567-.862a1.435,1.435,0,0,0-.763-.728c-.29-.171-.584-.335-.868-.514a1.09,1.09,0,0,1-.525-1.258c.066-.3.15-.593.224-.889a1.384,1.384,0,0,0,0-1.077c-.073-.3-.157-.6-.222-.9a1.062,1.062,0,0,1,.5-1.185c.3-.2.616-.374.925-.56a3.885,3.885,0,0,0,.354-.227,1.031,1.031,0,0,0,.221-.229c.229-.331.448-.668.673-1a1.451,1.451,0,0,1,.372-.388.976.976,0,0,1,.619-.2,4.978,4.978,0,0,1,1.013.152c.271.056.539.114.809.168a1.3,1.3,0,0,0,.521-.056c.375-.076.747-.166,1.124-.236a1.187,1.187,0,0,1,1.246.461c.225.3.429.607.626.92a1.706,1.706,0,0,0,.63.594c.351.195.7.4,1.03.617a1.044,1.044,0,0,1,.466.609,1.111,1.111,0,0,1,0,.528c-.066.324-.146.647-.223.97a1.417,1.417,0,0,0,0,1.1c.078.325.171.647.231.975a1.03,1.03,0,0,1-.5,1.12c-.332.213-.68.4-1.027.594a1.447,1.447,0,0,0-.6.559c-.037.067-.084.129-.127.193-.175.259-.343.524-.527.777a1.143,1.143,0,0,1-.816.471,1.29,1.29,0,0,1-.147.008A2.45,2.45,0,0,1,12686.875,6.452Zm-.592-4.081a1.244,1.244,0,0,0,2.484,0,1.244,1.244,0,0,0-2.484,0Zm.021-3.109q-1.018,1.659-2.033,3.319a.948.948,0,0,0-.065.163.349.349,0,0,0,.28.336.354.354,0,0,0,.4-.185q.819-1.334,1.634-2.668c.144-.234.289-.466.424-.7a.3.3,0,0,0-.087-.379.363.363,0,0,0-.228-.082A.385.385,0,0,0,12686.3-.738Zm-3.88.888a1.22,1.22,0,0,0,1.242,1.181,1.224,1.224,0,0,0,1.246-1.172,1.216,1.216,0,0,0-1.237-1.17h0A1.214,1.214,0,0,0,12682.425.15Zm5.092,2.731a.521.521,0,0,1-.534-.515.545.545,0,0,1,1.088.01.526.526,0,0,1-.545.505ZM12683.669.67a.529.529,0,0,1-.545-.515.525.525,0,0,1,.545-.506.523.523,0,0,1,.543.506.526.526,0,0,1-.539.515Z" transform="translate(-11971.099 4766.235)" fill="#53b374" stroke="rgba(0,0,0,0)" stroke-miterlimit="10" stroke-width="1"/>
  </g>
</svg>
