<svg xmlns="http://www.w3.org/2000/svg" width="17" height="17" viewBox="0 0 17 17">
  <g id="tag_09" transform="translate(-444 -4660)">
    <circle id="Эллипс_4" data-name="Эллипс 4" cx="8.5" cy="8.5" r="8.5" transform="translate(444 4660)" fill="#ebfdff"/>
    <g id="Сгруппировать_5368" data-name="Сгруппировать 5368" transform="translate(-245.919 4366.696)">
      <path id="Контур_8498" data-name="Контур 8498" d="M692.868,302.969a1.136,1.136,0,0,1,.367-.83q2.07-2.077,4.144-4.15a1.04,1.04,0,0,1,.75-.3c.9,0,1.791.009,2.686.014.3,0,.595,0,.892.006a.206.206,0,0,0,.163-.07q.61-.614,1.224-1.224a.512.512,0,1,1,.7.746q-.592.595-1.188,1.186a.253.253,0,0,0-.084.2c.006,1.151.005,2.3.015,3.452a1.238,1.238,0,0,1-.384.929c-1.349,1.346-2.7,2.689-4.041,4.046a1.217,1.217,0,0,1-1.591.155,1.342,1.342,0,0,1-.14-.126q-1.581-1.58-3.16-3.161A1.161,1.161,0,0,1,692.868,302.969ZM701,300.2a.975.975,0,0,0-.951-.985.989.989,0,0,0-.987.942A.97.97,0,1,0,701,300.2Zm-3.322,4.714a.525.525,0,0,0-.172-.36l-1.855-1.854a.794.794,0,0,0-.1-.089.393.393,0,0,0-.511.028.417.417,0,0,0,.019.636l1.879,1.889a.66.66,0,0,0,.069.064.417.417,0,0,0,.674-.315Zm.855-.875a.406.406,0,0,0,.284-.707q-.954-.958-1.913-1.911a.549.549,0,0,0-.2-.129.407.407,0,0,0-.472.176.4.4,0,0,0,.07.516q.957.963,1.918,1.921A.4.4,0,0,0,698.533,304.044Z" transform="translate(0)" fill="#02c7d9"/>
    </g>
  </g>
</svg>
