<svg xmlns="http://www.w3.org/2000/svg" width="17" height="17" viewBox="0 0 17 17">
  <g id="tag_15" transform="translate(-361 -4860)">
    <circle id="Эллипс_4" data-name="Эллипс 4" cx="8.5" cy="8.5" r="8.5" transform="translate(361 4860)" fill="#ebfdff"/>
    <path id="concierge-bell" d="M6.265,65.447v-.4h.348a.348.348,0,0,0,.348-.348v-.348A.348.348,0,0,0,6.613,64H4.524a.348.348,0,0,0-.348.348V64.7a.348.348,0,0,0,.348.348h.348v.4A4.87,4.87,0,0,0,.7,70.265h9.745A4.87,4.87,0,0,0,6.265,65.447Zm4.524,5.513H.348A.348.348,0,0,0,0,71.309V72a.348.348,0,0,0,.348.348H10.789A.348.348,0,0,0,11.137,72v-.7A.348.348,0,0,0,10.789,70.961Z" transform="translate(363.932 4799.824)" fill="#02c7d9"/>
  </g>
</svg>
