<svg xmlns="http://www.w3.org/2000/svg" width="17" height="17" viewBox="0 0 17 17">
  <g id="tag_13" transform="translate(-390 -4794)">
    <circle id="Эллипс_4" data-name="Эллипс 4" cx="8.5" cy="8.5" r="8.5" transform="translate(390 4794)" fill="#fff8f5"/>
    <path id="chart-line" d="M10.278,70.631H1.326v-6.3A.331.331,0,0,0,.995,64H.332A.331.331,0,0,0,0,64.332v6.963a.663.663,0,0,0,.663.663h9.615a.331.331,0,0,0,.332-.332v-.663A.331.331,0,0,0,10.278,70.631Zm-.663-5.968H7.169a.5.5,0,0,0-.352.849l.671.671L5.968,67.7l-1.52-1.52a.663.663,0,0,0-.938,0L2.086,67.607a.332.332,0,0,0,0,.469l.469.469a.332.332,0,0,0,.469,0l.954-.955L5.5,69.11a.663.663,0,0,0,.938,0l1.989-1.989.671.671a.5.5,0,0,0,.849-.352V64.995A.331.331,0,0,0,9.615,64.663Z" transform="translate(393.195 4734.521)" fill="#ff8a4c"/>
  </g>
</svg>
