<svg xmlns="http://www.w3.org/2000/svg" width="17" height="17" viewBox="0 0 17 17">
  <g id="tag_07" transform="translate(-331 -4594)">
    <circle id="Эллипс_4" data-name="Эллипс 4" cx="8.5" cy="8.5" r="8.5" transform="translate(331 4594)" fill="#e4ffee"/>
    <path id="garage" d="M2.055,8.221H8.221V5.652H2.057ZM4.367,6.68H5.909a.257.257,0,1,1,0,.514H4.367a.257.257,0,0,1,0-.514ZM2.055,5.138H8.213L8.221,3.6H2.055ZM9.8,1.879,5.434.059A.922.922,0,0,0,5.138,0a.922.922,0,0,0-.3.059L.474,1.879A.772.772,0,0,0,0,2.59V7.964a.257.257,0,0,0,.257.257H1.285a.257.257,0,0,0,.257-.257V3.6a.519.519,0,0,1,.523-.514H8.212a.519.519,0,0,1,.523.514V7.964a.257.257,0,0,0,.257.257h1.028a.257.257,0,0,0,.257-.257V2.59A.772.772,0,0,0,9.8,1.879Z" transform="translate(334.362 4597.608)" fill="#53b374"/>
  </g>
</svg>
