<svg xmlns="http://www.w3.org/2000/svg" width="17" height="17" viewBox="0 0 17 17">
  <g id="tag_16" transform="translate(-361 -4893)">
    <circle id="Эллипс_4" data-name="Эллипс 4" cx="8.5" cy="8.5" r="8.5" transform="translate(361 4893)" fill="#e4ffee"/>
    <path id="hard-hat" d="M10.446,68.875a4.179,4.179,0,0,0-2.594-3.866l-.888,1.776V64.348A.348.348,0,0,0,6.616,64H4.527a.348.348,0,0,0-.348.348v2.437L3.29,65.009A4.179,4.179,0,0,0,.7,68.875v1.393h9.75Zm.348,2.089H.348A.348.348,0,0,0,0,71.312v.7a.348.348,0,0,0,.348.348H10.794a.348.348,0,0,0,.348-.348v-.7A.348.348,0,0,0,10.794,70.964Z" transform="translate(363.929 4832.821)" fill="#53b374"/>
  </g>
</svg>
