<svg xmlns="http://www.w3.org/2000/svg" width="17" height="17" viewBox="0 0 17 17">
  <g id="tag_17" transform="translate(-337 -4926)">
    <circle id="Эллипс_4" data-name="Эллипс 4" cx="8.5" cy="8.5" r="8.5" transform="translate(337 4926)" fill="#dcf2ff"/>
    <path id="pen-alt" d="M9.392,1.4,8.257.263a.907.907,0,0,0-1.282,0L5.907,1.331,8.324,3.748,9.392,2.68A.907.907,0,0,0,9.392,1.4ZM4.732,1.01a.755.755,0,0,0-1.068,0L1.421,3.254a.3.3,0,0,0,0,.427l.427.427a.3.3,0,0,0,.427,0L4.2,2.185l.427.427L1.763,5.474A6.176,6.176,0,0,0-.007,9.158v0a.453.453,0,0,0,.5.5A6.175,6.175,0,0,0,4.181,7.892L7.9,4.176,6.334,2.613l-1.6-1.6Z" transform="translate(341.111 4929.727)" fill="#028ad9"/>
  </g>
</svg>
