<svg xmlns="http://www.w3.org/2000/svg" width="17" height="17" viewBox="0 0 17 17">
  <g id="tag_04" transform="translate(-710 -4594)">
    <circle id="Эллипс_4" data-name="Эллипс 4" cx="8.5" cy="8.5" r="8.5" transform="translate(710 4594)" fill="#fff8f5"/>
    <path id="calendar-alt" d="M0,10.357a1.072,1.072,0,0,0,1.071,1.071H8.929A1.072,1.072,0,0,0,10,10.357V4.286H0ZM7.143,5.982a.269.269,0,0,1,.268-.268H8.3a.269.269,0,0,1,.268.268v.893a.269.269,0,0,1-.268.268H7.411a.269.269,0,0,1-.268-.268Zm0,2.857a.269.269,0,0,1,.268-.268H8.3a.269.269,0,0,1,.268.268v.893A.269.269,0,0,1,8.3,10H7.411a.269.269,0,0,1-.268-.268ZM4.286,5.982a.269.269,0,0,1,.268-.268h.893a.269.269,0,0,1,.268.268v.893a.269.269,0,0,1-.268.268H4.554a.269.269,0,0,1-.268-.268Zm0,2.857a.269.269,0,0,1,.268-.268h.893a.269.269,0,0,1,.268.268v.893A.269.269,0,0,1,5.446,10H4.554a.269.269,0,0,1-.268-.268ZM1.429,5.982A.269.269,0,0,1,1.7,5.714h.893a.269.269,0,0,1,.268.268v.893a.269.269,0,0,1-.268.268H1.7a.269.269,0,0,1-.268-.268Zm0,2.857A.269.269,0,0,1,1.7,8.571h.893a.269.269,0,0,1,.268.268v.893A.269.269,0,0,1,2.589,10H1.7a.269.269,0,0,1-.268-.268Zm7.5-7.411H7.857V.357A.358.358,0,0,0,7.5,0H6.786a.358.358,0,0,0-.357.357V1.429H3.571V.357A.358.358,0,0,0,3.214,0H2.5a.358.358,0,0,0-.357.357V1.429H1.071A1.072,1.072,0,0,0,0,2.5V3.571H10V2.5A1.072,1.072,0,0,0,8.929,1.429Z" transform="translate(713.5 4596.786)" fill="#ff8a4c"/>
  </g>
</svg>
