<svg xmlns="http://www.w3.org/2000/svg" width="17" height="17" viewBox="0 0 17 17">
  <g id="tag_12" transform="translate(-361 -4759)">
    <circle id="Эллипс_4" data-name="Эллипс 4" cx="8.5" cy="8.5" r="8.5" transform="translate(361 4759)" fill="#dcf2ff"/>
    <path id="utensils" d="M4.252.309a25.006,25.006,0,0,1,.329,2.634A2.156,2.156,0,0,1,3.172,5.083l.264,4.87a.492.492,0,0,1-.491.517H1.636a.492.492,0,0,1-.491-.517l.264-4.87A2.156,2.156,0,0,1,0,2.944,24.932,24.932,0,0,1,.329.309c.065-.415.926-.421.98.022V3.22c.027.07.309.065.327,0C1.665,2.7,1.8.373,1.8.32c.067-.425.914-.425.98,0,0,.055.135,2.383.164,2.9.018.065.3.07.327,0V.332C3.323-.11,4.187-.106,4.252.309ZM6.69,6.153,6.383,9.938a.491.491,0,0,0,.489.532H8.017a.49.49,0,0,0,.491-.491V.489A.491.491,0,0,0,8.017,0C6.33,0,3.489,3.649,6.69,6.153Z" transform="translate(365.246 4762.266)" fill="#028ad9"/>
  </g>
</svg>
