<svg xmlns="http://www.w3.org/2000/svg" width="17" height="17" viewBox="0 0 17 17">
  <g id="tag_05" transform="translate(-711 -4627)">
    <circle id="Эллипс_4" data-name="Эллипс 4" cx="8.5" cy="8.5" r="8.5" transform="translate(711 4627)" fill="#dcf2ff"/>
    <path id="key" d="M9.782,3.363a3.364,3.364,0,0,1-3.99,3.3l-.459.516a.459.459,0,0,1-.343.154H4.28V8.1a.459.459,0,0,1-.459.459H3.057v.764a.459.459,0,0,1-.459.459H.459A.459.459,0,0,1,0,9.324V7.832a.459.459,0,0,1,.134-.324L3.226,4.417A3.363,3.363,0,1,1,9.782,3.363ZM6.42,2.446a.917.917,0,1,0,.917-.917A.917.917,0,0,0,6.42,2.446Z" transform="translate(714.609 4630.609)" fill="#028ad9"/>
  </g>
</svg>
