<svg id="rate_stars_01" xmlns="http://www.w3.org/2000/svg" xmlns:xlink="http://www.w3.org/1999/xlink" width="111" height="18" viewBox="0 0 111 18">
  <defs>
    <clipPath id="clip-path">
      <path id="Объединение_22" data-name="Объединение 22" d="M678.5-3220.5l-5.872,2.5.569-6.334-4.2-4.791,6.223-1.419L678.5-3236l3.278,5.456,6.222,1.419-4.2,4.791.569,6.334Zm-23,0-5.871,2.5.568-6.334-4.2-4.791,6.223-1.419L655.5-3236l3.278,5.456,6.223,1.419-4.2,4.791.568,6.334Zm-23,0-5.872,2.5.568-6.334-4.2-4.791,6.223-1.419L632.5-3236l3.277,5.456,6.223,1.419-4.2,4.791.568,6.334Zm-23,0-5.872,2.5.569-6.334-4.2-4.791,6.223-1.419L609.5-3236l3.278,5.456,6.223,1.419-4.2,4.791.568,6.334Zm-23,0-5.872,2.5.568-6.334-4.2-4.791,6.223-1.419L586.5-3236l3.277,5.456,6.223,1.419-4.2,4.791.568,6.334Z" transform="translate(-41 5275)" fill="#fff" stroke="#707070" stroke-width="1"/>
    </clipPath>
  </defs>
  <g id="Объединение_21" data-name="Объединение 21" transform="translate(-577 3236)" fill="#fff">
    <path d="M 614.7988891601562 -3218.7861328125 L 609.6954345703125 -3220.95556640625 L 609.4998168945312 -3221.03857421875 L 609.30419921875 -3220.95556640625 L 604.200927734375 -3218.7861328125 L 604.6950073242188 -3224.2890625 L 604.7141723632812 -3224.502197265625 L 604.5731201171875 -3224.663330078125 L 600.9287719726562 -3228.823486328125 L 606.3341064453125 -3230.05615234375 L 606.5418090820312 -3230.103515625 L 606.6515502929688 -3230.2861328125 L 609.4998779296875 -3235.028564453125 L 612.3489990234375 -3230.2861328125 L 612.4586791992188 -3230.103515625 L 612.6663818359375 -3230.05615234375 L 618.07177734375 -3228.823486328125 L 614.4274291992188 -3224.663330078125 L 614.2864379882812 -3224.502197265625 L 614.3055419921875 -3224.2890625 L 614.7988891601562 -3218.7861328125 Z M 581.2012329101562 -3218.7861328125 L 581.694580078125 -3224.2890625 L 581.7136840820312 -3224.502197265625 L 581.5726928710938 -3224.6630859375 L 577.9284057617188 -3228.823486328125 L 583.333740234375 -3230.05615234375 L 583.5414428710938 -3230.103515625 L 583.651123046875 -3230.2861328125 L 586.500244140625 -3235.028564453125 L 589.3485717773438 -3230.2861328125 L 589.4583129882812 -3230.103515625 L 589.666015625 -3230.05615234375 L 595.0713500976562 -3228.823486328125 L 591.427001953125 -3224.663330078125 L 591.2860107421875 -3224.502197265625 L 591.3051147460938 -3224.2890625 L 591.7985229492188 -3218.7861328125 L 586.6959228515625 -3220.95556640625 L 586.5003051757812 -3221.03857421875 L 586.3046875 -3220.95556640625 L 581.2012329101562 -3218.7861328125 Z M 660.798828125 -3218.7861328125 L 655.6953125 -3220.95556640625 L 655.4996948242188 -3221.03857421875 L 655.3040771484375 -3220.95556640625 L 650.2015380859375 -3218.7861328125 L 650.6948852539062 -3224.2890625 L 650.7139892578125 -3224.502197265625 L 650.572998046875 -3224.6630859375 L 646.9287109375 -3228.823486328125 L 652.3340454101562 -3230.05615234375 L 652.541748046875 -3230.103515625 L 652.6514892578125 -3230.2861328125 L 655.499755859375 -3235.028564453125 L 658.3489379882812 -3230.2861328125 L 658.4586181640625 -3230.103515625 L 658.6663208007812 -3230.05615234375 L 664.0716552734375 -3228.823486328125 L 660.4273071289062 -3224.663330078125 L 660.2863159179688 -3224.502197265625 L 660.305419921875 -3224.2890625 L 660.798828125 -3218.7861328125 Z M 627.2011108398438 -3218.7861328125 L 627.6945190429688 -3224.2890625 L 627.713623046875 -3224.502197265625 L 627.5726318359375 -3224.663330078125 L 623.9282836914062 -3228.823486328125 L 629.3336181640625 -3230.05615234375 L 629.5413208007812 -3230.103515625 L 629.6510009765625 -3230.2861328125 L 632.5001831054688 -3235.028564453125 L 635.3484497070312 -3230.2861328125 L 635.4581909179688 -3230.103515625 L 635.6658935546875 -3230.05615234375 L 641.0712280273438 -3228.823486328125 L 637.4269409179688 -3224.6630859375 L 637.2859497070312 -3224.502197265625 L 637.3050537109375 -3224.2890625 L 637.7984008789062 -3218.7861328125 L 632.6958618164062 -3220.95556640625 L 632.500244140625 -3221.03857421875 L 632.3046264648438 -3220.95556640625 L 627.2011108398438 -3218.7861328125 Z M 673.201171875 -3218.7861328125 L 673.6953125 -3224.2890625 L 673.7144775390625 -3224.502197265625 L 673.5734252929688 -3224.663330078125 L 669.9282836914062 -3228.823486328125 L 675.33349609375 -3230.05615234375 L 675.5411987304688 -3230.103515625 L 675.65087890625 -3230.2861328125 L 678.5001220703125 -3235.028564453125 L 681.3493041992188 -3230.2861328125 L 681.458984375 -3230.103515625 L 681.6666870117188 -3230.05615234375 L 687.0711669921875 -3228.823486328125 L 683.4268188476562 -3224.663330078125 L 683.2857666015625 -3224.502197265625 L 683.304931640625 -3224.2890625 L 683.799072265625 -3218.7861328125 L 678.6957397460938 -3220.95556640625 L 678.5001220703125 -3221.03857421875 L 678.3045043945312 -3220.95556640625 L 673.201171875 -3218.7861328125 Z" stroke="none"/>
    <path d="M 614.226318359375 -3219.57275390625 L 613.769287109375 -3224.670654296875 L 617.143310546875 -3228.522216796875 L 612.1398315429688 -3229.66357421875 L 609.4999389648438 -3234.0576171875 L 606.8607177734375 -3229.66357421875 L 601.8572387695312 -3228.522216796875 L 605.2313232421875 -3224.670654296875 L 604.7735595703125 -3219.572998046875 L 609.4998168945312 -3221.58203125 L 614.226318359375 -3219.57275390625 M 581.7738037109375 -3219.57275390625 L 586.5003662109375 -3221.58203125 L 591.2259521484375 -3219.572998046875 L 590.7688598632812 -3224.670654296875 L 594.1428833007812 -3228.522216796875 L 589.139404296875 -3229.66357421875 L 586.5001831054688 -3234.0576171875 L 583.8602905273438 -3229.66357421875 L 578.8568725585938 -3228.522216796875 L 582.2308349609375 -3224.670654296875 L 581.7738037109375 -3219.57275390625 M 660.2262573242188 -3219.57275390625 L 659.7691650390625 -3224.670654296875 L 663.1431884765625 -3228.5224609375 L 658.1397705078125 -3229.66357421875 L 655.4998168945312 -3234.0576171875 L 652.8606567382812 -3229.66357421875 L 647.857177734375 -3228.522216796875 L 651.2311401367188 -3224.670654296875 L 650.7741088867188 -3219.572998046875 L 655.4996337890625 -3221.58203125 L 660.2262573242188 -3219.57275390625 M 627.773681640625 -3219.57275390625 L 632.5003051757812 -3221.58203125 L 637.225830078125 -3219.572998046875 L 636.768798828125 -3224.670654296875 L 640.1427612304688 -3228.522216796875 L 635.1392211914062 -3229.66357421875 L 632.5001220703125 -3234.0576171875 L 629.8601684570312 -3229.66357421875 L 624.8567504882812 -3228.5224609375 L 628.2307739257812 -3224.670654296875 L 627.773681640625 -3219.57275390625 M 683.2263793945312 -3219.572998046875 L 682.7686767578125 -3224.670654296875 L 686.1427612304688 -3228.5224609375 L 681.14013671875 -3229.66357421875 L 678.5001220703125 -3234.057861328125 L 675.8600463867188 -3229.66357421875 L 670.8568115234375 -3228.5224609375 L 674.2316284179688 -3224.670654296875 L 673.7738647460938 -3219.572998046875 L 678.5001220703125 -3221.58203125 L 683.2263793945312 -3219.572998046875 M 684.3717041015625 -3217.99951171875 L 678.5001220703125 -3220.495361328125 L 672.6285400390625 -3217.99951171875 L 673.1973266601562 -3224.333740234375 L 668.9996948242188 -3229.12451171875 L 675.2222900390625 -3230.543701171875 L 678.5001220703125 -3235.99951171875 L 681.7778930664062 -3230.543701171875 L 687.9996337890625 -3229.12451171875 L 683.8029174804688 -3224.333740234375 L 684.3717041015625 -3217.99951171875 Z M 661.371337890625 -3217.99951171875 L 655.4996948242188 -3220.495361328125 L 649.6290283203125 -3217.99951171875 L 650.1968994140625 -3224.333740234375 L 646.000244140625 -3229.12451171875 L 652.2228393554688 -3230.543701171875 L 655.4996948242188 -3235.99951171875 L 658.7775268554688 -3230.543701171875 L 665.0001220703125 -3229.12451171875 L 660.8034057617188 -3224.333740234375 L 661.371337890625 -3217.99951171875 Z M 638.3709106445312 -3217.99951171875 L 632.500244140625 -3220.495361328125 L 626.6286010742188 -3217.99951171875 L 627.196533203125 -3224.333740234375 L 622.9998168945312 -3229.12451171875 L 629.222412109375 -3230.543701171875 L 632.500244140625 -3235.99951171875 L 635.777099609375 -3230.543701171875 L 641.9996948242188 -3229.12451171875 L 637.8030395507812 -3224.333740234375 L 638.3709106445312 -3217.99951171875 Z M 615.3713989257812 -3217.99951171875 L 609.4998168945312 -3220.495361328125 L 603.6282348632812 -3217.99951171875 L 604.197021484375 -3224.333740234375 L 600.0003051757812 -3229.12451171875 L 606.222900390625 -3230.543701171875 L 609.4998168945312 -3235.99951171875 L 612.777587890625 -3230.543701171875 L 619.000244140625 -3229.12451171875 L 614.8035278320312 -3224.333740234375 L 615.3713989257812 -3217.99951171875 Z M 592.3710327148438 -3217.99951171875 L 586.5003051757812 -3220.495361328125 L 580.6287231445312 -3217.99951171875 L 581.1965942382812 -3224.333740234375 L 576.9999389648438 -3229.12451171875 L 583.2225341796875 -3230.543701171875 L 586.5003051757812 -3235.99951171875 L 589.7772216796875 -3230.543701171875 L 595.9998168945312 -3229.12451171875 L 591.8031005859375 -3224.333740234375 L 592.3710327148438 -3217.99951171875 Z" stroke="none" fill="#b6b6b6"/>
  </g>
  <g id="Группа_масок_14" data-name="Группа масок 14" transform="translate(-536 -2039)" clip-path="url(#clip-path)">
    <rect id="Прямоугольник_368" data-name="Прямоугольник 368" width="111" height="18" transform="translate(536 2039)" fill="#ffc300"/>
  </g>
</svg>
