<svg xmlns="http://www.w3.org/2000/svg" width="104" height="52" viewBox="0 0 104 52">
  <g id="developer_02" transform="translate(-1406 -343)">
    <g id="Прямоугольник_393" data-name="Прямоугольник 393" transform="translate(1406 343)" fill="#fff" stroke="#707070" stroke-width="1" opacity="0">
      <rect width="104" height="52" stroke="none"/>
      <rect x="0.5" y="0.5" width="103" height="51" fill="none"/>
    </g>
    <path id="Объединение_41" data-name="Объединение 41" d="M31.535,51.54v-2.1a1.292,1.292,0,0,0-.008-.357.412.412,0,0,0-.192-.2c-.051-.03-.133-.006-.2-.006q-2.142,0-4.285,0c-.393,0-.414.024-.416.441,0,.633,0,1.266,0,1.9v.314H24.618v-4.8H25.8V38.289l2.334-2.348c1.2,0,2.405,0,3.613,0,.353,0,.4.048.4.4q0,4.927,0,9.855v.519h1.207V51.54ZM28.761,38.2l-.779.783v7.73H29.9V39.387c0-.239,0-.478,0-.717,0-.46-.007-.466-.438-.469h-.7ZM65.229,51.539V46.72h1.194V38.264l2.3-2.314h3.922V46.709h1.226v4.818h-1.72c0-.738,0-1.471,0-2.2,0-.417-.024-.443-.413-.444q-2.143,0-4.285,0c-.355,0-.4.047-.4.4,0,.749,0,1.5,0,2.257ZM69.353,38.2l-.76.757V46.7h1.925V38.631c0-.051,0-.1,0-.154-.013-.181-.094-.271-.272-.275-.124,0-.248,0-.371,0ZM49.19,48.871v-12.3c0-.1,0-.205,0-.308.009-.245.076-.308.334-.317.085,0,.17,0,.255,0H53.83l2.076,1.8v4.976L53.94,44.464c-.666,0-1.312,0-1.957,0-.283,0-.343.065-.343.358,0,1.334,0,2.667,0,4.047ZM52.018,38.2c-.339,0-.377.039-.378.373,0,.9,0,1.809,0,2.713V42.3h1.837c0-1.285,0-2.561,0-3.836,0-.173-.1-.257-.286-.26s-.386,0-.579,0S52.215,38.2,52.018,38.2ZM0,48.87v-12.3c0-.1,0-.205,0-.308.009-.25.075-.322.328-.323,1.444,0,2.888,0,4.333,0a1.4,1.4,0,0,1,.408.118c.029.01.048.047.073.07q.663.617,1.327,1.234a.838.838,0,0,1,.27.658c-.009.992,0,1.983,0,3.024L5.58,42.078c.362.524.98.769,1.357,1.371v3.626c-.283.323-.541.654-.837.946s-.629.546-.983.849Zm2.451-2.464c0,.223.08.313.282.315q.737.009,1.475,0c.2,0,.28-.093.282-.315,0-.512,0-1.023,0-1.535V43.342H2.451C2.451,44.393,2.449,45.4,2.452,46.406Zm.267-8.2c-.176,0-.265.095-.266.281q-.006,1.309,0,2.618c0,.185.09.278.266.28q.74.009,1.479,0c.214,0,.29-.085.292-.307,0-.428,0-.856,0-1.283s0-.856,0-1.283c0-.222-.078-.3-.292-.306q-.365,0-.731,0T2.718,38.2Zm9.733,10.667V38.82c0-.1,0-.205,0-.308-.008-.222-.08-.3-.289-.31s-.442,0-.712,0l-.828.975v8.32c-.267.168-.359.5-.662.681a4.081,4.081,0,0,0-.708.689H7.575V46.723c.206,0,.407.005.608,0s.28-.089.288-.312c0-.1,0-.205,0-.308V38.251c.53-.534,1.063-1.063,1.586-1.6a1.648,1.648,0,0,0,.271-.345.754.754,0,0,1,.705-.369c.76.008,1.521.007,2.281.006H14.5c.353,0,.4.047.4.407q0,6.185,0,12.37a1.349,1.349,0,0,1-.018.152Zm4.1,0V38.133l2.165-2.179h4.839V48.867H21.13V45.809H19v3.06ZM19,38.851v4.885h2.108V38.209H19.648ZM42.556,48.869V36.557c0-.12,0-.24,0-.359,0-.165.1-.235.243-.256a1.516,1.516,0,0,1,.2,0h4.541c.051,0,.1,0,.153,0a.25.25,0,0,1,.266.282c.005.648,0,1.3,0,1.977-.906,0-1.756,0-2.607,0-.289,0-.351.062-.352.35,0,.958,0,1.917,0,2.875v7.443Zm19.2,0v-3.06c-.434-.013-.862-.012-1.292-.011-.283,0-.567,0-.854,0v3.057H57.063V38.236c.646-.65,1.31-1.312,1.966-1.982a.959.959,0,0,1,.739-.319c1.326.012,2.651.005,3.977.005a.628.628,0,0,1,.252.007.43.43,0,0,1,.188.2.685.685,0,0,1,.007.254V48.869ZM59.616,38.851v4.885h2.108V38.209H60.266ZM36.392,48.867l-2.306-2.175V38.229l2.343-2.275h2.416c.084.085.2.207.32.321q1.031.972,2.065,1.941v2.421c0,1.829-.005,3.659,0,5.488a.881.881,0,0,1-.359.829,3.661,3.661,0,0,0-.475.448c-.152.161-.311.315-.468.472l-.5.508-.481.484ZM36.853,38.2c-.245.005-.308.076-.317.333,0,.051,0,.1,0,.154v7.535a2.053,2.053,0,0,0,0,.256c.018.145.09.244.253.244H38.67V38.2h-1.1l-.434,0C37.039,38.2,36.946,38.2,36.853,38.2ZM29.81,30.367a10.565,10.565,0,0,1-.623-1.28.817.817,0,0,0-.2-.327v1.471c0,.1.005.206,0,.308a.251.251,0,0,1-.281.267c-.167.007-.335,0-.518,0V28.162h1.384l.817,1.7a9.354,9.354,0,0,1,.772-1.725c.362,0,.733,0,1.1,0,.216,0,.293.082.294.3q.006,1.026,0,2.051c0,.222-.079.3-.287.311-.167.007-.334,0-.535,0V28.663l-1.053,2.125a.957.957,0,0,1-.235.032A.7.7,0,0,1,29.81,30.367Zm10.385.041H38.4c-.049.06-.116.107-.127.164-.044.216-.186.244-.37.236-.215-.009-.432,0-.672,0l1.348-2.659h1.38l1.309,2.639c-.2.007-.362,0-.521.022a.945.945,0,0,1-.127.009A.388.388,0,0,1,40.195,30.408ZM38.8,29.657H39.7c.018-.381-.275-.6-.352-.931A1.55,1.55,0,0,0,38.8,29.657Zm7.953,1.154c-.064,0-.128-.006-.19-.005-.2,0-.4,0-.624,0V28.147h.786v1.924c.3-.087.385-.371.507-.56a11.909,11.909,0,0,0,.884-1.271c.051-.107.156-.107.262-.106.356,0,.713,0,1.092,0v2.67c-.187,0-.372.011-.555,0a.235.235,0,0,1-.239-.257c0-.479-.006-.958.006-1.437a1.054,1.054,0,0,1,.1-.3c-.1-.084-.118.026-.16.054a.357.357,0,0,0-.142.144,6.6,6.6,0,0,1-.908,1.316c-.108.163-.209.379-.366.449a.718.718,0,0,1-.291.049C46.867,30.816,46.812,30.814,46.756,30.811Zm-22.479-.22a.493.493,0,0,1-.184-.353c-.02-.511-.019-1.023,0-1.535a.672.672,0,0,1,.711-.564c.339-.01.678,0,1.017,0,.305,0,.61.009.915,0a.762.762,0,0,1,.809.777,4.237,4.237,0,0,1-.083,1.442.444.444,0,0,1-.315.344,3.235,3.235,0,0,1-.719.105c-.221.007-.443,0-.664,0-.27,0-.541,0-.81.009h-.043A1.18,1.18,0,0,1,24.278,30.591Zm1.839-.4a.74.74,0,0,0,.612-.251V29a.744.744,0,0,0-.62-.25c-.1.006-.2,0-.294,0s-.175,0-.263,0c-.7.03-.785.226-.752.819a.631.631,0,0,0,.609.616c.111,0,.222,0,.333,0l.171,0C25.98,30.188,26.049,30.189,26.117,30.193Zm7.152-.125c0-.513,0-1.026,0-1.539,0-.355.041-.391.412-.392,1,0,2,0,3.05,0a.965.965,0,0,1,.1.3c.01.684.008,1.368,0,2.051,0,.249-.074.314-.329.322-.151,0-.3,0-.469,0V28.865H34.1v1.883c-.045.026-.072.056-.1.056l-.334,0C33.231,30.808,33.264,30.743,33.269,30.068Zm8.47,0c0-.53,0-1.06,0-1.59,0-.284.064-.34.356-.345.136,0,.272,0,.461,0v.909h1.823v-.9h.7v2.644h-.674V29.86a.537.537,0,0,0-.052-.06.08.08,0,0,0-.043-.019H42.574v.964c-.045.029-.071.061-.1.061l-.335,0C41.7,30.808,41.734,30.743,41.739,30.072Zm11.828.734h-.406V28.718a6.011,6.011,0,0,1-.638.922c-.276.272-.346.683-.673.9-.055.246-.244.263-.443.263h-.976V28.163h.7v2.12l1.511-2.147c.3,0,.64,0,.979,0,.3,0,.362.057.364.337q.007,1,0,2c0,.258-.071.324-.316.334h-.1Zm-33.184,0c-.34,0-.377-.036-.379-.374,0-.751,0-1.5,0-2.274h.81v.882h.481l.878-.893h.955c.013.013.032.024.035.038s-.017.024-.028.036l-1.185,1.192,1.5,1.387h-1.12l-1-1.008h-.471c-.012.025-.037.053-.038.082,0,.188,0,.376,0,.564-.005.325-.049.365-.385.368h-.051Zm31.266-2.875v-.29h1.195c.005.286.005.288-.183.289H51.649ZM48.29,26.905a.807.807,0,0,0-.125,0c-.151.012-.3,0-.461,0a.547.547,0,0,0-.632-.418c-.4.032-.809.007-1.218.007l-.246.391h-.939c.122-.25.228-.472.338-.693.261-.523.539-1.037.778-1.569a.547.547,0,0,1,.6-.392c.187.014.374.011.562.007.084,0,.167,0,.251,0a2.337,2.337,0,0,1,.542.846c.131.287.29.561.429.845s.284.6.433.912a.322.322,0,0,1-.219.072C48.351,26.91,48.32,26.907,48.29,26.905Zm-2.174-1.147h1.017a2.21,2.21,0,0,0-.48-.94Zm-2.726-.8H41.553v1.927a4.054,4.054,0,0,1-.5.016c-.1,0-.208,0-.315,0V24.253c.109-.006.236-.018.364-.018q1.348,0,2.7,0c.352,0,.39.043.391.412,0,.734,0,1.468,0,2.243a3.883,3.883,0,0,1-.478.014c-.1,0-.212,0-.321,0Zm-9.44,1.944c-.49-.007-.979,0-1.483,0V26.3h1.556a1.144,1.144,0,0,0-.127-.245q-.716-.731-1.442-1.451c-.078-.077-.191-.117-.277-.187-.028-.023-.023-.087-.039-.157H33.2L34.43,25.49a.962.962,0,0,1,.068-.248q.286-.473.592-.932a.238.238,0,0,1,.17-.072c.216-.008.433,0,.7,0-.131.274-.224.507-.349.721-.3.51-.623,1-.911,1.52a.769.769,0,0,1-.736.431Zm-4.938,0h-.436c0-.8,0-1.554,0-2.3,0-.3.057-.361.337-.363.56,0,1.12-.014,1.679,0a4.973,4.973,0,0,1,.727.138l.313.376v1.115c-.055.046-.146.122-.235.2a.793.793,0,0,1-.571.224c-.356-.014-.712,0-1.068,0a.762.762,0,0,0-.252.006c-.1.036-.28.012-.137.25.113.188-.031.344-.255.36h-.1Zm.341-1.843c-.049.1.022.256.04.387,0,.031.015.061.026.106h1.4c0-.118.006-.218,0-.316-.015-.209-.09-.279-.31-.284s-.438-.012-.656,0a.863.863,0,0,1-.153-.009,1.088,1.088,0,0,0-.127-.01A.222.222,0,0,0,29.352,25.062Zm7.2,1.833V24.271c-.007.008,0-.007.015-.017a.08.08,0,0,1,.043-.019h3.272v2.658h-.694c0-.521,0-1.045,0-1.568,0-.306-.054-.366-.331-.369-.524-.005-1.047,0-1.589,0V26.9Zm-11.116-.007V24.251h2.619v.685H26.294a.459.459,0,0,0-.05.053.09.09,0,0,0-.015.044c0,.612,0,1.224,0,1.853Zm26.2-3.61V12.082c0-.085,0-.171,0-.256.009-.251.074-.322.327-.323q1.045-.006,2.09,0c.28,0,.336.064.337.364,0,.752,0,1.5,0,2.257V25.093ZM19.493,25.04V12.067c0-.068,0-.137,0-.205.006-.295.06-.357.342-.36.544,0,1.087,0,1.631,0,.2,0,.408-.006.612,0,.178.006.258.095.272.277,0,.034,0,.068,0,.1v11.4c-.917.558-1.819,1.141-2.688,1.773a.053.053,0,0,1-.032.008C19.6,25.061,19.548,25.045,19.493,25.04Zm28.385-3.6V5.776H50.6V22.687A19.581,19.581,0,0,0,47.878,21.443ZM23.388,5.761h2.72V21.418a25.836,25.836,0,0,0-2.72,1.268Zm3.769,5.353H29.9v8.6c0,.085,0,.171,0,.256a.224.224,0,0,1-.191.253c-.683.085-1.3.429-1.978.528a2.424,2.424,0,0,0-.577.271ZM45.99,20.737a10.288,10.288,0,0,0-1.675-.508.465.465,0,0,1-.329-.382c0-.051,0-.1,0-.154v-8.58h2.842v9.855A6.831,6.831,0,0,1,45.99,20.737Zm-4.289-1.1a6.842,6.842,0,0,0-.918-.127c-.188-.026-.375-.062-.565-.094V1.558h2.738V19.943A7.2,7.2,0,0,0,41.7,19.637ZM30.929,19.7a1.083,1.083,0,0,1-.006-.306V2.058c0-.051,0-.1,0-.154.007-.3.059-.36.34-.363.51,0,1.02,0,1.529,0,.238,0,.476-.006.714,0,.179.005.261.094.274.274,0,.068,0,.137,0,.205V19.384c-.147.041-.3.093-.451.124a.8.8,0,0,1-.223,0,.5.5,0,0,0-.362.064.355.355,0,0,1-.246.039c-.113-.009-.226-.017-.307.1a2.734,2.734,0,0,0-.824.1.434.434,0,0,1-.078,0,.17.17,0,0,0-.117.016.227.227,0,0,1-.133.074C30.957,19.908,30.95,19.773,30.929,19.7Zm3.872-.417V0h4.388V19.25c-.247.047-1.27.073-2.354.073C36.113,19.323,35.364,19.312,34.8,19.286Z" transform="translate(1421.064 343.46)" fill="#bf010f"/>
  </g>
</svg>
