<svg xmlns="http://www.w3.org/2000/svg" width="104" height="52.347" viewBox="0 0 104 52.347">
  <g id="developer_01" transform="translate(-1406 -343)">
    <g id="Прямоугольник_393" data-name="Прямоугольник 393" transform="translate(1406 343)" fill="#fff" stroke="#707070" stroke-width="1" opacity="0">
      <rect width="104" height="52" stroke="none"/>
      <rect x="0.5" y="0.5" width="103" height="51" fill="none"/>
    </g>
    <g id="Сгруппировать_5388" data-name="Сгруппировать 5388" transform="translate(-3318.935 -3633.617)">
      <path id="Контур_8891" data-name="Контур 8891" d="M288.15,200.156l-1.468.848-.583.271-1.683.79-.386-.02-.023-.006c0-.38-.009-.759-.009-1.139,0-2.9,0-5.8-.005-8.7,0-.392.144-.851-.468-1.153a5.606,5.606,0,0,0-.764.687c-.534.677-1.029,1.384-1.532,2.084q-2.23,3.1-4.455,6.209l-1.909,2.672-2.121,2.433-1.018.225q0-1.349-.01-2.7-.019-4.356-.04-8.711.014-3.118.028-6.236,4.517-1.678,9.032-3.358,4.367-1.632,8.729-3.282a1.659,1.659,0,0,1,.622,1.464q0,7.521-.014,15.042a2.475,2.475,0,0,1-1.265,2.234Z" transform="translate(4505.299 3799.778)" fill="#122f30"/>
      <path id="Контур_8892" data-name="Контур 8892" d="M221.681,165.74q-4.364,1.641-8.729,3.282-4.513,1.687-9.032,3.358a1.936,1.936,0,0,1-.3-.062q-4.413-1.645-8.824-3.3-4.36-1.641-8.714-3.3l.2-.253c1.574-.391,3.143-.8,4.723-1.168,2.66-.612,5.327-1.192,7.991-1.786l4.752-.8c2.536.1,4.93.947,7.4,1.378l1.118.2q3.577.8,7.154,1.6a12.218,12.218,0,0,1,1.406.344A4.823,4.823,0,0,1,221.681,165.74Z" transform="translate(4573.084 3815.111)" fill="#999f94"/>
      <path id="Контур_8893" data-name="Контур 8893" d="M183.481,180.97q4.356,1.651,8.714,3.3,4.408,1.659,8.824,3.3a1.938,1.938,0,0,0,.3.062q-.014,3.118-.028,6.236a6.852,6.852,0,0,0-.15.99c-.015,1.656-.007,3.312-.007,4.968q0,2.277,0,4.554c0,.34.062.72-.423.809a2.341,2.341,0,0,1-1.467-1.058c-1.035-1.421-2.09-2.826-3.138-4.237-.718-1.011-1.429-2.028-2.156-3.033q-1.941-2.686-3.9-5.361c-.186-.256-.405-.571-.736-.37-.167.1-.191.456-.253.7a1.742,1.742,0,0,0-.007.413q0,4.769,0,9.538l-1.016.016-2.487-1.267-1.469-.8a3.057,3.057,0,0,1-1.274-2.105q.012-6.047.022-12.093c0-1.032-.023-2.065-.035-3.1A2.027,2.027,0,0,1,183.481,180.97Z" transform="translate(4575.686 3799.859)" fill="#f2f5f8"/>
      <path id="Контур_8894" data-name="Контур 8894" d="M303.406,239.99a3.845,3.845,0,0,1-1.894-.208c-1.769-.63-3.558-1.206-5.339-1.8q2.227-3.1,4.455-6.209c.5-.7,1-1.408,1.532-2.084a5.611,5.611,0,0,1,.764-.687c.612.3.466.761.468,1.153.008,2.9,0,5.8,0,8.7C303.4,239.23,303.4,239.61,303.406,239.99Z" transform="translate(4485.899 3761.826)" fill="#00a4a0"/>
      <path id="Контур_8895" data-name="Контур 8895" d="M217.218,239.309l-.2.064-.481.172c-.427.12-.865.211-1.279.365a5.062,5.062,0,0,1-2.424.293q0-4.769,0-9.538a1.741,1.741,0,0,1,.008-.413c.062-.247.086-.6.253-.7.331-.2.55.114.736.37q1.949,2.68,3.9,5.361c.727,1.005,1.438,2.022,2.156,3.033Z" transform="translate(4551.908 3761.439)" fill="#122f30"/>
      <g id="Сгруппировать_5388-2" data-name="Сгруппировать 5388" transform="translate(4727.269 4009.558)">
        <path id="Объединение_28" data-name="Объединение 28" d="M9.433,12.163C9.2,11.845,7.5,9.429,6.982,8.78c-.4-.5-.746-1.059-1.122-1.587-.463-.651-.935-1.3-1.4-1.946-.211-.3-.412-.6-.621-.894-.021-.03-.071-.038-.108-.057a.294.294,0,0,0-.03.083c0,.108,0,.216,0,.324q0,2.409,0,4.817a2.617,2.617,0,0,0,0,.278c.018.167-.059.212-.214.21-.509-.007-1.019,0-1.528,0-.571,0-1.142,0-1.714,0C.011,10,.01,10,0,9.785c0-.046,0-.093,0-.139Q0,5.061,0,.475C0,.07-.044.1.368.1,1.8.1,3.24.107,4.675.1a.675.675,0,0,1,.658.36C6,1.48,6.716,2.474,7.41,3.482c.375.546.725,1.11,1.122,1.639.3.4.574.811.839,1.231.107.17.149.156.284,0,.235-.271,1.609-2.438,2.04-2.955.331-.4.571-.843.859-1.262C12.956,1.55,13.411,1,13.788.4a.541.541,0,0,1,.527-.281Q16.478.105,18.641.1a2.1,2.1,0,0,1,.324.007.165.165,0,0,1,.11.107,2.092,2.092,0,0,1,.008.323q0,2.246,0,4.493,0,2.316,0,4.631c0,.347.021.345-.273.343h-.081c-.973,0-1.945,0-2.918,0h-.148c-.315.006-.279.013-.279-.409q0-2.107,0-4.215c0-.324,0-.649,0-.973a.452.452,0,0,0-.039-.124.431.431,0,0,0-.111.079c-.141.2-.274.4-.415.595a3.489,3.489,0,0,0-.382.531,5.7,5.7,0,0,1-.614.839c-.5.681-3.163,4.385-3.443,4.775-.254.354-.5.714-.755,1.069a.109.109,0,0,1-.087.054A.133.133,0,0,1,9.433,12.163Zm20.889-2.154C30.208,10,30.094,10,29.982,10c-.432.016-.864,0-1.3,0q-2.918,0-5.835,0A2.408,2.408,0,0,1,20.79,8.789c.035-.31-.19-.543-.234-.844a21.15,21.15,0,0,1-.069-2.667c-.02-.895-.043-1.793.011-2.685a3.037,3.037,0,0,1,.335-1.433A2.189,2.189,0,0,1,22.792.007c1.312-.01,2.624,0,3.936,0,1.158,0,2.316-.017,3.473.011a3.84,3.84,0,0,1,1.125.149,1.883,1.883,0,0,1,.891.423,2.012,2.012,0,0,1,.612.938,2.63,2.63,0,0,1,.152.931c0,1.714.012,3.427-.007,5.14a2.294,2.294,0,0,1-.729,1.8,1.435,1.435,0,0,1-1.027.475,1.2,1.2,0,0,1-.638.148C30.495,10.017,30.408,10.013,30.322,10.009ZM29.257,7.223a.174.174,0,0,0,.111-.11,1.359,1.359,0,0,0,.01-.276q0-1.712,0-3.424A2.768,2.768,0,0,1,29.4,3c.033-.215.039-.22-.176-.221-.8,0-1.6,0-2.406,0s-1.6,0-2.406,0c-.23,0-.236.008-.239.228-.005.339,0,.679,0,1.018,0,.987,0,1.974,0,2.961,0,.235.007.236.223.246.062,0,.123,0,.185,0h4.4A1.382,1.382,0,0,0,29.257,7.223ZM78.308,10.01C77.639,10,76.97,10,76.3,10H75.206c-.231,0-.236-.006-.238-.224,0-.4,0-.8,0-1.2q0-4.005,0-8.01c0-.38-.047-.378.286-.377h.078q1.482,0,2.963,0c.27,0,.275.006.275.282q0,2.362,0,4.723c0,.108,0,.216,0,.324a.348.348,0,0,0,.049.109.325.325,0,0,0,.075-.052,3.156,3.156,0,0,1,.344-.419c.123-.106.173-.344.416-.278a.124.124,0,0,0,.038-.07c.024-.288.24-.445.417-.632q.645-.684,1.284-1.373a2.137,2.137,0,0,0,.364-.44,3,3,0,0,1,.479-.5c.142-.156.262-.334.4-.492.123-.138.268-.256.391-.395.14-.158.259-.335.4-.491a.713.713,0,0,1,.577-.31c.727.014,1.454.012,2.182.011q.506,0,1.013,0c.27,0,.275.006.276.281q0,2.315,0,4.63,0,2.222,0,4.445c0,.108,0,.216,0,.324s-.054.134-.145.134h-.37c-.9,0-1.79,0-2.686,0h-.117c-.325,0-.285.007-.285-.386q0-1.783,0-3.565c0-.463,0-.926,0-1.389,0-.124.022-.248.034-.372a1.414,1.414,0,0,0-.269.249c-.053.083-.266.041-.182.246.017.041-.133.153-.21.228a3.4,3.4,0,0,0-.754.835,1.394,1.394,0,0,1-.424.42,1.171,1.171,0,0,0-.43.5.274.274,0,0,1-.071.114c-.552.44-.871,1.109-1.473,1.5-.014.155-.279.147-.227.363.012.049-.117.13-.176.2a5.06,5.06,0,0,0-.794.885.4.4,0,0,1-.385.182Zm-15.186,0C62.677,10,62.231,10,61.785,10c-.249,0-.5,0-.748,0s-.249-.006-.25-.26q0-1.181,0-2.363c0-.232.007-.241.223-.238.322,0,.645.013.966.039.09.007.1-.019.105-.085,0-.108,0-.216,0-.324q0-1.9,0-3.8a.983.983,0,0,1,.086-.484,1.185,1.185,0,0,0,.094-.5A1.513,1.513,0,0,1,62.838.9,2.577,2.577,0,0,1,64.184.265,9.628,9.628,0,0,1,65.733.194c.155,0,.311,0,.466,0,1.636-.01,3.273-.009,4.909-.007h2.04c.361-.006.326-.007.326.322q0,2.316,0,4.633,0,2.293,0,4.586c0,.269-.005.273-.28.274q-1.575,0-3.15,0c-.258,0-.264-.006-.264-.245q0-3.22,0-6.439A.514.514,0,0,1,69.8,3.1c.062-.121-.007-.131-.09-.132q-.621,0-1.243,0h-2.6c-.115,0-.154.016-.106.154a1.311,1.311,0,0,1,.021.412q0,1.946,0,3.891a1.188,1.188,0,0,1-.248.964c.081.324-.165.515-.3.758a1.245,1.245,0,0,1-.483.459,2.777,2.777,0,0,1-1.543.409Zm-5.549,0q-1.867-.006-3.734,0-1.93,0-3.859,0a1.8,1.8,0,0,1-1.437-.487.381.381,0,0,1-.414-.3c-.036-.213-.266-.238-.3-.44a5.468,5.468,0,0,0-.2-.549,3.226,3.226,0,0,1-.1-.856q.014-2.268,0-4.537a3.586,3.586,0,0,1,.41-1.808A2.13,2.13,0,0,1,49.143.1a2.46,2.46,0,0,1,.9-.1c1.25.009,2.5,0,3.75,0h0c1.312,0,2.624.006,3.936,0A2.353,2.353,0,0,1,59.3.607a2.411,2.411,0,0,1,.642,1.183,2.779,2.779,0,0,1,.1.9c-.008,1.59,0,3.179-.006,4.769a3,3,0,0,1-.583,1.774,1.439,1.439,0,0,1-.39.308,2.613,2.613,0,0,1-1.482.467ZM51.3,2.779c-.081,0-.146.006-.093.131a.844.844,0,0,1,.028.317q0,1.782,0,3.563a.65.65,0,0,1-.011.274c-.091.175.01.169.127.169h2.406c.74,0,1.481,0,2.221,0,.136,0,.272-.019.408-.029a2.752,2.752,0,0,1-.044-.348q0-1.712,0-3.424a1.353,1.353,0,0,1,.013-.459c.076-.2,0-.195-.15-.195q-2.059,0-4.118,0H51.3ZM34.47,9.793c.007-.076,0-.154,0-.231q0-4.47,0-8.94c0-.442-.059-.437.3-.433h.145q1.482,0,2.965,0c.278,0,.283.005.283.273,0,.772,0,1.544,0,2.316a1.612,1.612,0,0,0,.008.323c.011.055.079.107.133.141.034.021.09.006.137.006q1.853,0,3.705,0c.28,0,.285-.006.286-.275,0-.834,0-1.667,0-2.5,0-.278.005-.283.273-.283q1.529,0,3.057,0c.267,0,.271.006.272.283q0,2.316,0,4.632,0,2.293,0,4.586c0,.312.021.316-.289.315q-1.552,0-3.1,0c-.156,0-.217-.042-.216-.209.007-1.065,0-2.131,0-3.2a.385.385,0,0,1,.028-.178c.071-.128-.023-.118-.1-.125a1.381,1.381,0,0,0-.139,0H38.484c-.335,0-.314-.006-.313.341q0,1.413,0,2.825c0,.093,0,.185,0,.278-.006.256-.007.26-.25.262-.448,0-.9,0-1.343,0-.633,0-1.266,0-1.9,0h-.008C34.51,10.009,34.455,9.948,34.47,9.793Zm61.069.212c-.031,0-.062,0-.093,0h-.911q-1.118,0-2.236,0c-.276,0-.277-.005-.281-.274,0-.2,0-.4,0-.6q0-2.8,0-5.6a2.433,2.433,0,0,1,.035-.455c.017-.087-.006-.106-.077-.107-.108,0-.216,0-.324,0H90.8q-1.033,0-2.065,0c-.255,0-.282-.016-.2-.257.045-.13-.037-.2-.037-.3,0-.694,0-1.388,0-2.083,0-.1.052-.135.142-.135h.37l10.321,0v2.78q-1.712,0-3.425,0a2.25,2.25,0,0,0-.226.022c.01.068.025.135.029.2s0,.154,0,.231q0,3.1,0,6.2c0,.062,0,.124,0,.185.01.119-.019.2-.144.2Z" transform="translate(0 0)" fill="#00a4a0"/>
        <path id="Объединение_29" data-name="Объединение 29" d="M17.73,5.49a3.022,3.022,0,0,1-1.452-.414A2.378,2.378,0,0,1,15.4,3.7a6.324,6.324,0,0,1-.13-.988,3.2,3.2,0,0,1,.314-1.453A2.023,2.023,0,0,1,16.708.2,3.146,3.146,0,0,1,18.72.132,2.122,2.122,0,0,1,20.2,1.771,3.736,3.736,0,0,1,20.3,2.9,3.262,3.262,0,0,1,19.975,4.3,2.121,2.121,0,0,1,18.491,5.4a3.149,3.149,0,0,1-.621.1A1,1,0,0,1,17.73,5.49Zm-.123-4.435a.852.852,0,0,0-.805.573A2.83,2.83,0,0,0,16.766,3.7a1.234,1.234,0,0,0,.541.649,1.15,1.15,0,0,0,1.6-.692,8.226,8.226,0,0,0,.122-.9,2.758,2.758,0,0,0-.251-1.143.8.8,0,0,0-.843-.569c-.07,0-.141,0-.212,0h-.112ZM2.563,5.493a5.964,5.964,0,0,1-.928-.158A2.344,2.344,0,0,1,.009,3.114c.007-.123,0-.247,0-.447A2.393,2.393,0,0,1,.32,1.254,2.275,2.275,0,0,1,1.815.118a4.742,4.742,0,0,1,1.943,0,.842.842,0,0,1,.251.1.164.164,0,0,1,.063.138C4.04.5,3.989.644,3.948.788c-.033.113-.029.28-.1.327s-.219-.047-.335-.056a1.32,1.32,0,0,0-.207.008.544.544,0,0,1-.337-.032c-.2-.131-.319.018-.469.026A1.209,1.209,0,0,0,1.4,1.936a1.319,1.319,0,0,0-.089.578,3.649,3.649,0,0,0,.085,1,1.578,1.578,0,0,0,1.312.97,1.919,1.919,0,0,0,1.054-.213c.153-.089.193.008.229.1.026.068,0,.154.015.229.034.182.078.362.118.543a2.793,2.793,0,0,1-.574.254,4.532,4.532,0,0,1-.889.1Zm37.52-.275c-.432-.58-.858-1.164-1.288-1.746a.476.476,0,0,0-.1-.1c-.083-.061-.169-.117-.254-.174a1.612,1.612,0,0,0-.059.3c-.006.509,0,1.019,0,1.528,0,.339-.041.379-.361.385-.1,0-.208,0-.312,0-.143,0-.286,0-.429,0-.168.008-.209-.062-.208-.217.005-.8,0-1.606,0-2.408s0-1.606,0-2.409c0-.25.007-.253.256-.257s.525,0,.787,0,.261.006.263.249c0,.54,0,1.081,0,1.621,0,.062,0,.124,0,.185a1.2,1.2,0,0,0,.023.134.4.4,0,0,0,.106-.062,3.43,3.43,0,0,0,.23-.282c.413-.575.822-1.154,1.238-1.727a.282.282,0,0,1,.186-.112c.386-.01.772-.007,1.158,0,.1,0,.138.079.081.157-.205.281-.418.556-.633.83-.262.334-.554.647-.785,1a1.307,1.307,0,0,1-.417.4c-.078.05-.125.13.01.206a3.221,3.221,0,0,1,.806.864c.35.416.678.851,1.016,1.278.028.036.072.062.094.1.072.128.136.261.2.391-.147.02-.293.051-.441.056-.114,0-.229,0-.343,0-.148,0-.3,0-.444.006h-.035A.426.426,0,0,1,40.082,5.218Zm3.654.195c-.152-.007-.3-.006-.456,0-.11,0-.22,0-.33,0-.216,0-.222-.009-.223-.243,0-.817,0-1.634,0-2.45,0-.786,0-1.572,0-2.358,0-.227.01-.211.229-.24A9.4,9.4,0,0,1,44.691.031a2.956,2.956,0,0,1,1.258.308,1.526,1.526,0,0,1,.871,1.385,1.921,1.921,0,0,1-.4,1.221A1.31,1.31,0,0,1,46,3.269a3.2,3.2,0,0,1-1.379.378c-.123.008-.246,0-.37,0-.32,0-.313-.009-.311.294,0,.416,0,.832,0,1.248,0,.142-.028.223-.182.223Zm.913-2.79a.819.819,0,0,0,.807-.561A.735.735,0,0,0,44.9,1.055a2.523,2.523,0,0,0-.444-.06.775.775,0,0,0-.463.1c-.082.076-.051.283-.056.433-.007.2,0,.4,0,.6,0,.492,0,.492.48.492h.145Zm11.224,2.79c-.133-.007-.267-.005-.4,0-.1,0-.2,0-.295,0-.213,0-.219-.009-.22-.247,0-.8,0-1.606,0-2.409h0q0-1.135,0-2.27c0-.37-.016-.367.281-.364h.1l.134,0a2.221,2.221,0,0,0,.282,0,.5.5,0,0,1,.513.293c.433.688.893,1.359,1.342,2.038a1.145,1.145,0,0,1,.08.162c.041.091.078.258.122.26.146.006.144-.159.2-.258.1-.183.176-.379.285-.556C58.662,1.469,59.041.889,59.4.3A.3.3,0,0,1,59.692.12c.291.01.583.016.874.024.017.272.048.544.049.816q.008,2.084,0,4.169c0,.274-.006.284-.279.278-.3-.006-.606-.031-.909-.048-.008-.291-.018-.583-.022-.874,0-.324-.013-.649,0-.973A4.54,4.54,0,0,1,59.5,2.1c.008-.021-.017-.055-.026-.083-.018.015-.042.027-.053.046-.156.277-.3.557-.465.831q-.377.643-.768,1.279a.542.542,0,0,1-.609.211.252.252,0,0,1-.117-.111q-.641-.982-1.278-1.968c-.024-.037-.043-.077-.064-.116a.515.515,0,0,0-.035.128q0,1.181,0,2.362c0,.17-.005.34,0,.509.006.142-.028.224-.181.224ZM48.189,5.4a.322.322,0,0,1-.271-.348c0-.786,0-1.572,0-2.358,0-.771,0-1.541,0-2.312,0-.258.007-.261.246-.265s.462,0,.694,0c.263,0,.267.007.269.29,0,.462,0,.925,0,1.387,0,.127.008.19.185.136a1.392,1.392,0,0,1,.632-.044,4.017,4.017,0,0,1,1.09.245,1.269,1.269,0,0,1,.774,1.257,3.266,3.266,0,0,1-.068.905,1.351,1.351,0,0,1-.634.805,1.978,1.978,0,0,1-1.024.307c-.555-.007-1.11,0-1.664,0-.046,0-.092,0-.138,0A.5.5,0,0,1,48.189,5.4Zm1.2-2.5c-.249.006-.253.007-.255.252,0,.308,0,.616,0,.924,0,.289.08.384.366.387a2.1,2.1,0,0,0,.437-.087.657.657,0,0,0,.627-.653.744.744,0,0,0-.416-.723,2.926,2.926,0,0,0-.564-.138l-.009.038h-.185ZM6.493,5.206c.013-.231,0-.463,0-.695q0-1.552,0-3.1c0-.253-.005-.257-.249-.259-.4,0-.8-.006-1.2,0-.157,0-.227-.044-.215-.21.019-.259.025-.518.036-.777C5.1.148,5.347.125,5.59.122c.51-.006,1.019,0,1.529,0,.679,0,1.359,0,2.038,0,.151,0,.232.036.22.207-.018.259-.022.519-.033.778-.242.015-.484.035-.727.042s-.463.008-.695,0c-.153-.006-.226.035-.218.206.013.262,0,.525,0,.787,0,1,0,2.008,0,3.012,0,.252-.006.255-.253.259-.106,0-.213,0-.319,0-.141,0-.282,0-.422,0H6.691C6.554,5.412,6.484,5.37,6.493,5.206Zm15.754.2-.688-.024c-.017-.226-.048-.451-.048-.677Q21.5,2.556,21.509.4c0-.276.006-.285.277-.28.3.006.606.031.909.048.008.291.022.582.024.873,0,.694,0,1.389,0,2.083a.366.366,0,0,0,.043.115c.035-.029.087-.051.1-.088a6.742,6.742,0,0,1,.9-1.25c.358-.5.737-.993,1.114-1.484a.608.608,0,0,1,.623-.3.762.762,0,0,0,.178.005c.033,0,.066,0,.1,0,.272.006.277.007.278.281,0,.787,0,1.574,0,2.361,0,.8,0,1.605,0,2.408,0,.229-.008.24-.227.236-.319-.006-.637-.03-.956-.046-.009-.291-.024-.581-.025-.872,0-.725,0-1.451,0-2.176a.4.4,0,0,0-.04-.119c-.035.029-.086.05-.1.087a11.275,11.275,0,0,1-1.066,1.511c-.351.508-.738.992-1.118,1.481a.725.725,0,0,1-.222.137.031.031,0,0,1-.015,0Zm-11.633,0c-.217,0-.223-.009-.224-.241,0-.817,0-1.634,0-2.452,0-.786,0-1.573,0-2.359,0-.227.007-.232.228-.235a11.883,11.883,0,0,1,1.5-.1,5.788,5.788,0,0,1,1.036.107,1.6,1.6,0,0,1,1.319,1.6,1.93,1.93,0,0,1-.18.879,1.524,1.524,0,0,1-1.086.862,4.434,4.434,0,0,1-1.342.179c-.27-.012-.271,0-.268.288q.006.6,0,1.2c0,.26-.007.263-.245.267q-.193,0-.386,0Q10.79,5.412,10.613,5.408Zm1.053-4.322c-.079.05-.054.275-.066.422-.009.107,0,.214,0,.321h-.02l.064.765c.243.009.485.03.727.024a.8.8,0,0,0,.8-.832.7.7,0,0,0-.686-.734,2.939,2.939,0,0,0-.314-.027c-.04,0-.081,0-.122,0h-.059A.609.609,0,0,0,11.667,1.086Zm41.6,4.324c-.246,0-.493,0-.739,0-.116,0-.166-.055-.163-.168,0-.077,0-.154,0-.231q0-2.24,0-4.48c0-.062,0-.123,0-.185.009-.218.01-.225.24-.225.306,0,.612.014.918.021.018.3.046.6.05.906.008.57,0,1.139,0,1.709,0,.785,0,1.57,0,2.356,0,.269,0,.3-.223.3ZM32.005,5.4c-.042,0-.115-.1-.116-.15-.007-.849-.011-1.7,0-2.548a4.994,4.994,0,0,1,.086-.579c0-.036-.026-.076-.041-.115a.478.478,0,0,0-.039.079,4.965,4.965,0,0,1-.651,1.183c-.187.309-.388.609-.582.913-.071.112-.116.231-.3.214s-.34-.013-.448-.175-.228-.354-.345-.529c-.216-.326-.44-.646-.648-.976-.1-.163-.179-.342-.269-.514-.018-.035-.042-.067-.063-.1-.011.043-.038.09-.03.13a19.155,19.155,0,0,1,.088,2.941c.01.226-.005.237-.227.233-.319-.006-.638-.028-.957-.044-.008-.291-.022-.582-.024-.873,0-.571,0-1.143,0-1.714,0-.788,0-1.575,0-2.363,0-.286.005-.291.266-.293.293,0,.586,0,.879.008.156.238.32.472.468.715a21.413,21.413,0,0,1,1.261,2.039c.012.027.026.053.039.08a.674.674,0,0,0,.06-.1,11.392,11.392,0,0,1,1.037-1.79c.162-.271.343-.531.5-.8.049-.084.08-.153.2-.149.138,0,.276,0,.415,0s.248,0,.373,0a.234.234,0,0,1,.255.26q0,.116,0,.232,0,2.154,0,4.309c0,.077,0,.154,0,.232a.219.219,0,0,1-.216.249q-.216.008-.432.008Q32.275,5.411,32.005,5.4Z" transform="translate(19.443 13.406)" fill="#122f30" stroke="rgba(0,0,0,0)" stroke-miterlimit="10" stroke-width="1"/>
      </g>
    </g>
  </g>
</svg>
