<svg xmlns="http://www.w3.org/2000/svg" xmlns:xlink="http://www.w3.org/1999/xlink" width="133" height="86" viewBox="0 0 133 86">
  <defs>
    <clipPath id="clip-path">
      <rect width="133" height="86" fill="none"/>
    </clipPath>
  </defs>
  <g id="Повторяющаяся_сетка_2" data-name="Повторяющаяся сетка 2" clip-path="url(#clip-path)">
    <g transform="translate(-972 -1743)">
      <circle id="Эллипс_100" data-name="Эллипс 100" cx="3.5" cy="3.5" r="3.5" transform="translate(972 1743)" fill="#53b374"/>
    </g>
    <g transform="translate(-948 -1743)">
      <circle id="Эллипс_100-2" data-name="Эллипс 100" cx="3.5" cy="3.5" r="3.5" transform="translate(972 1743)" fill="#53b374"/>
    </g>
    <g transform="translate(-924 -1743)">
      <circle id="Эллипс_100-3" data-name="Эллипс 100" cx="3.5" cy="3.5" r="3.5" transform="translate(972 1743)" fill="#53b374"/>
    </g>
    <g transform="translate(-900 -1743)">
      <circle id="Эллипс_100-4" data-name="Эллипс 100" cx="3.5" cy="3.5" r="3.5" transform="translate(972 1743)" fill="#53b374"/>
    </g>
    <g transform="translate(-876 -1743)">
      <circle id="Эллипс_100-5" data-name="Эллипс 100" cx="3.5" cy="3.5" r="3.5" transform="translate(972 1743)" fill="#53b374"/>
    </g>
    <g transform="translate(-852 -1743)">
      <circle id="Эллипс_100-6" data-name="Эллипс 100" cx="3.5" cy="3.5" r="3.5" transform="translate(972 1743)" fill="#53b374"/>
    </g>
    <g transform="translate(-972 -1719)">
      <circle id="Эллипс_100-7" data-name="Эллипс 100" cx="3.5" cy="3.5" r="3.5" transform="translate(972 1743)" fill="#53b374"/>
    </g>
    <g transform="translate(-948 -1719)">
      <circle id="Эллипс_100-8" data-name="Эллипс 100" cx="3.5" cy="3.5" r="3.5" transform="translate(972 1743)" fill="#53b374"/>
    </g>
    <g transform="translate(-924 -1719)">
      <circle id="Эллипс_100-9" data-name="Эллипс 100" cx="3.5" cy="3.5" r="3.5" transform="translate(972 1743)" fill="#53b374"/>
    </g>
    <g transform="translate(-900 -1719)">
      <circle id="Эллипс_100-10" data-name="Эллипс 100" cx="3.5" cy="3.5" r="3.5" transform="translate(972 1743)" fill="#53b374"/>
    </g>
    <g transform="translate(-876 -1719)">
      <circle id="Эллипс_100-11" data-name="Эллипс 100" cx="3.5" cy="3.5" r="3.5" transform="translate(972 1743)" fill="#53b374"/>
    </g>
    <g transform="translate(-852 -1719)">
      <circle id="Эллипс_100-12" data-name="Эллипс 100" cx="3.5" cy="3.5" r="3.5" transform="translate(972 1743)" fill="#53b374"/>
    </g>
    <g transform="translate(-972 -1695)">
      <circle id="Эллипс_100-13" data-name="Эллипс 100" cx="3.5" cy="3.5" r="3.5" transform="translate(972 1743)" fill="#53b374"/>
    </g>
    <g transform="translate(-948 -1695)">
      <circle id="Эллипс_100-14" data-name="Эллипс 100" cx="3.5" cy="3.5" r="3.5" transform="translate(972 1743)" fill="#53b374"/>
    </g>
    <g transform="translate(-924 -1695)">
      <circle id="Эллипс_100-15" data-name="Эллипс 100" cx="3.5" cy="3.5" r="3.5" transform="translate(972 1743)" fill="#53b374"/>
    </g>
    <g transform="translate(-900 -1695)">
      <circle id="Эллипс_100-16" data-name="Эллипс 100" cx="3.5" cy="3.5" r="3.5" transform="translate(972 1743)" fill="#53b374"/>
    </g>
    <g transform="translate(-876 -1695)">
      <circle id="Эллипс_100-17" data-name="Эллипс 100" cx="3.5" cy="3.5" r="3.5" transform="translate(972 1743)" fill="#53b374"/>
    </g>
    <g transform="translate(-852 -1695)">
      <circle id="Эллипс_100-18" data-name="Эллипс 100" cx="3.5" cy="3.5" r="3.5" transform="translate(972 1743)" fill="#53b374"/>
    </g>
    <g transform="translate(-972 -1671)">
      <circle id="Эллипс_100-19" data-name="Эллипс 100" cx="3.5" cy="3.5" r="3.5" transform="translate(972 1743)" fill="#53b374"/>
    </g>
    <g transform="translate(-948 -1671)">
      <circle id="Эллипс_100-20" data-name="Эллипс 100" cx="3.5" cy="3.5" r="3.5" transform="translate(972 1743)" fill="#53b374"/>
    </g>
    <g transform="translate(-924 -1671)">
      <circle id="Эллипс_100-21" data-name="Эллипс 100" cx="3.5" cy="3.5" r="3.5" transform="translate(972 1743)" fill="#53b374"/>
    </g>
    <g transform="translate(-900 -1671)">
      <circle id="Эллипс_100-22" data-name="Эллипс 100" cx="3.5" cy="3.5" r="3.5" transform="translate(972 1743)" fill="#53b374"/>
    </g>
    <g transform="translate(-876 -1671)">
      <circle id="Эллипс_100-23" data-name="Эллипс 100" cx="3.5" cy="3.5" r="3.5" transform="translate(972 1743)" fill="#53b374"/>
    </g>
    <g transform="translate(-852 -1671)">
      <circle id="Эллипс_100-24" data-name="Эллипс 100" cx="3.5" cy="3.5" r="3.5" transform="translate(972 1743)" fill="#53b374"/>
    </g>
  </g>
</svg>
