<svg xmlns="http://www.w3.org/2000/svg" width="15" height="16" viewBox="0 0 15 16">
  <path id="paperclip" d="M24.1,16a4.128,4.128,0,0,1-2.9-1.18,3.993,3.993,0,0,1,0-5.708L29.529.922a3.248,3.248,0,0,1,4.534,0,3.119,3.119,0,0,1,0,4.458l-7.075,6.957a2.337,2.337,0,0,1-3.262,0,2.244,2.244,0,0,1,0-3.208l5.412-5.322a.386.386,0,0,1,.539,0l.18.177a.371.371,0,0,1,0,.53L24.444,9.836a1.255,1.255,0,0,0,0,1.793,1.307,1.307,0,0,0,1.824,0l7.075-6.957a2.129,2.129,0,0,0,0-3.044,2.218,2.218,0,0,0-3.1,0l-8.329,8.19a3,3,0,0,0,0,4.294,3.128,3.128,0,0,0,4.367,0l6.92-6.8a.386.386,0,0,1,.539,0l.18.177a.371.371,0,0,1,0,.53l-6.92,6.8A4.128,4.128,0,0,1,24.1,16Z" transform="translate(-20 0)" fill="#4a4a4a"/>
</svg>
