<svg xmlns="http://www.w3.org/2000/svg" xmlns:xlink="http://www.w3.org/1999/xlink" width="64" height="64" viewBox="0 0 64 64">
  <defs>
    <linearGradient id="linear-gradient" y1="0.5" x2="0.962" y2="0.843" gradientUnits="objectBoundingBox">
      <stop offset="0" stop-color="#53b374"/>
      <stop offset="1" stop-color="#309d55"/>
    </linearGradient>
  </defs>
  <g id="Сгруппировать_9227" data-name="Сгруппировать 9227" transform="translate(-1170 -484)">
    <g id="Сгруппировать_9223" data-name="Сгруппировать 9223">
      <rect id="Прямоугольник_21200" data-name="Прямоугольник 21200" width="64" height="64" transform="translate(1170 484)" fill="#fff" opacity="0"/>
    </g>
    <g id="Сгруппировать_9222" data-name="Сгруппировать 9222" transform="translate(1035.953 466.237)">
      <g id="Сгруппировать_9221" data-name="Сгруппировать 9221" transform="translate(138.539 23.199)">
        <g id="Сгруппировать_9220" data-name="Сгруппировать 9220" transform="translate(0 4.484)">
          <g id="Сгруппировать_9218" data-name="Сгруппировать 9218">
            <path id="Контур_12188" data-name="Контур 12188" d="M186.839,53.314,175.228,41.683a.911.911,0,0,0-.83-.244L163.14,43.878a.923.923,0,0,0-.448.247L138.8,68.052a.9.9,0,0,0,0,1.277L159.237,89.8a.907.907,0,0,0,1.278,0L184.392,65.88l.009-.009a.9.9,0,0,0,.244-.449l2.435-11.277A.9.9,0,0,0,186.839,53.314Zm-8.949-4.264a1.128,1.128,0,1,1,0,1.594A1.129,1.129,0,0,1,177.89,49.051Z" transform="translate(-138.539 -41.419)" fill="url(#linear-gradient)"/>
            <path id="Контур_12189" data-name="Контур 12189" d="M162.774,92.15a.134.134,0,0,1-.095-.04l-.379-.38a.134.134,0,0,1,.19-.19l.379.38a.135.135,0,0,1-.1.23Zm1.254-.537a.134.134,0,0,1-.095-.23l.379-.38a.134.134,0,0,1,.19.19l-.379.38A.135.135,0,0,1,164.028,91.614Zm-2.887-1.1a.134.134,0,0,1-.1-.039l-.379-.38a.134.134,0,1,1,.19-.19l.379.38a.134.134,0,0,1-.1.229Zm4.52-.536a.135.135,0,0,1-.095-.229l.379-.38a.134.134,0,1,1,.19.19l-.379.38A.134.134,0,0,1,165.661,89.978Zm-6.152-1.1a.134.134,0,0,1-.095-.039l-.379-.38a.134.134,0,0,1,.19-.19l.379.38a.134.134,0,0,1-.1.229Zm7.785-.537a.134.134,0,0,1-.095-.229l.379-.38a.134.134,0,1,1,.19.19l-.379.38A.134.134,0,0,1,167.294,88.342Zm-9.419-1.1a.135.135,0,0,1-.095-.039l-.379-.38a.134.134,0,0,1,.19-.19l.379.38a.135.135,0,0,1-.1.229Zm11.052-.537a.134.134,0,0,1-.1-.229l.379-.38a.134.134,0,1,1,.19.19l-.379.38A.134.134,0,0,1,168.927,86.706Zm-12.685-1.1a.134.134,0,0,1-.1-.039l-.379-.38a.134.134,0,1,1,.19-.19l.379.38a.134.134,0,0,1-.095.229Zm14.318-.537a.134.134,0,0,1-.1-.229l.379-.38a.134.134,0,0,1,.19.19l-.379.38A.134.134,0,0,1,170.56,85.07Zm-15.95-1.1a.134.134,0,0,1-.095-.039l-.379-.38a.134.134,0,0,1,.19-.19l.379.38a.134.134,0,0,1-.095.229Zm17.584-.536a.134.134,0,0,1-.095-.229l.379-.38a.134.134,0,0,1,.19.19l-.379.38A.134.134,0,0,1,172.193,83.434Zm-19.217-1.1a.134.134,0,0,1-.095-.04l-.379-.38a.134.134,0,0,1,.19-.19l.379.38a.135.135,0,0,1-.1.229Zm20.85-.537a.134.134,0,0,1-.095-.229l.379-.38a.134.134,0,1,1,.19.19l-.379.38A.134.134,0,0,1,173.826,81.8Zm-22.483-1.1a.135.135,0,0,1-.1-.039l-.379-.38a.134.134,0,0,1,.19-.19l.379.38a.134.134,0,0,1-.095.229Zm24.115-.536a.134.134,0,0,1-.095-.229l.379-.38a.134.134,0,0,1,.19.19l-.379.38A.135.135,0,0,1,175.459,80.162Zm-25.748-1.1a.134.134,0,0,1-.1-.039l-.379-.38a.134.134,0,1,1,.19-.19l.379.38a.134.134,0,0,1-.1.229Zm27.381-.536A.134.134,0,0,1,177,78.3l.379-.38a.134.134,0,0,1,.19.19l-.379.38A.134.134,0,0,1,177.092,78.526Zm-29.014-1.1a.134.134,0,0,1-.095-.039l-.379-.38a.134.134,0,0,1,.19-.19l.379.38a.134.134,0,0,1-.095.229Zm30.647-.536a.135.135,0,0,1-.095-.23l.379-.38a.134.134,0,0,1,.19.19l-.379.38A.135.135,0,0,1,178.725,76.89Zm-32.281-1.1a.135.135,0,0,1-.095-.039l-.379-.38a.134.134,0,0,1,.19-.19l.379.38a.134.134,0,0,1-.1.229Zm33.914-.536a.134.134,0,0,1-.1-.229l.379-.38a.134.134,0,0,1,.19.19l-.379.38A.135.135,0,0,1,180.358,75.254Zm-35.547-1.1a.134.134,0,0,1-.095-.039l-.379-.38a.134.134,0,0,1,.19-.19l.379.38a.134.134,0,0,1-.1.229Zm37.179-.537a.134.134,0,0,1-.095-.229l.379-.38a.134.134,0,0,1,.19.19l-.379.38A.134.134,0,0,1,181.991,73.618Zm-38.812-1.1a.135.135,0,0,1-.095-.039l-.185-.185a.135.135,0,0,1,0-.19l.194-.195a.134.134,0,1,1,.19.19l-.1.1.091.09a.134.134,0,0,1-.095.229Zm40.445-.536a.135.135,0,0,1-.1-.229l.379-.38a.134.134,0,1,1,.19.19l-.379.38A.135.135,0,0,1,183.624,71.982Zm-39.183-1.1a.134.134,0,0,1-.1-.229l.379-.38a.134.134,0,1,1,.19.19l-.379.38A.134.134,0,0,1,144.441,70.883Zm40.816-.537a.134.134,0,0,1-.1-.039.135.135,0,0,1,0-.19l.379-.38a.134.134,0,1,1,.19.19l-.379.38A.135.135,0,0,1,185.257,70.346Zm-39.183-1.1a.135.135,0,0,1-.095-.229l.379-.38a.134.134,0,0,1,.19.19l-.379.38A.134.134,0,0,1,146.074,69.247Zm40.773-.56a.142.142,0,0,1-.029,0,.135.135,0,0,1-.1-.16l.113-.525a.134.134,0,1,1,.262.057l-.113.526A.135.135,0,0,1,186.847,68.687Zm-39.14-1.076a.134.134,0,0,1-.095-.229l.379-.38a.134.134,0,1,1,.19.19l-.38.38A.135.135,0,0,1,147.707,67.611Zm39.628-1.185a.138.138,0,0,1-.028,0,.134.134,0,0,1-.1-.16l.114-.525a.134.134,0,1,1,.262.057l-.114.525A.134.134,0,0,1,187.336,66.426Zm-38-.451a.134.134,0,0,1-.095-.229l.379-.38a.134.134,0,0,1,.19.19l-.379.38A.134.134,0,0,1,149.34,65.975Zm1.633-1.636a.135.135,0,0,1-.095-.229l.379-.38a.134.134,0,0,1,.19.19l-.379.38A.134.134,0,0,1,150.973,64.339Zm36.851-.174a.14.14,0,0,1-.028,0,.135.135,0,0,1-.1-.16l.113-.525a.134.134,0,1,1,.262.057l-.113.525A.134.134,0,0,1,187.824,64.165ZM152.606,62.7a.134.134,0,0,1-.095-.229l.379-.38a.134.134,0,0,1,.19.19l-.379.38A.134.134,0,0,1,152.606,62.7Zm35.706-.8-.028,0a.135.135,0,0,1-.1-.16l.113-.525a.134.134,0,1,1,.262.057l-.113.525A.135.135,0,0,1,188.312,61.9Zm-34.073-.836a.134.134,0,0,1-.095-.229l.379-.38a.134.134,0,0,1,.19.19l-.379.38A.134.134,0,0,1,154.239,61.067ZM188.8,59.642a.127.127,0,0,1-.029,0,.134.134,0,0,1-.1-.16l.113-.525a.134.134,0,1,1,.262.057l-.113.525A.134.134,0,0,1,188.8,59.642Zm-32.929-.211a.133.133,0,0,1-.095-.039.135.135,0,0,1,0-.19l.379-.38a.134.134,0,1,1,.19.19l-.379.38A.134.134,0,0,1,155.872,59.431Zm1.633-1.636a.134.134,0,0,1-.095-.229l.379-.38a.134.134,0,0,1,.19.19l-.379.38A.134.134,0,0,1,157.505,57.8Zm31.52-.337a.134.134,0,0,1-.1-.04l-.379-.38a.134.134,0,1,1,.19-.19l.379.38a.135.135,0,0,1-.095.229Zm-29.887-1.3a.134.134,0,0,1-.095-.229l.379-.38a.134.134,0,0,1,.19.19l-.379.38A.134.134,0,0,1,159.138,56.159Zm28.254-.337a.133.133,0,0,1-.095-.039l-.379-.38a.134.134,0,0,1,.19-.19l.379.38a.134.134,0,0,1-.095.229Zm-26.621-1.3a.135.135,0,0,1-.095-.229l.379-.38a.134.134,0,0,1,.19.19l-.379.38A.135.135,0,0,1,160.771,54.523Zm24.988-.337a.134.134,0,0,1-.1-.039l-.379-.38a.134.134,0,0,1,.19-.19l.379.38a.134.134,0,0,1-.095.229Zm-23.355-1.3a.134.134,0,0,1-.095-.229l.379-.38a.134.134,0,1,1,.19.19l-.379.38A.133.133,0,0,1,162.4,52.887Zm21.722-.337a.134.134,0,0,1-.095-.04l-.692-.693a.134.134,0,0,1,.19-.19l.692.693a.135.135,0,0,1-.095.229Zm-20.089-1.3a.134.134,0,0,1-.095-.229l.379-.38a.134.134,0,1,1,.19.19l-.379.38A.135.135,0,0,1,164.037,51.251Zm18.143-.65a.134.134,0,0,1-.095-.039l-.379-.38a.134.134,0,1,1,.19-.19l.379.38a.134.134,0,0,1-.1.229Zm-16.51-.986a.135.135,0,0,1-.095-.229l.379-.38a.134.134,0,0,1,.19.19l-.379.38A.134.134,0,0,1,165.67,49.615Zm14.877-.65a.134.134,0,0,1-.095-.039l-.379-.38a.134.134,0,0,1,.19-.19l.379.38a.135.135,0,0,1,0,.19A.133.133,0,0,1,180.547,48.965Zm-13.01-.554a.134.134,0,0,1-.028-.266l.525-.114a.134.134,0,0,1,.057.263l-.525.114Zm2.257-.489a.134.134,0,0,1-.028-.266l.524-.114a.134.134,0,0,1,.057.263l-.525.114A.125.125,0,0,1,169.795,47.922Zm2.257-.489a.134.134,0,0,1-.028-.266l.525-.114a.134.134,0,0,1,.056.263l-.525.114A.14.14,0,0,1,172.052,47.433Zm6.862-.1a.134.134,0,0,1-.095-.039l-.379-.38a.134.134,0,1,1,.19-.19l.379.38a.134.134,0,0,1-.095.229Zm-4.6-.386a.134.134,0,0,1-.028-.266l.525-.114a.134.134,0,0,1,.057.263l-.525.114Zm2.257-.489a.134.134,0,0,1-.028-.266l.524-.114a.134.134,0,0,1,.057.263l-.525.114A.125.125,0,0,1,176.566,46.454Z" transform="translate(-141.796 -44.927)" fill="#fff"/>
            <path id="Контур_12190" data-name="Контур 12190" d="M298.344,69.715a1.586,1.586,0,1,0,0,2.245A1.586,1.586,0,0,0,298.344,69.715Zm-1.92,1.92a1.13,1.13,0,1,1,1.6,0A1.129,1.129,0,0,1,296.424,71.635Z" transform="translate(-257.097 -62.401)" fill="#53b374"/>
          </g>
          <g id="Сгруппировать_9219" data-name="Сгруппировать 9219" transform="translate(15.159 16.669)">
            <path id="Контур_12191" data-name="Контур 12191" d="M201.325,115.468a3.045,3.045,0,1,1,.039,4.252A2.817,2.817,0,0,1,201.325,115.468Zm1.4,2.887c.729.729,1.325.768,1.775.318s.437-1.073-.292-1.8-1.324-.742-1.788-.278S202,117.627,202.728,118.355Zm3.338-7.312,1.815-1.815,4.066,14.478-1.8,1.8Zm6.358,3.894a3.045,3.045,0,1,1,.04,4.252A2.789,2.789,0,0,1,212.424,114.938Zm1.378,2.914c.742.742,1.338.755,1.8.291s.437-1.047-.3-1.789-1.325-.741-1.775-.291S213.074,117.124,213.8,117.852Z" transform="translate(-200.375 -109.229)" fill="#fff"/>
          </g>
        </g>
        <path id="Контур_12192" data-name="Контур 12192" d="M301.342,35.741a.222.222,0,0,1-.2-.31c.2-.457,4.879-11.21,9.712-12.165a3.508,3.508,0,0,1,3.25,1.089,3.194,3.194,0,0,1,1.1,2.927c-.554,3.091-5.822,6.034-10.142,7.959a.222.222,0,1,1-.181-.406c3.457-1.54,9.338-4.579,9.885-7.632a2.742,2.742,0,0,0-.971-2.531,3.049,3.049,0,0,0-2.853-.971c-4.6.909-9.343,11.795-9.39,11.9A.222.222,0,0,1,301.342,35.741Z" transform="translate(-261.231 -23.199)" fill="#ec651d"/>
      </g>
      <path id="Контур_12193" data-name="Контур 12193" d="M185.319,140.894l-23.936,23.939a.911.911,0,0,1-1.281,0l-20.484-20.487C160.321,160.656,184.781,141.323,185.319,140.894Z" transform="translate(-0.814 -88.768)" fill="#c3d3dd" opacity="0.3" style="mix-blend-mode: multiply;isolation: isolate"/>
    </g>
  </g>
</svg>
