<svg xmlns="http://www.w3.org/2000/svg" width="64" height="59.146" viewBox="0 0 64 59.146">
  <g id="Сгруппировать_9215" data-name="Сгруппировать 9215" transform="translate(-201.39 -480.829)">
    <g id="Сгруппировать_9172" data-name="Сгруппировать 9172" transform="translate(238.736 535.926)">
      <path id="Контур_12147" data-name="Контур 12147" d="M330.252,673.125c4.544,2.341,11.017,1.79,12.945,1.17s-3.3-3.512-3.3-3.512Z" transform="translate(-330.252 -670.784)" fill="#0c4878"/>
    </g>
    <g id="Сгруппировать_9173" data-name="Сгруппировать 9173" transform="translate(201.39 518.293)">
      <path id="Контур_12148" data-name="Контур 12148" d="M226.8,617.958c-14.024-10.007-22.4-7.436-24.88-3.122s3.948,9,14.6,13.129,20.863,1.859,25.729,1.4,19.808-6.45,22.194-10.581.275-10.282-6.427-8.538-19,8.355-19,8.355Z" transform="translate(-201.389 -609.942)" fill="#53b374"/>
    </g>
    <g id="Сгруппировать_9174" data-name="Сгруппировать 9174" transform="translate(204.693 523.305)">
      <path id="Контур_12149" data-name="Контур 12149" d="M239.671,637.749a.235.235,0,0,1-.09-.018c-.11-.046-.42-.216-1.109-.6-12.714-7-21.26-10.134-25.4-9.306a.234.234,0,0,1-.092-.458c4.253-.849,12.906,2.3,25.72,9.355.564.311.972.535,1.063.573a.234.234,0,0,1-.09.45Z" transform="translate(-212.79 -627.236)" fill="#399759"/>
    </g>
    <g id="Сгруппировать_9175" data-name="Сгруппировать 9175" transform="translate(227.623 521.852)">
      <path id="Контур_12150" data-name="Контур 12150" d="M292.913,639.356c-.481,0-.76,0-.776,0a.233.233,0,0,1-.227-.269,8.849,8.849,0,0,1,.725-2.5,55.735,55.735,0,0,1,9.6-7.17c5.012-3.079,12.572-6.826,20.122-7.187a.234.234,0,1,1,.022.467c-7.435.356-14.9,4.053-19.857,7.092a57.493,57.493,0,0,0-9.5,7.058,7.276,7.276,0,0,0-.606,2.048c1.568.009,9.532,0,14.547-1.1,5.627-1.235,16.764-5.661,19.309-8a.234.234,0,0,1,.316.344c-2.589,2.379-13.848,6.866-19.525,8.112C302.409,639.267,295.261,639.356,292.913,639.356Z" transform="translate(-291.907 -622.221)" fill="#399759"/>
    </g>
    <g id="Сгруппировать_9176" data-name="Сгруппировать 9176" transform="translate(211.883 498.387)">
      <path id="Контур_12151" data-name="Контур 12151" d="M281.344,563.945c-.735-4.407-6.151-17.352-9.456-19.279-2.387-1.653-11.292-3.581-12.027-3.4-.658.164-7.425.478-11.008,2.784l-.009-.029c-.061.051-.834.642-1.1.918a1.632,1.632,0,0,0-.111.13c-8.336,8.5-11.8,17.726-9.162,20.985,2.276,2.807,10.833,5.692,12.853,5.049.776-.247,14.781-.643,14.781-.643S282.079,568.352,281.344,563.945Z" transform="translate(-237.6 -541.257)" fill="#fff"/>
    </g>
    <g id="Сгруппировать_9177" data-name="Сгруппировать 9177" transform="translate(211.657 498.158)">
      <path id="Контур_12152" data-name="Контур 12152" d="M250.049,570.862c-2.919,0-10.169-2.572-12.316-5.22-1.356-1.673-1.2-4.867.43-8.765a41.944,41.944,0,0,1,8.737-12.522,1.642,1.642,0,0,1,.118-.139c.233-.24.8-.681,1.036-.869l.084-.066a.234.234,0,0,1,.136-.054c2.995-1.866,7.968-2.406,10.106-2.639.427-.046.764-.083.867-.109.819-.205,9.795,1.755,12.217,3.432,3.328,1.941,8.791,14.857,9.554,19.433a2.168,2.168,0,0,1-.459,1.685c-2.533,3.422-14.474,5.036-14.981,5.1l-.024,0c-5.616.159-14.17.458-14.717.632A2.686,2.686,0,0,1,250.049,570.862Zm-1.713-27.142c-.217.17-.774.607-.982.821-.033.035-.064.073-.094.112l-.017.02c-8.484,8.651-11.58,17.675-9.147,20.675,2.239,2.761,10.679,5.586,12.6,4.974.782-.249,13.338-.611,14.833-.653.441-.06,12.273-1.7,14.655-4.916a1.7,1.7,0,0,0,.373-1.33h0c-.732-4.392-6.163-17.261-9.343-19.116-2.327-1.61-11.159-3.532-11.853-3.372-.134.033-.434.066-.93.12-2.13.231-7.118.773-10.008,2.633A.234.234,0,0,1,248.336,543.72ZM265.548,569.9h0Z" transform="translate(-236.817 -540.465)" fill="#f3f3f3"/>
    </g>
    <g id="Сгруппировать_9178" data-name="Сгруппировать 9178" transform="translate(231.483 493.074)">
      <path id="Контур_12153" data-name="Контур 12153" d="M307.705,534.493a2.486,2.486,0,0,1-2.479-2.479V525.4a2.479,2.479,0,0,1,4.958,0v6.61A2.486,2.486,0,0,1,307.705,534.493Z" transform="translate(-305.226 -522.925)" fill="#f8c1a3"/>
    </g>
    <g id="Сгруппировать_9179" data-name="Сгруппировать 9179" transform="translate(231.483 493.074)">
      <path id="Контур_12154" data-name="Контур 12154" d="M307.705,522.925a2.486,2.486,0,0,0-2.479,2.479v4.574c2.586,2.761,3.638,2.8,4.958,1.344V525.4A2.486,2.486,0,0,0,307.705,522.925Z" transform="translate(-305.226 -522.925)" fill="#df9d7a"/>
    </g>
    <g id="Сгруппировать_9180" data-name="Сгруппировать 9180" transform="translate(226.938 491.132)">
      <path id="Контур_12155" data-name="Контур 12155" d="M291.762,517.11a1.5,1.5,0,0,1-.245,1.972c-.544.335-1.317-.006-1.726-.76a1.5,1.5,0,0,1,.245-1.973C290.581,516.015,291.353,516.355,291.762,517.11Z" transform="translate(-289.545 -516.221)" fill="#f8c1a3"/>
    </g>
    <g id="Сгруппировать_9181" data-name="Сгруппировать 9181" transform="translate(238.658 491.155)">
      <path id="Контур_12156" data-name="Контур 12156" d="M330.231,517.19a1.5,1.5,0,0,0,.245,1.972c.544.335,1.317-.006,1.726-.76a1.5,1.5,0,0,0-.245-1.973C331.413,516.094,330.64,516.435,330.231,517.19Z" transform="translate(-329.984 -516.3)" fill="#f8c1a3"/>
    </g>
    <g id="Сгруппировать_9182" data-name="Сгруппировать 9182" transform="translate(228.806 486.097)">
      <path id="Контур_12157" data-name="Контур 12157" d="M306.129,504.96c0,3.375-2.215,6.111-4.947,6.111s-4.947-2.736-4.947-6.111c-1.2-5.308,2.215-6.111,4.947-6.111S307.365,499.859,306.129,504.96Z" transform="translate(-295.989 -498.849)" fill="#f8c1a3"/>
    </g>
    <g id="Сгруппировать_9183" data-name="Сгруппировать 9183" transform="translate(243.528 501.264)">
      <path id="Контур_12158" data-name="Контур 12158" d="M347.024,559.293h-.006a.234.234,0,0,1-.228-.24c.006-.213.151-5.236,1.189-7.727a.234.234,0,1,1,.431.18c-1,2.41-1.151,7.508-1.153,7.559A.234.234,0,0,1,347.024,559.293Z" transform="translate(-346.79 -551.183)" fill="#f3f3f3"/>
    </g>
    <g id="Сгруппировать_9184" data-name="Сгруппировать 9184" transform="translate(223.285 500.92)">
      <path id="Контур_12159" data-name="Контур 12159" d="M278.481,556.177a.234.234,0,0,1-.231-.2,30.658,30.658,0,0,0-1.293-5.659.234.234,0,0,1,.434-.173,30.5,30.5,0,0,1,1.323,5.771.234.234,0,0,1-.2.262Z" transform="translate(-276.939 -549.995)" fill="#f3f3f3"/>
    </g>
    <g id="Сгруппировать_9185" data-name="Сгруппировать 9185" transform="translate(248.555 518.591)">
      <path id="Контур_12160" data-name="Контур 12160" d="M364.368,612.289a.234.234,0,0,1-.115-.437,5.389,5.389,0,0,1,3.97-.777.234.234,0,0,1-.136.447,5.04,5.04,0,0,0-3.6.737A.236.236,0,0,1,364.368,612.289Z" transform="translate(-364.134 -610.971)" fill="#f3f3f3"/>
    </g>
    <g id="Сгруппировать_9186" data-name="Сгруппировать 9186" transform="translate(214.884 518.184)">
      <path id="Контур_12161" data-name="Контур 12161" d="M253.213,611.774a.233.233,0,0,1-.165-.068c-.024-.024-2.4-2.36-4.779-1.462a.233.233,0,1,1-.165-.437c2.659-1.006,5.168,1.463,5.274,1.568a.234.234,0,0,1-.165.4Z" transform="translate(-247.953 -609.566)" fill="#f3f3f3"/>
    </g>
    <g id="Сгруппировать_9192" data-name="Сгруппировать 9192" transform="translate(218.405 511.712)">
      <g id="Сгруппировать_9189" data-name="Сгруппировать 9189" transform="translate(0.275 0.275)">
        <path id="Контур_12164" data-name="Контур 12164" d="M289.093,606.453H264.58l-3.5-16.581a1.4,1.4,0,0,1,1.37-1.689h28.772a1.4,1.4,0,0,1,1.37,1.689Z" transform="translate(-261.05 -588.183)" fill="#0b60a4"/>
      </g>
      <g id="Сгруппировать_9190" data-name="Сгруппировать 9190" transform="translate(0)">
        <path id="Контур_12165" data-name="Контур 12165" d="M288.418,606.053H263.906a.275.275,0,0,1-.27-.219l-3.5-16.581a1.675,1.675,0,0,1,1.639-2.021h28.773a1.675,1.675,0,0,1,1.639,2.021l-3.5,16.581A.275.275,0,0,1,288.418,606.053Zm-24.289-.551H288.2l3.453-16.362a1.124,1.124,0,0,0-1.1-1.357H261.776a1.125,1.125,0,0,0-1.1,1.357Z" transform="translate(-260.1 -587.233)" fill="#114d7d"/>
      </g>
      <g id="Сгруппировать_9191" data-name="Сгруппировать 9191" transform="translate(13.933 8.262)">
        <path id="Контур_12166" data-name="Контур 12166" d="M310.358,618.864h-.381a1.8,1.8,0,0,1-1.762-1.277,1.567,1.567,0,0,1,1.677-1.845h.551a1.567,1.567,0,0,1,1.677,1.845A1.8,1.8,0,0,1,310.358,618.864Z" transform="translate(-308.177 -615.743)" fill="#4893ce"/>
      </g>
    </g>
    <g id="Сгруппировать_9193" data-name="Сгруппировать 9193" transform="translate(215.988 534.91)">
      <path id="Контур_12167" data-name="Контур 12167" d="M264.319,668.708c-3.994-1.928-5.1-1.859-7.918-.069s-6.335,2.134-3.718,3.167,9.777.344,10.879-.62A2.711,2.711,0,0,0,264.319,668.708Z" transform="translate(-251.762 -667.28)" fill="#0c4878"/>
    </g>
    <g id="Сгруппировать_9194" data-name="Сгруппировать 9194" transform="translate(226.999 480.829)">
      <path id="Контур_12168" data-name="Контур 12168" d="M291.851,493.9c-3.66-7.986-2.066-12.532,1.239-11.637s6.2-3.167,8.056-.9,3.994,2.548,4.132,4.545-3.787,8.951-3.994,8.814.827-6.541-.757-6.61-2.41,1.79-5.027,1.859-3.374-1.1-3.443-.413S292.608,495.558,291.851,493.9Z" transform="translate(-289.754 -480.673)" fill="#4b2721"/>
    </g>
    <g id="Сгруппировать_9195" data-name="Сгруппировать 9195" transform="translate(229.808 491.399)">
      <path id="Контур_12169" data-name="Контур 12169" d="M301.453,520.632a1.762,1.762,0,1,1,2.008-1.744A1.892,1.892,0,0,1,301.453,520.632Zm0-2.938a1.218,1.218,0,1,0,1.458,1.194A1.347,1.347,0,0,0,301.453,517.695Z" transform="translate(-299.445 -517.144)" fill="#272372"/>
    </g>
    <g id="Сгруппировать_9196" data-name="Сгруппировать 9196" transform="translate(234.168 491.399)">
      <path id="Контур_12170" data-name="Контур 12170" d="M316.5,520.632a1.762,1.762,0,1,1,2.008-1.744A1.892,1.892,0,0,1,316.5,520.632Zm0-2.938a1.218,1.218,0,1,0,1.457,1.194A1.347,1.347,0,0,0,316.5,517.695Z" transform="translate(-314.492 -517.144)" fill="#272372"/>
    </g>
    <g id="Сгруппировать_9197" data-name="Сгруппировать 9197" transform="translate(237.657 490.458)">
      <path id="Контур_12171" data-name="Контур 12171" d="M326.805,516.627a.275.275,0,0,1-.225-.434l1.538-2.181a.275.275,0,1,1,.45.318l-1.538,2.18A.274.274,0,0,1,326.805,516.627Z" transform="translate(-326.53 -513.896)" fill="#272372"/>
    </g>
    <g id="Сгруппировать_9198" data-name="Сгруппировать 9198" transform="translate(232.928 491.927)">
      <path id="Контур_12172" data-name="Контур 12172" d="M311.891,519.538a8.439,8.439,0,0,1-1.487-.037.276.276,0,0,1,.141-.532c.111.011.765.017,1.345.017a.275.275,0,0,1,0,.551Z" transform="translate(-310.215 -518.964)" fill="#272372"/>
    </g>
    <g id="Сгруппировать_9199" data-name="Сгруппировать 9199" transform="translate(228.568 490.734)">
      <path id="Контур_12173" data-name="Контур 12173" d="M296.661,517.418a.275.275,0,0,1-.236-.133l-1.216-2.02a.275.275,0,1,1,.472-.284L296.9,517a.275.275,0,0,1-.236.418Z" transform="translate(-295.168 -514.848)" fill="#272372"/>
    </g>
  </g>
</svg>
