<svg xmlns="http://www.w3.org/2000/svg" width="25.945" height="19.132" viewBox="0 0 25.945 19.132">
  <path id="Объединение_18" data-name="Объединение 18" d="M-7294.371,13.317c-1.294-.887-2.567-1.809-3.851-2.713q-1.453-1.023-2.909-2.038a1.484,1.484,0,0,1-.358-2.1,1.264,1.264,0,0,1,1.844-.46c.749.506,1.487,1.032,2.236,1.538a1.223,1.223,0,0,0,.374.105,1.369,1.369,0,0,0-.014-.44c-1.205-3.019-2.422-6.032-3.629-9.05a1.531,1.531,0,0,1,.7-2.04,1.249,1.249,0,0,1,1.554.413,7.373,7.373,0,0,1,.66,1.334c.551,1.323,1.083,2.656,1.623,3.984.029.071.066.138.118.244a1.438,1.438,0,0,1,2.347-.406A1.511,1.511,0,0,1-7292.585.7a1.477,1.477,0,0,1,1.328.518,4.541,4.541,0,0,1,.38-.514,1.331,1.331,0,0,1,2.249.51c.767,1.852,1.515,3.715,2.22,5.595a4.952,4.952,0,0,1-2.354,6.145,15.028,15.028,0,0,1-2.423.971,3.485,3.485,0,0,1-.965.138A3.911,3.911,0,0,1-7294.371,13.317Zm-16.561-10.284a.554.554,0,0,1,.254-.762c.719-.461,1.441-.916,2.164-1.372l6.67-4.213c.068-.043.142-.078.27-.146a2.637,2.637,0,0,0-.06,1.776c.139.4.311.783.468,1.174.095.231.189.462.3.725-.1.04-.179.081-.264.108q-4.531,1.483-9.062,2.964a.837.837,0,0,1-.26.045A.517.517,0,0,1-7310.932,3.033Z" transform="translate(7311.528 4.57)" fill="#fff" stroke="rgba(0,0,0,0)" stroke-miterlimit="10" stroke-width="1"/>
</svg>
